<svg width="296" height="141" viewBox="0 0 296 141" fill="none" xmlns="http://www.w3.org/2000/svg">
<rect width="296" height="141" fill="#F1F1F2"/>
<rect x="142" y="66.5" width="12" height="8" rx="4" fill="white"/>
<path d="M142 70.5C142 67.1953 144.672 64.5 148 64.5C151.305 64.5 154 67.1953 154 70.5C154 73.8281 151.305 76.5 148 76.5C144.672 76.5 142 73.8281 142 70.5ZM148 72.75C149.242 72.75 150.25 71.7422 150.25 70.5C150.25 69.2578 149.242 68.25 148 68.25C146.734 68.25 145.75 69.2578 145.75 70.5C145.75 71.7422 146.734 72.75 148 72.75Z" fill="#8952E0"/>
</svg>
