<svg width="296" height="141" viewBox="0 0 296 141" fill="none" xmlns="http://www.w3.org/2000/svg">
<path d="M149.875 62.375C149.875 63.4297 149.016 64.25 148 64.25C146.945 64.25 146.125 63.4297 146.125 62.375C146.125 61.3594 146.945 60.5 148 60.5C149.016 60.5 149.875 61.3594 149.875 62.375ZM149.875 78.625C149.875 79.6797 149.016 80.5 148 80.5C146.945 80.5 146.125 79.6797 146.125 78.625C146.125 77.6094 146.945 76.75 148 76.75C149.016 76.75 149.875 77.6094 149.875 78.625ZM138 70.5C138 69.4844 138.82 68.625 139.875 68.625C140.891 68.625 141.75 69.4844 141.75 70.5C141.75 71.5547 140.891 72.375 139.875 72.375C138.82 72.375 138 71.5547 138 70.5ZM158 70.5C158 71.5547 157.141 72.375 156.125 72.375C155.07 72.375 154.25 71.5547 154.25 70.5C154.25 69.4844 155.07 68.625 156.125 68.625C157.141 68.625 158 69.4844 158 70.5ZM140.891 77.5703C140.188 76.8672 140.188 75.6562 140.891 74.9531C141.633 74.2109 142.844 74.2109 143.547 74.9531C144.289 75.6562 144.289 76.8672 143.547 77.5703C142.844 78.3125 141.633 78.3125 140.891 77.5703ZM143.547 66.0859C142.844 66.8281 141.633 66.8281 140.891 66.0859C140.188 65.3828 140.188 64.1719 140.891 63.4297C141.633 62.7266 142.844 62.7266 143.547 63.4297C144.289 64.1719 144.289 65.3828 143.547 66.0859ZM152.414 74.9531C153.117 74.2109 154.328 74.2109 155.07 74.9531C155.773 75.6562 155.773 76.8672 155.07 77.5703C154.328 78.3125 153.117 78.3125 152.414 77.5703C151.672 76.8672 151.672 75.6562 152.414 74.9531Z" fill="#ABADAF"/>
</svg>
