<svg width="296" height="141" viewBox="0 0 296 141" fill="none" xmlns="http://www.w3.org/2000/svg">
<path d="M106.667 85.1668C105.614 85.1668 104.587 84.7401 103.84 83.9935C103.094 83.2468 102.667 82.2201 102.667 81.1668V66.5001C102.667 66.0868 102.854 65.7002 103.187 65.4468L115.187 56.1135C115.667 55.7402 116.347 55.7402 116.827 56.1135L128.827 65.4468C129.147 65.7002 129.347 66.0868 129.347 66.5001V81.1668C129.347 82.2201 128.92 83.2468 128.174 83.9935C127.427 84.7401 126.4 85.1668 125.347 85.1668H106.667ZM105.334 67.1535V81.1668C105.334 81.5135 105.48 81.8602 105.72 82.1135C105.974 82.3668 106.307 82.5001 106.667 82.5001H125.334C125.68 82.5001 126.027 82.3535 126.28 82.1135C126.534 81.8602 126.667 81.5268 126.667 81.1668V67.1535L116 58.8602L105.334 67.1535Z" fill="#8952E0"/>
<path d="M120 85.1668C119.267 85.1668 118.667 84.5668 118.667 83.8335V71.8335H113.334V83.8335C113.334 84.5668 112.734 85.1668 112 85.1668C111.267 85.1668 110.667 84.5668 110.667 83.8335V70.5002C110.667 69.7668 111.267 69.1668 112 69.1668H120C120.734 69.1668 121.334 69.7668 121.334 70.5002V83.8335C121.334 84.5668 120.734 85.1668 120 85.1668Z" fill="#8952E0"/>
<path d="M147 81.5C146.21 81.5 145.44 81.18 144.88 80.62C144.32 80.06 144 79.29 144 78.5V67.5C144 67.19 144.14 66.9 144.39 66.71L153.39 59.71C153.75 59.43 154.26 59.43 154.62 59.71L163.62 66.71C163.86 66.9 164.01 67.19 164.01 67.5V78.5C164.01 79.29 163.69 80.06 163.13 80.62C162.57 81.18 161.8 81.5 161.01 81.5H147ZM146 67.99V78.5C146 78.76 146.11 79.02 146.29 79.21C146.48 79.4 146.73 79.5 147 79.5H161C161.26 79.5 161.52 79.39 161.71 79.21C161.9 79.02 162 78.77 162 78.5V67.99L154 61.77L146 67.99Z" fill="#ABADAF"/>
<path d="M157 81.5C156.45 81.5 156 81.05 156 80.5V71.5H152V80.5C152 81.05 151.55 81.5 151 81.5C150.45 81.5 150 81.05 150 80.5V70.5C150 69.95 150.45 69.5 151 69.5H157C157.55 69.5 158 69.95 158 70.5V80.5C158 81.05 157.55 81.5 157 81.5Z" fill="#ABADAF"/>
<path d="M180.167 79.6668C179.509 79.6668 178.867 79.4001 178.4 78.9335C177.934 78.4668 177.667 77.8251 177.667 77.1668V68.0001C177.667 67.7418 177.784 67.5002 177.992 67.3418L185.492 61.5085C185.792 61.2752 186.217 61.2752 186.517 61.5085L194.017 67.3418C194.217 67.5002 194.342 67.7418 194.342 68.0001V77.1668C194.342 77.8251 194.075 78.4668 193.609 78.9335C193.142 79.4001 192.5 79.6668 191.842 79.6668H180.167ZM179.334 68.4085V77.1668C179.334 77.3835 179.425 77.6002 179.575 77.7585C179.734 77.9168 179.942 78.0001 180.167 78.0001H191.834C192.05 78.0001 192.267 77.9085 192.425 77.7585C192.584 77.6002 192.667 77.3918 192.667 77.1668V68.4085L186 63.2252L179.334 68.4085Z" fill="#ABADAF"/>
<path d="M188.5 79.6668C188.042 79.6668 187.667 79.2918 187.667 78.8335V71.3335H184.334V78.8335C184.334 79.2918 183.959 79.6668 183.5 79.6668C183.042 79.6668 182.667 79.2918 182.667 78.8335V70.5002C182.667 70.0418 183.042 69.6668 183.5 69.6668H188.5C188.959 69.6668 189.334 70.0418 189.334 70.5002V78.8335C189.334 79.2918 188.959 79.6668 188.5 79.6668Z" fill="#ABADAF"/>
</svg>
