<svg width="296" height="141" viewBox="0 0 296 141" fill="none" xmlns="http://www.w3.org/2000/svg">
<path d="M84.5 43C84.5 39.9624 86.9624 37.5 90 37.5H187C190.038 37.5 192.5 39.9624 192.5 43V50C192.5 53.0376 190.038 55.5 187 55.5H90C86.9624 55.5 84.5 53.0376 84.5 50V43Z" fill="white"/>
<path d="M84.5 43C84.5 39.9624 86.9624 37.5 90 37.5H187C190.038 37.5 192.5 39.9624 192.5 43V50C192.5 53.0376 190.038 55.5 187 55.5H90C86.9624 55.5 84.5 53.0376 84.5 50V43Z" stroke="#D3D4D5"/>
<path d="M97 46.625C97 48.0117 95.877 49.125 94.5 49.125C93.1133 49.125 92 48.0117 92 46.625C92 45.248 93.1133 44.125 94.5 44.125C95.877 44.125 97 45.248 97 46.625Z" fill="#ABADAF"/>
<rect x="99" y="45" width="26" height="3" rx="1.5" fill="#ABADAF"/>
<rect x="131" y="45" width="12" height="3" rx="1.5" fill="#D3D4D5"/>
<rect width="29" height="17" transform="translate(147 38)" fill="#F1F1F2"/>
<path d="M155 46.5C155 47.6094 154.102 48.5 153 48.5C151.891 48.5 151 47.6094 151 46.5C151 45.3984 151.891 44.5 153 44.5C154.102 44.5 155 45.3984 155 46.5Z" fill="#8952E0"/>
<rect x="157" y="45" width="15" height="3" rx="1.5" fill="#ABADAF"/>
<path d="M186.051 47.8242C186.229 47.9883 186.229 48.2754 186.051 48.4395C185.969 48.5215 185.859 48.5625 185.75 48.5625C185.627 48.5625 185.518 48.5215 185.436 48.4395L184 47.0039L182.551 48.4395C182.469 48.5215 182.359 48.5625 182.25 48.5625C182.127 48.5625 182.018 48.5215 181.936 48.4395C181.758 48.2754 181.758 47.9883 181.936 47.8242L183.371 46.375L181.936 44.9395C181.758 44.7754 181.758 44.4883 181.936 44.3242C182.1 44.1465 182.387 44.1465 182.551 44.3242L184 45.7598L185.436 44.3242C185.6 44.1465 185.887 44.1465 186.051 44.3242C186.229 44.4883 186.229 44.7754 186.051 44.9395L184.615 46.3887L186.051 47.8242Z" fill="#ABADAF"/>
<g clip-path="url(#clip0_99_7693)">
<path d="M147 64C147 60.6863 149.686 58 153 58H205C208.314 58 211 60.6863 211 64V98C211 101.314 208.314 104 205 104H153C149.686 104 147 101.314 147 98V64Z" fill="white"/>
<mask id="path-10-inside-1_99_7693" fill="white">
<path d="M147 58H211V75H147V58Z"/>
</mask>
<path d="M211 74H147V76H211V74Z" fill="#E7E7E8" mask="url(#path-10-inside-1_99_7693)"/>
<rect x="156" y="65" width="37" height="3" rx="1.5" fill="#D3D4D5"/>
<path d="M160 81.5C160 82.6094 159.102 83.5 158 83.5C156.891 83.5 156 82.6094 156 81.5C156 80.3984 156.891 79.5 158 79.5C159.102 79.5 160 80.3984 160 81.5Z" fill="#8952E0"/>
<rect x="164" y="80" width="20" height="3" rx="1.5" fill="#ABADAF"/>
<path d="M160 94.5C160 95.6094 159.102 96.5 158 96.5C156.891 96.5 156 95.6094 156 94.5C156 93.3984 156.891 92.5 158 92.5C159.102 92.5 160 93.3984 160 94.5Z" fill="#ABADAF"/>
<rect x="164" y="93" width="20" height="3" rx="1.5" fill="#ABADAF"/>
</g>
<path d="M147.5 64C147.5 60.9624 149.962 58.5 153 58.5H205C208.038 58.5 210.5 60.9624 210.5 64V98C210.5 101.038 208.038 103.5 205 103.5H153C149.962 103.5 147.5 101.038 147.5 98V64Z" stroke="#D3D4D5"/>
<defs>
<clipPath id="clip0_99_7693">
<path d="M147 64C147 60.6863 149.686 58 153 58H205C208.314 58 211 60.6863 211 64V98C211 101.314 208.314 104 205 104H153C149.686 104 147 101.314 147 98V64Z" fill="white"/>
</clipPath>
</defs>
</svg>
