<svg width="296" height="141" viewBox="0 0 296 141" fill="none" xmlns="http://www.w3.org/2000/svg">
<rect width="296" height="141" fill="#F1F1F2"/>
<path d="M84.5 43C84.5 39.9624 86.9624 37.5 90 37.5H187C190.038 37.5 192.5 39.9624 192.5 43V50C192.5 53.0376 190.038 55.5 187 55.5H90C86.9624 55.5 84.5 53.0376 84.5 50V43Z" fill="white"/>
<path d="M84.5 43C84.5 39.9624 86.9624 37.5 90 37.5H187C190.038 37.5 192.5 39.9624 192.5 43V50C192.5 53.0376 190.038 55.5 187 55.5H90C86.9624 55.5 84.5 53.0376 84.5 50V43Z" stroke="#D3D4D5"/>
<path d="M97 46.625C97 48.0117 95.877 49.125 94.5 49.125C93.1133 49.125 92 48.0117 92 46.625C92 45.248 93.1133 44.125 94.5 44.125C95.877 44.125 97 45.248 97 46.625Z" fill="#ABADAF"/>
<rect x="99" y="45" width="26" height="3" rx="1.5" fill="#ABADAF"/>
<rect x="131" y="45" width="12" height="3" rx="1.5" fill="#D3D4D5"/>
<rect width="29" height="17" transform="translate(147 38)" fill="#F1F1F2"/>
<path d="M155 46.5C155 47.6094 154.102 48.5 153 48.5C151.891 48.5 151 47.6094 151 46.5C151 45.3984 151.891 44.5 153 44.5C154.102 44.5 155 45.3984 155 46.5Z" fill="#8952E0"/>
<rect x="157" y="45" width="15" height="3" rx="1.5" fill="#ABADAF"/>
<path d="M186.051 47.8242C186.229 47.9883 186.229 48.2754 186.051 48.4395C185.969 48.5215 185.859 48.5625 185.75 48.5625C185.627 48.5625 185.518 48.5215 185.436 48.4395L184 47.0039L182.551 48.4395C182.469 48.5215 182.359 48.5625 182.25 48.5625C182.127 48.5625 182.018 48.5215 181.936 48.4395C181.758 48.2754 181.758 47.9883 181.936 47.8242L183.371 46.375L181.936 44.9395C181.758 44.7754 181.758 44.4883 181.936 44.3242C182.1 44.1465 182.387 44.1465 182.551 44.3242L184 45.7598L185.436 44.3242C185.6 44.1465 185.887 44.1465 186.051 44.3242C186.229 44.4883 186.229 44.7754 186.051 44.9395L184.615 46.3887L186.051 47.8242Z" fill="#ABADAF"/>
<g clip-path="url(#clip0_99_7815)">
<path d="M147 64C147 60.6863 149.686 58 153 58H205C208.314 58 211 60.6863 211 64V98C211 101.314 208.314 104 205 104H153C149.686 104 147 101.314 147 98V64Z" fill="white"/>
<mask id="path-10-inside-1_99_7815" fill="white">
<path d="M147 58H211V75H147V58Z"/>
</mask>
<path d="M211 74H147V76H211V74Z" fill="#E7E7E8" mask="url(#path-10-inside-1_99_7815)"/>
<rect x="156" y="65" width="37" height="3" rx="1.5" fill="#D3D4D5"/>
<rect width="64" height="13" transform="translate(147 75)" fill="#F1F1F2"/>
<path d="M159.875 79.125C160.285 79.125 160.625 79.4648 160.625 79.875V83.625C160.625 84.0469 160.285 84.375 159.875 84.375H156.125C155.703 84.375 155.375 84.0469 155.375 83.625V79.875C155.375 79.4648 155.703 79.125 156.125 79.125H159.875ZM159.348 81.2344C159.477 81.1055 159.477 80.9062 159.348 80.7773C159.219 80.6484 159.02 80.6484 158.891 80.7773L157.625 82.043L157.098 81.5273C156.969 81.3984 156.77 81.3984 156.641 81.5273C156.512 81.6562 156.512 81.8555 156.641 81.9844L157.391 82.7344C157.52 82.8633 157.719 82.8633 157.848 82.7344L159.348 81.2344Z" fill="#8952E0"/>
<rect x="164" y="80" width="20" height="3" rx="1.5" fill="#ABADAF"/>
<path d="M202 81.5C202 82.6094 201.102 83.5 200 83.5C198.891 83.5 198 82.6094 198 81.5C198 80.3984 198.891 79.5 200 79.5C201.102 79.5 202 80.3984 202 81.5Z" fill="#8952E0"/>
<path d="M155.375 92.875C155.375 92.4648 155.703 92.125 156.125 92.125H159.875C160.285 92.125 160.625 92.4648 160.625 92.875V96.625C160.625 97.0469 160.285 97.375 159.875 97.375H156.125C155.703 97.375 155.375 97.0469 155.375 96.625V92.875Z" fill="#D3D4D5"/>
<rect x="164" y="93" width="20" height="3" rx="1.5" fill="#ABADAF"/>
<path d="M202 94.5C202 95.6094 201.102 96.5 200 96.5C198.891 96.5 198 95.6094 198 94.5C198 93.3984 198.891 92.5 200 92.5C201.102 92.5 202 93.3984 202 94.5Z" fill="#ABADAF"/>
</g>
<path d="M147.5 64C147.5 60.9624 149.962 58.5 153 58.5H205C208.038 58.5 210.5 60.9624 210.5 64V98C210.5 101.038 208.038 103.5 205 103.5H153C149.962 103.5 147.5 101.038 147.5 98V64Z" stroke="#D3D4D5"/>
<mask id="path-19-outside-2_99_7815" maskUnits="userSpaceOnUse" x="184" y="82.5" width="9" height="10" fill="black">
<rect fill="white" x="184" y="82.5" width="9" height="10"/>
<path d="M191.25 87C191.656 87 192 87.3438 192 87.75V89.25C192 90.5 190.984 91.5 189.75 91.5H188.25C187.578 91.5 186.938 91.1875 186.547 90.6562L185.125 88.75C185.031 88.6406 185 88.5156 185 88.3906C185 88.0312 185.281 87.75 185.609 87.75C185.812 87.75 186 87.8438 186.125 88L187 89.1719V84.125C187 83.7812 187.266 83.5 187.625 83.5C187.969 83.5 188.25 83.7812 188.25 84.125V86.4531C188.375 86.3281 188.547 86.25 188.75 86.25C189.109 86.25 189.406 86.5156 189.484 86.875C189.609 86.6562 189.844 86.5 190.125 86.5C190.484 86.5 190.781 86.7656 190.859 87.125C190.969 87.0469 191.094 87 191.25 87ZM188.75 89.75V88.25C188.75 88.125 188.625 88 188.5 88C188.359 88 188.25 88.125 188.25 88.25V89.75C188.25 89.8906 188.359 90 188.5 90C188.625 90 188.75 89.8906 188.75 89.75ZM189.75 89.75V88.25C189.75 88.125 189.625 88 189.5 88C189.359 88 189.25 88.125 189.25 88.25V89.75C189.25 89.8906 189.359 90 189.5 90C189.625 90 189.75 89.8906 189.75 89.75ZM190.75 89.75V88.25C190.75 88.125 190.625 88 190.5 88C190.359 88 190.25 88.125 190.25 88.25V89.75C190.25 89.8906 190.359 90 190.5 90C190.625 90 190.75 89.8906 190.75 89.75Z"/>
</mask>
<path d="M191.25 87C191.656 87 192 87.3438 192 87.75V89.25C192 90.5 190.984 91.5 189.75 91.5H188.25C187.578 91.5 186.938 91.1875 186.547 90.6562L185.125 88.75C185.031 88.6406 185 88.5156 185 88.3906C185 88.0312 185.281 87.75 185.609 87.75C185.812 87.75 186 87.8438 186.125 88L187 89.1719V84.125C187 83.7812 187.266 83.5 187.625 83.5C187.969 83.5 188.25 83.7812 188.25 84.125V86.4531C188.375 86.3281 188.547 86.25 188.75 86.25C189.109 86.25 189.406 86.5156 189.484 86.875C189.609 86.6562 189.844 86.5 190.125 86.5C190.484 86.5 190.781 86.7656 190.859 87.125C190.969 87.0469 191.094 87 191.25 87ZM188.75 89.75V88.25C188.75 88.125 188.625 88 188.5 88C188.359 88 188.25 88.125 188.25 88.25V89.75C188.25 89.8906 188.359 90 188.5 90C188.625 90 188.75 89.8906 188.75 89.75ZM189.75 89.75V88.25C189.75 88.125 189.625 88 189.5 88C189.359 88 189.25 88.125 189.25 88.25V89.75C189.25 89.8906 189.359 90 189.5 90C189.625 90 189.75 89.8906 189.75 89.75ZM190.75 89.75V88.25C190.75 88.125 190.625 88 190.5 88C190.359 88 190.25 88.125 190.25 88.25V89.75C190.25 89.8906 190.359 90 190.5 90C190.625 90 190.75 89.8906 190.75 89.75Z" fill="#171A1D"/>
<path d="M186.547 90.6562L187.353 90.0638L187.348 90.0584L186.547 90.6562ZM185.125 88.75L185.927 88.1521L185.906 88.1249L185.884 88.0992L185.125 88.75ZM186.125 88L186.926 87.4017L186.916 87.3883L186.906 87.3753L186.125 88ZM187 89.1719L186.199 89.7702L188 92.1826V89.1719H187ZM188.25 86.4531H187.25V88.8673L188.957 87.1602L188.25 86.4531ZM189.484 86.875L188.507 87.0874L189.06 89.6324L190.353 87.3711L189.484 86.875ZM190.859 87.125L189.882 87.3374L190.205 88.8214L191.441 87.9387L190.859 87.125ZM191.25 88C191.167 88 191.106 87.9652 191.07 87.9298C191.035 87.8943 191 87.8331 191 87.75H193C193 86.7915 192.209 86 191.25 86V88ZM191 87.75V89.25H193V87.75H191ZM191 89.25C191 89.9432 190.437 90.5 189.75 90.5V92.5C191.532 92.5 193 91.0568 193 89.25H191ZM189.75 90.5H188.25V92.5H189.75V90.5ZM188.25 90.5C187.881 90.5 187.546 90.3268 187.353 90.0639L185.741 91.2486C186.329 92.0482 187.275 92.5 188.25 92.5V90.5ZM187.348 90.0584L185.927 88.1521L184.323 89.3479L185.745 91.2541L187.348 90.0584ZM185.884 88.0992C185.927 88.1493 185.96 88.2087 185.979 88.2692C185.998 88.3264 186 88.3704 186 88.3906H184C184 88.6908 184.08 89.0672 184.366 89.4008L185.884 88.0992ZM186 88.3906C186 88.5507 185.866 88.75 185.609 88.75V86.75C184.697 86.75 184 87.5118 184 88.3906H186ZM185.609 88.75C185.499 88.75 185.403 88.6979 185.344 88.6247L186.906 87.3753C186.597 86.9896 186.126 86.75 185.609 86.75V88.75ZM185.324 88.5983L186.199 89.7702L187.801 88.5736L186.926 87.4017L185.324 88.5983ZM188 89.1719V84.125H186V89.1719H188ZM188 84.125C188 84.2145 187.964 84.3102 187.891 84.3845C187.815 84.4613 187.715 84.5 187.625 84.5V82.5C186.697 82.5 186 83.2454 186 84.125H188ZM187.625 84.5C187.416 84.5 187.25 84.3335 187.25 84.125H189.25C189.25 83.229 188.521 82.5 187.625 82.5V84.5ZM187.25 84.125V86.4531H189.25V84.125H187.25ZM188.957 87.1602C188.931 87.1866 188.897 87.2104 188.857 87.2271C188.816 87.2441 188.779 87.25 188.75 87.25V85.25C188.276 85.25 187.852 85.4373 187.543 85.746L188.957 87.1602ZM188.75 87.25C188.676 87.25 188.611 87.2207 188.569 87.1846C188.53 87.1506 188.513 87.114 188.507 87.0874L190.462 86.6626C190.296 85.9016 189.637 85.25 188.75 85.25V87.25ZM190.353 87.3711C190.315 87.437 190.233 87.5 190.125 87.5V85.5C189.455 85.5 188.904 85.8755 188.616 86.3789L190.353 87.3711ZM190.125 87.5C190.051 87.5 189.986 87.4707 189.944 87.4346C189.905 87.4006 189.888 87.364 189.882 87.3374L191.837 86.9126C191.671 86.1516 191.012 85.5 190.125 85.5V87.5ZM191.441 87.9387C191.424 87.9503 191.395 87.9681 191.353 87.9819C191.311 87.9959 191.274 88 191.25 88V86C190.869 86 190.544 86.1216 190.278 86.3113L191.441 87.9387ZM189.75 89.75V88.25H187.75V89.75H189.75ZM189.75 88.25C189.75 87.8623 189.566 87.5582 189.379 87.371C189.192 87.1838 188.888 87 188.5 87V89C188.237 89 188.058 88.8787 187.965 88.7852C187.871 88.6918 187.75 88.5127 187.75 88.25H189.75ZM188.5 87C187.767 87 187.25 87.6133 187.25 88.25H189.25C189.25 88.4731 189.158 88.6518 189.044 88.77C188.925 88.8942 188.736 89 188.5 89V87ZM187.25 88.25V89.75H189.25V88.25H187.25ZM187.25 89.75C187.25 90.4429 187.807 91 188.5 91V89C188.912 89 189.25 89.3383 189.25 89.75H187.25ZM188.5 91C189.137 91 189.75 90.4826 189.75 89.75H187.75C187.75 89.514 187.856 89.3248 187.98 89.2057C188.098 89.0924 188.277 89 188.5 89V91ZM190.75 89.75V88.25H188.75V89.75H190.75ZM190.75 88.25C190.75 87.8623 190.566 87.5582 190.379 87.371C190.192 87.1838 189.888 87 189.5 87V89C189.237 89 189.058 88.8787 188.965 88.7852C188.871 88.6918 188.75 88.5127 188.75 88.25H190.75ZM189.5 87C188.767 87 188.25 87.6133 188.25 88.25H190.25C190.25 88.4731 190.158 88.6518 190.044 88.77C189.925 88.8942 189.736 89 189.5 89V87ZM188.25 88.25V89.75H190.25V88.25H188.25ZM188.25 89.75C188.25 90.4429 188.807 91 189.5 91V89C189.912 89 190.25 89.3383 190.25 89.75H188.25ZM189.5 91C190.137 91 190.75 90.4826 190.75 89.75H188.75C188.75 89.514 188.856 89.3248 188.98 89.2057C189.098 89.0924 189.277 89 189.5 89V91ZM191.75 89.75V88.25H189.75V89.75H191.75ZM191.75 88.25C191.75 87.8623 191.566 87.5582 191.379 87.371C191.192 87.1838 190.888 87 190.5 87V89C190.237 89 190.058 88.8787 189.965 88.7852C189.871 88.6918 189.75 88.5127 189.75 88.25H191.75ZM190.5 87C189.767 87 189.25 87.6133 189.25 88.25H191.25C191.25 88.4731 191.158 88.6518 191.044 88.77C190.925 88.8942 190.736 89 190.5 89V87ZM189.25 88.25V89.75H191.25V88.25H189.25ZM189.25 89.75C189.25 90.4429 189.807 91 190.5 91V89C190.912 89 191.25 89.3383 191.25 89.75H189.25ZM190.5 91C191.137 91 191.75 90.4826 191.75 89.75H189.75C189.75 89.514 189.856 89.3248 189.98 89.2057C190.098 89.0924 190.277 89 190.5 89V91Z" fill="white" mask="url(#path-19-outside-2_99_7815)"/>
<defs>
<clipPath id="clip0_99_7815">
<path d="M147 64C147 60.6863 149.686 58 153 58H205C208.314 58 211 60.6863 211 64V98C211 101.314 208.314 104 205 104H153C149.686 104 147 101.314 147 98V64Z" fill="white"/>
</clipPath>
</defs>
</svg>
