<svg width="296" height="141" viewBox="0 0 296 141" fill="none" xmlns="http://www.w3.org/2000/svg">
<rect width="296" height="141" fill="#F1F1F2"/>
<g clip-path="url(#clip0_99_7286)">
<path d="M100 47C100 43.6863 102.686 41 106 41H190C193.314 41 196 43.6863 196 47V94C196 97.3137 193.314 100 190 100H106C102.686 100 100 97.3137 100 94V47Z" fill="white"/>
<rect x="109" y="50" width="37" height="3" rx="1.5" fill="#ABADAF"/>
<path d="M187.051 52.8242C187.229 52.9883 187.229 53.2754 187.051 53.4395C186.969 53.5215 186.859 53.5625 186.75 53.5625C186.627 53.5625 186.518 53.5215 186.436 53.4395L185 52.0039L183.551 53.4395C183.469 53.5215 183.359 53.5625 183.25 53.5625C183.127 53.5625 183.018 53.5215 182.936 53.4395C182.758 53.2754 182.758 52.9883 182.936 52.8242L184.371 51.375L182.936 49.9395C182.758 49.7754 182.758 49.4883 182.936 49.3242C183.1 49.1465 183.387 49.1465 183.551 49.3242L185 50.7598L186.436 49.3242C186.6 49.1465 186.887 49.1465 187.051 49.3242C187.229 49.4883 187.229 49.7754 187.051 49.9395L185.615 51.3887L187.051 52.8242Z" fill="#ABADAF"/>
<path d="M115.426 62.8242C115.604 62.9883 115.604 63.2754 115.426 63.4395L111.926 66.9395C111.762 67.1172 111.475 67.1172 111.311 66.9395L109.561 65.1895C109.383 65.0254 109.383 64.7383 109.561 64.5742C109.725 64.3965 110.012 64.3965 110.176 64.5742L111.611 66.0098L114.811 62.8242C114.975 62.6465 115.262 62.6465 115.426 62.8242Z" fill="#8952E0"/>
<rect x="120" y="63" width="67" height="3" rx="1.5" fill="#D3D4D5"/>
<path d="M115.426 71.8242C115.604 71.9883 115.604 72.2754 115.426 72.4395L111.926 75.9395C111.762 76.1172 111.475 76.1172 111.311 75.9395L109.561 74.1895C109.383 74.0254 109.383 73.7383 109.561 73.5742C109.725 73.3965 110.012 73.3965 110.176 73.5742L111.611 75.0098L114.811 71.8242C114.975 71.6465 115.262 71.6465 115.426 71.8242Z" fill="#8952E0"/>
<rect x="120" y="72" width="67" height="3" rx="1.5" fill="#D3D4D5"/>
<path d="M160 84C160 82.8954 160.895 82 162 82H185C186.105 82 187 82.8954 187 84V90C187 91.1046 186.105 92 185 92H162C160.895 92 160 91.1046 160 90V84Z" fill="#8952E0"/>
<rect x="164" y="86" width="19" height="2" rx="1" fill="white"/>
</g>
<path d="M100.5 47C100.5 43.9624 102.962 41.5 106 41.5H190C193.038 41.5 195.5 43.9624 195.5 47V94C195.5 97.0376 193.038 99.5 190 99.5H106C102.962 99.5 100.5 97.0376 100.5 94V47Z" stroke="#D3D4D5"/>
<defs>
<clipPath id="clip0_99_7286">
<path d="M100 47C100 43.6863 102.686 41 106 41H190C193.314 41 196 43.6863 196 47V94C196 97.3137 193.314 100 190 100H106C102.686 100 100 97.3137 100 94V47Z" fill="white"/>
</clipPath>
</defs>
</svg>
