<svg width="296" height="141" viewBox="0 0 296 141" fill="none" xmlns="http://www.w3.org/2000/svg">
<rect width="296" height="141" fill="#F1F1F2"/>
<path d="M93.5 66C93.5 62.9624 95.9624 60.5 99 60.5H197C200.038 60.5 202.5 62.9624 202.5 66V75C202.5 78.0376 200.038 80.5 197 80.5H99C95.9624 80.5 93.5 78.0376 93.5 75V66Z" fill="white"/>
<path d="M93.5 66C93.5 62.9624 95.9624 60.5 99 60.5H197C200.038 60.5 202.5 62.9624 202.5 66V75C202.5 78.0376 200.038 80.5 197 80.5H99C95.9624 80.5 93.5 78.0376 93.5 75V66Z" stroke="#D3D4D5"/>
<path d="M106 70.625C106 72.0117 104.877 73.125 103.5 73.125C102.113 73.125 101 72.0117 101 70.625C101 69.248 102.113 68.125 103.5 68.125C104.877 68.125 106 69.248 106 70.625Z" fill="#ABADAF"/>
<rect x="108" y="69" width="26" height="3" rx="1.5" fill="#ABADAF"/>
<rect x="140" y="69" width="12" height="3" rx="1.5" fill="#D3D4D5"/>
<path d="M164 70.5C164 71.6094 163.102 72.5 162 72.5C160.891 72.5 160 71.6094 160 70.5C160 69.3984 160.891 68.5 162 68.5C163.102 68.5 164 69.3984 164 70.5Z" fill="#8952E0"/>
<rect x="166" y="69" width="15" height="3" rx="1.5" fill="#ABADAF"/>
<path d="M195.051 71.8242C195.229 71.9883 195.229 72.2754 195.051 72.4395C194.969 72.5215 194.859 72.5625 194.75 72.5625C194.627 72.5625 194.518 72.5215 194.436 72.4395L193 71.0039L191.551 72.4395C191.469 72.5215 191.359 72.5625 191.25 72.5625C191.127 72.5625 191.018 72.5215 190.936 72.4395C190.758 72.2754 190.758 71.9883 190.936 71.8242L192.371 70.375L190.936 68.9395C190.758 68.7754 190.758 68.4883 190.936 68.3242C191.1 68.1465 191.387 68.1465 191.551 68.3242L193 69.7598L194.436 68.3242C194.6 68.1465 194.887 68.1465 195.051 68.3242C195.229 68.4883 195.229 68.7754 195.051 68.9395L193.615 70.3887L195.051 71.8242Z" fill="#ABADAF"/>
</svg>
