<svg width="296" height="141" viewBox="0 0 296 141" fill="none" xmlns="http://www.w3.org/2000/svg">
<rect width="296" height="141" fill="#F1F1F2"/>
<path d="M84.5 43C84.5 39.9624 86.9624 37.5 90 37.5H187C190.038 37.5 192.5 39.9624 192.5 43V50C192.5 53.0376 190.038 55.5 187 55.5H90C86.9624 55.5 84.5 53.0376 84.5 50V43Z" fill="white"/>
<path d="M84.5 43C84.5 39.9624 86.9624 37.5 90 37.5H187C190.038 37.5 192.5 39.9624 192.5 43V50C192.5 53.0376 190.038 55.5 187 55.5H90C86.9624 55.5 84.5 53.0376 84.5 50V43Z" stroke="#D3D4D5"/>
<path d="M97 46.625C97 48.0117 95.877 49.125 94.5 49.125C93.1133 49.125 92 48.0117 92 46.625C92 45.248 93.1133 44.125 94.5 44.125C95.877 44.125 97 45.248 97 46.625Z" fill="#ABADAF"/>
<rect x="99" y="45" width="26" height="3" rx="1.5" fill="#ABADAF"/>
<rect x="131" y="45" width="12" height="3" rx="1.5" fill="#D3D4D5"/>
<rect width="29" height="17" transform="translate(147 38)" fill="#F1F1F2"/>
<path d="M155 46.5C155 47.6094 154.102 48.5 153 48.5C151.891 48.5 151 47.6094 151 46.5C151 45.3984 151.891 44.5 153 44.5C154.102 44.5 155 45.3984 155 46.5Z" fill="#8952E0"/>
<rect x="157" y="45" width="15" height="3" rx="1.5" fill="#ABADAF"/>
<path d="M186.051 47.8242C186.229 47.9883 186.229 48.2754 186.051 48.4395C185.969 48.5215 185.859 48.5625 185.75 48.5625C185.627 48.5625 185.518 48.5215 185.436 48.4395L184 47.0039L182.551 48.4395C182.469 48.5215 182.359 48.5625 182.25 48.5625C182.127 48.5625 182.018 48.5215 181.936 48.4395C181.758 48.2754 181.758 47.9883 181.936 47.8242L183.371 46.375L181.936 44.9395C181.758 44.7754 181.758 44.4883 181.936 44.3242C182.1 44.1465 182.387 44.1465 182.551 44.3242L184 45.7598L185.436 44.3242C185.6 44.1465 185.887 44.1465 186.051 44.3242C186.229 44.4883 186.229 44.7754 186.051 44.9395L184.615 46.3887L186.051 47.8242Z" fill="#ABADAF"/>
<g clip-path="url(#clip0_99_7721)">
<path d="M147 64C147 60.6863 149.686 58 153 58H205C208.314 58 211 60.6863 211 64V98C211 101.314 208.314 104 205 104H153C149.686 104 147 101.314 147 98V64Z" fill="white"/>
<mask id="path-10-inside-1_99_7721" fill="white">
<path d="M147 58H211V75H147V58Z"/>
</mask>
<path d="M211 74H147V76H211V74Z" fill="#E7E7E8" mask="url(#path-10-inside-1_99_7721)"/>
<rect x="156" y="65" width="37" height="3" rx="1.5" fill="#D3D4D5"/>
<rect width="64" height="13" transform="translate(147 75)" fill="#F1F1F2"/>
<path d="M159.875 79.125C160.285 79.125 160.625 79.4648 160.625 79.875V83.625C160.625 84.0469 160.285 84.375 159.875 84.375H156.125C155.703 84.375 155.375 84.0469 155.375 83.625V79.875C155.375 79.4648 155.703 79.125 156.125 79.125H159.875ZM159.348 81.2344C159.477 81.1055 159.477 80.9062 159.348 80.7773C159.219 80.6484 159.02 80.6484 158.891 80.7773L157.625 82.043L157.098 81.5273C156.969 81.3984 156.77 81.3984 156.641 81.5273C156.512 81.6562 156.512 81.8555 156.641 81.9844L157.391 82.7344C157.52 82.8633 157.719 82.8633 157.848 82.7344L159.348 81.2344Z" fill="#8952E0"/>
<rect x="164" y="80" width="20" height="3" rx="1.5" fill="#ABADAF"/>
<path d="M155.375 92.875C155.375 92.4648 155.703 92.125 156.125 92.125H159.875C160.285 92.125 160.625 92.4648 160.625 92.875V96.625C160.625 97.0469 160.285 97.375 159.875 97.375H156.125C155.703 97.375 155.375 97.0469 155.375 96.625V92.875Z" fill="#D3D4D5"/>
<rect x="164" y="93" width="20" height="3" rx="1.5" fill="#ABADAF"/>
</g>
<path d="M147.5 64C147.5 60.9624 149.962 58.5 153 58.5H205C208.038 58.5 210.5 60.9624 210.5 64V98C210.5 101.038 208.038 103.5 205 103.5H153C149.962 103.5 147.5 101.038 147.5 98V64Z" stroke="#D3D4D5"/>
<mask id="path-17-outside-2_99_7721" maskUnits="userSpaceOnUse" x="188" y="82.5" width="9" height="10" fill="black">
<rect fill="white" x="188" y="82.5" width="9" height="10"/>
<path d="M195.25 87C195.656 87 196 87.3438 196 87.75V89.25C196 90.5 194.984 91.5 193.75 91.5H192.25C191.578 91.5 190.938 91.1875 190.547 90.6562L189.125 88.75C189.031 88.6406 189 88.5156 189 88.3906C189 88.0312 189.281 87.75 189.609 87.75C189.812 87.75 190 87.8438 190.125 88L191 89.1719V84.125C191 83.7812 191.266 83.5 191.625 83.5C191.969 83.5 192.25 83.7812 192.25 84.125V86.4531C192.375 86.3281 192.547 86.25 192.75 86.25C193.109 86.25 193.406 86.5156 193.484 86.875C193.609 86.6562 193.844 86.5 194.125 86.5C194.484 86.5 194.781 86.7656 194.859 87.125C194.969 87.0469 195.094 87 195.25 87ZM192.75 89.75V88.25C192.75 88.125 192.625 88 192.5 88C192.359 88 192.25 88.125 192.25 88.25V89.75C192.25 89.8906 192.359 90 192.5 90C192.625 90 192.75 89.8906 192.75 89.75ZM193.75 89.75V88.25C193.75 88.125 193.625 88 193.5 88C193.359 88 193.25 88.125 193.25 88.25V89.75C193.25 89.8906 193.359 90 193.5 90C193.625 90 193.75 89.8906 193.75 89.75ZM194.75 89.75V88.25C194.75 88.125 194.625 88 194.5 88C194.359 88 194.25 88.125 194.25 88.25V89.75C194.25 89.8906 194.359 90 194.5 90C194.625 90 194.75 89.8906 194.75 89.75Z"/>
</mask>
<path d="M195.25 87C195.656 87 196 87.3438 196 87.75V89.25C196 90.5 194.984 91.5 193.75 91.5H192.25C191.578 91.5 190.938 91.1875 190.547 90.6562L189.125 88.75C189.031 88.6406 189 88.5156 189 88.3906C189 88.0312 189.281 87.75 189.609 87.75C189.812 87.75 190 87.8438 190.125 88L191 89.1719V84.125C191 83.7812 191.266 83.5 191.625 83.5C191.969 83.5 192.25 83.7812 192.25 84.125V86.4531C192.375 86.3281 192.547 86.25 192.75 86.25C193.109 86.25 193.406 86.5156 193.484 86.875C193.609 86.6562 193.844 86.5 194.125 86.5C194.484 86.5 194.781 86.7656 194.859 87.125C194.969 87.0469 195.094 87 195.25 87ZM192.75 89.75V88.25C192.75 88.125 192.625 88 192.5 88C192.359 88 192.25 88.125 192.25 88.25V89.75C192.25 89.8906 192.359 90 192.5 90C192.625 90 192.75 89.8906 192.75 89.75ZM193.75 89.75V88.25C193.75 88.125 193.625 88 193.5 88C193.359 88 193.25 88.125 193.25 88.25V89.75C193.25 89.8906 193.359 90 193.5 90C193.625 90 193.75 89.8906 193.75 89.75ZM194.75 89.75V88.25C194.75 88.125 194.625 88 194.5 88C194.359 88 194.25 88.125 194.25 88.25V89.75C194.25 89.8906 194.359 90 194.5 90C194.625 90 194.75 89.8906 194.75 89.75Z" fill="#171A1D"/>
<path d="M190.547 90.6562L191.353 90.0638L191.348 90.0584L190.547 90.6562ZM189.125 88.75L189.927 88.1521L189.906 88.1249L189.884 88.0992L189.125 88.75ZM190.125 88L190.926 87.4017L190.916 87.3883L190.906 87.3753L190.125 88ZM191 89.1719L190.199 89.7702L192 92.1826V89.1719H191ZM192.25 86.4531H191.25V88.8673L192.957 87.1602L192.25 86.4531ZM193.484 86.875L192.507 87.0874L193.06 89.6324L194.353 87.3711L193.484 86.875ZM194.859 87.125L193.882 87.3374L194.205 88.8214L195.441 87.9387L194.859 87.125ZM195.25 88C195.167 88 195.106 87.9652 195.07 87.9298C195.035 87.8943 195 87.8331 195 87.75H197C197 86.7915 196.209 86 195.25 86V88ZM195 87.75V89.25H197V87.75H195ZM195 89.25C195 89.9432 194.437 90.5 193.75 90.5V92.5C195.532 92.5 197 91.0568 197 89.25H195ZM193.75 90.5H192.25V92.5H193.75V90.5ZM192.25 90.5C191.881 90.5 191.546 90.3268 191.353 90.0639L189.741 91.2486C190.329 92.0482 191.275 92.5 192.25 92.5V90.5ZM191.348 90.0584L189.927 88.1521L188.323 89.3479L189.745 91.2541L191.348 90.0584ZM189.884 88.0992C189.927 88.1493 189.96 88.2087 189.979 88.2692C189.998 88.3264 190 88.3704 190 88.3906H188C188 88.6908 188.08 89.0672 188.366 89.4008L189.884 88.0992ZM190 88.3906C190 88.5507 189.866 88.75 189.609 88.75V86.75C188.697 86.75 188 87.5118 188 88.3906H190ZM189.609 88.75C189.499 88.75 189.403 88.6979 189.344 88.6247L190.906 87.3753C190.597 86.9896 190.126 86.75 189.609 86.75V88.75ZM189.324 88.5983L190.199 89.7702L191.801 88.5736L190.926 87.4017L189.324 88.5983ZM192 89.1719V84.125H190V89.1719H192ZM192 84.125C192 84.2145 191.964 84.3102 191.891 84.3845C191.815 84.4613 191.715 84.5 191.625 84.5V82.5C190.697 82.5 190 83.2454 190 84.125H192ZM191.625 84.5C191.416 84.5 191.25 84.3335 191.25 84.125H193.25C193.25 83.229 192.521 82.5 191.625 82.5V84.5ZM191.25 84.125V86.4531H193.25V84.125H191.25ZM192.957 87.1602C192.931 87.1866 192.897 87.2104 192.857 87.2271C192.816 87.2441 192.779 87.25 192.75 87.25V85.25C192.276 85.25 191.852 85.4373 191.543 85.746L192.957 87.1602ZM192.75 87.25C192.676 87.25 192.611 87.2207 192.569 87.1846C192.53 87.1506 192.513 87.114 192.507 87.0874L194.462 86.6626C194.296 85.9016 193.637 85.25 192.75 85.25V87.25ZM194.353 87.3711C194.315 87.437 194.233 87.5 194.125 87.5V85.5C193.455 85.5 192.904 85.8755 192.616 86.3789L194.353 87.3711ZM194.125 87.5C194.051 87.5 193.986 87.4707 193.944 87.4346C193.905 87.4006 193.888 87.364 193.882 87.3374L195.837 86.9126C195.671 86.1516 195.012 85.5 194.125 85.5V87.5ZM195.441 87.9387C195.424 87.9503 195.395 87.9681 195.353 87.9819C195.311 87.9959 195.274 88 195.25 88V86C194.869 86 194.544 86.1216 194.278 86.3113L195.441 87.9387ZM193.75 89.75V88.25H191.75V89.75H193.75ZM193.75 88.25C193.75 87.8623 193.566 87.5582 193.379 87.371C193.192 87.1838 192.888 87 192.5 87V89C192.237 89 192.058 88.8787 191.965 88.7852C191.871 88.6918 191.75 88.5127 191.75 88.25H193.75ZM192.5 87C191.767 87 191.25 87.6133 191.25 88.25H193.25C193.25 88.4731 193.158 88.6518 193.044 88.77C192.925 88.8942 192.736 89 192.5 89V87ZM191.25 88.25V89.75H193.25V88.25H191.25ZM191.25 89.75C191.25 90.4429 191.807 91 192.5 91V89C192.912 89 193.25 89.3383 193.25 89.75H191.25ZM192.5 91C193.137 91 193.75 90.4826 193.75 89.75H191.75C191.75 89.514 191.856 89.3248 191.98 89.2057C192.098 89.0924 192.277 89 192.5 89V91ZM194.75 89.75V88.25H192.75V89.75H194.75ZM194.75 88.25C194.75 87.8623 194.566 87.5582 194.379 87.371C194.192 87.1838 193.888 87 193.5 87V89C193.237 89 193.058 88.8787 192.965 88.7852C192.871 88.6918 192.75 88.5127 192.75 88.25H194.75ZM193.5 87C192.767 87 192.25 87.6133 192.25 88.25H194.25C194.25 88.4731 194.158 88.6518 194.044 88.77C193.925 88.8942 193.736 89 193.5 89V87ZM192.25 88.25V89.75H194.25V88.25H192.25ZM192.25 89.75C192.25 90.4429 192.807 91 193.5 91V89C193.912 89 194.25 89.3383 194.25 89.75H192.25ZM193.5 91C194.137 91 194.75 90.4826 194.75 89.75H192.75C192.75 89.514 192.856 89.3248 192.98 89.2057C193.098 89.0924 193.277 89 193.5 89V91ZM195.75 89.75V88.25H193.75V89.75H195.75ZM195.75 88.25C195.75 87.8623 195.566 87.5582 195.379 87.371C195.192 87.1838 194.888 87 194.5 87V89C194.237 89 194.058 88.8787 193.965 88.7852C193.871 88.6918 193.75 88.5127 193.75 88.25H195.75ZM194.5 87C193.767 87 193.25 87.6133 193.25 88.25H195.25C195.25 88.4731 195.158 88.6518 195.044 88.77C194.925 88.8942 194.736 89 194.5 89V87ZM193.25 88.25V89.75H195.25V88.25H193.25ZM193.25 89.75C193.25 90.4429 193.807 91 194.5 91V89C194.912 89 195.25 89.3383 195.25 89.75H193.25ZM194.5 91C195.137 91 195.75 90.4826 195.75 89.75H193.75C193.75 89.514 193.856 89.3248 193.98 89.2057C194.098 89.0924 194.277 89 194.5 89V91Z" fill="white" mask="url(#path-17-outside-2_99_7721)"/>
<defs>
<clipPath id="clip0_99_7721">
<path d="M147 64C147 60.6863 149.686 58 153 58H205C208.314 58 211 60.6863 211 64V98C211 101.314 208.314 104 205 104H153C149.686 104 147 101.314 147 98V64Z" fill="white"/>
</clipPath>
</defs>
</svg>
