<svg width="296" height="141" viewBox="0 0 296 141" fill="none" xmlns="http://www.w3.org/2000/svg">
<path d="M103.5 59C103.5 58.1716 104.172 57.5 105 57.5H127C127.828 57.5 128.5 58.1716 128.5 59V78C128.5 81.0376 126.038 83.5 123 83.5H105C104.172 83.5 103.5 82.8284 103.5 82V59Z" fill="white"/>
<path d="M103.5 59C103.5 58.1716 104.172 57.5 105 57.5H127C127.828 57.5 128.5 58.1716 128.5 59V78C128.5 81.0376 126.038 83.5 123 83.5H105C104.172 83.5 103.5 82.8284 103.5 82V59Z" stroke="#D3D4D5"/>
<path d="M135.5 59C135.5 58.1716 136.172 57.5 137 57.5H159C159.828 57.5 160.5 58.1716 160.5 59V76C160.5 80.1421 157.142 83.5 153 83.5H137C136.172 83.5 135.5 82.8284 135.5 82V59Z" fill="white"/>
<path d="M135.5 59C135.5 58.1716 136.172 57.5 137 57.5H159C159.828 57.5 160.5 58.1716 160.5 59V76C160.5 80.1421 157.142 83.5 153 83.5H137C136.172 83.5 135.5 82.8284 135.5 82V59Z" stroke="#D3D4D5"/>
<path d="M167.5 59C167.5 58.1716 168.172 57.5 169 57.5H191C191.828 57.5 192.5 58.1716 192.5 59V72C192.5 78.3513 187.351 83.5 181 83.5H169C168.172 83.5 167.5 82.8284 167.5 82V59Z" fill="white"/>
<path d="M167.5 59C167.5 58.1716 168.172 57.5 169 57.5H191C191.828 57.5 192.5 58.1716 192.5 59V72C192.5 78.3513 187.351 83.5 181 83.5H169C168.172 83.5 167.5 82.8284 167.5 82V59Z" stroke="#D3D4D5"/>
</svg>
