<svg width="296" height="141" viewBox="0 0 296 141" fill="none" xmlns="http://www.w3.org/2000/svg">
<path d="M103.5 64C103.5 60.9624 105.962 58.5 109 58.5H123C126.038 58.5 128.5 60.9624 128.5 64V77C128.5 80.0376 126.038 82.5 123 82.5H109C105.962 82.5 103.5 80.0376 103.5 77V64Z" fill="white"/>
<path d="M103.5 64C103.5 60.9624 105.962 58.5 109 58.5H123C126.038 58.5 128.5 60.9624 128.5 64V77C128.5 80.0376 126.038 82.5 123 82.5H109C105.962 82.5 103.5 80.0376 103.5 77V64Z" stroke="#D3D4D5"/>
<path d="M135.5 66C135.5 61.8579 138.858 58.5 143 58.5H153C157.142 58.5 160.5 61.8579 160.5 66V75C160.5 79.1421 157.142 82.5 153 82.5H143C138.858 82.5 135.5 79.1421 135.5 75V66Z" fill="white"/>
<path d="M135.5 66C135.5 61.8579 138.858 58.5 143 58.5H153C157.142 58.5 160.5 61.8579 160.5 66V75C160.5 79.1421 157.142 82.5 153 82.5H143C138.858 82.5 135.5 79.1421 135.5 75V66Z" stroke="#D3D4D5"/>
<path d="M167.5 70.5C167.5 63.8726 172.873 58.5 179.5 58.5H180.5C187.127 58.5 192.5 63.8726 192.5 70.5C192.5 77.1274 187.127 82.5 180.5 82.5H179.5C172.873 82.5 167.5 77.1274 167.5 70.5Z" fill="white"/>
<path d="M167.5 70.5C167.5 63.8726 172.873 58.5 179.5 58.5H180.5C187.127 58.5 192.5 63.8726 192.5 70.5C192.5 77.1274 187.127 82.5 180.5 82.5H179.5C172.873 82.5 167.5 77.1274 167.5 70.5Z" stroke="#D3D4D5"/>
</svg>
