<svg width="296" height="141" viewBox="0 0 296 141" fill="none" xmlns="http://www.w3.org/2000/svg">
<rect width="296" height="141" fill="#F1F1F2"/>
<path d="M111.5 70.5C111.5 58.0736 101.426 48 89 48C76.5736 48 66.5 58.0736 66.5 70.5C66.5 82.9264 76.5736 93 89 93C101.426 93 111.5 82.9264 111.5 70.5ZM71.45 70.5C71.45 60.8074 79.3074 52.95 89 52.95C98.6926 52.95 106.55 60.8074 106.55 70.5C106.55 80.1926 98.6926 88.05 89 88.05C79.3074 88.05 71.45 80.1926 71.45 70.5Z" fill="#D3D4D5"/>
<path d="M89 50.475C89 49.1081 87.8886 47.9859 86.5299 48.136C82.0661 48.6289 77.831 50.4498 74.3874 53.3909C70.3137 56.8702 67.6151 61.6889 66.777 66.9802C65.9389 72.2716 67.0164 77.6884 69.8156 82.2562C72.1818 86.1175 75.647 89.158 79.7399 91.0062C80.9857 91.5687 82.3895 90.8449 82.8119 89.5449C83.2343 88.2449 82.5121 86.864 81.2844 86.263C78.3066 84.8055 75.7861 82.5254 74.0362 79.6698C71.8528 76.1069 71.0124 71.8818 71.6661 67.7546C72.3198 63.6273 74.4247 59.8687 77.6022 57.1549C80.1489 54.9798 83.2506 53.5902 86.5331 53.1242C87.8864 52.9321 89 51.8419 89 50.475Z" fill="#8952E0"/>
<path d="M170.5 70.5C170.5 58.0736 160.426 48 148 48C135.574 48 125.5 58.0736 125.5 70.5C125.5 82.9264 135.574 93 148 93C160.426 93 170.5 82.9264 170.5 70.5ZM130.45 70.5C130.45 60.8074 138.307 52.95 148 52.95C157.693 52.95 165.55 60.8074 165.55 70.5C165.55 80.1926 157.693 88.05 148 88.05C138.307 88.05 130.45 80.1926 130.45 70.5Z" fill="#D3D4D5"/>
<path d="M148 50.475C148 49.1081 149.111 47.9859 150.47 48.136C152.577 48.3687 154.644 48.8984 156.61 49.7127C159.34 50.8434 161.821 52.5008 163.91 54.5901C165.999 56.6794 167.657 59.1598 168.787 61.8896C169.602 63.8556 170.131 65.9231 170.364 68.03C170.514 69.3886 169.392 70.5 168.025 70.5C166.658 70.5 165.568 69.3865 165.376 68.0332C165.169 66.5768 164.78 65.1489 164.214 63.7839C163.332 61.6546 162.039 59.7199 160.41 58.0903C158.78 56.4606 156.845 55.1679 154.716 54.2859C153.351 53.7205 151.923 53.331 150.467 53.1242C149.113 52.9321 148 51.8419 148 50.475Z" fill="#8952E0"/>
<path d="M229.5 70.5C229.5 58.0736 219.426 48 207 48C194.574 48 184.5 58.0736 184.5 70.5C184.5 82.9264 194.574 93 207 93C219.426 93 229.5 82.9264 229.5 70.5ZM189.45 70.5C189.45 60.8074 197.307 52.95 207 52.95C216.693 52.95 224.55 60.8074 224.55 70.5C224.55 80.1926 216.693 88.05 207 88.05C197.307 88.05 189.45 80.1926 189.45 70.5Z" fill="#D3D4D5"/>
<path d="M221.16 84.6598C222.126 85.6264 222.134 87.2058 221.067 88.0604C217.562 90.8682 213.28 92.5753 208.765 92.9306C203.425 93.351 198.109 91.8518 193.775 88.7029C189.441 85.5539 186.372 80.9618 185.122 75.7525C184.064 71.349 184.365 66.7488 185.952 62.5478C186.435 61.2691 187.94 60.7883 189.158 61.4088C190.376 62.0294 190.841 63.5165 190.398 64.8096C189.323 67.9459 189.153 71.3404 189.935 74.597C190.91 78.6602 193.304 82.2421 196.684 84.6982C200.065 87.1544 204.211 88.3238 208.377 87.9959C211.716 87.7331 214.892 86.5225 217.542 84.5309C218.635 83.7098 220.193 83.6933 221.16 84.6598Z" fill="#8952E0"/>
</svg>
