<svg width="296" height="141" viewBox="0 0 296 141" fill="none" xmlns="http://www.w3.org/2000/svg">
<rect width="296" height="141" fill="#F1F1F2"/>
<path d="M97.5 42C97.5 38.9624 99.9624 36.5 103 36.5H179C182.038 36.5 184.5 38.9624 184.5 42V98C184.5 101.038 182.038 103.5 179 103.5H103C99.9624 103.5 97.5 101.038 97.5 98V42Z" fill="white"/>
<path d="M97.5 42C97.5 38.9624 99.9624 36.5 103 36.5H179C182.038 36.5 184.5 38.9624 184.5 42V98C184.5 101.038 182.038 103.5 179 103.5H103C99.9624 103.5 97.5 101.038 97.5 98V42Z" stroke="#D3D4D5"/>
<rect x="105" y="44" width="36" height="3" rx="1.5" fill="#8952E0"/>
<path d="M106.125 54.25C106.125 53.6348 106.617 53.125 107.25 53.125H110.062V55.375C110.062 55.6914 110.309 55.9375 110.625 55.9375H112.875V61C112.875 61.6328 112.365 62.125 111.75 62.125H107.25C106.617 62.125 106.125 61.6328 106.125 61V54.25ZM110.625 55.375V53.125L112.875 55.375H110.625Z" fill="#ABADAF"/>
<rect x="117" y="53" width="60" height="3" rx="1.5" fill="#ABADAF"/>
<rect x="117" y="59" width="24" height="3" rx="1.5" fill="#D3D4D5"/>
<path d="M106.125 88.25C106.125 87.6348 106.617 87.125 107.25 87.125H110.062V89.375C110.062 89.6914 110.309 89.9375 110.625 89.9375H112.875V95C112.875 95.6328 112.365 96.125 111.75 96.125H107.25C106.617 96.125 106.125 95.6328 106.125 95V88.25ZM110.625 89.375V87.125L112.875 89.375H110.625Z" fill="#ABADAF"/>
<rect x="117" y="87" width="60" height="3" rx="1.5" fill="#ABADAF"/>
<rect x="117" y="93" width="24" height="3" rx="1.5" fill="#D3D4D5"/>
<rect x="117.5" y="64.5" width="81" height="19" rx="3.5" fill="white"/>
<rect x="117.5" y="64.5" width="81" height="19" rx="3.5" stroke="#D3D4D5" stroke-dasharray="2 2"/>
<path d="M122.75 69.5C122.75 68.8164 123.297 68.25 124 68.25H127.125V70.75C127.125 71.1016 127.398 71.375 127.75 71.375H130.25V77C130.25 77.7031 129.684 78.25 129 78.25H124C123.297 78.25 122.75 77.7031 122.75 77V69.5ZM127.75 70.75V68.25L130.25 70.75H127.75Z" fill="#ABADAF"/>
<rect x="134" y="69" width="60" height="3" rx="1.5" fill="#ABADAF"/>
<rect x="134" y="76" width="24" height="3" rx="1.5" fill="#D3D4D5"/>
<mask id="path-13-outside-1_78_7117" maskUnits="userSpaceOnUse" x="185.5" y="75.5" width="9" height="12" fill="black">
<rect fill="white" x="185.5" y="75.5" width="9" height="12"/>
<path d="M193.086 82.707C193.008 82.8828 192.832 83.0195 192.637 83.0195H190.586L191.484 84.8555C191.66 85.2461 191.504 85.7148 191.113 85.9102C190.723 86.0859 190.254 85.9297 190.059 85.5391L189.16 83.625L187.695 85.3438C187.598 85.4609 187.461 85.5195 187.344 85.5195C187.285 85.5195 187.227 85.5 187.168 85.4805C186.992 85.4219 186.875 85.2461 186.875 85.0312V77.8633C186.875 77.668 186.973 77.4922 187.148 77.4336C187.305 77.3555 187.5 77.375 187.637 77.4922L192.93 82.1797C193.105 82.3164 193.145 82.5312 193.086 82.707Z"/>
</mask>
<path d="M193.086 82.707C193.008 82.8828 192.832 83.0195 192.637 83.0195H190.586L191.484 84.8555C191.66 85.2461 191.504 85.7148 191.113 85.9102C190.723 86.0859 190.254 85.9297 190.059 85.5391L189.16 83.625L187.695 85.3438C187.598 85.4609 187.461 85.5195 187.344 85.5195C187.285 85.5195 187.227 85.5 187.168 85.4805C186.992 85.4219 186.875 85.2461 186.875 85.0312V77.8633C186.875 77.668 186.973 77.4922 187.148 77.4336C187.305 77.3555 187.5 77.375 187.637 77.4922L192.93 82.1797C193.105 82.3164 193.145 82.5312 193.086 82.707Z" fill="#171A1D"/>
<path d="M193.086 82.707L194 83.1132L194.019 83.0691L194.035 83.0233L193.086 82.707ZM190.586 83.0195V82.0195H188.983L189.688 83.4591L190.586 83.0195ZM191.484 84.8555L192.396 84.4451L192.39 84.4304L192.383 84.4159L191.484 84.8555ZM191.113 85.9102L191.524 86.8221L191.542 86.8137L191.56 86.8046L191.113 85.9102ZM190.059 85.5391L189.153 85.964L189.159 85.9752L189.164 85.9863L190.059 85.5391ZM189.16 83.625L190.065 83.2001L189.406 81.795L188.399 82.9763L189.16 83.625ZM187.695 85.3438L186.934 84.6951L186.927 84.7036L187.695 85.3438ZM187.148 77.4336L187.465 78.3823L187.532 78.3598L187.596 78.328L187.148 77.4336ZM187.637 77.4922L188.3 76.7436L188.294 76.7382L188.288 76.7329L187.637 77.4922ZM192.93 82.1797L192.267 82.9283L192.291 82.9495L192.316 82.969L192.93 82.1797ZM192.172 82.3009C192.205 82.227 192.255 82.1649 192.322 82.1172C192.39 82.0682 192.497 82.0195 192.637 82.0195V84.0195C193.299 84.0195 193.793 83.5795 194 83.1132L192.172 82.3009ZM192.637 82.0195H190.586V84.0195H192.637V82.0195ZM189.688 83.4591L190.586 85.295L192.383 84.4159L191.484 82.58L189.688 83.4591ZM190.572 85.2658C190.535 85.1824 190.562 85.0676 190.666 85.0157L191.56 86.8046C192.446 86.3621 192.785 85.3098 192.396 84.4451L190.572 85.2658ZM190.703 84.9982C190.786 84.9607 190.901 84.988 190.953 85.0918L189.164 85.9863C189.607 86.8713 190.659 87.2112 191.524 86.8221L190.703 84.9982ZM190.964 85.1142L190.065 83.2001L188.255 84.0499L189.153 85.964L190.964 85.1142ZM188.399 82.9763L186.934 84.6951L188.456 85.9924L189.921 84.2737L188.399 82.9763ZM186.927 84.7036C186.973 84.6489 187.03 84.605 187.094 84.5741C187.156 84.5443 187.24 84.5195 187.344 84.5195V86.5195C187.772 86.5195 188.185 86.3183 188.464 85.9839L186.927 84.7036ZM187.344 84.5195C187.423 84.5195 187.48 84.5326 187.498 84.5372C187.508 84.5397 187.513 84.5413 187.51 84.5403C187.506 84.539 187.5 84.5372 187.484 84.5318L186.852 86.4292C186.877 86.4375 187.094 86.5195 187.344 86.5195V84.5195ZM187.484 84.5318C187.783 84.6314 187.875 84.8898 187.875 85.0312H185.875C185.875 85.6024 186.201 86.2124 186.852 86.4292L187.484 84.5318ZM187.875 85.0312V77.8633H185.875V85.0312H187.875ZM187.875 77.8633C187.875 77.9694 187.808 78.268 187.465 78.3823L186.832 76.4849C186.138 76.7164 185.875 77.3665 185.875 77.8633H187.875ZM187.596 78.328C187.405 78.4236 187.165 78.4051 186.986 78.2514L188.288 76.7329C187.835 76.3449 187.205 76.2874 186.701 76.5392L187.596 78.328ZM186.974 78.2408L192.267 82.9283L193.593 81.4311L188.3 76.7436L186.974 78.2408ZM192.316 82.969C192.111 82.8096 192.081 82.559 192.137 82.3908L194.035 83.0233C194.208 82.5035 194.1 81.8232 193.544 81.3903L192.316 82.969Z" fill="white" mask="url(#path-13-outside-1_78_7117)"/>
</svg>
