<svg width="296" height="141" viewBox="0 0 296 141" fill="none" xmlns="http://www.w3.org/2000/svg">
<path d="M134.5 50C134.5 49.1716 135.172 48.5 136 48.5H160C160.828 48.5 161.5 49.1716 161.5 50V57C161.5 57.8284 160.828 58.5 160 58.5H136C135.172 58.5 134.5 57.8284 134.5 57V50Z" fill="white"/>
<path d="M134.5 50C134.5 49.1716 135.172 48.5 136 48.5H160C160.828 48.5 161.5 49.1716 161.5 50V57C161.5 57.8284 160.828 58.5 160 58.5H136C135.172 58.5 134.5 57.8284 134.5 57V50Z" stroke="#8952E0"/>
<rect x="138" y="52" width="20" height="3" rx="1.5" fill="#ABADAF"/>
<path d="M147.624 62.43C147.823 62.2024 148.177 62.2024 148.376 62.43L151.5 66H144.5L147.624 62.43Z" fill="#8952E0"/>
<path d="M112 69C112 67.3431 113.343 66 115 66H181C182.657 66 184 67.3431 184 69V90C184 91.6569 182.657 93 181 93H115C113.343 93 112 91.6569 112 90V69Z" fill="#8952E0"/>
<rect x="118" y="72" width="32" height="3" rx="1.5" fill="#A379E7"/>
<rect x="118" y="77" width="20" height="3" rx="1.5" fill="#B795EC"/>
<rect x="118" y="83" width="11" height="3" rx="1.5" fill="#A379E7"/>
<path d="M164 84.75C164 83.0977 165.336 81.75 167 81.75C168.652 81.75 170 83.0977 170 84.75C170 86.4141 168.652 87.75 167 87.75C165.336 87.75 164 86.4141 164 84.75ZM166.883 83.2734C166.812 83.2383 166.73 83.2617 166.672 83.3086L165.359 84.6211C165.289 84.6914 165.289 84.8203 165.359 84.8906L166.672 86.2031C166.73 86.25 166.812 86.2734 166.883 86.2383C166.953 86.2148 167 86.1445 167 86.0625V85.3125H168.125C168.324 85.3125 168.5 85.1484 168.5 84.9375V84.5625C168.5 84.3633 168.324 84.1875 168.125 84.1875H167V83.4375C167 83.3672 166.953 83.2969 166.883 83.2734Z" fill="#B795EC"/>
<path d="M179 84.75C179 86.4141 177.652 87.75 176 87.75C174.336 87.75 173 86.4141 173 84.75C173 83.0977 174.336 81.75 176 81.75C177.652 81.75 179 83.0977 179 84.75ZM176.105 86.2383C176.176 86.2734 176.258 86.25 176.316 86.2031L177.629 84.8906C177.699 84.8203 177.699 84.6914 177.629 84.6211L176.316 83.3086C176.258 83.2617 176.176 83.2383 176.105 83.2734C176.035 83.2969 176 83.3672 176 83.4375V84.1875H174.875C174.664 84.1875 174.5 84.3633 174.5 84.5625V84.9375C174.5 85.1484 174.664 85.3125 174.875 85.3125H176V86.0625C176 86.1445 176.035 86.2148 176.105 86.2383Z" fill="#A379E7"/>
<path d="M177.051 75.3242C177.229 75.4883 177.229 75.7754 177.051 75.9395C176.969 76.0215 176.859 76.0625 176.75 76.0625C176.627 76.0625 176.518 76.0215 176.436 75.9395L175 74.5039L173.551 75.9395C173.469 76.0215 173.359 76.0625 173.25 76.0625C173.127 76.0625 173.018 76.0215 172.936 75.9395C172.758 75.7754 172.758 75.4883 172.936 75.3242L174.371 73.875L172.936 72.4395C172.758 72.2754 172.758 71.9883 172.936 71.8242C173.1 71.6465 173.387 71.6465 173.551 71.8242L175 73.2598L176.436 71.8242C176.6 71.6465 176.887 71.6465 177.051 71.8242C177.229 71.9883 177.229 72.2754 177.051 72.4395L175.615 73.8887L177.051 75.3242Z" fill="#B795EC"/>
</svg>
