<svg width="296" height="141" viewBox="0 0 296 141" fill="none" xmlns="http://www.w3.org/2000/svg">
<path d="M89.5 44C89.5 40.9624 91.9624 38.5 95 38.5H201C204.038 38.5 206.5 40.9624 206.5 44V97C206.5 100.038 204.038 102.5 201 102.5H95C91.9624 102.5 89.5 100.038 89.5 97V44Z" fill="white"/>
<path d="M89.5 44C89.5 40.9624 91.9624 38.5 95 38.5H201C204.038 38.5 206.5 40.9624 206.5 44V97C206.5 100.038 204.038 102.5 201 102.5H95C91.9624 102.5 89.5 100.038 89.5 97V44Z" stroke="#D3D4D5"/>
<mask id="path-2-inside-1_78_5971" fill="white">
<path d="M89 38H207V69H89V38Z"/>
</mask>
<path d="M207 68H89V70H207V68Z" fill="#D3D4D5" mask="url(#path-2-inside-1_78_5971)"/>
<path d="M98.5 48.125C98.3945 48.125 98.3008 48.0898 98.2305 48.0195L95.9805 45.7695C95.8281 45.6289 95.8281 45.3828 95.9805 45.2422C96.1211 45.0898 96.3672 45.0898 96.5078 45.2422L98.5 47.2227L100.48 45.2422C100.621 45.0898 100.867 45.0898 101.008 45.2422C101.16 45.3828 101.16 45.6289 101.008 45.7695L98.7578 48.0195C98.6875 48.0898 98.5938 48.125 98.5 48.125Z" fill="#ABADAF"/>
<rect x="106" y="45" width="90" height="3" rx="1.5" fill="#8952E0"/>
<rect x="106" y="53" width="90" height="3" rx="1.5" fill="#D3D4D5"/>
<rect x="106" y="60" width="56" height="3" rx="1.5" fill="#D3D4D5"/>
<mask id="path-8-inside-2_78_5971" fill="white">
<path d="M89 69H207V86H89V69Z"/>
</mask>
<path d="M207 85H89V87H207V85Z" fill="#D3D4D5" mask="url(#path-8-inside-2_78_5971)"/>
<path d="M97.75 79.875C97.6445 79.875 97.5508 79.8398 97.4805 79.7695C97.3281 79.6289 97.3281 79.3828 97.4805 79.2422L99.4609 77.25L97.4805 75.2695C97.3281 75.1289 97.3281 74.8828 97.4805 74.7422C97.6211 74.5898 97.8672 74.5898 98.0078 74.7422L100.258 76.9922C100.41 77.1328 100.41 77.3789 100.258 77.5195L98.0078 79.7695C97.9375 79.8398 97.8438 79.875 97.75 79.875Z" fill="#ABADAF"/>
<rect x="106" y="76" width="90" height="3" rx="1.5" fill="#ABADAF"/>
<path d="M97.75 96.875C97.6445 96.875 97.5508 96.8398 97.4805 96.7695C97.3281 96.6289 97.3281 96.3828 97.4805 96.2422L99.4609 94.25L97.4805 92.2695C97.3281 92.1289 97.3281 91.8828 97.4805 91.7422C97.6211 91.5898 97.8672 91.5898 98.0078 91.7422L100.258 93.9922C100.41 94.1328 100.41 94.3789 100.258 94.5195L98.0078 96.7695C97.9375 96.8398 97.8438 96.875 97.75 96.875Z" fill="#ABADAF"/>
<rect x="106" y="93" width="90" height="3" rx="1.5" fill="#ABADAF"/>
</svg>
