<svg width="296" height="141" viewBox="0 0 296 141" fill="none" xmlns="http://www.w3.org/2000/svg">
<rect width="296" height="141" fill="#F1F1F2"/>
<path d="M113.5 57C113.5 53.9624 115.962 51.5 119 51.5H177C180.038 51.5 182.5 53.9624 182.5 57V84C182.5 87.0376 180.038 89.5 177 89.5H119C115.962 89.5 113.5 87.0376 113.5 84V57Z" fill="white"/>
<path d="M113.5 57C113.5 53.9624 115.962 51.5 119 51.5H177C180.038 51.5 182.5 53.9624 182.5 57V84C182.5 87.0376 180.038 89.5 177 89.5H119C115.962 89.5 113.5 87.0376 113.5 84V57Z" stroke="#8952E0"/>
<rect x="121" y="59" width="12" height="3" rx="1.5" fill="#ABADAF"/>
<rect x="121" y="65" width="36" height="3" rx="1.5" fill="#8952E0"/>
<rect x="121" y="73" width="54" height="3" rx="1.5" fill="#D3D4D5"/>
<rect x="121" y="79" width="54" height="3" rx="1.5" fill="#D3D4D5"/>
<mask id="path-6-outside-1_78_8004" maskUnits="userSpaceOnUse" x="162.5" y="83.5" width="9" height="12" fill="black">
<rect fill="white" x="162.5" y="83.5" width="9" height="12"/>
<path d="M170.086 90.707C170.008 90.8828 169.832 91.0195 169.637 91.0195H167.586L168.484 92.8555C168.66 93.2461 168.504 93.7148 168.113 93.9102C167.723 94.0859 167.254 93.9297 167.059 93.5391L166.16 91.625L164.695 93.3438C164.598 93.4609 164.461 93.5195 164.344 93.5195C164.285 93.5195 164.227 93.5 164.168 93.4805C163.992 93.4219 163.875 93.2461 163.875 93.0312V85.8633C163.875 85.668 163.973 85.4922 164.148 85.4336C164.305 85.3555 164.5 85.375 164.637 85.4922L169.93 90.1797C170.105 90.3164 170.145 90.5312 170.086 90.707Z"/>
</mask>
<path d="M170.086 90.707C170.008 90.8828 169.832 91.0195 169.637 91.0195H167.586L168.484 92.8555C168.66 93.2461 168.504 93.7148 168.113 93.9102C167.723 94.0859 167.254 93.9297 167.059 93.5391L166.16 91.625L164.695 93.3438C164.598 93.4609 164.461 93.5195 164.344 93.5195C164.285 93.5195 164.227 93.5 164.168 93.4805C163.992 93.4219 163.875 93.2461 163.875 93.0312V85.8633C163.875 85.668 163.973 85.4922 164.148 85.4336C164.305 85.3555 164.5 85.375 164.637 85.4922L169.93 90.1797C170.105 90.3164 170.145 90.5312 170.086 90.707Z" fill="#171A1D"/>
<path d="M170.086 90.707L171 91.1132L171.019 91.0691L171.035 91.0233L170.086 90.707ZM167.586 91.0195V90.0195H165.983L166.688 91.4591L167.586 91.0195ZM168.484 92.8555L169.396 92.4451L169.39 92.4304L169.383 92.4159L168.484 92.8555ZM168.113 93.9102L168.524 94.8221L168.542 94.8137L168.56 94.8046L168.113 93.9102ZM167.059 93.5391L166.153 93.964L166.159 93.9752L166.164 93.9863L167.059 93.5391ZM166.16 91.625L167.065 91.2001L166.406 89.795L165.399 90.9763L166.16 91.625ZM164.695 93.3438L163.934 92.6951L163.927 92.7036L164.695 93.3438ZM164.148 85.4336L164.465 86.3823L164.532 86.3598L164.596 86.328L164.148 85.4336ZM164.637 85.4922L165.3 84.7436L165.294 84.7382L165.288 84.7329L164.637 85.4922ZM169.93 90.1797L169.267 90.9283L169.291 90.9495L169.316 90.969L169.93 90.1797ZM169.172 90.3009C169.205 90.227 169.255 90.1649 169.322 90.1172C169.39 90.0682 169.497 90.0195 169.637 90.0195V92.0195C170.299 92.0195 170.793 91.5795 171 91.1132L169.172 90.3009ZM169.637 90.0195H167.586V92.0195H169.637V90.0195ZM166.688 91.4591L167.586 93.295L169.383 92.4159L168.484 90.58L166.688 91.4591ZM167.572 93.2658C167.535 93.1824 167.562 93.0676 167.666 93.0157L168.56 94.8046C169.446 94.3621 169.785 93.3098 169.396 92.4451L167.572 93.2658ZM167.703 92.9982C167.786 92.9607 167.901 92.988 167.953 93.0918L166.164 93.9863C166.607 94.8713 167.659 95.2112 168.524 94.8221L167.703 92.9982ZM167.964 93.1142L167.065 91.2001L165.255 92.0499L166.153 93.964L167.964 93.1142ZM165.399 90.9763L163.934 92.6951L165.456 93.9924L166.921 92.2737L165.399 90.9763ZM163.927 92.7036C163.973 92.6489 164.03 92.605 164.094 92.5741C164.156 92.5443 164.24 92.5195 164.344 92.5195V94.5195C164.772 94.5195 165.185 94.3183 165.464 93.9839L163.927 92.7036ZM164.344 92.5195C164.423 92.5195 164.48 92.5326 164.498 92.5372C164.508 92.5397 164.513 92.5413 164.51 92.5403C164.506 92.539 164.5 92.5372 164.484 92.5318L163.852 94.4292C163.877 94.4375 164.094 94.5195 164.344 94.5195V92.5195ZM164.484 92.5318C164.783 92.6314 164.875 92.8898 164.875 93.0312H162.875C162.875 93.6024 163.201 94.2124 163.852 94.4292L164.484 92.5318ZM164.875 93.0312V85.8633H162.875V93.0312H164.875ZM164.875 85.8633C164.875 85.9694 164.808 86.268 164.465 86.3823L163.832 84.4849C163.138 84.7164 162.875 85.3665 162.875 85.8633H164.875ZM164.596 86.328C164.405 86.4236 164.165 86.4051 163.986 86.2514L165.288 84.7329C164.835 84.3449 164.205 84.2874 163.701 84.5392L164.596 86.328ZM163.974 86.2408L169.267 90.9283L170.593 89.4311L165.3 84.7436L163.974 86.2408ZM169.316 90.969C169.111 90.8096 169.081 90.559 169.137 90.3908L171.035 91.0233C171.208 90.5035 171.1 89.8232 170.544 89.3903L169.316 90.969Z" fill="white" mask="url(#path-6-outside-1_78_8004)"/>
</svg>
