<svg width="296" height="141" viewBox="0 0 296 141" fill="none" xmlns="http://www.w3.org/2000/svg">
<rect width="296" height="141" fill="#F1F1F2"/>
<path d="M91.5 28C91.5 24.9624 93.9624 22.5 97 22.5H199C202.038 22.5 204.5 24.9624 204.5 28V113C204.5 116.038 202.038 118.5 199 118.5H97C93.9624 118.5 91.5 116.038 91.5 113V28Z" fill="white"/>
<path d="M91.5 28C91.5 24.9624 93.9624 22.5 97 22.5H199C202.038 22.5 204.5 24.9624 204.5 28V113C204.5 116.038 202.038 118.5 199 118.5H97C93.9624 118.5 91.5 116.038 91.5 113V28Z" stroke="#D3D4D5"/>
<rect x="99" y="31" width="28" height="3" rx="1.5" fill="#ABADAF"/>
<path d="M99.5 42C99.5 40.067 101.067 38.5 103 38.5H193C194.933 38.5 196.5 40.067 196.5 42V51C196.5 52.933 194.933 54.5 193 54.5H103C101.067 54.5 99.5 52.933 99.5 51V42Z" fill="white"/>
<path d="M99.5 42C99.5 40.067 101.067 38.5 103 38.5H193C194.933 38.5 196.5 40.067 196.5 42V51C196.5 52.933 194.933 54.5 193 54.5H103C101.067 54.5 99.5 52.933 99.5 51V42Z" stroke="#D3D4D5"/>
<rect x="105" y="45" width="32" height="3" rx="1.5" fill="#E7E7E8"/>
<rect x="99" y="65" width="28" height="3" rx="1.5" fill="#ABADAF"/>
<path d="M99.5 76C99.5 74.067 101.067 72.5 103 72.5H193C194.933 72.5 196.5 74.067 196.5 76V85C196.5 86.933 194.933 88.5 193 88.5H103C101.067 88.5 99.5 86.933 99.5 85V76Z" fill="white"/>
<path d="M99.5 76C99.5 74.067 101.067 72.5 103 72.5H193C194.933 72.5 196.5 74.067 196.5 76V85C196.5 86.933 194.933 88.5 193 88.5H103C101.067 88.5 99.5 86.933 99.5 85V76Z" stroke="#D3D4D5"/>
<rect x="105" y="79" width="32" height="3" rx="1.5" fill="#E7E7E8"/>
<path d="M99 101C99 99.8954 99.8954 99 101 99H124C125.105 99 126 99.8954 126 101V107C126 108.105 125.105 109 124 109H101C99.8954 109 99 108.105 99 107V101Z" fill="#8952E0"/>
<rect x="103" y="103" width="19" height="2" rx="1" fill="white"/>
</svg>
