<svg width="296" height="141" viewBox="0 0 296 141" fill="none" xmlns="http://www.w3.org/2000/svg">
<rect width="296" height="141" fill="#F1F1F2"/>
<path d="M82.5 36C82.5 32.9624 84.9624 30.5 88 30.5H208C211.038 30.5 213.5 32.9624 213.5 36V105C213.5 108.038 211.038 110.5 208 110.5H88C84.9624 110.5 82.5 108.038 82.5 105V36Z" fill="white"/>
<path d="M82.5 36C82.5 32.9624 84.9624 30.5 88 30.5H208C211.038 30.5 213.5 32.9624 213.5 36V105C213.5 108.038 211.038 110.5 208 110.5H88C84.9624 110.5 82.5 108.038 82.5 105V36Z" stroke="#D3D4D5"/>
<mask id="path-2-inside-1_99_9524" fill="white">
<path d="M83 36C83 33.2386 85.2386 31 88 31H208C210.761 31 213 33.2386 213 36V43H83V36Z"/>
</mask>
<path d="M83 36C83 33.2386 85.2386 31 88 31H208C210.761 31 213 33.2386 213 36V43H83V36Z" fill="#F9FAFA"/>
<path d="M83 31H213H83ZM213 44H83V42H213V44ZM83 43V31V43ZM213 31V43V31Z" fill="#E7E7E8" mask="url(#path-2-inside-1_99_9524)"/>
<rect x="89" y="35" width="4" height="4" rx="2" fill="#E53E3E"/>
<rect x="96" y="35" width="4" height="4" rx="2" fill="#FBC434"/>
<rect x="103" y="35" width="4" height="4" rx="2" fill="#0EA371"/>
<mask id="path-7-inside-2_99_9524" fill="white">
<path d="M83 43H213V58H83V43Z"/>
</mask>
<path d="M213 57H83V59H213V57Z" fill="#E7E7E8" mask="url(#path-7-inside-2_99_9524)"/>
<rect x="92" y="47" width="7" height="7" rx="3.5" fill="#D3D4D5"/>
<rect x="105" y="49" width="17" height="3" rx="1.5" fill="#D3D4D5"/>
<rect x="128" y="49" width="17" height="3" rx="1.5" fill="#D3D4D5"/>
<rect x="151" y="49" width="17" height="3" rx="1.5" fill="#D3D4D5"/>
<rect x="185.5" y="46.5" width="18" height="8" rx="1.5" fill="white"/>
<rect x="185.5" y="46.5" width="18" height="8" rx="1.5" stroke="#D3D4D5"/>
<rect x="189" y="49.5" width="11" height="2" rx="1" fill="#D3D4D5"/>
<path d="M205 46.5C205 47.6094 204.102 48.5 203 48.5C201.891 48.5 201 47.6094 201 46.5C201 45.3984 201.891 44.5 203 44.5C204.102 44.5 205 45.3984 205 46.5Z" fill="#8952E0"/>
<rect x="134" y="71" width="29" height="3" rx="1.5" fill="#D3D4D5"/>
<path d="M117.5 82C117.5 81.1716 118.172 80.5 119 80.5H178C178.828 80.5 179.5 81.1716 179.5 82V87C179.5 87.8284 178.828 88.5 178 88.5H119C118.172 88.5 117.5 87.8284 117.5 87V82Z" fill="white"/>
<path d="M117.5 82C117.5 81.1716 118.172 80.5 119 80.5H178C178.828 80.5 179.5 81.1716 179.5 82V87C179.5 87.8284 178.828 88.5 178 88.5H119C118.172 88.5 117.5 87.8284 117.5 87V82Z" stroke="#E7E7E8"/>
</svg>
