<svg width="296" height="141" viewBox="0 0 296 141" fill="none" xmlns="http://www.w3.org/2000/svg">
<rect width="296" height="141" fill="#F1F1F2"/>
<path d="M86.5 30C86.5 26.9624 88.9624 24.5 92 24.5H153C156.038 24.5 158.5 26.9624 158.5 30V81C158.5 84.0376 156.038 86.5 153 86.5H92C88.9624 86.5 86.5 84.0376 86.5 81V30Z" fill="white"/>
<path d="M86.5 30C86.5 26.9624 88.9624 24.5 92 24.5H153C156.038 24.5 158.5 26.9624 158.5 30V81C158.5 84.0376 156.038 86.5 153 86.5H92C88.9624 86.5 86.5 84.0376 86.5 81V30Z" stroke="#D3D4D5"/>
<rect x="95" y="35" width="37" height="3" rx="1.5" fill="#ABADAF"/>
<path d="M144 38C143.156 38 142.5 37.3281 142.5 36.5C142.5 35.6719 143.156 35 144 35C144.828 35 145.5 35.6719 145.5 36.5C145.5 37.3281 144.828 38 144 38ZM147 39.5H144C142.328 39.5 141 38.1562 141 36.5C141 34.8438 142.328 33.5 144 33.5H147C148.656 33.5 150 34.8438 150 36.5C150 38.1562 148.656 39.5 147 39.5ZM147 34.5H144C142.891 34.5 142 35.4062 142 36.5C142 37.6094 142.891 38.5 144 38.5H147C148.094 38.5 149 37.6094 149 36.5C149 35.4062 148.094 34.5 147 34.5Z" fill="#8952E0"/>
<rect x="95.5" y="44.5" width="54" height="8" rx="1.5" fill="white" stroke="#E7E7E8"/>
<rect x="95.5" y="57.5" width="54" height="8" rx="1.5" fill="white" stroke="#E7E7E8"/>
<rect x="95.5" y="70.5" width="54" height="8" rx="1.5" fill="white" stroke="#E7E7E8"/>
<path d="M137.5 60C137.5 56.9624 139.962 54.5 143 54.5H204C207.038 54.5 209.5 56.9624 209.5 60V111C209.5 114.038 207.038 116.5 204 116.5H143C139.962 116.5 137.5 114.038 137.5 111V60Z" fill="white"/>
<path d="M137.5 60C137.5 56.9624 139.962 54.5 143 54.5H204C207.038 54.5 209.5 56.9624 209.5 60V111C209.5 114.038 207.038 116.5 204 116.5H143C139.962 116.5 137.5 114.038 137.5 111V60Z" stroke="#D3D4D5"/>
<rect x="146" y="65" width="37" height="3" rx="1.5" fill="#ABADAF"/>
<path d="M198 63.5C199.656 63.5 201 64.8438 201 66.5C201 68.1562 199.656 69.5 198 69.5H195C193.328 69.5 192 68.1562 192 66.5C192 64.8438 193.328 63.5 195 63.5H198ZM198 68C198.828 68 199.5 67.3281 199.5 66.5C199.5 65.6719 198.828 65 198 65C197.156 65 196.5 65.6719 196.5 66.5C196.5 67.3281 197.156 68 198 68Z" fill="#8952E0"/>
<rect x="146.5" y="74.5" width="54" height="21" rx="1.5" fill="white" stroke="#E7E7E8"/>
<rect x="146.5" y="100.5" width="25" height="8" rx="1.5" fill="white" stroke="#E7E7E8"/>
<rect x="176.5" y="100.5" width="24" height="8" rx="1.5" fill="white" stroke="#E7E7E8"/>
</svg>
