<svg width="296" height="141" viewBox="0 0 296 141" fill="none" xmlns="http://www.w3.org/2000/svg">
<rect width="296" height="141" fill="#F1F1F2"/>
<path d="M138.5 42C138.5 38.9624 140.962 36.5 144 36.5H190C193.038 36.5 195.5 38.9624 195.5 42V85C195.5 88.0376 193.038 90.5 190 90.5H144C140.962 90.5 138.5 88.0376 138.5 85V42Z" fill="white"/>
<path d="M138.5 42C138.5 38.9624 140.962 36.5 144 36.5H190C193.038 36.5 195.5 38.9624 195.5 42V85C195.5 88.0376 193.038 90.5 190 90.5H144C140.962 90.5 138.5 88.0376 138.5 85V42Z" stroke="#D3D4D5"/>
<rect x="147" y="44" width="40" height="3" rx="1.5" fill="#ABADAF"/>
<rect x="147" y="59" width="20" height="3" rx="1.5" fill="#D3D4D5"/>
<path d="M181 62C180.156 62 179.5 61.3281 179.5 60.5C179.5 59.6719 180.156 59 181 59C181.828 59 182.5 59.6719 182.5 60.5C182.5 61.3281 181.828 62 181 62ZM184 63.5H181C179.328 63.5 178 62.1562 178 60.5C178 58.8438 179.328 57.5 181 57.5H184C185.656 57.5 187 58.8438 187 60.5C187 62.1562 185.656 63.5 184 63.5ZM184 58.5H181C179.891 58.5 179 59.4062 179 60.5C179 61.6094 179.891 62.5 181 62.5H184C185.094 62.5 186 61.6094 186 60.5C186 59.4062 185.094 58.5 184 58.5Z" fill="#8952E0"/>
<rect x="147" y="74" width="20" height="3" rx="1.5" fill="#D3D4D5"/>
<path d="M181 77C180.156 77 179.5 76.3281 179.5 75.5C179.5 74.6719 180.156 74 181 74C181.828 74 182.5 74.6719 182.5 75.5C182.5 76.3281 181.828 77 181 77ZM184 78.5H181C179.328 78.5 178 77.1562 178 75.5C178 73.8438 179.328 72.5 181 72.5H184C185.656 72.5 187 73.8438 187 75.5C187 77.1562 185.656 78.5 184 78.5ZM184 73.5H181C179.891 73.5 179 74.4062 179 75.5C179 76.6094 179.891 77.5 181 77.5H184C185.094 77.5 186 76.6094 186 75.5C186 74.4062 185.094 73.5 184 73.5Z" fill="#8952E0"/>
<path d="M100 56C100 52.6863 102.686 50 106 50H152C155.314 50 158 52.6863 158 56V99C158 102.314 155.314 105 152 105H106C102.686 105 100 102.314 100 99V56Z" fill="#1D2025"/>
<rect x="109" y="58" width="40" height="3" rx="1.5" fill="#7D7F83"/>
<rect x="109" y="73" width="20" height="3" rx="1.5" fill="#ABADAF"/>
<path d="M143 76C142.156 76 141.5 75.3281 141.5 74.5C141.5 73.6719 142.156 73 143 73C143.828 73 144.5 73.6719 144.5 74.5C144.5 75.3281 143.828 76 143 76ZM146 77.5H143C141.328 77.5 140 76.1562 140 74.5C140 72.8438 141.328 71.5 143 71.5H146C147.656 71.5 149 72.8438 149 74.5C149 76.1562 147.656 77.5 146 77.5ZM146 72.5H143C141.891 72.5 141 73.4062 141 74.5C141 75.6094 141.891 76.5 143 76.5H146C147.094 76.5 148 75.6094 148 74.5C148 73.4062 147.094 72.5 146 72.5Z" fill="#8952E0"/>
<rect x="109" y="88" width="20" height="3" rx="1.5" fill="#ABADAF"/>
<rect x="140" y="86.5" width="9" height="6" rx="3" fill="#F9FAFA"/>
<path d="M146 86.5C147.656 86.5 149 87.8438 149 89.5C149 91.1562 147.656 92.5 146 92.5H143C141.328 92.5 140 91.1562 140 89.5C140 87.8438 141.328 86.5 143 86.5H146ZM146 91C146.828 91 147.5 90.3281 147.5 89.5C147.5 88.6719 146.828 88 146 88C145.156 88 144.5 88.6719 144.5 89.5C144.5 90.3281 145.156 91 146 91Z" fill="#8952E0"/>
</svg>
