<svg width="296" height="141" viewBox="0 0 296 141" fill="none" xmlns="http://www.w3.org/2000/svg">
<rect width="296" height="141" fill="#F1F1F2"/>
<path d="M103.5 35C103.5 31.9624 105.962 29.5 109 29.5H154C157.038 29.5 159.5 31.9624 159.5 35V84C159.5 87.0376 157.038 89.5 154 89.5H109C105.962 89.5 103.5 87.0376 103.5 84V35Z" fill="white"/>
<path d="M103.5 35C103.5 31.9624 105.962 29.5 109 29.5H154C157.038 29.5 159.5 31.9624 159.5 35V84C159.5 87.0376 157.038 89.5 154 89.5H109C105.962 89.5 103.5 87.0376 103.5 84V35Z" stroke="#D3D4D5"/>
<path d="M115 41C114.156 41 113.5 40.3281 113.5 39.5C113.5 38.6719 114.156 38 115 38C115.828 38 116.5 38.6719 116.5 39.5C116.5 40.3281 115.828 41 115 41ZM118 42.5H115C113.328 42.5 112 41.1562 112 39.5C112 37.8438 113.328 36.5 115 36.5H118C119.656 36.5 121 37.8438 121 39.5C121 41.1562 119.656 42.5 118 42.5ZM118 37.5H115C113.891 37.5 113 38.4062 113 39.5C113 40.6094 113.891 41.5 115 41.5H118C119.094 41.5 120 40.6094 120 39.5C120 38.4062 119.094 37.5 118 37.5Z" fill="#8952E0"/>
<rect x="125" y="38" width="26" height="3" rx="1.5" fill="#ABADAF"/>
<rect x="112.5" y="47.5" width="38" height="8" rx="1.5" fill="white" stroke="#E7E7E8"/>
<rect x="112.5" y="60.5" width="38" height="8" rx="1.5" fill="white" stroke="#E7E7E8"/>
<rect x="112.5" y="73.5" width="38" height="8" rx="1.5" fill="white" stroke="#E7E7E8"/>
<path d="M138.5 51C138.5 47.9624 140.962 45.5 144 45.5H189C192.038 45.5 194.5 47.9624 194.5 51V100C194.5 103.038 192.038 105.5 189 105.5H144C140.962 105.5 138.5 103.038 138.5 100V51Z" fill="white"/>
<path d="M138.5 51C138.5 47.9624 140.962 45.5 144 45.5H189C192.038 45.5 194.5 47.9624 194.5 51V100C194.5 103.038 192.038 105.5 189 105.5H144C140.962 105.5 138.5 103.038 138.5 100V51Z" stroke="#D3D4D5"/>
<path d="M153 52.5C154.656 52.5 156 53.8438 156 55.5C156 57.1562 154.656 58.5 153 58.5H150C148.328 58.5 147 57.1562 147 55.5C147 53.8438 148.328 52.5 150 52.5H153ZM153 57C153.828 57 154.5 56.3281 154.5 55.5C154.5 54.6719 153.828 54 153 54C152.156 54 151.5 54.6719 151.5 55.5C151.5 56.3281 152.156 57 153 57Z" fill="#8952E0"/>
<rect x="160" y="54" width="26" height="3" rx="1.5" fill="#ABADAF"/>
<rect x="147.5" y="63.5" width="38" height="21" rx="1.5" fill="white" stroke="#E7E7E8"/>
<rect x="147.5" y="89.5" width="38" height="8" rx="1.5" fill="white" stroke="#E7E7E8"/>
</svg>
