<svg width="296" height="141" viewBox="0 0 296 141" fill="none" xmlns="http://www.w3.org/2000/svg">
<rect width="296" height="141" fill="#F1F1F2"/>
<rect x="118" y="62" width="17" height="17" rx="3" fill="#E5DAF8"/>
<path d="M128.768 70.3965C129.418 70.7832 129.875 71.5039 129.875 72.3301C129.875 73.5605 128.855 74.5801 127.625 74.5801H123.688C123.371 74.5801 123.125 74.3164 123.125 74.0176C123.125 73.7012 123.371 73.4551 123.688 73.4551H123.969V67.8301H123.688C123.371 67.8301 123.125 67.5664 123.125 67.2676C123.125 66.9512 123.371 66.7051 123.688 66.7051L127.062 66.6875C128.293 66.6875 129.312 67.707 129.312 68.9375C129.312 69.5 129.102 70.0098 128.768 70.3965ZM125.094 67.8301V70.0801H127.062C127.678 70.0801 128.188 69.5703 128.188 68.9551C128.188 68.3223 127.678 67.8301 127.062 67.8301H125.094ZM127.625 73.4375C128.24 73.4375 128.75 72.9102 128.75 72.3125C128.75 71.6973 128.24 71.1875 127.625 71.1875H125.094V73.4375H127.625Z" fill="#8952E0"/>
<rect x="139" y="62" width="17" height="17" rx="3" fill="#E7E7E8"/>
<path d="M150.875 67.2676C150.875 67.5664 150.611 67.8301 150.312 67.8301H149.275L146.938 73.4551H148.062C148.361 73.4551 148.625 73.7012 148.625 74.0176C148.625 74.3164 148.361 74.5801 148.062 74.5801H144.688C144.371 74.5801 144.125 74.3164 144.125 74.0176C144.125 73.7012 144.371 73.4551 144.688 73.4551H145.707L148.045 67.8301H146.938C146.621 67.8301 146.375 67.5664 146.375 67.2676C146.375 66.9512 146.621 66.7051 146.938 66.7051H150.312C150.611 66.7051 150.875 66.9512 150.875 67.2676Z" fill="#ABADAF"/>
<rect x="160" y="62" width="17" height="17" rx="3" fill="#E7E7E8"/>
<path d="M171.875 74C172.174 74 172.438 74.2637 172.438 74.5625C172.438 74.8789 172.174 75.125 171.875 75.125H165.125C164.809 75.125 164.562 74.8789 164.562 74.5625C164.562 74.2637 164.809 74 165.125 74H171.875ZM165.406 67.2676C165.09 67.2676 164.844 66.9688 164.844 66.6875C164.844 66.3887 165.09 66.1426 165.406 66.1426L167.094 66.125C167.393 66.125 167.656 66.3887 167.656 66.6875C167.656 67.0039 167.393 67.25 167.094 67.25H166.812V70.0625C166.812 70.9941 167.568 71.7676 168.5 71.7676C169.414 71.7676 170.188 71.0117 170.188 70.0801V67.2676H169.906C169.59 67.2676 169.344 67.0215 169.344 66.7051C169.344 66.4062 169.59 66.1426 169.906 66.1426H171.594C171.893 66.1426 172.156 66.3887 172.156 66.7051C172.156 67.0039 171.893 67.2676 171.594 67.2676H171.312V70.0801C171.312 71.6094 170.047 72.875 168.5 72.875C166.936 72.875 165.688 71.627 165.688 70.0801V67.2676H165.406Z" fill="#ABADAF"/>
</svg>
