<svg width="296" height="141" viewBox="0 0 296 141" fill="none" xmlns="http://www.w3.org/2000/svg">
<rect width="296" height="141" fill="#F1F1F2"/>
<path d="M155.491 79.2281C155.166 79.2281 154.853 79.103 154.603 78.8655L147.991 72.2531L141.378 78.8655C140.891 79.353 140.103 79.353 139.616 78.8655C139.128 78.378 139.128 77.5906 139.616 77.1031L146.228 70.4906L139.616 63.878C139.128 63.3905 139.128 62.6031 139.616 62.1156C140.103 61.6281 140.891 61.6281 141.378 62.1156L147.991 68.728L154.603 62.1156C155.091 61.6281 155.878 61.6281 156.366 62.1156C156.853 62.6031 156.853 63.3905 156.366 63.878L149.753 70.4906L156.366 77.1031C156.853 77.5906 156.853 78.378 156.366 78.8655C156.116 79.1155 155.803 79.2281 155.478 79.2281H155.491Z" fill="#8952E0"/>
</svg>
