<svg width="296" height="141" viewBox="0 0 296 141" fill="none" xmlns="http://www.w3.org/2000/svg">
<rect width="296" height="141" fill="#F1F1F2"/>
<path d="M108 36.625C108 34.1465 110.004 32.125 112.5 32.125C114.979 32.125 117 34.1465 117 36.625C117 39.1211 114.979 41.125 112.5 41.125C110.004 41.125 108 39.1211 108 36.625ZM114.521 35.8516C114.715 35.6582 114.715 35.3594 114.521 35.166C114.328 34.9727 114.029 34.9727 113.836 35.166L111.938 37.0645L111.146 36.291C110.953 36.0977 110.654 36.0977 110.461 36.291C110.268 36.4844 110.268 36.7832 110.461 36.9766L111.586 38.1016C111.779 38.2949 112.078 38.2949 112.271 38.1016L114.521 35.8516Z" fill="#8952E0"/>
<rect x="112" y="44" width="1" height="8" rx="0.5" fill="#8952E0"/>
<rect x="122" y="35" width="33" height="3" rx="1.5" fill="#ABADAF"/>
<rect x="122" y="42" width="16" height="3" rx="1.5" fill="#D3D4D5"/>
<path d="M108 59.625C108 57.1465 110.004 55.125 112.5 55.125C114.979 55.125 117 57.1465 117 59.625C117 62.1211 114.979 64.125 112.5 64.125C110.004 64.125 108 62.1211 108 59.625ZM112.5 61.3125C113.432 61.3125 114.188 60.5566 114.188 59.625C114.188 58.6934 113.432 57.9375 112.5 57.9375C111.551 57.9375 110.812 58.6934 110.812 59.625C110.812 60.5566 111.551 61.3125 112.5 61.3125Z" fill="#8952E0"/>
<rect x="112" y="67" width="1" height="27" rx="0.5" fill="#D3D4D5"/>
<rect x="122" y="58" width="33" height="3" rx="1.5" fill="#ABADAF"/>
<rect x="122" y="65" width="16" height="3" rx="1.5" fill="#D3D4D5"/>
<path d="M122.5 78C122.5 76.067 124.067 74.5 126 74.5H178C179.933 74.5 181.5 76.067 181.5 78V87C181.5 88.933 179.933 90.5 178 90.5H126C124.067 90.5 122.5 88.933 122.5 87V78Z" fill="white"/>
<path d="M122.5 78C122.5 76.067 124.067 74.5 126 74.5H178C179.933 74.5 181.5 76.067 181.5 78V87C181.5 88.933 179.933 90.5 178 90.5H126C124.067 90.5 122.5 88.933 122.5 87V78Z" stroke="#D3D4D5"/>
<rect x="128" y="81" width="32" height="3" rx="1.5" fill="#E7E7E8"/>
<path d="M117 102.625C117 105.121 114.979 107.125 112.5 107.125C110.004 107.125 108 105.121 108 102.625C108 100.146 110.004 98.125 112.5 98.125C114.979 98.125 117 100.146 117 102.625Z" fill="#D3D4D5"/>
<rect x="122" y="101" width="33" height="3" rx="1.5" fill="#ABADAF"/>
<rect x="122" y="108" width="16" height="3" rx="1.5" fill="#D3D4D5"/>
</svg>
