<svg width="296" height="141" viewBox="0 0 296 141" fill="none" xmlns="http://www.w3.org/2000/svg">
<rect x="119.5" y="59.5" width="57" height="22" stroke="#8952E0" stroke-dasharray="2 2"/>
<rect x="117.5" y="57.5" width="4" height="4" fill="#F1F1F2" stroke="#8952E0"/>
<rect x="174.5" y="57.5" width="4" height="4" fill="#F1F1F2" stroke="#8952E0"/>
<rect x="117.5" y="79.5" width="4" height="4" fill="#F1F1F2" stroke="#8952E0"/>
<rect x="174.5" y="79.5" width="4" height="4" fill="#F1F1F2" stroke="#8952E0"/>
<mask id="path-6-outside-1_100_10999" maskUnits="userSpaceOnUse" x="169.5" y="66.5" width="12" height="7" fill="black">
<rect fill="white" x="169.5" y="66.5" width="12" height="7"/>
<path d="M179.842 70.4414L177.873 72.2695C177.75 72.3926 177.557 72.4102 177.416 72.3574C177.258 72.2871 177.152 72.1289 177.152 71.9707V70.9863H173.777V71.9531C173.777 72.1289 173.689 72.2871 173.531 72.3398C173.373 72.4102 173.197 72.3926 173.074 72.2695L171.105 70.4414C170.93 70.2832 170.93 69.9844 171.105 69.8262L173.074 67.998C173.197 67.875 173.373 67.8574 173.531 67.9102C173.707 67.9805 173.795 68.1387 173.795 68.2969V69.2812H177.17V68.2969C177.17 68.1211 177.275 67.9629 177.434 67.9102C177.574 67.8398 177.768 67.875 177.891 67.9805L179.859 69.8086C180.018 69.9844 180.018 70.2832 179.842 70.4414Z"/>
</mask>
<path d="M179.842 70.4414L177.873 72.2695C177.75 72.3926 177.557 72.4102 177.416 72.3574C177.258 72.2871 177.152 72.1289 177.152 71.9707V70.9863H173.777V71.9531C173.777 72.1289 173.689 72.2871 173.531 72.3398C173.373 72.4102 173.197 72.3926 173.074 72.2695L171.105 70.4414C170.93 70.2832 170.93 69.9844 171.105 69.8262L173.074 67.998C173.197 67.875 173.373 67.8574 173.531 67.9102C173.707 67.9805 173.795 68.1387 173.795 68.2969V69.2812H177.17V68.2969C177.17 68.1211 177.275 67.9629 177.434 67.9102C177.574 67.8398 177.768 67.875 177.891 67.9805L179.859 69.8086C180.018 69.9844 180.018 70.2832 179.842 70.4414Z" fill="#1D2025"/>
<path d="M179.842 70.4414L179.173 69.6981L179.167 69.7033L179.161 69.7086L179.842 70.4414ZM177.873 72.2695L177.193 71.5367L177.179 71.5493L177.166 71.5624L177.873 72.2695ZM177.416 72.3574L177.01 73.2712L177.037 73.2833L177.065 73.2938L177.416 72.3574ZM177.152 70.9863H178.152V69.9863H177.152V70.9863ZM173.777 70.9863V69.9863H172.777V70.9863H173.777ZM173.531 72.3398L173.215 71.3912L173.169 71.4064L173.125 71.426L173.531 72.3398ZM173.074 72.2695L173.781 71.5624L173.768 71.5493L173.755 71.5367L173.074 72.2695ZM171.105 70.4414L171.786 69.7086L171.78 69.7033L171.774 69.6981L171.105 70.4414ZM171.105 69.8262L171.774 70.5695L171.78 70.5643L171.786 70.559L171.105 69.8262ZM173.074 67.998L173.755 68.7308L173.768 68.7182L173.781 68.7052L173.074 67.998ZM173.531 67.9102L173.903 66.9817L173.875 66.9708L173.847 66.9615L173.531 67.9102ZM173.795 69.2812H172.795V70.2812H173.795V69.2812ZM177.17 69.2812V70.2812H178.17V69.2812H177.17ZM177.434 67.9102L177.75 68.8588L177.817 68.8364L177.881 68.8046L177.434 67.9102ZM177.891 67.9805L178.571 67.2477L178.557 67.2341L178.541 67.2212L177.891 67.9805ZM179.859 69.8086L180.603 69.1396L180.573 69.1063L180.54 69.0758L179.859 69.8086ZM179.161 69.7086L177.193 71.5367L178.553 73.0023L180.522 71.1742L179.161 69.7086ZM177.166 71.5624C177.276 71.4525 177.4 71.4071 177.491 71.3923C177.578 71.3782 177.671 71.385 177.767 71.4211L177.065 73.2938C177.492 73.4537 178.123 73.4335 178.58 72.9766L177.166 71.5624ZM177.822 71.4436C177.921 71.4874 177.998 71.5558 178.053 71.6362C178.106 71.7154 178.152 71.8289 178.152 71.9707H176.152C176.152 72.5541 176.519 73.053 177.01 73.2712L177.822 71.4436ZM178.152 71.9707V70.9863H176.152V71.9707H178.152ZM177.152 69.9863H173.777V71.9863H177.152V69.9863ZM172.777 70.9863V71.9531H174.777V70.9863H172.777ZM172.777 71.9531C172.777 71.8274 172.855 71.5113 173.215 71.3912L173.847 73.2885C174.524 73.0629 174.777 72.4304 174.777 71.9531H172.777ZM173.125 71.426C173.198 71.3935 173.303 71.3694 173.427 71.3867C173.558 71.4049 173.685 71.4659 173.781 71.5624L172.367 72.9766C172.833 73.4427 173.471 73.4611 173.937 73.2537L173.125 71.426ZM173.755 71.5367L171.786 69.7086L170.425 71.1742L172.394 73.0023L173.755 71.5367ZM171.774 69.6981C171.923 69.8316 171.974 70.0008 171.974 70.1338C171.974 70.2667 171.923 70.4359 171.774 70.5695L170.437 69.0829C169.819 69.6383 169.819 70.6293 170.437 71.1847L171.774 69.6981ZM171.786 70.559L173.755 68.7308L172.394 67.2653L170.425 69.0934L171.786 70.559ZM173.781 68.7052C173.567 68.9198 173.312 68.8911 173.215 68.8588L173.847 66.9615C173.434 66.8238 172.828 66.8302 172.367 67.2909L173.781 68.7052ZM173.16 68.8386C172.923 68.744 172.795 68.5113 172.795 68.2969H174.795C174.795 67.7661 174.491 67.2169 173.903 66.9817L173.16 68.8386ZM172.795 68.2969V69.2812H174.795V68.2969H172.795ZM173.795 70.2812H177.17V68.2812H173.795V70.2812ZM178.17 69.2812V68.2969H176.17V69.2812H178.17ZM178.17 68.2969C178.17 68.5027 178.044 68.7606 177.75 68.8588L177.117 66.9615C176.506 67.1651 176.17 67.7395 176.17 68.2969H178.17ZM177.881 68.8046C177.73 68.88 177.594 68.8804 177.509 68.8665C177.422 68.8525 177.328 68.8152 177.24 68.7397L178.541 67.2212C178.161 66.8949 177.54 66.7389 176.986 67.0157L177.881 68.8046ZM177.21 68.7133L179.179 70.5414L180.54 69.0758L178.571 67.2477L177.21 68.7133ZM179.116 70.4776C179.009 70.3588 178.974 70.2243 178.976 70.1127C178.978 69.9991 179.023 69.8334 179.173 69.6981L180.511 71.1847C181.144 70.6152 181.087 69.6779 180.603 69.1396L179.116 70.4776Z" fill="#F9FAFA" mask="url(#path-6-outside-1_100_10999)"/>
</svg>
