<svg width="296" height="141" viewBox="0 0 296 141" fill="none" xmlns="http://www.w3.org/2000/svg">
<path d="M70.5 23C70.5 19.9624 72.9624 17.5 76 17.5H220C223.038 17.5 225.5 19.9624 225.5 23V118C225.5 121.038 223.038 123.5 220 123.5H76C72.9624 123.5 70.5 121.038 70.5 118V23Z" fill="#F9FAFA"/>
<path d="M70.5 23C70.5 19.9624 72.9624 17.5 76 17.5H220C223.038 17.5 225.5 19.9624 225.5 23V118C225.5 121.038 223.038 123.5 220 123.5H76C72.9624 123.5 70.5 121.038 70.5 118V23Z" stroke="#D3D4D5"/>
<mask id="path-2-inside-1_99_10131" fill="white">
<path d="M71 17H225V29H71V17Z"/>
</mask>
<path d="M225 28H71V30H225V28Z" fill="#E7E7E8" mask="url(#path-2-inside-1_99_10131)"/>
<rect x="77" y="21" width="4" height="4" rx="2" fill="#E53E3E"/>
<rect x="84" y="21" width="4" height="4" rx="2" fill="#FBC434"/>
<rect x="91" y="21" width="4" height="4" rx="2" fill="#0EA371"/>
<mask id="path-7-inside-2_99_10131" fill="white">
<path d="M84 42C84 39.7909 85.7909 38 88 38H120C122.209 38 124 39.7909 124 42V108C124 110.209 122.209 112 120 112H88C85.7909 112 84 110.209 84 108V42Z"/>
</mask>
<path d="M84 42C84 39.7909 85.7909 38 88 38H120C122.209 38 124 39.7909 124 42V108C124 110.209 122.209 112 120 112H88C85.7909 112 84 110.209 84 108V42Z" fill="white"/>
<path d="M88 39H120V37H88V39ZM123 42V108H125V42H123ZM120 111H88V113H120V111ZM85 108V42H83V108H85ZM88 111C86.3431 111 85 109.657 85 108H83C83 110.761 85.2386 113 88 113V111ZM123 108C123 109.657 121.657 111 120 111V113C122.761 113 125 110.761 125 108H123ZM120 39C121.657 39 123 40.3431 123 42H125C125 39.2386 122.761 37 120 37V39ZM88 37C85.2386 37 83 39.2386 83 42H85C85 40.3431 86.3431 39 88 39V37Z" fill="#E7E7E8" mask="url(#path-7-inside-2_99_10131)"/>
<rect x="90" y="46" width="10" height="3" rx="1.5" fill="#ABADAF"/>
<rect x="112" y="46" width="6" height="3" rx="1.5" fill="#D3D4D5"/>
<rect x="90" y="52" width="25" height="3" rx="1.5" fill="#D3D4D5"/>
<path d="M96 66.75C96 68.4141 94.6523 69.75 93 69.75C91.3359 69.75 90 68.4141 90 66.75C90 65.0977 91.3359 63.75 93 63.75C94.6523 63.75 96 65.0977 96 66.75Z" fill="#D3D4D5"/>
<rect x="100" y="63" width="18" height="3" rx="1.5" fill="#D3D4D5"/>
<rect x="100" y="68" width="10" height="3" rx="1.5" fill="#D3D4D5"/>
<mask id="path-15-inside-3_99_10131" fill="white">
<path d="M128 42C128 39.7909 129.791 38 132 38H164C166.209 38 168 39.7909 168 42V108C168 110.209 166.209 112 164 112H132C129.791 112 128 110.209 128 108V42Z"/>
</mask>
<path d="M128 42C128 39.7909 129.791 38 132 38H164C166.209 38 168 39.7909 168 42V108C168 110.209 166.209 112 164 112H132C129.791 112 128 110.209 128 108V42Z" fill="white"/>
<path d="M132 39H164V37H132V39ZM167 42V108H169V42H167ZM164 111H132V113H164V111ZM129 108V42H127V108H129ZM132 111C130.343 111 129 109.657 129 108H127C127 110.761 129.239 113 132 113V111ZM167 108C167 109.657 165.657 111 164 111V113C166.761 113 169 110.761 169 108H167ZM164 39C165.657 39 167 40.3431 167 42H169C169 39.2386 166.761 37 164 37V39ZM132 37C129.239 37 127 39.2386 127 42H129C129 40.3431 130.343 39 132 39V37Z" fill="#E7E7E8" mask="url(#path-15-inside-3_99_10131)"/>
<rect x="134" y="46" width="10" height="3" rx="1.5" fill="#ABADAF"/>
<rect x="156" y="46" width="6" height="3" rx="1.5" fill="#0EA371"/>
<rect x="134" y="52" width="25" height="3" rx="1.5" fill="#D3D4D5"/>
<path d="M134 66.75C134 65.0977 135.336 63.75 137 63.75C138.652 63.75 140 65.0977 140 66.75C140 68.4141 138.652 69.75 137 69.75C135.336 69.75 134 68.4141 134 66.75ZM137 67.875C137.621 67.875 138.125 67.3711 138.125 66.75C138.125 66.1289 137.621 65.625 137 65.625C136.367 65.625 135.875 66.1289 135.875 66.75C135.875 67.3711 136.367 67.875 137 67.875Z" fill="#0EA371"/>
<rect x="144" y="63" width="18" height="3" rx="1.5" fill="#D3D4D5"/>
<rect x="144" y="68" width="10" height="3" rx="1.5" fill="#D3D4D5"/>
<path d="M134 84.75C134 83.0977 135.336 81.75 137 81.75C138.652 81.75 140 83.0977 140 84.75C140 86.4141 138.652 87.75 137 87.75C135.336 87.75 134 86.4141 134 84.75ZM137 85.875C137.621 85.875 138.125 85.3711 138.125 84.75C138.125 84.1289 137.621 83.625 137 83.625C136.367 83.625 135.875 84.1289 135.875 84.75C135.875 85.3711 136.367 85.875 137 85.875Z" fill="#0EA371"/>
<rect x="144" y="81" width="18" height="3" rx="1.5" fill="#D3D4D5"/>
<rect x="144" y="86" width="10" height="3" rx="1.5" fill="#D3D4D5"/>
<mask id="path-26-inside-4_99_10131" fill="white">
<path d="M172 42C172 39.7909 173.791 38 176 38H208C210.209 38 212 39.7909 212 42V108C212 110.209 210.209 112 208 112H176C173.791 112 172 110.209 172 108V42Z"/>
</mask>
<path d="M172 42C172 39.7909 173.791 38 176 38H208C210.209 38 212 39.7909 212 42V108C212 110.209 210.209 112 208 112H176C173.791 112 172 110.209 172 108V42Z" fill="white"/>
<path d="M176 39H208V37H176V39ZM211 42V108H213V42H211ZM208 111H176V113H208V111ZM173 108V42H171V108H173ZM176 111C174.343 111 173 109.657 173 108H171C171 110.761 173.239 113 176 113V111ZM211 108C211 109.657 209.657 111 208 111V113C210.761 113 213 110.761 213 108H211ZM208 39C209.657 39 211 40.3431 211 42H213C213 39.2386 210.761 37 208 37V39ZM176 37C173.239 37 171 39.2386 171 42H173C173 40.3431 174.343 39 176 39V37Z" fill="#E7E7E8" mask="url(#path-26-inside-4_99_10131)"/>
<rect x="178" y="46" width="10" height="3" rx="1.5" fill="#ABADAF"/>
<rect x="200" y="46" width="6" height="3" rx="1.5" fill="#8952E0"/>
<rect x="178" y="52" width="25" height="3" rx="1.5" fill="#D3D4D5"/>
<path d="M178 66.75C178 65.0977 179.336 63.75 181 63.75C182.652 63.75 184 65.0977 184 66.75C184 68.4141 182.652 69.75 181 69.75C179.336 69.75 178 68.4141 178 66.75ZM182.348 66.2344C182.477 66.1055 182.477 65.9062 182.348 65.7773C182.219 65.6484 182.02 65.6484 181.891 65.7773L180.625 67.043L180.098 66.5273C179.969 66.3984 179.77 66.3984 179.641 66.5273C179.512 66.6562 179.512 66.8555 179.641 66.9844L180.391 67.7344C180.52 67.8633 180.719 67.8633 180.848 67.7344L182.348 66.2344Z" fill="#8952E0"/>
<rect x="188" y="63" width="18" height="3" rx="1.5" fill="#D3D4D5"/>
<rect x="188" y="68" width="10" height="3" rx="1.5" fill="#D3D4D5"/>
<path d="M178 84.75C178 83.0977 179.336 81.75 181 81.75C182.652 81.75 184 83.0977 184 84.75C184 86.4141 182.652 87.75 181 87.75C179.336 87.75 178 86.4141 178 84.75ZM182.348 84.2344C182.477 84.1055 182.477 83.9062 182.348 83.7773C182.219 83.6484 182.02 83.6484 181.891 83.7773L180.625 85.043L180.098 84.5273C179.969 84.3984 179.77 84.3984 179.641 84.5273C179.512 84.6562 179.512 84.8555 179.641 84.9844L180.391 85.7344C180.52 85.8633 180.719 85.8633 180.848 85.7344L182.348 84.2344Z" fill="#8952E0"/>
<rect x="188" y="81" width="18" height="3" rx="1.5" fill="#D3D4D5"/>
<rect x="188" y="86" width="10" height="3" rx="1.5" fill="#D3D4D5"/>
</svg>
