<svg width="296" height="141" viewBox="0 0 296 141" fill="none" xmlns="http://www.w3.org/2000/svg">
<rect width="296" height="141" fill="#F1F1F2"/>
<path d="M121.5 52C121.5 48.9624 123.962 46.5 127 46.5H169C172.038 46.5 174.5 48.9624 174.5 52V89C174.5 92.0376 172.038 94.5 169 94.5H127C123.962 94.5 121.5 92.0376 121.5 89V52Z" fill="white"/>
<path d="M121.5 52C121.5 48.9624 123.962 46.5 127 46.5H169C172.038 46.5 174.5 48.9624 174.5 52V89C174.5 92.0376 172.038 94.5 169 94.5H127C123.962 94.5 121.5 92.0376 121.5 89V52Z" stroke="#D3D4D5"/>
<rect x="129" y="54.5" width="3" height="3" rx="1.5" fill="#D3D4D5"/>
<path d="M135 55.5C135 55.0859 135.336 54.75 135.75 54.75H136C136.133 54.75 136.25 54.8672 136.25 55C136.25 55.1406 136.133 55.25 136 55.25H135.75C135.609 55.25 135.5 55.3672 135.5 55.5V55.7969C135.5 55.9922 135.414 56.1875 135.273 56.3281L135.102 56.5L135.273 56.6797C135.414 56.8203 135.5 57.0078 135.5 57.2109V57.5C135.5 57.6406 135.609 57.75 135.75 57.75H136C136.133 57.75 136.25 57.8672 136.25 58C136.25 58.1406 136.133 58.25 136 58.25H135.75C135.336 58.25 135 57.9141 135 57.5V57.2109C135 57.1406 134.969 57.0781 134.922 57.0312L134.57 56.6797C134.469 56.5859 134.469 56.4219 134.57 56.3281L134.922 55.9688C134.969 55.9219 135 55.8594 135 55.7969V55.5Z" fill="#ABADAF"/>
<rect x="129" y="62" width="3" height="3" rx="1.5" fill="#D3D4D5"/>
<rect x="134" y="62" width="15" height="3" rx="1.5" fill="#ABADAF"/>
<rect x="151" y="62" width="8" height="3" rx="1.5" fill="#ABADAF"/>
<rect x="129" y="69" width="3" height="3" rx="1.5" fill="#D3D4D5"/>
<rect x="142" y="69" width="8" height="3" rx="1.5" fill="#8952E0"/>
<rect x="152" y="69" width="12" height="3" rx="1.5" fill="#ABADAF"/>
<rect x="129" y="76" width="3" height="3" rx="1.5" fill="#D3D4D5"/>
<rect x="142" y="76" width="17" height="3" rx="1.5" fill="#ABADAF"/>
<rect x="161" y="76" width="5" height="3" rx="1.5" fill="#8952E0"/>
<rect x="129" y="83.5" width="3" height="3" rx="1.5" fill="#D3D4D5"/>
<path d="M136 84.5V84.7969C136 84.8594 136.023 84.9219 136.07 84.9688L136.422 85.3281C136.523 85.4219 136.523 85.5859 136.422 85.6797L136.07 86.0312C136.023 86.0781 136 86.1406 136 86.2109V86.5C136 86.9141 135.664 87.25 135.25 87.25H135C134.859 87.25 134.75 87.1406 134.75 87C134.75 86.8672 134.859 86.75 135 86.75H135.25C135.383 86.75 135.5 86.6406 135.5 86.5V86.2109C135.5 86.0078 135.578 85.8203 135.719 85.6797L135.891 85.5L135.719 85.3281C135.578 85.1875 135.5 84.9922 135.5 84.7969V84.5C135.5 84.3672 135.383 84.25 135.25 84.25H135C134.859 84.25 134.75 84.1406 134.75 84C134.75 83.8672 134.859 83.75 135 83.75H135.25C135.664 83.75 136 84.0859 136 84.5Z" fill="#ABADAF"/>
<path d="M139.5 69.0312L139.5 79.0313" stroke="#D3D4D5" stroke-linecap="round"/>
</svg>
