<svg width="296" height="141" viewBox="0 0 296 141" fill="none" xmlns="http://www.w3.org/2000/svg">
<rect width="296" height="141" fill="#F1F1F2"/>
<path d="M82.5 38C82.5 34.9624 84.9624 32.5 88 32.5H208C211.038 32.5 213.5 34.9624 213.5 38V103C213.5 106.038 211.038 108.5 208 108.5H88C84.9624 108.5 82.5 106.038 82.5 103V38Z" fill="white"/>
<path d="M82.5 38C82.5 34.9624 84.9624 32.5 88 32.5H208C211.038 32.5 213.5 34.9624 213.5 38V103C213.5 106.038 211.038 108.5 208 108.5H88C84.9624 108.5 82.5 106.038 82.5 103V38Z" stroke="#D3D4D5"/>
<mask id="path-2-inside-1_78_8054" fill="white">
<path d="M83 38C83 35.2386 85.2386 33 88 33H208C210.761 33 213 35.2386 213 38V44H83V38Z"/>
</mask>
<path d="M83 38C83 35.2386 85.2386 33 88 33H208C210.761 33 213 35.2386 213 38V44H83V38Z" fill="#F9FAFA"/>
<path d="M83 33H213H83ZM213 45H83V43H213V45ZM83 44V33V44ZM213 33V44V33Z" fill="#E7E7E8" mask="url(#path-2-inside-1_78_8054)"/>
<rect x="89" y="37" width="4" height="4" rx="2" fill="#E53E3E"/>
<rect x="96" y="37" width="4" height="4" rx="2" fill="#FBC434"/>
<rect x="103" y="37" width="4" height="4" rx="2" fill="#0EA371"/>
<rect x="136" y="67" width="24" height="3" rx="1.5" fill="#ABADAF"/>
<rect x="118" y="74" width="60" height="3" rx="1.5" fill="#D3D4D5"/>
<rect x="118" y="80" width="29" height="3" rx="1.5" fill="#D3D4D5"/>
<rect x="150" y="80" width="28" height="3" rx="1.5" fill="#D3D4D5"/>
<path d="M84 47C84 45.8954 84.8954 45 86 45H104C105.105 45 106 45.8954 106 47V51C106 52.1046 105.105 53 104 53H86C84.8954 53 84 52.1046 84 51V47Z" fill="#8952E0"/>
<rect x="88" y="48" width="14" height="2" rx="1" fill="white"/>
<mask id="path-13-outside-2_78_8054" maskUnits="userSpaceOnUse" x="94" y="47" width="9" height="12" fill="black">
<rect fill="white" x="94" y="47" width="9" height="12"/>
<path d="M95.375 49.3438C95.375 49.0898 95.5703 48.875 95.8242 48.875C95.9219 48.875 96.0391 48.9336 96.1172 48.9922L101.469 53.7578C101.566 53.8359 101.625 53.9531 101.625 54.0703C101.625 54.3242 101.43 54.5 101.176 54.5H98.8711L99.9844 56.7266C100.141 57.0391 100.023 57.4102 99.7109 57.5664C99.3984 57.7227 99.0273 57.6055 98.8711 57.293L97.7383 55.0078L96.1172 56.8633C96.0391 56.9609 95.9219 57 95.8047 57C95.5508 57 95.375 56.8242 95.375 56.5703V49.3438Z"/>
</mask>
<path d="M95.375 49.3438C95.375 49.0898 95.5703 48.875 95.8242 48.875C95.9219 48.875 96.0391 48.9336 96.1172 48.9922L101.469 53.7578C101.566 53.8359 101.625 53.9531 101.625 54.0703C101.625 54.3242 101.43 54.5 101.176 54.5H98.8711L99.9844 56.7266C100.141 57.0391 100.023 57.4102 99.7109 57.5664C99.3984 57.7227 99.0273 57.6055 98.8711 57.293L97.7383 55.0078L96.1172 56.8633C96.0391 56.9609 95.9219 57 95.8047 57C95.5508 57 95.375 56.8242 95.375 56.5703V49.3438Z" fill="#171A1D"/>
<path d="M96.1172 48.9922L96.7822 48.2454L96.7508 48.2174L96.7172 48.1922L96.1172 48.9922ZM101.469 53.7578L100.804 54.5046L100.823 54.5222L100.844 54.5387L101.469 53.7578ZM98.8711 54.5V53.5H97.2531L97.9767 54.9472L98.8711 54.5ZM98.8711 57.293L97.9751 57.7371L97.9767 57.7402L98.8711 57.293ZM97.7383 55.0078L98.6342 54.5637L97.9697 53.2231L96.9852 54.3499L97.7383 55.0078ZM96.1172 56.8633L95.3641 56.2053L95.3499 56.2217L95.3363 56.2386L96.1172 56.8633ZM96.375 49.3438C96.375 49.5859 96.1772 49.875 95.8242 49.875V47.875C94.9634 47.875 94.375 48.5938 94.375 49.3438H96.375ZM95.8242 49.875C95.751 49.875 95.6947 49.8644 95.6604 49.8559C95.625 49.8471 95.5994 49.8373 95.5841 49.8308C95.5565 49.8189 95.5367 49.8068 95.5172 49.7922L96.7172 48.1922C96.571 48.0825 96.2404 47.875 95.8242 47.875V49.875ZM95.4521 49.739L100.804 54.5046L102.134 53.011L96.7822 48.2454L95.4521 49.739ZM100.844 54.5387C100.723 54.4417 100.625 54.2796 100.625 54.0703H102.625C102.625 53.6266 102.41 53.2302 102.093 52.9769L100.844 54.5387ZM100.625 54.0703C100.625 53.9283 100.685 53.7696 100.811 53.6515C100.931 53.5384 101.071 53.5 101.176 53.5V55.5C101.922 55.5 102.625 54.9345 102.625 54.0703H100.625ZM101.176 53.5H98.8711V55.5H101.176V53.5ZM97.9767 54.9472L99.0899 57.1738L100.879 56.2793L99.7655 54.0528L97.9767 54.9472ZM99.0899 57.1738C99.0074 57.0088 99.066 56.7709 99.2637 56.672L100.158 58.4608C100.981 58.0494 101.274 57.0694 100.879 56.2793L99.0899 57.1738ZM99.2637 56.672C99.4287 56.5895 99.6666 56.648 99.7655 56.8458L97.9767 57.7402C98.3881 58.563 99.3681 58.8558 100.158 58.4608L99.2637 56.672ZM99.767 56.8488L98.6342 54.5637L96.8423 55.452L97.9751 57.7371L99.767 56.8488ZM96.9852 54.3499L95.3641 56.2053L96.8703 57.5212L98.4913 55.6658L96.9852 54.3499ZM95.3363 56.2386C95.4997 56.0344 95.7119 56 95.8047 56V58C96.1319 58 96.5784 57.8875 96.8981 57.488L95.3363 56.2386ZM95.8047 56C95.9145 56 96.0707 56.0422 96.2017 56.1733C96.3328 56.3043 96.375 56.4605 96.375 56.5703H94.375C94.375 56.934 94.5051 57.3051 94.7875 57.5875C95.0699 57.8699 95.441 58 95.8047 58V56ZM96.375 56.5703V49.3438H94.375V56.5703H96.375Z" fill="white" mask="url(#path-13-outside-2_78_8054)"/>
</svg>
