<svg width="296" height="141" viewBox="0 0 296 141" fill="none" xmlns="http://www.w3.org/2000/svg">
<rect width="296" height="141" fill="#F1F1F2"/>
<g clip-path="url(#clip0_78_8090)">
<path d="M82 36C82 32.6863 84.6863 30 88 30H208C211.314 30 214 32.6863 214 36V105C214 108.314 211.314 111 208 111H88C84.6863 111 82 108.314 82 105V36Z" fill="#F9FAFA"/>
<mask id="path-3-inside-1_78_8090" fill="white">
<path d="M82 30H214V42H82V30Z"/>
</mask>
<path d="M82 30H214V42H82V30Z" fill="#F9FAFA"/>
<path d="M214 41H82V43H214V41Z" fill="#E7E7E8" mask="url(#path-3-inside-1_78_8090)"/>
<rect x="88" y="34" width="4" height="4" rx="2" fill="#E53E3E"/>
<rect x="95" y="34" width="4" height="4" rx="2" fill="#FBC434"/>
<rect x="102" y="34" width="4" height="4" rx="2" fill="#0EA371"/>
<mask id="path-8-inside-2_78_8090" fill="white">
<path d="M82 42H214V57H82V42Z"/>
</mask>
<path d="M82 42H214V57H82V42Z" fill="white"/>
<path d="M214 56H82V58H214V56Z" fill="#E7E7E8" mask="url(#path-8-inside-2_78_8090)"/>
<rect x="108" y="46" width="7" height="7" rx="3.5" fill="#ABADAF"/>
<rect x="121" y="48" width="14" height="3" rx="1.5" fill="#ABADAF"/>
<rect x="139" y="48" width="14" height="3" rx="1.5" fill="#D3D4D5"/>
<rect x="157" y="48" width="14" height="3" rx="1.5" fill="#D3D4D5"/>
<path d="M84 45C84 43.8954 84.8954 43 86 43H100C101.105 43 102 43.8954 102 45V49C102 50.1046 101.105 51 100 51H86C84.8954 51 84 50.1046 84 49V45Z" fill="#8952E0"/>
<rect x="88" y="46" width="10" height="2" rx="1" fill="white"/>
<rect width="132" height="54" transform="translate(82 57)" fill="white"/>
<rect x="137" y="69" width="22" height="3" rx="1.5" fill="#ABADAF"/>
<rect x="117" y="75" width="62" height="3" rx="1.5" fill="#D3D4D5"/>
<rect x="117" y="81" width="35" height="3" rx="1.5" fill="#D3D4D5"/>
<rect x="155" y="81" width="24" height="3" rx="1.5" fill="#D3D4D5"/>
<path d="M134 92C134 90.8954 134.895 90 136 90H160C161.105 90 162 90.8954 162 92V96C162 97.1046 161.105 98 160 98H136C134.895 98 134 97.1046 134 96V92Z" fill="#ABADAF"/>
<rect x="138" y="93" width="20" height="2" rx="1" fill="white"/>
<mask id="path-22-outside-3_78_8090" maskUnits="userSpaceOnUse" x="91" y="45" width="9" height="12" fill="black">
<rect fill="white" x="91" y="45" width="9" height="12"/>
<path d="M98.5859 52.207C98.5078 52.3828 98.332 52.5195 98.1367 52.5195H96.0859L96.9844 54.3555C97.1602 54.7461 97.0039 55.2148 96.6133 55.4102C96.2227 55.5859 95.7539 55.4297 95.5586 55.0391L94.6602 53.125L93.1953 54.8438C93.0977 54.9609 92.9609 55.0195 92.8438 55.0195C92.7852 55.0195 92.7266 55 92.668 54.9805C92.4922 54.9219 92.375 54.7461 92.375 54.5312V47.3633C92.375 47.168 92.4727 46.9922 92.6484 46.9336C92.8047 46.8555 93 46.875 93.1367 46.9922L98.4297 51.6797C98.6055 51.8164 98.6445 52.0312 98.5859 52.207Z"/>
</mask>
<path d="M98.5859 52.207C98.5078 52.3828 98.332 52.5195 98.1367 52.5195H96.0859L96.9844 54.3555C97.1602 54.7461 97.0039 55.2148 96.6133 55.4102C96.2227 55.5859 95.7539 55.4297 95.5586 55.0391L94.6602 53.125L93.1953 54.8438C93.0977 54.9609 92.9609 55.0195 92.8438 55.0195C92.7852 55.0195 92.7266 55 92.668 54.9805C92.4922 54.9219 92.375 54.7461 92.375 54.5312V47.3633C92.375 47.168 92.4727 46.9922 92.6484 46.9336C92.8047 46.8555 93 46.875 93.1367 46.9922L98.4297 51.6797C98.6055 51.8164 98.6445 52.0312 98.5859 52.207Z" fill="#171A1D"/>
<path d="M98.5859 52.207L99.4997 52.6132L99.5194 52.5691L99.5346 52.5233L98.5859 52.207ZM96.0859 52.5195V51.5195H94.4833L95.1877 52.9591L96.0859 52.5195ZM96.9844 54.3555L97.8963 53.9451L97.8897 53.9304L97.8826 53.9159L96.9844 54.3555ZM96.6133 55.4102L97.0236 56.3221L97.0422 56.3137L97.0605 56.3046L96.6133 55.4102ZM95.5586 55.0391L94.6534 55.464L94.6586 55.4752L94.6642 55.4863L95.5586 55.0391ZM94.6602 53.125L95.5654 52.7001L94.9059 51.295L93.8991 52.4763L94.6602 53.125ZM93.1953 54.8438L92.4342 54.1951L92.4271 54.2036L93.1953 54.8438ZM92.6484 46.9336L92.9647 47.8823L93.0321 47.8598L93.0957 47.828L92.6484 46.9336ZM93.1367 46.9922L93.7997 46.2436L93.7937 46.2382L93.7875 46.2329L93.1367 46.9922ZM98.4297 51.6797L97.7667 52.4283L97.7906 52.4495L97.8157 52.469L98.4297 51.6797ZM97.6721 51.8009C97.705 51.727 97.7553 51.6649 97.8216 51.6172C97.8898 51.5682 97.9975 51.5195 98.1367 51.5195V53.5195C98.7991 53.5195 99.2925 53.0795 99.4997 52.6132L97.6721 51.8009ZM98.1367 51.5195H96.0859V53.5195H98.1367V51.5195ZM95.1877 52.9591L96.0862 54.795L97.8826 53.9159L96.9842 52.08L95.1877 52.9591ZM96.0725 54.7658C96.0349 54.6824 96.0623 54.5676 96.1661 54.5157L97.0605 56.3046C97.9456 55.8621 98.2854 54.8098 97.8963 53.9451L96.0725 54.7658ZM96.2029 54.4982C96.2864 54.4607 96.4011 54.488 96.453 54.5918L94.6642 55.4863C95.1067 56.3713 96.1589 56.7112 97.0236 56.3221L96.2029 54.4982ZM96.4638 54.6142L95.5654 52.7001L93.7549 53.5499L94.6534 55.464L96.4638 54.6142ZM93.8991 52.4763L92.4342 54.1951L93.9564 55.4924L95.4212 53.7737L93.8991 52.4763ZM92.4271 54.2036C92.4727 54.1489 92.5296 54.105 92.5941 54.0741C92.6561 54.0443 92.7398 54.0195 92.8438 54.0195V56.0195C93.2715 56.0195 93.6849 55.8183 93.9635 55.4839L92.4271 54.2036ZM92.8438 54.0195C92.9235 54.0195 92.9801 54.0326 92.9984 54.0372C93.0084 54.0397 93.0134 54.0413 93.0102 54.0403C93.0061 54.039 93.0004 54.0372 92.9842 54.0318L92.3517 55.9292C92.3767 55.9375 92.5936 56.0195 92.8438 56.0195V54.0195ZM92.9842 54.0318C93.2829 54.1314 93.375 54.3898 93.375 54.5312H91.375C91.375 55.1024 91.7015 55.7124 92.3517 55.9292L92.9842 54.0318ZM93.375 54.5312V47.3633H91.375V54.5312H93.375ZM93.375 47.3633C93.375 47.4694 93.3075 47.768 92.9647 47.8823L92.3322 45.9849C91.6378 46.2164 91.375 46.8665 91.375 47.3633H93.375ZM93.0957 47.828C92.9046 47.9236 92.6652 47.9051 92.4859 47.7514L93.7875 46.2329C93.3348 45.8449 92.7048 45.7874 92.2012 46.0392L93.0957 47.828ZM92.4737 47.7408L97.7667 52.4283L99.0927 50.9311L93.7997 46.2436L92.4737 47.7408ZM97.8157 52.469C97.6108 52.3096 97.5812 52.059 97.6373 51.8908L99.5346 52.5233C99.7079 52.0035 99.6001 51.3232 99.0436 50.8903L97.8157 52.469Z" fill="white" mask="url(#path-22-outside-3_78_8090)"/>
</g>
<path d="M82.5 36C82.5 32.9624 84.9624 30.5 88 30.5H208C211.038 30.5 213.5 32.9624 213.5 36V105C213.5 108.038 211.038 110.5 208 110.5H88C84.9624 110.5 82.5 108.038 82.5 105V36Z" stroke="#D3D4D5"/>
<defs>
<clipPath id="clip0_78_8090">
<path d="M82 36C82 32.6863 84.6863 30 88 30H208C211.314 30 214 32.6863 214 36V105C214 108.314 211.314 111 208 111H88C84.6863 111 82 108.314 82 105V36Z" fill="white"/>
</clipPath>
</defs>
</svg>
