<svg width="296" height="141" viewBox="0 0 296 141" fill="none" xmlns="http://www.w3.org/2000/svg">
<g clip-path="url(#clip0_78_8142)">
<path d="M82 36C82 32.6863 84.6863 30 88 30H208C211.314 30 214 32.6863 214 36V105C214 108.314 211.314 111 208 111H88C84.6863 111 82 108.314 82 105V36Z" fill="#F9FAFA"/>
<mask id="path-3-inside-1_78_8142" fill="white">
<path d="M82 30H214V42H82V30Z"/>
</mask>
<path d="M82 30H214V42H82V30Z" fill="#F9FAFA"/>
<path d="M214 41H82V43H214V41Z" fill="#E7E7E8" mask="url(#path-3-inside-1_78_8142)"/>
<rect x="88" y="34" width="4" height="4" rx="2" fill="#E53E3E"/>
<rect x="95" y="34" width="4" height="4" rx="2" fill="#FBC434"/>
<rect x="102" y="34" width="4" height="4" rx="2" fill="#0EA371"/>
<mask id="path-8-inside-2_78_8142" fill="white">
<path d="M82 42H214V57H82V42Z"/>
</mask>
<path d="M82 42H214V57H82V42Z" fill="white"/>
<path d="M214 56H82V58H214V56Z" fill="#E7E7E8" mask="url(#path-8-inside-2_78_8142)"/>
<rect x="90" y="46" width="7" height="7" rx="3.5" fill="#ABADAF"/>
<rect x="103" y="48" width="14" height="3" rx="1.5" fill="#ABADAF"/>
<rect x="123" y="48" width="14" height="3" rx="1.5" fill="#D3D4D5"/>
<rect x="143" y="48" width="14" height="3" rx="1.5" fill="#D3D4D5"/>
<rect width="132" height="54" transform="translate(82 57)" fill="white"/>
<rect x="90" y="65" width="20" height="3" rx="1.5" fill="#D3D4D5"/>
<rect x="90" y="71" width="50" height="3" rx="1.5" fill="#D3D4D5"/>
<rect x="90" y="77" width="24" height="3" rx="1.5" fill="#D3D4D5"/>
<rect x="117" y="77" width="23" height="3" rx="1.5" fill="#D3D4D5"/>
<rect x="90.5" y="89.5" width="15" height="14" rx="1.5" stroke="#E7E7E8"/>
<rect x="109.5" y="89.5" width="16" height="14" rx="1.5" stroke="#E7E7E8"/>
<rect x="129.5" y="89.5" width="15" height="14" rx="1.5" stroke="#E7E7E8"/>
<rect x="148.5" y="63.5" width="57" height="41" rx="1.5" stroke="#E7E7E8"/>
<path d="M127 76C127 74.8954 127.895 74 129 74H166C167.105 74 168 74.8954 168 76V83C168 84.1046 167.105 85 166 85H129C127.895 85 127 84.1046 127 83V76Z" fill="#8952E0"/>
<rect x="131" y="78" width="33" height="3" rx="1.5" fill="white"/>
<mask id="path-24-outside-3_78_8142" maskUnits="userSpaceOnUse" x="148" y="78" width="9" height="12" fill="black">
<rect fill="white" x="148" y="78" width="9" height="12"/>
<path d="M155.586 85.207C155.508 85.3828 155.332 85.5195 155.137 85.5195H153.086L153.984 87.3555C154.16 87.7461 154.004 88.2148 153.613 88.4102C153.223 88.5859 152.754 88.4297 152.559 88.0391L151.66 86.125L150.195 87.8438C150.098 87.9609 149.961 88.0195 149.844 88.0195C149.785 88.0195 149.727 88 149.668 87.9805C149.492 87.9219 149.375 87.7461 149.375 87.5312V80.3633C149.375 80.168 149.473 79.9922 149.648 79.9336C149.805 79.8555 150 79.875 150.137 79.9922L155.43 84.6797C155.605 84.8164 155.645 85.0312 155.586 85.207Z"/>
</mask>
<path d="M155.586 85.207C155.508 85.3828 155.332 85.5195 155.137 85.5195H153.086L153.984 87.3555C154.16 87.7461 154.004 88.2148 153.613 88.4102C153.223 88.5859 152.754 88.4297 152.559 88.0391L151.66 86.125L150.195 87.8438C150.098 87.9609 149.961 88.0195 149.844 88.0195C149.785 88.0195 149.727 88 149.668 87.9805C149.492 87.9219 149.375 87.7461 149.375 87.5312V80.3633C149.375 80.168 149.473 79.9922 149.648 79.9336C149.805 79.8555 150 79.875 150.137 79.9922L155.43 84.6797C155.605 84.8164 155.645 85.0312 155.586 85.207Z" fill="#171A1D"/>
<path d="M155.586 85.207L156.5 85.6132L156.519 85.5691L156.535 85.5233L155.586 85.207ZM153.086 85.5195V84.5195H151.483L152.188 85.9591L153.086 85.5195ZM153.984 87.3555L154.896 86.9451L154.89 86.9304L154.883 86.9159L153.984 87.3555ZM153.613 88.4102L154.024 89.3221L154.042 89.3137L154.06 89.3046L153.613 88.4102ZM152.559 88.0391L151.653 88.464L151.659 88.4752L151.664 88.4863L152.559 88.0391ZM151.66 86.125L152.565 85.7001L151.906 84.295L150.899 85.4763L151.66 86.125ZM150.195 87.8438L149.434 87.1951L149.427 87.2036L150.195 87.8438ZM149.648 79.9336L149.965 80.8823L150.032 80.8598L150.096 80.828L149.648 79.9336ZM150.137 79.9922L150.8 79.2436L150.794 79.2382L150.788 79.2329L150.137 79.9922ZM155.43 84.6797L154.767 85.4283L154.791 85.4495L154.816 85.469L155.43 84.6797ZM154.672 84.8009C154.705 84.727 154.755 84.6649 154.822 84.6172C154.89 84.5682 154.997 84.5195 155.137 84.5195V86.5195C155.799 86.5195 156.293 86.0795 156.5 85.6132L154.672 84.8009ZM155.137 84.5195H153.086V86.5195H155.137V84.5195ZM152.188 85.9591L153.086 87.795L154.883 86.9159L153.984 85.08L152.188 85.9591ZM153.072 87.7658C153.035 87.6824 153.062 87.5676 153.166 87.5157L154.06 89.3046C154.946 88.8621 155.285 87.8098 154.896 86.9451L153.072 87.7658ZM153.203 87.4982C153.286 87.4607 153.401 87.488 153.453 87.5918L151.664 88.4863C152.107 89.3713 153.159 89.7112 154.024 89.3221L153.203 87.4982ZM153.464 87.6142L152.565 85.7001L150.755 86.5499L151.653 88.464L153.464 87.6142ZM150.899 85.4763L149.434 87.1951L150.956 88.4924L152.421 86.7737L150.899 85.4763ZM149.427 87.2036C149.473 87.1489 149.53 87.105 149.594 87.0741C149.656 87.0443 149.74 87.0195 149.844 87.0195V89.0195C150.272 89.0195 150.685 88.8183 150.964 88.4839L149.427 87.2036ZM149.844 87.0195C149.923 87.0195 149.98 87.0326 149.998 87.0372C150.008 87.0397 150.013 87.0413 150.01 87.0403C150.006 87.039 150 87.0372 149.984 87.0318L149.352 88.9292C149.377 88.9375 149.594 89.0195 149.844 89.0195V87.0195ZM149.984 87.0318C150.283 87.1314 150.375 87.3898 150.375 87.5312H148.375C148.375 88.1024 148.701 88.7124 149.352 88.9292L149.984 87.0318ZM150.375 87.5312V80.3633H148.375V87.5312H150.375ZM150.375 80.3633C150.375 80.4694 150.308 80.768 149.965 80.8823L149.332 78.9849C148.638 79.2164 148.375 79.8665 148.375 80.3633H150.375ZM150.096 80.828C149.905 80.9236 149.665 80.9051 149.486 80.7514L150.788 79.2329C150.335 78.8449 149.705 78.7874 149.201 79.0392L150.096 80.828ZM149.474 80.7408L154.767 85.4283L156.093 83.9311L150.8 79.2436L149.474 80.7408ZM154.816 85.469C154.611 85.3096 154.581 85.059 154.637 84.8908L156.535 85.5233C156.708 85.0035 156.6 84.3232 156.044 83.8903L154.816 85.469Z" fill="white" mask="url(#path-24-outside-3_78_8142)"/>
</g>
<path d="M82.5 36C82.5 32.9624 84.9624 30.5 88 30.5H208C211.038 30.5 213.5 32.9624 213.5 36V105C213.5 108.038 211.038 110.5 208 110.5H88C84.9624 110.5 82.5 108.038 82.5 105V36Z" stroke="#D3D4D5"/>
<defs>
<clipPath id="clip0_78_8142">
<path d="M82 36C82 32.6863 84.6863 30 88 30H208C211.314 30 214 32.6863 214 36V105C214 108.314 211.314 111 208 111H88C84.6863 111 82 108.314 82 105V36Z" fill="white"/>
</clipPath>
</defs>
</svg>
