<svg width="296" height="141" viewBox="0 0 296 141" fill="none" xmlns="http://www.w3.org/2000/svg">
<rect x="89" y="44" width="28" height="3" rx="1.5" fill="#ABADAF"/>
<path d="M89.5 56C89.5 54.067 91.067 52.5 93 52.5H203C204.933 52.5 206.5 54.067 206.5 56V93C206.5 94.933 204.933 96.5 203 96.5H93C91.067 96.5 89.5 94.933 89.5 93V56Z" fill="white"/>
<path d="M89.5 56C89.5 54.067 91.067 52.5 93 52.5H203C204.933 52.5 206.5 54.067 206.5 56V93C206.5 94.933 204.933 96.5 203 96.5H93C91.067 96.5 89.5 94.933 89.5 93V56Z" stroke="#D3D4D5"/>
<rect x="97" y="60" width="102" height="3" rx="1.5" fill="#E7E7E8"/>
<rect x="97" y="67" width="102" height="3" rx="1.5" fill="#E7E7E8"/>
<rect x="97" y="74" width="23" height="3" rx="1.5" fill="#E7E7E8"/>
</svg>
