<svg width="296" height="141" viewBox="0 0 296 141" fill="none" xmlns="http://www.w3.org/2000/svg">
<rect width="296" height="141" fill="#F1F1F2"/>
<path d="M82.5 32C82.5 28.9624 84.9624 26.5 88 26.5H208C211.038 26.5 213.5 28.9624 213.5 32V109C213.5 112.038 211.038 114.5 208 114.5H88C84.9624 114.5 82.5 112.038 82.5 109V32Z" fill="white"/>
<path d="M82.5 32C82.5 28.9624 84.9624 26.5 88 26.5H208C211.038 26.5 213.5 28.9624 213.5 32V109C213.5 112.038 211.038 114.5 208 114.5H88C84.9624 114.5 82.5 112.038 82.5 109V32Z" stroke="#D3D4D5"/>
<mask id="path-2-inside-1_100_11145" fill="white">
<path d="M83 32C83 29.2386 85.2386 27 88 27H208C210.761 27 213 29.2386 213 32V39H83V32Z"/>
</mask>
<path d="M83 32C83 29.2386 85.2386 27 88 27H208C210.761 27 213 29.2386 213 32V39H83V32Z" fill="#F9FAFA"/>
<path d="M83 27H213H83ZM213 40H83V38H213V40ZM83 39V27V39ZM213 27V39V27Z" fill="#E7E7E8" mask="url(#path-2-inside-1_100_11145)"/>
<rect x="89" y="31" width="4" height="4" rx="2" fill="#E53E3E"/>
<rect x="96" y="31" width="4" height="4" rx="2" fill="#FBC434"/>
<rect x="103" y="31" width="4" height="4" rx="2" fill="#0EA371"/>
<path d="M148.5 46.25C151.254 46.25 153.5 48.4961 153.5 51.25C153.5 54.0234 151.254 56.25 148.5 56.25C145.727 56.25 143.5 54.0234 143.5 51.25C143.5 48.4961 145.727 46.25 148.5 46.25ZM148.031 49.2188V51.7188C148.031 51.9922 148.227 52.1875 148.5 52.1875C148.754 52.1875 148.969 51.9922 148.969 51.7188V49.2188C148.969 48.9648 148.754 48.75 148.5 48.75C148.227 48.75 148.031 48.9648 148.031 49.2188ZM148.5 54.0625C148.832 54.0625 149.105 53.7891 149.105 53.457C149.105 53.125 148.832 52.8516 148.5 52.8516C148.148 52.8516 147.875 53.125 147.875 53.457C147.875 53.7891 148.148 54.0625 148.5 54.0625Z" fill="#E53E3E"/>
<rect x="109.5" y="63" width="78" height="3" rx="1.5" fill="#ABADAF"/>
<rect x="121.5" y="71" width="41" height="3" rx="1.5" fill="#D3D4D5"/>
<rect x="165.5" y="71" width="10" height="3" rx="1.5" fill="#8952E0"/>
<path d="M134.5 86C134.5 84.8954 135.395 84 136.5 84H159.5C160.605 84 161.5 84.8954 161.5 86V92C161.5 93.1046 160.605 94 159.5 94H136.5C135.395 94 134.5 93.1046 134.5 92V86Z" fill="#8952E0"/>
<rect x="138.5" y="88" width="19" height="2" rx="1" fill="white"/>
</svg>
