<svg width="296" height="141" viewBox="0 0 296 141" fill="none" xmlns="http://www.w3.org/2000/svg">
<rect width="296" height="141" fill="#F1F1F2"/>
<path d="M100.5 38C100.5 34.9624 102.962 32.5 106 32.5H190C193.038 32.5 195.5 34.9624 195.5 38V103C195.5 106.038 193.038 108.5 190 108.5H106C102.962 108.5 100.5 106.038 100.5 103V38Z" fill="white"/>
<path d="M100.5 38C100.5 34.9624 102.962 32.5 106 32.5H190C193.038 32.5 195.5 34.9624 195.5 38V103C195.5 106.038 193.038 108.5 190 108.5H106C102.962 108.5 100.5 106.038 100.5 103V38Z" stroke="#D3D4D5"/>
<rect x="109.5" y="43" width="37" height="3" rx="1.5" fill="#ABADAF"/>
<path d="M186.551 45.8242C186.729 45.9883 186.729 46.2754 186.551 46.4395C186.469 46.5215 186.359 46.5625 186.25 46.5625C186.127 46.5625 186.018 46.5215 185.936 46.4395L184.5 45.0039L183.051 46.4395C182.969 46.5215 182.859 46.5625 182.75 46.5625C182.627 46.5625 182.518 46.5215 182.436 46.4395C182.258 46.2754 182.258 45.9883 182.436 45.8242L183.871 44.375L182.436 42.9395C182.258 42.7754 182.258 42.4883 182.436 42.3242C182.6 42.1465 182.887 42.1465 183.051 42.3242L184.5 43.7598L185.936 42.3242C186.1 42.1465 186.387 42.1465 186.551 42.3242C186.729 42.4883 186.729 42.7754 186.551 42.9395L185.115 44.3887L186.551 45.8242Z" fill="#ABADAF"/>
<rect x="110" y="62" width="20" height="3" rx="1.5" fill="#D3D4D5"/>
<rect width="94" height="15" transform="translate(101 71)" fill="#F1F1F2"/>
<rect x="110" y="77" width="20" height="3" rx="1.5" fill="#D3D4D5"/>
<path d="M186.508 76.9922C186.66 77.1328 186.66 77.3789 186.508 77.5195L183.508 80.5195C183.367 80.6719 183.121 80.6719 182.98 80.5195L181.48 79.0195C181.328 78.8789 181.328 78.6328 181.48 78.4922C181.621 78.3398 181.867 78.3398 182.008 78.4922L183.238 79.7227L185.98 76.9922C186.121 76.8398 186.367 76.8398 186.508 76.9922Z" fill="#8952E0"/>
<rect x="110" y="92" width="20" height="3" rx="1.5" fill="#D3D4D5"/>
</svg>
