<svg width="296" height="141" viewBox="0 0 296 141" fill="none" xmlns="http://www.w3.org/2000/svg">
<rect x="64" y="60" width="21" height="21" rx="10.5" fill="#8952E0"/>
<path d="M72.6266 74.8703C72.4641 74.8703 72.3078 74.8078 72.1828 74.6891L69.0578 71.5641C68.8141 71.3203 68.8141 70.9266 69.0578 70.6828C69.3016 70.4391 69.6953 70.4391 69.9391 70.6828L72.6203 73.3641L79.0516 66.9328C79.2953 66.6891 79.6891 66.6891 79.9328 66.9328C80.1766 67.1766 80.1766 67.5703 79.9328 67.8141L73.0578 74.6891C72.9328 74.8141 72.7766 74.8703 72.6141 74.8703H72.6266Z" fill="white"/>
<path fill-rule="evenodd" clip-rule="evenodd" d="M91 70.5C91 69.1193 92.0086 68 93.2527 68H129.747C130.991 68 132 69.1193 132 70.5C132 71.8807 130.991 73 129.747 73H93.2527C92.0086 73 91 71.8807 91 70.5Z" fill="#8952E0"/>
<rect x="139" y="61" width="19" height="19" rx="9.5" stroke="#8952E0" stroke-width="2"/>
<rect x="143" y="65" width="11" height="11" rx="5.5" fill="#8952E0"/>
<path fill-rule="evenodd" clip-rule="evenodd" d="M165 70.5C165 69.1193 165.995 68 167.222 68H202.778C204.005 68 205 69.1193 205 70.5C205 71.8807 204.005 73 202.778 73H167.222C165.995 73 165 71.8807 165 70.5Z" fill="#D3D4D5"/>
<rect x="212" y="61" width="19" height="19" rx="9.5" stroke="#ABADAF" stroke-width="2"/>
<rect x="216" y="65" width="11" height="11" rx="5.5" fill="#ABADAF"/>
</svg>
