<svg width="296" height="141" viewBox="0 0 296 141" fill="none" xmlns="http://www.w3.org/2000/svg">
<rect width="296" height="141" fill="#F1F1F2"/>
<path d="M70.5 46C70.5 42.9624 72.9624 40.5 76 40.5H220C223.038 40.5 225.5 42.9624 225.5 46V95C225.5 98.0376 223.038 100.5 220 100.5H76C72.9624 100.5 70.5 98.0376 70.5 95V46Z" fill="white"/>
<path d="M70.5 46C70.5 42.9624 72.9624 40.5 76 40.5H220C223.038 40.5 225.5 42.9624 225.5 46V95C225.5 98.0376 223.038 100.5 220 100.5H76C72.9624 100.5 70.5 98.0376 70.5 95V46Z" stroke="#D3D4D5"/>
<mask id="path-2-inside-1_101_12253" fill="white">
<path d="M71 46C71 43.2386 73.2386 41 76 41H220C222.761 41 225 43.2386 225 46V55H71V46Z"/>
</mask>
<path d="M71 46C71 43.2386 73.2386 41 76 41H220C222.761 41 225 43.2386 225 46V55H71V46Z" fill="#F9FAFA"/>
<path d="M71 41H225H71ZM225 56H71V54H225V56ZM71 55V41V55ZM225 41V55V41Z" fill="#E7E7E8" mask="url(#path-2-inside-1_101_12253)"/>
<path d="M76.875 46.375C76.875 45.9648 77.2031 45.625 77.625 45.625H81.375C81.7852 45.625 82.125 45.9648 82.125 46.375V50.125C82.125 50.5469 81.7852 50.875 81.375 50.875H77.625C77.2031 50.875 76.875 50.5469 76.875 50.125V46.375Z" fill="#E7E7E8"/>
<rect x="90" y="47" width="20" height="3" rx="1.5" fill="#ABADAF"/>
<rect x="130" y="47" width="14" height="3" rx="1.5" fill="#ABADAF"/>
<rect x="156" y="47" width="14" height="3" rx="1.5" fill="#ABADAF"/>
<rect x="182" y="47" width="14" height="3" rx="1.5" fill="#ABADAF"/>
<rect x="208" y="47" width="12" height="3" rx="1.5" fill="#ABADAF"/>
<mask id="path-10-inside-2_101_12253" fill="white">
<path d="M71 55H225V70H71V55Z"/>
</mask>
<path d="M225 69H71V71H225V69Z" fill="#E7E7E8" mask="url(#path-10-inside-2_101_12253)"/>
<path d="M76.875 60.375C76.875 59.9648 77.2031 59.625 77.625 59.625H81.375C81.7852 59.625 82.125 59.9648 82.125 60.375V64.125C82.125 64.5469 81.7852 64.875 81.375 64.875H77.625C77.2031 64.875 76.875 64.5469 76.875 64.125V60.375Z" fill="#E7E7E8"/>
<path d="M98 63C98 65.2188 96.2031 67 94 67C91.7812 67 90 65.2188 90 63C90 60.7969 91.7812 59 94 59C96.2031 59 98 60.7969 98 63Z" fill="#D3D4D5"/>
<rect x="102" y="61" width="20" height="3" rx="1.5" fill="#D3D4D5"/>
<rect x="130" y="61" width="14" height="3" rx="1.5" fill="#D3D4D5"/>
<rect x="156" y="61" width="14" height="3" rx="1.5" fill="#D3D4D5"/>
<rect x="182" y="61" width="14" height="3" rx="1.5" fill="#D3D4D5"/>
<rect x="213" y="61" width="7" height="3" rx="1.5" fill="#8952E0"/>
<mask id="path-19-inside-3_101_12253" fill="white">
<path d="M71 70H225V85H71V70Z"/>
</mask>
<path d="M71 70H225V85H71V70Z" fill="#F9FAFA"/>
<path d="M225 84H71V86H225V84Z" fill="#E7E7E8" mask="url(#path-19-inside-3_101_12253)"/>
<path d="M81.375 74.625C81.7852 74.625 82.125 74.9648 82.125 75.375V79.125C82.125 79.5469 81.7852 79.875 81.375 79.875H77.625C77.2031 79.875 76.875 79.5469 76.875 79.125V75.375C76.875 74.9648 77.2031 74.625 77.625 74.625H81.375ZM80.8477 76.7344C80.9766 76.6055 80.9766 76.4062 80.8477 76.2773C80.7188 76.1484 80.5195 76.1484 80.3906 76.2773L79.125 77.543L78.5977 77.0273C78.4688 76.8984 78.2695 76.8984 78.1406 77.0273C78.0117 77.1562 78.0117 77.3555 78.1406 77.4844L78.8906 78.2344C79.0195 78.3633 79.2188 78.3633 79.3477 78.2344L80.8477 76.7344Z" fill="#8952E0"/>
<path d="M98 78C98 80.2188 96.2031 82 94 82C91.7812 82 90 80.2188 90 78C90 75.7969 91.7812 74 94 74C96.2031 74 98 75.7969 98 78Z" fill="#D3D4D5"/>
<rect x="102" y="76" width="20" height="3" rx="1.5" fill="#D3D4D5"/>
<rect x="130" y="76" width="14" height="3" rx="1.5" fill="#D3D4D5"/>
<rect x="156" y="76" width="14" height="3" rx="1.5" fill="#D3D4D5"/>
<rect x="182" y="76" width="14" height="3" rx="1.5" fill="#D3D4D5"/>
<rect x="213" y="76" width="7" height="3" rx="1.5" fill="#8952E0"/>
<path d="M76.875 90.375C76.875 89.9648 77.2031 89.625 77.625 89.625H81.375C81.7852 89.625 82.125 89.9648 82.125 90.375V94.125C82.125 94.5469 81.7852 94.875 81.375 94.875H77.625C77.2031 94.875 76.875 94.5469 76.875 94.125V90.375Z" fill="#E7E7E8"/>
<path d="M98 93C98 95.2188 96.2031 97 94 97C91.7812 97 90 95.2188 90 93C90 90.7969 91.7812 89 94 89C96.2031 89 98 90.7969 98 93Z" fill="#D3D4D5"/>
<rect x="102" y="91" width="20" height="3" rx="1.5" fill="#D3D4D5"/>
<rect x="130" y="91" width="14" height="3" rx="1.5" fill="#D3D4D5"/>
<rect x="156" y="91" width="14" height="3" rx="1.5" fill="#D3D4D5"/>
<rect x="182" y="91" width="14" height="3" rx="1.5" fill="#D3D4D5"/>
<rect x="213" y="91" width="7" height="3" rx="1.5" fill="#8952E0"/>
</svg>
