<svg width="296" height="141" viewBox="0 0 296 141" fill="none" xmlns="http://www.w3.org/2000/svg">
<path d="M115.5 70.5C115.5 63.3203 121.32 57.5 128.5 57.5C135.68 57.5 141.5 63.3203 141.5 70.5C141.5 77.6797 135.68 83.5 128.5 83.5C121.32 83.5 115.5 77.6797 115.5 70.5Z" fill="#E5DAF8"/>
<path d="M128.5 70.5C128.5 63.3203 134.32 57.5 141.5 57.5C148.68 57.5 154.5 63.3203 154.5 70.5C154.5 77.6797 148.68 83.5 141.5 83.5C134.32 83.5 128.5 77.6797 128.5 70.5Z" fill="#D3BEF4"/>
<path d="M141.5 70.5C141.5 63.3203 147.32 57.5 154.5 57.5C161.68 57.5 167.5 63.3203 167.5 70.5C167.5 77.6797 161.68 83.5 154.5 83.5C147.32 83.5 141.5 77.6797 141.5 70.5Z" fill="#B795EC"/>
<path d="M154.5 70.5C154.5 63.3203 160.32 57.5 167.5 57.5C174.68 57.5 180.5 63.3203 180.5 70.5C180.5 77.6797 174.68 83.5 167.5 83.5C160.32 83.5 154.5 77.6797 154.5 70.5Z" fill="#A379E7"/>
</svg>
