<svg width="296" height="141" viewBox="0 0 296 141" fill="none" xmlns="http://www.w3.org/2000/svg">
<rect width="296" height="141" fill="#F1F1F2"/>
<path d="M88.5 40C88.5 36.9624 90.9624 34.5 94 34.5H202C205.038 34.5 207.5 36.9624 207.5 40V101C207.5 104.038 205.038 106.5 202 106.5H94C90.9624 106.5 88.5 104.038 88.5 101V40Z" fill="white"/>
<path d="M88.5 40C88.5 36.9624 90.9624 34.5 94 34.5H202C205.038 34.5 207.5 36.9624 207.5 40V101C207.5 104.038 205.038 106.5 202 106.5H94C90.9624 106.5 88.5 104.038 88.5 101V40Z" stroke="#D3D4D5"/>
<path d="M106.5 48.25C106.5 51.0234 104.254 53.25 101.5 53.25C98.7266 53.25 96.5 51.0234 96.5 48.25C96.5 45.4961 98.7266 43.25 101.5 43.25C104.254 43.25 106.5 45.4961 106.5 48.25Z" fill="#D3D4D5"/>
<rect x="110" y="44" width="55" height="3" rx="1.5" fill="#ABADAF"/>
<rect x="110" y="50" width="24" height="3" rx="1.5" fill="#D3D4D5"/>
<rect width="118" height="21" transform="translate(89 59)" fill="#F9FAFA"/>
<path d="M106.5 69.25C106.5 72.0234 104.254 74.25 101.5 74.25C98.7266 74.25 96.5 72.0234 96.5 69.25C96.5 66.4961 98.7266 64.25 101.5 64.25C104.254 64.25 106.5 66.4961 106.5 69.25Z" fill="#D3D4D5"/>
<rect x="110" y="65" width="55" height="3" rx="1.5" fill="#ABADAF"/>
<rect x="110" y="71" width="24" height="3" rx="1.5" fill="#D3D4D5"/>
<path d="M106.5 90.25C106.5 93.0234 104.254 95.25 101.5 95.25C98.7266 95.25 96.5 93.0234 96.5 90.25C96.5 87.4961 98.7266 85.25 101.5 85.25C104.254 85.25 106.5 87.4961 106.5 90.25Z" fill="#D3D4D5"/>
<rect x="110" y="86" width="55" height="3" rx="1.5" fill="#ABADAF"/>
<rect x="110" y="92" width="24" height="3" rx="1.5" fill="#D3D4D5"/>
</svg>
