<svg width="296" height="141" viewBox="0 0 296 141" fill="none" xmlns="http://www.w3.org/2000/svg">
<path d="M123.5 53.25C123.5 56.0234 121.254 58.25 118.5 58.25C115.727 58.25 113.5 56.0234 113.5 53.25C113.5 50.4961 115.727 48.25 118.5 48.25C121.254 48.25 123.5 50.4961 123.5 53.25Z" fill="#D3D4D5"/>
<rect x="127" y="52" width="55" height="3" rx="1.5" fill="#ABADAF"/>
<path d="M123.5 70.25C123.5 73.0234 121.254 75.25 118.5 75.25C115.727 75.25 113.5 73.0234 113.5 70.25C113.5 67.4961 115.727 65.25 118.5 65.25C121.254 65.25 123.5 67.4961 123.5 70.25Z" fill="#D3D4D5"/>
<rect x="127" y="69" width="55" height="3" rx="1.5" fill="#ABADAF"/>
<path d="M123.5 87.25C123.5 90.0234 121.254 92.25 118.5 92.25C115.727 92.25 113.5 90.0234 113.5 87.25C113.5 84.4961 115.727 82.25 118.5 82.25C121.254 82.25 123.5 84.4961 123.5 87.25Z" fill="#D3D4D5"/>
<rect x="127" y="86" width="55" height="3" rx="1.5" fill="#ABADAF"/>
</svg>
