<svg width="296" height="141" viewBox="0 0 296 141" fill="none" xmlns="http://www.w3.org/2000/svg">
<path d="M123.5 49.25C123.5 52.0234 121.254 54.25 118.5 54.25C115.727 54.25 113.5 52.0234 113.5 49.25C113.5 46.4961 115.727 44.25 118.5 44.25C121.254 44.25 123.5 46.4961 123.5 49.25Z" fill="#D3D4D5"/>
<rect x="127" y="45" width="55" height="3" rx="1.5" fill="#ABADAF"/>
<rect x="127" y="51" width="24" height="3" rx="1.5" fill="#D3D4D5"/>
<rect x="106" y="60" width="84" height="21" rx="6" fill="black" fill-opacity="0.04"/>
<path d="M123.5 70.25C123.5 73.0234 121.254 75.25 118.5 75.25C115.727 75.25 113.5 73.0234 113.5 70.25C113.5 67.4961 115.727 65.25 118.5 65.25C121.254 65.25 123.5 67.4961 123.5 70.25Z" fill="#D3D4D5"/>
<rect x="127" y="66" width="55" height="3" rx="1.5" fill="#ABADAF"/>
<rect x="127" y="72" width="24" height="3" rx="1.5" fill="#D3D4D5"/>
<path d="M123.5 91.25C123.5 94.0234 121.254 96.25 118.5 96.25C115.727 96.25 113.5 94.0234 113.5 91.25C113.5 88.4961 115.727 86.25 118.5 86.25C121.254 86.25 123.5 88.4961 123.5 91.25Z" fill="#D3D4D5"/>
<rect x="127" y="87" width="55" height="3" rx="1.5" fill="#ABADAF"/>
<rect x="127" y="93" width="24" height="3" rx="1.5" fill="#D3D4D5"/>
</svg>
