<svg width="296" height="141" viewBox="0 0 296 141" fill="none" xmlns="http://www.w3.org/2000/svg">
<rect width="296" height="141" fill="#F1F1F2"/>
<path d="M148 45.58C148 43.879 146.617 42.4825 144.926 42.6692C140.108 43.2013 135.492 44.9778 131.542 47.8475C126.758 51.3231 123.198 56.2239 121.37 61.8475C119.543 67.4711 119.543 73.5289 121.37 79.1525C123.198 84.7761 126.758 89.6769 131.542 93.1525C136.326 96.6281 142.087 98.5 148 98.5C153.913 98.5 159.674 96.6281 164.458 93.1525C169.242 89.6769 172.802 84.7761 174.63 79.1525C176.138 74.5091 176.401 69.5698 175.419 64.8233C175.074 63.1576 173.318 62.2736 171.7 62.7993C170.083 63.3249 169.22 65.0621 169.514 66.7377C170.125 70.2343 169.878 73.8436 168.771 77.2489C167.346 81.6353 164.569 85.458 160.837 88.1689C157.106 90.8799 152.612 92.34 148 92.34C143.388 92.34 138.894 90.8799 135.163 88.1689C131.431 85.458 128.654 81.6354 127.229 77.2489C125.804 72.8625 125.804 68.1375 127.229 63.7511C128.654 59.3647 131.431 55.542 135.163 52.8311C138.059 50.7265 141.416 49.3758 144.93 48.8768C146.614 48.6377 148 47.281 148 45.58Z" fill="#8952E0"/>
</svg>
