<svg width="296" height="141" viewBox="0 0 296 141" fill="none" xmlns="http://www.w3.org/2000/svg">
<rect width="296" height="141" fill="#F1F1F2"/>
<path d="M118.5 65C118.5 61.9624 120.962 59.5 124 59.5H172C175.038 59.5 177.5 61.9624 177.5 65V76C177.5 79.0376 175.038 81.5 172 81.5H124C120.962 81.5 118.5 79.0376 118.5 76V65Z" fill="white"/>
<path d="M118.5 65C118.5 61.9624 120.962 59.5 124 59.5H172C175.038 59.5 177.5 61.9624 177.5 65V76C177.5 79.0376 175.038 81.5 172 81.5H124C120.962 81.5 118.5 79.0376 118.5 76V65Z" stroke="#D3D4D5"/>
<path d="M129.321 72.5597C129 72.5597 128.727 72.4723 128.501 72.2976C128.275 72.1214 128.103 71.8665 127.983 71.5327C127.864 71.1974 127.804 70.7926 127.804 70.3182C127.804 69.8466 127.864 69.4439 127.983 69.1101C128.104 68.7749 128.277 68.5192 128.503 68.343C128.73 68.1655 129.003 68.0767 129.321 68.0767C129.639 68.0767 129.911 68.1655 130.137 68.343C130.365 68.5192 130.538 68.7749 130.657 69.1101C130.778 69.4439 130.838 69.8466 130.838 70.3182C130.838 70.7926 130.779 71.1974 130.659 71.5327C130.54 71.8665 130.367 72.1214 130.142 72.2976C129.916 72.4723 129.642 72.5597 129.321 72.5597ZM129.321 72.0909C129.639 72.0909 129.887 71.9375 130.063 71.6307C130.239 71.3239 130.327 70.8864 130.327 70.3182C130.327 69.9403 130.286 69.6186 130.206 69.353C130.126 69.0874 130.011 68.8849 129.86 68.7457C129.711 68.6065 129.532 68.5369 129.321 68.5369C129.006 68.5369 128.759 68.6925 128.582 69.0036C128.404 69.3132 128.316 69.7514 128.316 70.3182C128.316 70.696 128.355 71.017 128.435 71.2812C128.514 71.5455 128.629 71.7464 128.778 71.8842C128.929 72.022 129.11 72.0909 129.321 72.0909ZM134.213 71.7159L131.81 69.3125L132.134 68.9886L134.537 71.392L134.213 71.7159ZM132.134 71.7159L131.81 71.392L134.213 68.9886L134.537 69.3125L132.134 71.7159ZM135.739 72.5L137.691 68.6392V68.6051H135.441V68.1364H138.237V68.6307L136.293 72.5H135.739ZM140.565 68.1364V72.5H140.036V68.6903H140.011L138.946 69.3977V68.8608L140.036 68.1364H140.565ZM145.408 69.5H144.88C144.848 69.348 144.794 69.2145 144.715 69.0994C144.639 68.9844 144.545 68.8878 144.434 68.8097C144.325 68.7301 144.203 68.6705 144.07 68.6307C143.936 68.5909 143.797 68.571 143.652 68.571C143.388 68.571 143.149 68.6378 142.934 68.7713C142.721 68.9048 142.551 69.1016 142.425 69.3615C142.3 69.6214 142.237 69.9403 142.237 70.3182C142.237 70.696 142.3 71.0149 142.425 71.2749C142.551 71.5348 142.721 71.7315 142.934 71.8651C143.149 71.9986 143.388 72.0653 143.652 72.0653C143.797 72.0653 143.936 72.0455 144.07 72.0057C144.203 71.9659 144.325 71.907 144.434 71.8288C144.545 71.7493 144.639 71.652 144.715 71.5369C144.794 71.4205 144.848 71.2869 144.88 71.1364H145.408C145.368 71.3594 145.296 71.5589 145.191 71.7351C145.085 71.9112 144.955 72.0611 144.799 72.1847C144.642 72.3068 144.467 72.3999 144.272 72.4638C144.079 72.5277 143.872 72.5597 143.652 72.5597C143.28 72.5597 142.949 72.4688 142.659 72.2869C142.37 72.1051 142.142 71.8466 141.975 71.5114C141.809 71.1761 141.726 70.7784 141.726 70.3182C141.726 69.858 141.809 69.4602 141.975 69.125C142.142 68.7898 142.37 68.5312 142.659 68.3494C142.949 68.1676 143.28 68.0767 143.652 68.0767C143.872 68.0767 144.079 68.1087 144.272 68.1726C144.467 68.2365 144.642 68.3303 144.799 68.4538C144.955 68.576 145.085 68.7251 145.191 68.9013C145.296 69.076 145.368 69.2756 145.408 69.5ZM146.321 72.5L148.273 68.6392V68.6051H146.023V68.1364H148.819V68.6307L146.875 72.5H146.321ZM149.238 72.5341C149.133 72.5341 149.043 72.4964 148.967 72.4212C148.892 72.3459 148.854 72.2557 148.854 72.1506C148.854 72.0455 148.892 71.9553 148.967 71.88C149.043 71.8047 149.133 71.767 149.238 71.767C149.343 71.767 149.433 71.8047 149.508 71.88C149.584 71.9553 149.621 72.0455 149.621 72.1506C149.621 72.2202 149.604 72.2841 149.568 72.3423C149.534 72.4006 149.488 72.4474 149.43 72.483C149.373 72.517 149.309 72.5341 149.238 72.5341ZM150.89 72.5341C150.785 72.5341 150.695 72.4964 150.62 72.4212C150.544 72.3459 150.507 72.2557 150.507 72.1506C150.507 72.0455 150.544 71.9553 150.62 71.88C150.695 71.8047 150.785 71.767 150.89 71.767C150.995 71.767 151.085 71.8047 151.161 71.88C151.236 71.9553 151.274 72.0455 151.274 72.1506C151.274 72.2202 151.256 72.2841 151.22 72.3423C151.186 72.4006 151.14 72.4474 151.082 72.483C151.025 72.517 150.961 72.5341 150.89 72.5341ZM152.543 72.5341C152.437 72.5341 152.347 72.4964 152.272 72.4212C152.197 72.3459 152.159 72.2557 152.159 72.1506C152.159 72.0455 152.197 71.9553 152.272 71.88C152.347 71.8047 152.437 71.767 152.543 71.767C152.648 71.767 152.738 71.8047 152.813 71.88C152.888 71.9553 152.926 72.0455 152.926 72.1506C152.926 72.2202 152.908 72.2841 152.873 72.3423C152.839 72.4006 152.793 72.4474 152.734 72.483C152.677 72.517 152.614 72.5341 152.543 72.5341ZM155.168 68.0767C155.347 68.0781 155.526 68.1122 155.705 68.179C155.884 68.2457 156.047 68.3565 156.195 68.5114C156.343 68.6648 156.461 68.8743 156.551 69.1399C156.64 69.4055 156.685 69.7386 156.685 70.1392C156.685 70.527 156.648 70.8714 156.574 71.1726C156.502 71.4723 156.397 71.7251 156.259 71.9311C156.123 72.1371 155.956 72.2933 155.76 72.3999C155.566 72.5064 155.346 72.5597 155.1 72.5597C154.856 72.5597 154.638 72.5114 154.446 72.4148C154.255 72.3168 154.099 72.1811 153.977 72.0078C153.856 71.8331 153.779 71.6307 153.745 71.4006H154.265C154.312 71.6009 154.405 71.7663 154.544 71.897C154.684 72.0263 154.87 72.0909 155.1 72.0909C155.437 72.0909 155.702 71.9439 155.897 71.6499C156.093 71.3558 156.191 70.9403 156.191 70.4034H156.157C156.077 70.5227 155.983 70.6257 155.873 70.7124C155.764 70.799 155.642 70.8658 155.509 70.9126C155.375 70.9595 155.233 70.983 155.083 70.983C154.833 70.983 154.603 70.9212 154.395 70.7976C154.187 70.6726 154.021 70.5014 153.896 70.2841C153.772 70.0653 153.711 69.8153 153.711 69.5341C153.711 69.267 153.77 69.0227 153.89 68.8011C154.01 68.5781 154.179 68.4006 154.397 68.2685C154.616 68.1364 154.873 68.0724 155.168 68.0767ZM155.168 68.5455C154.989 68.5455 154.828 68.5902 154.684 68.6797C154.542 68.7678 154.429 68.8871 154.346 69.0376C154.263 69.1868 154.222 69.3523 154.222 69.5341C154.222 69.7159 154.262 69.8814 154.341 70.0305C154.422 70.1783 154.532 70.2962 154.672 70.3842C154.812 70.4709 154.972 70.5142 155.151 70.5142C155.286 70.5142 155.412 70.4879 155.528 70.4354C155.645 70.3814 155.746 70.3082 155.833 70.2159C155.921 70.1222 155.99 70.0163 156.04 69.8984C156.089 69.7791 156.114 69.6548 156.114 69.5256C156.114 69.3551 156.073 69.1953 155.991 69.0462C155.91 68.897 155.797 68.7763 155.654 68.6839C155.512 68.5916 155.35 68.5455 155.168 68.5455ZM157.542 72.5L159.494 68.6392V68.6051H157.244V68.1364H160.039V68.6307L158.096 72.5H157.542ZM162.189 72.5597C162.01 72.5568 161.831 72.5227 161.652 72.4574C161.473 72.392 161.309 72.282 161.162 72.1271C161.014 71.9709 160.895 71.7599 160.806 71.4943C160.716 71.2273 160.672 70.892 160.672 70.4886C160.672 70.1023 160.708 69.7599 160.78 69.4616C160.853 69.1619 160.958 68.9098 161.096 68.7053C161.233 68.4993 161.4 68.343 161.594 68.2365C161.79 68.13 162.011 68.0767 162.257 68.0767C162.501 68.0767 162.718 68.1257 162.909 68.2237C163.101 68.3203 163.257 68.4553 163.378 68.6286C163.498 68.8018 163.576 69.0014 163.612 69.2273H163.092C163.044 69.0312 162.95 68.8686 162.811 68.7393C162.672 68.6101 162.487 68.5455 162.257 68.5455C161.919 68.5455 161.652 68.6925 161.458 68.9865C161.265 69.2805 161.167 69.6932 161.166 70.2244H161.2C161.28 70.1037 161.374 70.0007 161.483 69.9155C161.594 69.8288 161.716 69.7621 161.85 69.7152C161.983 69.6683 162.125 69.6449 162.274 69.6449C162.524 69.6449 162.753 69.7074 162.96 69.8324C163.167 69.956 163.334 70.1271 163.459 70.3459C163.584 70.5632 163.646 70.8125 163.646 71.0938C163.646 71.3636 163.586 71.6108 163.465 71.8352C163.344 72.0582 163.174 72.2358 162.956 72.3679C162.738 72.4986 162.483 72.5625 162.189 72.5597ZM162.189 72.0909C162.368 72.0909 162.528 72.0462 162.67 71.9567C162.814 71.8672 162.927 71.7472 163.009 71.5966C163.093 71.446 163.135 71.2784 163.135 71.0938C163.135 70.9134 163.094 70.7493 163.013 70.6016C162.934 70.4524 162.824 70.3338 162.683 70.2457C162.544 70.1577 162.385 70.1136 162.206 70.1136C162.071 70.1136 161.945 70.1406 161.829 70.1946C161.712 70.2472 161.61 70.3196 161.522 70.4119C161.435 70.5043 161.367 70.6101 161.317 70.7294C161.267 70.8473 161.243 70.9716 161.243 71.1023C161.243 71.2756 161.283 71.4375 161.364 71.5881C161.446 71.7386 161.559 71.8601 161.701 71.9524C161.844 72.0447 162.007 72.0909 162.189 72.0909ZM164.561 72.5V68.1364H167.177V68.6051H165.089V70.0795H166.981V70.5483H165.089V72.5H164.561Z" fill="#8952E0"/>
</svg>
