<svg width="296" height="141" viewBox="0 0 296 141" fill="none" xmlns="http://www.w3.org/2000/svg">
<rect width="296" height="141" fill="#F1F1F2"/>
<path d="M84.5 22C84.5 18.9624 86.9624 16.5 90 16.5H208C211.038 16.5 213.5 18.9624 213.5 22V109C213.5 112.038 211.038 114.5 208 114.5H90C86.9624 114.5 84.5 112.038 84.5 109V22Z" fill="white"/>
<path d="M84.5 22C84.5 18.9624 86.9624 16.5 90 16.5H208C211.038 16.5 213.5 18.9624 213.5 22V109C213.5 112.038 211.038 114.5 208 114.5H90C86.9624 114.5 84.5 112.038 84.5 109V22Z" stroke="#D3D4D5"/>
<mask id="path-2-inside-1_99_7111" fill="white">
<path d="M85 22C85 19.2386 87.2386 17 90 17H208C210.761 17 213 19.2386 213 22V29H85V22Z"/>
</mask>
<path d="M85 22C85 19.2386 87.2386 17 90 17H208C210.761 17 213 19.2386 213 22V29H85V22Z" fill="#F9FAFA"/>
<path d="M85 17H213H85ZM213 30H85V28H213V30ZM85 29V17V29ZM213 17V29V17Z" fill="#E7E7E8" mask="url(#path-2-inside-1_99_7111)"/>
<rect x="91" y="21" width="4" height="4" rx="2" fill="#E53E3E"/>
<rect x="98" y="21" width="4" height="4" rx="2" fill="#FBC434"/>
<rect x="105" y="21" width="4" height="4" rx="2" fill="#0EA371"/>
<g clip-path="url(#clip0_99_7111)">
<path d="M101 46C101 42.6863 103.686 40 107 40H190C193.314 40 196 42.6863 196 46V79C196 82.3137 193.314 85 190 85H107C103.686 85 101 82.3137 101 79V46Z" fill="white"/>
<rect x="110" y="46" width="20" height="3" rx="1.5" fill="#E7E7E8"/>
<rect x="101" y="55" width="95" height="15" rx="2" fill="#F1F1F2"/>
<rect x="110" y="61" width="20" height="3" rx="1.5" fill="#D3D4D5"/>
<path d="M187.508 60.9922C187.66 61.1328 187.66 61.3789 187.508 61.5195L184.508 64.5195C184.367 64.6719 184.121 64.6719 183.98 64.5195L182.48 63.0195C182.328 62.8789 182.328 62.6328 182.48 62.4922C182.621 62.3398 182.867 62.3398 183.008 62.4922L184.238 63.7227L186.98 60.9922C187.121 60.8398 187.367 60.8398 187.508 60.9922Z" fill="#8952E0"/>
<rect x="110" y="76" width="20" height="3" rx="1.5" fill="#E7E7E8"/>
</g>
<path d="M93.5 107C93.5 103.962 95.9624 101.5 99 101.5H196C199.038 101.5 201.5 103.962 201.5 107V117C201.5 120.038 199.038 122.5 196 122.5H99C95.9624 122.5 93.5 120.038 93.5 117V107Z" fill="white"/>
<path d="M93.5 107C93.5 103.962 95.9624 101.5 99 101.5H196C199.038 101.5 201.5 103.962 201.5 107V117C201.5 120.038 199.038 122.5 196 122.5H99C95.9624 122.5 93.5 120.038 93.5 117V107Z" stroke="#D3D4D5"/>
<rect x="99" y="110" width="57" height="3" rx="1.5" fill="#D3D4D5"/>
<path d="M171 109C171 107.895 171.895 107 173 107H194C195.105 107 196 107.895 196 109V115C196 116.105 195.105 117 194 117H173C171.895 117 171 116.105 171 115V109Z" fill="#8952E0"/>
<rect x="175" y="111" width="17" height="2" rx="1" fill="white"/>
<defs>
<clipPath id="clip0_99_7111">
<path d="M101 46C101 42.6863 103.686 40 107 40H190C193.314 40 196 42.6863 196 46V79C196 82.3137 193.314 85 190 85H107C103.686 85 101 82.3137 101 79V46Z" fill="white"/>
</clipPath>
</defs>
</svg>
