<svg width="296" height="141" viewBox="0 0 296 141" fill="none" xmlns="http://www.w3.org/2000/svg">
<rect width="296" height="141" fill="#F1F1F2"/>
<path d="M152.395 73.4805C152.775 73.832 152.775 74.4473 152.395 74.7988C152.219 74.9746 151.984 75.0625 151.75 75.0625C151.486 75.0625 151.252 74.9746 151.076 74.7988L148 71.7227L144.895 74.7988C144.719 74.9746 144.484 75.0625 144.25 75.0625C143.986 75.0625 143.752 74.9746 143.576 74.7988C143.195 74.4473 143.195 73.832 143.576 73.4805L146.652 70.375L143.576 67.2988C143.195 66.9473 143.195 66.332 143.576 65.9805C143.928 65.5996 144.543 65.5996 144.895 65.9805L148 69.0566L151.076 65.9805C151.428 65.5996 152.043 65.5996 152.395 65.9805C152.775 66.332 152.775 66.9473 152.395 67.2988L149.318 70.4043L152.395 73.4805Z" fill="#8952E0"/>
</svg>
