<svg width="296" height="141" viewBox="0 0 296 141" fill="none" xmlns="http://www.w3.org/2000/svg">
<rect width="296" height="141" fill="#F1F1F2"/>
<path d="M118.5 46C118.5 44.067 120.067 42.5 122 42.5H140C141.933 42.5 143.5 44.067 143.5 46V64C143.5 65.933 141.933 67.5 140 67.5H122C120.067 67.5 118.5 65.933 118.5 64V46Z" fill="white"/>
<path d="M118.5 46C118.5 44.067 120.067 42.5 122 42.5H140C141.933 42.5 143.5 44.067 143.5 46V64C143.5 65.933 141.933 67.5 140 67.5H122C120.067 67.5 118.5 65.933 118.5 64V46Z" stroke="#D3D4D5"/>
<rect x="151" y="55" width="6" height="1" transform="rotate(180 151 55)" fill="#8952E0"/>
<rect x="152" y="57" width="1" height="5" rx="0.5" transform="rotate(180 152 57)" fill="#8952E0"/>
<rect x="145" y="57" width="1" height="5" rx="0.5" transform="rotate(180 145 57)" fill="#8952E0"/>
<path d="M152.5 46C152.5 44.067 154.067 42.5 156 42.5H174C175.933 42.5 177.5 44.067 177.5 46V94C177.5 95.933 175.933 97.5 174 97.5H156C154.067 97.5 152.5 95.933 152.5 94V46Z" fill="white"/>
<path d="M152.5 46C152.5 44.067 154.067 42.5 156 42.5H174C175.933 42.5 177.5 44.067 177.5 46V94C177.5 95.933 175.933 97.5 174 97.5H156C154.067 97.5 152.5 95.933 152.5 94V46Z" stroke="#D3D4D5"/>
<path d="M118.5 76C118.5 74.067 120.067 72.5 122 72.5H140C141.933 72.5 143.5 74.067 143.5 76V94C143.5 95.933 141.933 97.5 140 97.5H122C120.067 97.5 118.5 95.933 118.5 94V76Z" fill="white"/>
<path d="M118.5 76C118.5 74.067 120.067 72.5 122 72.5H140C141.933 72.5 143.5 74.067 143.5 76V94C143.5 95.933 141.933 97.5 140 97.5H122C120.067 97.5 118.5 95.933 118.5 94V76Z" stroke="#D3D4D5"/>
<rect x="151" y="86" width="6" height="1" transform="rotate(180 151 86)" fill="#8952E0"/>
<rect x="152" y="88" width="1" height="5" rx="0.5" transform="rotate(180 152 88)" fill="#8952E0"/>
<rect x="145" y="88" width="1" height="5" rx="0.5" transform="rotate(180 145 88)" fill="#8952E0"/>
<rect x="131" y="71" width="2" height="1" transform="rotate(-90 131 71)" fill="#8952E0"/>
<rect x="129" y="72" width="1" height="5" rx="0.5" transform="rotate(-90 129 72)" fill="#8952E0"/>
<rect x="129" y="69" width="1" height="5" rx="0.5" transform="rotate(-90 129 69)" fill="#8952E0"/>
</svg>
