<svg width="296" height="141" viewBox="0 0 296 141" fill="none" xmlns="http://www.w3.org/2000/svg">
<rect x="121" y="69" width="18" height="3" rx="1.5" fill="#D3D4D5"/>
<rect x="142" y="69" width="21" height="3" rx="1.5" fill="#8952E0"/>
<rect x="166" y="69" width="9" height="3" rx="1.5" fill="#D3D4D5"/>
<mask id="path-5-outside-1_78_6973" maskUnits="userSpaceOnUse" x="153.5" y="68.5" width="9" height="12" fill="black">
<rect fill="white" x="153.5" y="68.5" width="9" height="12"/>
<path d="M161.086 75.707C161.008 75.8828 160.832 76.0195 160.637 76.0195H158.586L159.484 77.8555C159.66 78.2461 159.504 78.7148 159.113 78.9102C158.723 79.0859 158.254 78.9297 158.059 78.5391L157.16 76.625L155.695 78.3438C155.598 78.4609 155.461 78.5195 155.344 78.5195C155.285 78.5195 155.227 78.5 155.168 78.4805C154.992 78.4219 154.875 78.2461 154.875 78.0312V70.8633C154.875 70.668 154.973 70.4922 155.148 70.4336C155.305 70.3555 155.5 70.375 155.637 70.4922L160.93 75.1797C161.105 75.3164 161.145 75.5312 161.086 75.707Z"/>
</mask>
<path d="M161.086 75.707C161.008 75.8828 160.832 76.0195 160.637 76.0195H158.586L159.484 77.8555C159.66 78.2461 159.504 78.7148 159.113 78.9102C158.723 79.0859 158.254 78.9297 158.059 78.5391L157.16 76.625L155.695 78.3438C155.598 78.4609 155.461 78.5195 155.344 78.5195C155.285 78.5195 155.227 78.5 155.168 78.4805C154.992 78.4219 154.875 78.2461 154.875 78.0312V70.8633C154.875 70.668 154.973 70.4922 155.148 70.4336C155.305 70.3555 155.5 70.375 155.637 70.4922L160.93 75.1797C161.105 75.3164 161.145 75.5312 161.086 75.707Z" fill="#171A1D"/>
<path d="M161.086 75.707L162 76.1132L162.019 76.0691L162.035 76.0233L161.086 75.707ZM158.586 76.0195V75.0195H156.983L157.688 76.4591L158.586 76.0195ZM159.484 77.8555L160.396 77.4451L160.39 77.4304L160.383 77.4159L159.484 77.8555ZM159.113 78.9102L159.524 79.8221L159.542 79.8137L159.56 79.8046L159.113 78.9102ZM158.059 78.5391L157.153 78.964L157.159 78.9752L157.164 78.9863L158.059 78.5391ZM157.16 76.625L158.065 76.2001L157.406 74.795L156.399 75.9763L157.16 76.625ZM155.695 78.3438L154.934 77.6951L154.927 77.7036L155.695 78.3438ZM155.148 70.4336L155.465 71.3823L155.532 71.3598L155.596 71.328L155.148 70.4336ZM155.637 70.4922L156.3 69.7436L156.294 69.7382L156.288 69.7329L155.637 70.4922ZM160.93 75.1797L160.267 75.9283L160.291 75.9495L160.316 75.969L160.93 75.1797ZM160.172 75.3009C160.205 75.227 160.255 75.1649 160.322 75.1172C160.39 75.0682 160.497 75.0195 160.637 75.0195V77.0195C161.299 77.0195 161.793 76.5795 162 76.1132L160.172 75.3009ZM160.637 75.0195H158.586V77.0195H160.637V75.0195ZM157.688 76.4591L158.586 78.295L160.383 77.4159L159.484 75.58L157.688 76.4591ZM158.572 78.2658C158.535 78.1824 158.562 78.0676 158.666 78.0157L159.56 79.8046C160.446 79.3621 160.785 78.3098 160.396 77.4451L158.572 78.2658ZM158.703 77.9982C158.786 77.9607 158.901 77.988 158.953 78.0918L157.164 78.9863C157.607 79.8713 158.659 80.2112 159.524 79.8221L158.703 77.9982ZM158.964 78.1142L158.065 76.2001L156.255 77.0499L157.153 78.964L158.964 78.1142ZM156.399 75.9763L154.934 77.6951L156.456 78.9924L157.921 77.2737L156.399 75.9763ZM154.927 77.7036C154.973 77.6489 155.03 77.605 155.094 77.5741C155.156 77.5443 155.24 77.5195 155.344 77.5195V79.5195C155.772 79.5195 156.185 79.3183 156.464 78.9839L154.927 77.7036ZM155.344 77.5195C155.423 77.5195 155.48 77.5326 155.498 77.5372C155.508 77.5397 155.513 77.5413 155.51 77.5403C155.506 77.539 155.5 77.5372 155.484 77.5318L154.852 79.4292C154.877 79.4375 155.094 79.5195 155.344 79.5195V77.5195ZM155.484 77.5318C155.783 77.6314 155.875 77.8898 155.875 78.0312H153.875C153.875 78.6024 154.201 79.2124 154.852 79.4292L155.484 77.5318ZM155.875 78.0312V70.8633H153.875V78.0312H155.875ZM155.875 70.8633C155.875 70.9694 155.808 71.268 155.465 71.3823L154.832 69.4849C154.138 69.7164 153.875 70.3665 153.875 70.8633H155.875ZM155.596 71.328C155.405 71.4236 155.165 71.4051 154.986 71.2514L156.288 69.7329C155.835 69.3449 155.205 69.2874 154.701 69.5392L155.596 71.328ZM154.974 71.2408L160.267 75.9283L161.593 74.4311L156.3 69.7436L154.974 71.2408ZM160.316 75.969C160.111 75.8096 160.081 75.559 160.137 75.3908L162.035 76.0233C162.208 75.5035 162.1 74.8232 161.544 74.3903L160.316 75.969Z" fill="white" mask="url(#path-5-outside-1_78_6973)"/>
</svg>
