<svg width="296" height="141" viewBox="0 0 296 141" fill="none" xmlns="http://www.w3.org/2000/svg">
<path d="M113.5 67C113.5 63.9624 115.962 61.5 119 61.5H177C180.038 61.5 182.5 63.9624 182.5 67V74C182.5 77.0376 180.038 79.5 177 79.5H119C115.962 79.5 113.5 77.0376 113.5 74V67Z" fill="white"/>
<path d="M113.5 67C113.5 63.9624 115.962 61.5 119 61.5H177C180.038 61.5 182.5 63.9624 182.5 67V74C182.5 77.0376 180.038 79.5 177 79.5H119C115.962 79.5 113.5 77.0376 113.5 74V67Z" stroke="#D3D4D5"/>
<rect x="121" y="69" width="18" height="3" rx="1.5" fill="#D3D4D5"/>
<rect x="142" y="69" width="21" height="3" rx="1.5" fill="#8952E0"/>
<rect x="166" y="69" width="9" height="3" rx="1.5" fill="#D3D4D5"/>
<mask id="path-5-outside-1_78_7051" maskUnits="userSpaceOnUse" x="153.5" y="66.5" width="9" height="12" fill="black">
<rect fill="white" x="153.5" y="66.5" width="9" height="12"/>
<path d="M154.875 68.8438C154.875 68.5898 155.07 68.375 155.324 68.375C155.422 68.375 155.539 68.4336 155.617 68.4922L160.969 73.2578C161.066 73.3359 161.125 73.4531 161.125 73.5703C161.125 73.8242 160.93 74 160.676 74H158.371L159.484 76.2266C159.641 76.5391 159.523 76.9102 159.211 77.0664C158.898 77.2227 158.527 77.1055 158.371 76.793L157.238 74.5078L155.617 76.3633C155.539 76.4609 155.422 76.5 155.305 76.5C155.051 76.5 154.875 76.3242 154.875 76.0703V68.8438Z"/>
</mask>
<path d="M154.875 68.8438C154.875 68.5898 155.07 68.375 155.324 68.375C155.422 68.375 155.539 68.4336 155.617 68.4922L160.969 73.2578C161.066 73.3359 161.125 73.4531 161.125 73.5703C161.125 73.8242 160.93 74 160.676 74H158.371L159.484 76.2266C159.641 76.5391 159.523 76.9102 159.211 77.0664C158.898 77.2227 158.527 77.1055 158.371 76.793L157.238 74.5078L155.617 76.3633C155.539 76.4609 155.422 76.5 155.305 76.5C155.051 76.5 154.875 76.3242 154.875 76.0703V68.8438Z" fill="#171A1D"/>
<path d="M155.617 68.4922L156.282 67.7454L156.251 67.7174L156.217 67.6922L155.617 68.4922ZM160.969 73.2578L160.304 74.0046L160.323 74.0222L160.344 74.0387L160.969 73.2578ZM158.371 74V73H156.753L157.477 74.4472L158.371 74ZM158.371 76.793L157.475 77.2371L157.477 77.2402L158.371 76.793ZM157.238 74.5078L158.134 74.0637L157.47 72.7231L156.485 73.8499L157.238 74.5078ZM155.617 76.3633L154.864 75.7053L154.85 75.7217L154.836 75.7386L155.617 76.3633ZM155.875 68.8438C155.875 69.0859 155.677 69.375 155.324 69.375V67.375C154.463 67.375 153.875 68.0938 153.875 68.8438H155.875ZM155.324 69.375C155.251 69.375 155.195 69.3644 155.16 69.3559C155.125 69.3471 155.099 69.3373 155.084 69.3308C155.057 69.3189 155.037 69.3068 155.017 69.2922L156.217 67.6922C156.071 67.5825 155.74 67.375 155.324 67.375V69.375ZM154.952 69.239L160.304 74.0046L161.634 72.511L156.282 67.7454L154.952 69.239ZM160.344 74.0387C160.223 73.9417 160.125 73.7796 160.125 73.5703H162.125C162.125 73.1266 161.91 72.7302 161.593 72.4769L160.344 74.0387ZM160.125 73.5703C160.125 73.4283 160.185 73.2696 160.311 73.1515C160.431 73.0384 160.571 73 160.676 73V75C161.422 75 162.125 74.4345 162.125 73.5703H160.125ZM160.676 73H158.371V75H160.676V73ZM157.477 74.4472L158.59 76.6738L160.379 75.7793L159.266 73.5528L157.477 74.4472ZM158.59 76.6738C158.507 76.5088 158.566 76.2709 158.764 76.172L159.658 77.9608C160.481 77.5494 160.774 76.5694 160.379 75.7793L158.59 76.6738ZM158.764 76.172C158.929 76.0895 159.167 76.148 159.266 76.3458L157.477 77.2402C157.888 78.063 158.868 78.3558 159.658 77.9608L158.764 76.172ZM159.267 76.3488L158.134 74.0637L156.342 74.952L157.475 77.2371L159.267 76.3488ZM156.485 73.8499L154.864 75.7053L156.37 77.0212L157.991 75.1658L156.485 73.8499ZM154.836 75.7386C155 75.5344 155.212 75.5 155.305 75.5V77.5C155.632 77.5 156.078 77.3875 156.398 76.988L154.836 75.7386ZM155.305 75.5C155.414 75.5 155.571 75.5422 155.702 75.6733C155.833 75.8043 155.875 75.9605 155.875 76.0703H153.875C153.875 76.434 154.005 76.8051 154.288 77.0875C154.57 77.3699 154.941 77.5 155.305 77.5V75.5ZM155.875 76.0703V68.8438H153.875V76.0703H155.875Z" fill="white" mask="url(#path-5-outside-1_78_7051)"/>
</svg>
