<svg width="296" height="141" viewBox="0 0 296 141" fill="none" xmlns="http://www.w3.org/2000/svg">
<rect width="296" height="141" fill="#F1F1F2"/>
<path d="M114.5 43C114.5 41.067 116.067 39.5 118 39.5H154C155.933 39.5 157.5 41.067 157.5 43V50C157.5 51.933 155.933 53.5 154 53.5H118C116.067 53.5 114.5 51.933 114.5 50V43Z" fill="white"/>
<path d="M114.5 43C114.5 41.067 116.067 39.5 118 39.5H154C155.933 39.5 157.5 41.067 157.5 43V50C157.5 51.933 155.933 53.5 154 53.5H118C116.067 53.5 114.5 51.933 114.5 50V43Z" stroke="#8952E0"/>
<rect x="120" y="45" width="32" height="3" rx="1.5" fill="#8952E0"/>
<path d="M115.011 98.3337C114.58 97.6899 114.27 96.9581 114.114 96.171L114.605 96.0739C114.536 95.727 114.5 95.368 114.5 95V94.0312H114V92.0938H114.5V90.1562H114V88.2188H114.5V86.2812H114V84.3438H114.5V82.4062H114V80.4688H114.5V78.5312H114V76.5938H114.5V74.6562H114V72.7188H114.5V70.7812H114V68.8438H114.5V66.9062H114V64.9688H114.5V64C114.5 63.632 114.536 63.273 114.605 62.9261L114.114 62.829C114.27 62.0419 114.58 61.3101 115.011 60.6663L115.426 60.9445C115.828 60.3445 116.344 59.8278 116.944 59.4261L116.666 59.0106C117.31 58.5796 118.042 58.2699 118.829 58.1142L118.926 58.6047C119.273 58.5361 119.632 58.5 120 58.5H121V58H123V58.5H125V58H127V58.5H129V58H131V58.5H133V58H135V58.5H137V58H139V58.5H141V58H143V58.5H145V58H147V58.5H149V58H151V58.5H153V58H155V58.5H157V58H159V58.5H161V58H163V58.5H165V58H167V58.5H169V58H171V58.5H173V58H175V58.5H176C176.368 58.5 176.727 58.5361 177.074 58.6047L177.171 58.1142C177.958 58.2699 178.69 58.5796 179.334 59.0106L179.056 59.4261C179.656 59.8278 180.172 60.3445 180.574 60.9445L180.989 60.6663C181.42 61.3101 181.73 62.0419 181.886 62.829L181.395 62.9261C181.464 63.273 181.5 63.632 181.5 64V64.9688H182V66.9062H181.5V68.8438H182V70.7812H181.5V72.7188H182V74.6562H181.5V76.5938H182V78.5312H181.5V80.4688H182V82.4062H181.5V84.3438H182V86.2812H181.5V88.2188H182V90.1562H181.5V92.0938H182V94.0312H181.5V95C181.5 95.368 181.464 95.727 181.395 96.0739L181.886 96.171C181.73 96.9581 181.42 97.6899 180.989 98.3337L180.574 98.0555C180.172 98.6555 179.656 99.1722 179.056 99.5739L179.334 99.9894C178.69 100.42 177.958 100.73 177.171 100.886L177.074 100.395C176.727 100.464 176.368 100.5 176 100.5H175V101H173V100.5H171V101H169V100.5H167V101H165V100.5H163V101H161V100.5H159V101H157V100.5H155V101H153V100.5H151V101H149V100.5H147V101H145V100.5H143V101H141V100.5H139V101H137V100.5H135V101H133V100.5H131V101H129V100.5H127V101H125V100.5H123V101H121V100.5H120C119.632 100.5 119.273 100.464 118.926 100.395L118.829 100.886C118.042 100.73 117.31 100.42 116.666 99.9894L116.944 99.5739C116.344 99.1722 115.828 98.6555 115.426 98.0555L115.011 98.3337Z" stroke="#ABADAF" stroke-dasharray="2 2"/>
<path d="M120.5 70C120.5 66.9624 122.962 64.5 126 64.5H170C173.038 64.5 175.5 66.9624 175.5 70V89C175.5 92.0376 173.038 94.5 170 94.5H126C122.962 94.5 120.5 92.0376 120.5 89V70Z" fill="white"/>
<path d="M120.5 70C120.5 66.9624 122.962 64.5 126 64.5H170C173.038 64.5 175.5 66.9624 175.5 70V89C175.5 92.0376 173.038 94.5 170 94.5H126C122.962 94.5 120.5 92.0376 120.5 89V70Z" stroke="#D3D4D5"/>
<rect x="128" y="72" width="20" height="3" rx="1.5" fill="#ABADAF"/>
<rect x="128" y="78" width="40" height="3" rx="1.5" fill="#D3D4D5"/>
<rect x="128" y="84" width="26" height="3" rx="1.5" fill="#D3D4D5"/>
<rect x="157" y="84" width="11" height="3" rx="1.5" fill="#D3D4D5"/>
<mask id="path-9-outside-1_78_7573" maskUnits="userSpaceOnUse" x="141" y="45" width="9" height="12" fill="black">
<rect fill="white" x="141" y="45" width="9" height="12"/>
<path d="M148.586 52.207C148.508 52.3828 148.332 52.5195 148.137 52.5195H146.086L146.984 54.3555C147.16 54.7461 147.004 55.2148 146.613 55.4102C146.223 55.5859 145.754 55.4297 145.559 55.0391L144.66 53.125L143.195 54.8438C143.098 54.9609 142.961 55.0195 142.844 55.0195C142.785 55.0195 142.727 55 142.668 54.9805C142.492 54.9219 142.375 54.7461 142.375 54.5312V47.3633C142.375 47.168 142.473 46.9922 142.648 46.9336C142.805 46.8555 143 46.875 143.137 46.9922L148.43 51.6797C148.605 51.8164 148.645 52.0312 148.586 52.207Z"/>
</mask>
<path d="M148.586 52.207C148.508 52.3828 148.332 52.5195 148.137 52.5195H146.086L146.984 54.3555C147.16 54.7461 147.004 55.2148 146.613 55.4102C146.223 55.5859 145.754 55.4297 145.559 55.0391L144.66 53.125L143.195 54.8438C143.098 54.9609 142.961 55.0195 142.844 55.0195C142.785 55.0195 142.727 55 142.668 54.9805C142.492 54.9219 142.375 54.7461 142.375 54.5312V47.3633C142.375 47.168 142.473 46.9922 142.648 46.9336C142.805 46.8555 143 46.875 143.137 46.9922L148.43 51.6797C148.605 51.8164 148.645 52.0312 148.586 52.207Z" fill="#171A1D"/>
<path d="M148.586 52.207L149.5 52.6132L149.519 52.5691L149.535 52.5233L148.586 52.207ZM146.086 52.5195V51.5195H144.483L145.188 52.9591L146.086 52.5195ZM146.984 54.3555L147.896 53.9451L147.89 53.9304L147.883 53.9159L146.984 54.3555ZM146.613 55.4102L147.024 56.3221L147.042 56.3137L147.06 56.3046L146.613 55.4102ZM145.559 55.0391L144.653 55.464L144.659 55.4752L144.664 55.4863L145.559 55.0391ZM144.66 53.125L145.565 52.7001L144.906 51.295L143.899 52.4763L144.66 53.125ZM143.195 54.8438L142.434 54.1951L142.427 54.2036L143.195 54.8438ZM142.648 46.9336L142.965 47.8823L143.032 47.8598L143.096 47.828L142.648 46.9336ZM143.137 46.9922L143.8 46.2436L143.794 46.2382L143.788 46.2329L143.137 46.9922ZM148.43 51.6797L147.767 52.4283L147.791 52.4495L147.816 52.469L148.43 51.6797ZM147.672 51.8009C147.705 51.727 147.755 51.6649 147.822 51.6172C147.89 51.5682 147.997 51.5195 148.137 51.5195V53.5195C148.799 53.5195 149.293 53.0795 149.5 52.6132L147.672 51.8009ZM148.137 51.5195H146.086V53.5195H148.137V51.5195ZM145.188 52.9591L146.086 54.795L147.883 53.9159L146.984 52.08L145.188 52.9591ZM146.072 54.7658C146.035 54.6824 146.062 54.5676 146.166 54.5157L147.06 56.3046C147.946 55.8621 148.285 54.8098 147.896 53.9451L146.072 54.7658ZM146.203 54.4982C146.286 54.4607 146.401 54.488 146.453 54.5918L144.664 55.4863C145.107 56.3713 146.159 56.7112 147.024 56.3221L146.203 54.4982ZM146.464 54.6142L145.565 52.7001L143.755 53.5499L144.653 55.464L146.464 54.6142ZM143.899 52.4763L142.434 54.1951L143.956 55.4924L145.421 53.7737L143.899 52.4763ZM142.427 54.2036C142.473 54.1489 142.53 54.105 142.594 54.0741C142.656 54.0443 142.74 54.0195 142.844 54.0195V56.0195C143.272 56.0195 143.685 55.8183 143.964 55.4839L142.427 54.2036ZM142.844 54.0195C142.923 54.0195 142.98 54.0326 142.998 54.0372C143.008 54.0397 143.013 54.0413 143.01 54.0403C143.006 54.039 143 54.0372 142.984 54.0318L142.352 55.9292C142.377 55.9375 142.594 56.0195 142.844 56.0195V54.0195ZM142.984 54.0318C143.283 54.1314 143.375 54.3898 143.375 54.5312H141.375C141.375 55.1024 141.701 55.7124 142.352 55.9292L142.984 54.0318ZM143.375 54.5312V47.3633H141.375V54.5312H143.375ZM143.375 47.3633C143.375 47.4694 143.308 47.768 142.965 47.8823L142.332 45.9849C141.638 46.2164 141.375 46.8665 141.375 47.3633H143.375ZM143.096 47.828C142.905 47.9236 142.665 47.9051 142.486 47.7514L143.788 46.2329C143.335 45.8449 142.705 45.7874 142.201 46.0392L143.096 47.828ZM142.474 47.7408L147.767 52.4283L149.093 50.9311L143.8 46.2436L142.474 47.7408ZM147.816 52.469C147.611 52.3096 147.581 52.059 147.637 51.8908L149.535 52.5233C149.708 52.0035 149.6 51.3232 149.044 50.8903L147.816 52.469Z" fill="white" mask="url(#path-9-outside-1_78_7573)"/>
</svg>
