<svg width="296" height="141" viewBox="0 0 296 141" fill="none" xmlns="http://www.w3.org/2000/svg">
<rect width="296" height="141" fill="#F1F1F2"/>
<path d="M108 54C108 52.067 109.567 50.5 111.5 50.5H147.5C149.433 50.5 151 52.067 151 54V61C151 62.933 149.433 64.5 147.5 64.5H111.5C109.567 64.5 108 62.933 108 61V54Z" fill="white"/>
<path d="M108 54C108 52.067 109.567 50.5 111.5 50.5H147.5C149.433 50.5 151 52.067 151 54V61C151 62.933 149.433 64.5 147.5 64.5H111.5C109.567 64.5 108 62.933 108 61V54Z" stroke="#8952E0"/>
<rect x="113.5" y="56" width="32" height="3" rx="1.5" fill="#8952E0"/>
<mask id="path-3-outside-1_78_7720" maskUnits="userSpaceOnUse" x="133.5" y="56" width="9" height="12" fill="black">
<rect fill="white" x="133.5" y="56" width="9" height="12"/>
<path d="M141.086 63.207C141.008 63.3828 140.832 63.5195 140.637 63.5195H138.586L139.484 65.3555C139.66 65.7461 139.504 66.2148 139.113 66.4102C138.723 66.5859 138.254 66.4297 138.059 66.0391L137.16 64.125L135.695 65.8438C135.598 65.9609 135.461 66.0195 135.344 66.0195C135.285 66.0195 135.227 66 135.168 65.9805C134.992 65.9219 134.875 65.7461 134.875 65.5312V58.3633C134.875 58.168 134.973 57.9922 135.148 57.9336C135.305 57.8555 135.5 57.875 135.637 57.9922L140.93 62.6797C141.105 62.8164 141.145 63.0312 141.086 63.207Z"/>
</mask>
<path d="M141.086 63.207C141.008 63.3828 140.832 63.5195 140.637 63.5195H138.586L139.484 65.3555C139.66 65.7461 139.504 66.2148 139.113 66.4102C138.723 66.5859 138.254 66.4297 138.059 66.0391L137.16 64.125L135.695 65.8438C135.598 65.9609 135.461 66.0195 135.344 66.0195C135.285 66.0195 135.227 66 135.168 65.9805C134.992 65.9219 134.875 65.7461 134.875 65.5312V58.3633C134.875 58.168 134.973 57.9922 135.148 57.9336C135.305 57.8555 135.5 57.875 135.637 57.9922L140.93 62.6797C141.105 62.8164 141.145 63.0312 141.086 63.207Z" fill="#171A1D"/>
<path d="M141.086 63.207L142 63.6132L142.019 63.5691L142.035 63.5233L141.086 63.207ZM138.586 63.5195V62.5195H136.983L137.688 63.9591L138.586 63.5195ZM139.484 65.3555L140.396 64.9451L140.39 64.9304L140.383 64.9159L139.484 65.3555ZM139.113 66.4102L139.524 67.3221L139.542 67.3137L139.56 67.3046L139.113 66.4102ZM138.059 66.0391L137.153 66.464L137.159 66.4752L137.164 66.4863L138.059 66.0391ZM137.16 64.125L138.065 63.7001L137.406 62.295L136.399 63.4763L137.16 64.125ZM135.695 65.8438L134.934 65.1951L134.927 65.2036L135.695 65.8438ZM135.148 57.9336L135.465 58.8823L135.532 58.8598L135.596 58.828L135.148 57.9336ZM135.637 57.9922L136.3 57.2436L136.294 57.2382L136.288 57.2329L135.637 57.9922ZM140.93 62.6797L140.267 63.4283L140.291 63.4495L140.316 63.469L140.93 62.6797ZM140.172 62.8009C140.205 62.727 140.255 62.6649 140.322 62.6172C140.39 62.5682 140.497 62.5195 140.637 62.5195V64.5195C141.299 64.5195 141.793 64.0795 142 63.6132L140.172 62.8009ZM140.637 62.5195H138.586V64.5195H140.637V62.5195ZM137.688 63.9591L138.586 65.795L140.383 64.9159L139.484 63.08L137.688 63.9591ZM138.572 65.7658C138.535 65.6824 138.562 65.5676 138.666 65.5157L139.56 67.3046C140.446 66.8621 140.785 65.8098 140.396 64.9451L138.572 65.7658ZM138.703 65.4982C138.786 65.4607 138.901 65.488 138.953 65.5918L137.164 66.4863C137.607 67.3713 138.659 67.7112 139.524 67.3221L138.703 65.4982ZM138.964 65.6142L138.065 63.7001L136.255 64.5499L137.153 66.464L138.964 65.6142ZM136.399 63.4763L134.934 65.1951L136.456 66.4924L137.921 64.7737L136.399 63.4763ZM134.927 65.2036C134.973 65.1489 135.03 65.105 135.094 65.0741C135.156 65.0443 135.24 65.0195 135.344 65.0195V67.0195C135.772 67.0195 136.185 66.8183 136.464 66.4839L134.927 65.2036ZM135.344 65.0195C135.423 65.0195 135.48 65.0326 135.498 65.0372C135.508 65.0397 135.513 65.0413 135.51 65.0403C135.506 65.039 135.5 65.0372 135.484 65.0318L134.852 66.9292C134.877 66.9375 135.094 67.0195 135.344 67.0195V65.0195ZM135.484 65.0318C135.783 65.1314 135.875 65.3898 135.875 65.5312H133.875C133.875 66.1024 134.201 66.7124 134.852 66.9292L135.484 65.0318ZM135.875 65.5312V58.3633H133.875V65.5312H135.875ZM135.875 58.3633C135.875 58.4694 135.808 58.768 135.465 58.8823L134.832 56.9849C134.138 57.2164 133.875 57.8665 133.875 58.3633H135.875ZM135.596 58.828C135.405 58.9236 135.165 58.9051 134.986 58.7514L136.288 57.2329C135.835 56.8449 135.205 56.7874 134.701 57.0392L135.596 58.828ZM134.974 58.7408L140.267 63.4283L141.593 61.9311L136.3 57.2436L134.974 58.7408ZM140.316 63.469C140.111 63.3096 140.081 63.059 140.137 62.8908L142.035 63.5233C142.208 63.0035 142.1 62.3232 141.544 61.8903L140.316 63.469Z" fill="white" mask="url(#path-3-outside-1_78_7720)"/>
<path d="M121.511 88.3337C121.08 87.6899 120.77 86.9581 120.614 86.171L121.105 86.0739C121.036 85.727 121 85.368 121 85V84.1667H120.5V82.5H121V80.8333H120.5V79.1667H121V77.5H120.5V75.8333H121V75C121 74.632 121.036 74.273 121.105 73.9261L120.614 73.829C120.77 73.0419 121.08 72.3101 121.511 71.6663L121.926 71.9445C122.328 71.3445 122.844 70.8278 123.444 70.4261L123.166 70.0106C123.81 69.5796 124.542 69.2699 125.329 69.1142L125.426 69.6047C125.773 69.5361 126.132 69.5 126.5 69.5H127.5V69H129.5V69.5H131.5V69H133.5V69.5H135.5V69H137.5V69.5H139.5V69H141.5V69.5H143.5V69H145.5V69.5H147.5V69H149.5V69.5H151.5V69H153.5V69.5H155.5V69H157.5V69.5H159.5V69H161.5V69.5H163.5V69H165.5V69.5H167.5V69H169.5V69.5H171.5V69H173.5V69.5H175.5V69H177.5V69.5H179.5V69H181.5V69.5H182.5C182.868 69.5 183.227 69.5361 183.574 69.6047L183.671 69.1142C184.458 69.2699 185.19 69.5796 185.834 70.0106L185.556 70.4261C186.156 70.8278 186.672 71.3445 187.074 71.9445L187.489 71.6663C187.92 72.3101 188.23 73.0419 188.386 73.829L187.895 73.9261C187.964 74.273 188 74.632 188 75V75.8333H188.5V77.5H188V79.1667H188.5V80.8333H188V82.5H188.5V84.1667H188V85C188 85.368 187.964 85.727 187.895 86.0739L188.386 86.171C188.23 86.9581 187.92 87.6899 187.489 88.3337L187.074 88.0555C186.672 88.6555 186.156 89.1722 185.556 89.5739L185.834 89.9894C185.19 90.4204 184.458 90.7301 183.671 90.8858L183.574 90.3953C183.227 90.4639 182.868 90.5 182.5 90.5H181.5V91H179.5V90.5H177.5V91H175.5V90.5H173.5V91H171.5V90.5H169.5V91H167.5V90.5H165.5V91H163.5V90.5H161.5V91H159.5V90.5H157.5V91H155.5V90.5H153.5V91H151.5V90.5H149.5V91H147.5V90.5H145.5V91H143.5V90.5H141.5V91H139.5V90.5H137.5V91H135.5V90.5H133.5V91H131.5V90.5H129.5V91H127.5V90.5H126.5C126.132 90.5 125.773 90.4639 125.426 90.3953L125.329 90.8858C124.542 90.7301 123.81 90.4204 123.166 89.9894L123.444 89.5739C122.844 89.1722 122.328 88.6555 121.926 88.0555L121.511 88.3337Z" stroke="#ABADAF" stroke-dasharray="2 2"/>
</svg>
