<svg width="296" height="141" viewBox="0 0 296 141" fill="none" xmlns="http://www.w3.org/2000/svg">
<rect x="106" y="58" width="28" height="3" rx="1.5" fill="#ABADAF"/>
<path d="M106.5 70C106.5 68.067 108.067 66.5 110 66.5H120C121.933 66.5 123.5 68.067 123.5 70V79C123.5 80.933 121.933 82.5 120 82.5H110C108.067 82.5 106.5 80.933 106.5 79V70Z" fill="white"/>
<path d="M106.5 70C106.5 68.067 108.067 66.5 110 66.5H120C121.933 66.5 123.5 68.067 123.5 70V79C123.5 80.933 121.933 82.5 120 82.5H110C108.067 82.5 106.5 80.933 106.5 79V70Z" stroke="#D3D4D5"/>
<rect x="112.5" y="72" width="5" height="5" rx="2.5" fill="#E7E7E8"/>
<path d="M128.5 70C128.5 68.067 130.067 66.5 132 66.5H142C143.933 66.5 145.5 68.067 145.5 70V79C145.5 80.933 143.933 82.5 142 82.5H132C130.067 82.5 128.5 80.933 128.5 79V70Z" fill="white"/>
<path d="M128.5 70C128.5 68.067 130.067 66.5 132 66.5H142C143.933 66.5 145.5 68.067 145.5 70V79C145.5 80.933 143.933 82.5 142 82.5H132C130.067 82.5 128.5 80.933 128.5 79V70Z" stroke="#D3D4D5"/>
<rect x="134.5" y="72" width="5" height="5" rx="2.5" fill="#E7E7E8"/>
<path d="M150.5 70C150.5 68.067 152.067 66.5 154 66.5H164C165.933 66.5 167.5 68.067 167.5 70V79C167.5 80.933 165.933 82.5 164 82.5H154C152.067 82.5 150.5 80.933 150.5 79V70Z" fill="white"/>
<path d="M150.5 70C150.5 68.067 152.067 66.5 154 66.5H164C165.933 66.5 167.5 68.067 167.5 70V79C167.5 80.933 165.933 82.5 164 82.5H154C152.067 82.5 150.5 80.933 150.5 79V70Z" stroke="#D3D4D5"/>
<rect x="156.5" y="72" width="5" height="5" rx="2.5" fill="#E7E7E8"/>
<path d="M172.5 70C172.5 68.067 174.067 66.5 176 66.5H186C187.933 66.5 189.5 68.067 189.5 70V79C189.5 80.933 187.933 82.5 186 82.5H176C174.067 82.5 172.5 80.933 172.5 79V70Z" fill="white"/>
<path d="M172.5 70C172.5 68.067 174.067 66.5 176 66.5H186C187.933 66.5 189.5 68.067 189.5 70V79C189.5 80.933 187.933 82.5 186 82.5H176C174.067 82.5 172.5 80.933 172.5 79V70Z" stroke="#D3D4D5"/>
<rect x="178.5" y="72" width="5" height="5" rx="2.5" fill="#E7E7E8"/>
</svg>
