<svg width="296" height="141" viewBox="0 0 296 141" fill="none" xmlns="http://www.w3.org/2000/svg">
<rect x="92.5" y="68" width="109" height="5" rx="2.5" fill="#D3D4D5"/>
<rect x="110.5" y="68" width="56" height="5" rx="2.5" fill="#8952E0"/>
<path d="M163 71C163 67.4101 165.91 64.5 169.5 64.5C173.09 64.5 176 67.4101 176 71C176 74.5899 173.09 77.5 169.5 77.5C165.91 77.5 163 74.5899 163 71Z" fill="white"/>
<path d="M163 71C163 67.4101 165.91 64.5 169.5 64.5C173.09 64.5 176 67.4101 176 71C176 74.5899 173.09 77.5 169.5 77.5C165.91 77.5 163 74.5899 163 71Z" stroke="#D3D4D5"/>
<path d="M110 71C110 67.4101 112.91 64.5 116.5 64.5C120.09 64.5 123 67.4101 123 71C123 74.5899 120.09 77.5 116.5 77.5C112.91 77.5 110 74.5899 110 71Z" fill="white"/>
<path d="M110 71C110 67.4101 112.91 64.5 116.5 64.5C120.09 64.5 123 67.4101 123 71C123 74.5899 120.09 77.5 116.5 77.5C112.91 77.5 110 74.5899 110 71Z" stroke="#D3D4D5"/>
</svg>
