<svg width="296" height="141" viewBox="0 0 296 141" fill="none" xmlns="http://www.w3.org/2000/svg">
<path d="M148 58.93C148 58.1402 147.358 57.4919 146.573 57.5786C144.336 57.8256 142.193 58.6504 140.359 59.9828C138.138 61.5964 136.485 63.8718 135.636 66.4828C134.788 69.0937 134.788 71.9063 135.636 74.5172C136.485 77.1282 138.138 79.4036 140.359 81.0172C142.58 82.6309 145.255 83.5 148 83.5C150.745 83.5 153.42 82.6309 155.641 81.0172C157.862 79.4036 159.515 77.1282 160.364 74.5172C161.064 72.3614 161.186 70.0681 160.73 67.8644C160.57 67.091 159.755 66.6806 159.004 66.9247C158.253 67.1687 157.852 67.9753 157.988 68.7532C158.272 70.3766 158.157 72.0524 157.644 73.6334C156.982 75.67 155.693 77.4448 153.96 78.7034C152.228 79.9621 150.141 80.64 148 80.64C145.859 80.64 143.772 79.9621 142.04 78.7034C140.307 77.4448 139.018 75.67 138.356 73.6334C137.695 71.5969 137.695 69.4031 138.356 67.3666C139.018 65.33 140.307 63.5552 142.04 62.2966C143.385 61.3194 144.943 60.6923 146.575 60.4607C147.357 60.3496 148 59.7198 148 58.93Z" fill="#8952E0"/>
</svg>
