<svg width="296" height="141" viewBox="0 0 296 141" fill="none" xmlns="http://www.w3.org/2000/svg">
<rect width="296" height="141" fill="#F1F1F2"/>
<path d="M100.5 53C100.5 49.9624 102.962 47.5 106 47.5H190C193.038 47.5 195.5 49.9624 195.5 53V88C195.5 91.0376 193.038 93.5 190 93.5H106C102.962 93.5 100.5 91.0376 100.5 88V53Z" fill="white"/>
<path d="M100.5 53C100.5 49.9624 102.962 47.5 106 47.5H190C193.038 47.5 195.5 49.9624 195.5 53V88C195.5 91.0376 193.038 93.5 190 93.5H106C102.962 93.5 100.5 91.0376 100.5 88V53Z" stroke="#D3D4D5"/>
<rect x="109" y="56" width="37" height="3" rx="1.5" fill="#ABADAF"/>
<path d="M117 71C117 73.2188 115.203 75 113 75C110.781 75 109 73.2188 109 71C109 68.7969 110.781 67 113 67C115.203 67 117 68.7969 117 71Z" fill="#D3D4D5"/>
<path d="M123.321 73.0597C123 73.0597 122.727 72.9723 122.501 72.7976C122.275 72.6214 122.103 72.3665 121.983 72.0327C121.864 71.6974 121.804 71.2926 121.804 70.8182C121.804 70.3466 121.864 69.9439 121.983 69.6101C122.104 69.2749 122.277 69.0192 122.503 68.843C122.73 68.6655 123.003 68.5767 123.321 68.5767C123.639 68.5767 123.911 68.6655 124.137 68.843C124.365 69.0192 124.538 69.2749 124.657 69.6101C124.778 69.9439 124.838 70.3466 124.838 70.8182C124.838 71.2926 124.779 71.6974 124.659 72.0327C124.54 72.3665 124.367 72.6214 124.142 72.7976C123.916 72.9723 123.642 73.0597 123.321 73.0597ZM123.321 72.5909C123.639 72.5909 123.887 72.4375 124.063 72.1307C124.239 71.8239 124.327 71.3864 124.327 70.8182C124.327 70.4403 124.286 70.1186 124.206 69.853C124.126 69.5874 124.011 69.3849 123.86 69.2457C123.711 69.1065 123.532 69.0369 123.321 69.0369C123.006 69.0369 122.759 69.1925 122.582 69.5036C122.404 69.8132 122.316 70.2514 122.316 70.8182C122.316 71.196 122.355 71.517 122.435 71.7812C122.514 72.0455 122.629 72.2464 122.778 72.3842C122.929 72.522 123.11 72.5909 123.321 72.5909ZM128.213 72.2159L125.81 69.8125L126.134 69.4886L128.537 71.892L128.213 72.2159ZM126.134 72.2159L125.81 71.892L128.213 69.4886L128.537 69.8125L126.134 72.2159ZM129.739 73L131.691 69.1392V69.1051H129.441V68.6364H132.237V69.1307L130.293 73H129.739ZM134.565 68.6364V73H134.036V69.1903H134.011L132.946 69.8977V69.3608L134.036 68.6364H134.565ZM139.408 70H138.88C138.848 69.848 138.794 69.7145 138.715 69.5994C138.639 69.4844 138.545 69.3878 138.434 69.3097C138.325 69.2301 138.203 69.1705 138.07 69.1307C137.936 69.0909 137.797 69.071 137.652 69.071C137.388 69.071 137.149 69.1378 136.934 69.2713C136.721 69.4048 136.551 69.6016 136.425 69.8615C136.3 70.1214 136.237 70.4403 136.237 70.8182C136.237 71.196 136.3 71.5149 136.425 71.7749C136.551 72.0348 136.721 72.2315 136.934 72.3651C137.149 72.4986 137.388 72.5653 137.652 72.5653C137.797 72.5653 137.936 72.5455 138.07 72.5057C138.203 72.4659 138.325 72.407 138.434 72.3288C138.545 72.2493 138.639 72.152 138.715 72.0369C138.794 71.9205 138.848 71.7869 138.88 71.6364H139.408C139.368 71.8594 139.296 72.0589 139.191 72.2351C139.085 72.4112 138.955 72.5611 138.799 72.6847C138.642 72.8068 138.467 72.8999 138.272 72.9638C138.079 73.0277 137.872 73.0597 137.652 73.0597C137.28 73.0597 136.949 72.9688 136.659 72.7869C136.37 72.6051 136.142 72.3466 135.975 72.0114C135.809 71.6761 135.726 71.2784 135.726 70.8182C135.726 70.358 135.809 69.9602 135.975 69.625C136.142 69.2898 136.37 69.0312 136.659 68.8494C136.949 68.6676 137.28 68.5767 137.652 68.5767C137.872 68.5767 138.079 68.6087 138.272 68.6726C138.467 68.7365 138.642 68.8303 138.799 68.9538C138.955 69.076 139.085 69.2251 139.191 69.4013C139.296 69.576 139.368 69.7756 139.408 70ZM140.321 73L142.273 69.1392V69.1051H140.023V68.6364H142.819V69.1307L140.875 73H140.321ZM143.238 73.0341C143.133 73.0341 143.043 72.9964 142.967 72.9212C142.892 72.8459 142.854 72.7557 142.854 72.6506C142.854 72.5455 142.892 72.4553 142.967 72.38C143.043 72.3047 143.133 72.267 143.238 72.267C143.343 72.267 143.433 72.3047 143.508 72.38C143.584 72.4553 143.621 72.5455 143.621 72.6506C143.621 72.7202 143.604 72.7841 143.568 72.8423C143.534 72.9006 143.488 72.9474 143.43 72.983C143.373 73.017 143.309 73.0341 143.238 73.0341ZM144.89 73.0341C144.785 73.0341 144.695 72.9964 144.62 72.9212C144.544 72.8459 144.507 72.7557 144.507 72.6506C144.507 72.5455 144.544 72.4553 144.62 72.38C144.695 72.3047 144.785 72.267 144.89 72.267C144.995 72.267 145.085 72.3047 145.161 72.38C145.236 72.4553 145.274 72.5455 145.274 72.6506C145.274 72.7202 145.256 72.7841 145.22 72.8423C145.186 72.9006 145.14 72.9474 145.082 72.983C145.025 73.017 144.961 73.0341 144.89 73.0341ZM146.543 73.0341C146.437 73.0341 146.347 72.9964 146.272 72.9212C146.197 72.8459 146.159 72.7557 146.159 72.6506C146.159 72.5455 146.197 72.4553 146.272 72.38C146.347 72.3047 146.437 72.267 146.543 72.267C146.648 72.267 146.738 72.3047 146.813 72.38C146.888 72.4553 146.926 72.5455 146.926 72.6506C146.926 72.7202 146.908 72.7841 146.873 72.8423C146.839 72.9006 146.793 72.9474 146.734 72.983C146.677 73.017 146.614 73.0341 146.543 73.0341ZM149.168 68.5767C149.347 68.5781 149.526 68.6122 149.705 68.679C149.884 68.7457 150.047 68.8565 150.195 69.0114C150.343 69.1648 150.461 69.3743 150.551 69.6399C150.64 69.9055 150.685 70.2386 150.685 70.6392C150.685 71.027 150.648 71.3714 150.574 71.6726C150.502 71.9723 150.397 72.2251 150.259 72.4311C150.123 72.6371 149.956 72.7933 149.76 72.8999C149.566 73.0064 149.346 73.0597 149.1 73.0597C148.856 73.0597 148.638 73.0114 148.446 72.9148C148.255 72.8168 148.099 72.6811 147.977 72.5078C147.856 72.3331 147.779 72.1307 147.745 71.9006H148.265C148.312 72.1009 148.405 72.2663 148.544 72.397C148.684 72.5263 148.87 72.5909 149.1 72.5909C149.437 72.5909 149.702 72.4439 149.897 72.1499C150.093 71.8558 150.191 71.4403 150.191 70.9034H150.157C150.077 71.0227 149.983 71.1257 149.873 71.2124C149.764 71.299 149.642 71.3658 149.509 71.4126C149.375 71.4595 149.233 71.483 149.083 71.483C148.833 71.483 148.603 71.4212 148.395 71.2976C148.187 71.1726 148.021 71.0014 147.896 70.7841C147.772 70.5653 147.711 70.3153 147.711 70.0341C147.711 69.767 147.77 69.5227 147.89 69.3011C148.01 69.0781 148.179 68.9006 148.397 68.7685C148.616 68.6364 148.873 68.5724 149.168 68.5767ZM149.168 69.0455C148.989 69.0455 148.828 69.0902 148.684 69.1797C148.542 69.2678 148.429 69.3871 148.346 69.5376C148.263 69.6868 148.222 69.8523 148.222 70.0341C148.222 70.2159 148.262 70.3814 148.341 70.5305C148.422 70.6783 148.532 70.7962 148.672 70.8842C148.812 70.9709 148.972 71.0142 149.151 71.0142C149.286 71.0142 149.412 70.9879 149.528 70.9354C149.645 70.8814 149.746 70.8082 149.833 70.7159C149.921 70.6222 149.99 70.5163 150.04 70.3984C150.089 70.2791 150.114 70.1548 150.114 70.0256C150.114 69.8551 150.073 69.6953 149.991 69.5462C149.91 69.397 149.797 69.2763 149.654 69.1839C149.512 69.0916 149.35 69.0455 149.168 69.0455ZM151.542 73L153.494 69.1392V69.1051H151.244V68.6364H154.039V69.1307L152.096 73H151.542ZM156.189 73.0597C156.01 73.0568 155.831 73.0227 155.652 72.9574C155.473 72.892 155.309 72.782 155.162 72.6271C155.014 72.4709 154.895 72.2599 154.806 71.9943C154.716 71.7273 154.672 71.392 154.672 70.9886C154.672 70.6023 154.708 70.2599 154.78 69.9616C154.853 69.6619 154.958 69.4098 155.096 69.2053C155.233 68.9993 155.4 68.843 155.594 68.7365C155.79 68.63 156.011 68.5767 156.257 68.5767C156.501 68.5767 156.718 68.6257 156.909 68.7237C157.101 68.8203 157.257 68.9553 157.378 69.1286C157.498 69.3018 157.576 69.5014 157.612 69.7273H157.092C157.044 69.5312 156.95 69.3686 156.811 69.2393C156.672 69.1101 156.487 69.0455 156.257 69.0455C155.919 69.0455 155.652 69.1925 155.458 69.4865C155.265 69.7805 155.167 70.1932 155.166 70.7244H155.2C155.28 70.6037 155.374 70.5007 155.483 70.4155C155.594 70.3288 155.716 70.2621 155.85 70.2152C155.983 70.1683 156.125 70.1449 156.274 70.1449C156.524 70.1449 156.753 70.2074 156.96 70.3324C157.167 70.456 157.334 70.6271 157.459 70.8459C157.584 71.0632 157.646 71.3125 157.646 71.5938C157.646 71.8636 157.586 72.1108 157.465 72.3352C157.344 72.5582 157.174 72.7358 156.956 72.8679C156.738 72.9986 156.483 73.0625 156.189 73.0597ZM156.189 72.5909C156.368 72.5909 156.528 72.5462 156.67 72.4567C156.814 72.3672 156.927 72.2472 157.009 72.0966C157.093 71.946 157.135 71.7784 157.135 71.5938C157.135 71.4134 157.094 71.2493 157.013 71.1016C156.934 70.9524 156.824 70.8338 156.683 70.7457C156.544 70.6577 156.385 70.6136 156.206 70.6136C156.071 70.6136 155.945 70.6406 155.829 70.6946C155.712 70.7472 155.61 70.8196 155.522 70.9119C155.435 71.0043 155.367 71.1101 155.317 71.2294C155.267 71.3473 155.243 71.4716 155.243 71.6023C155.243 71.7756 155.283 71.9375 155.364 72.0881C155.446 72.2386 155.559 72.3601 155.701 72.4524C155.844 72.5447 156.007 72.5909 156.189 72.5909ZM158.561 73V68.6364H161.177V69.1051H159.089V70.5795H160.981V71.0483H159.089V73H158.561Z" fill="#8952E0"/>
<rect x="121" y="79" width="31" height="3" rx="1.5" fill="#D3D4D5"/>
<rect x="156" y="79" width="31" height="3" rx="1.5" fill="#D3D4D5"/>
</svg>
