<svg width="296" height="141" viewBox="0 0 296 141" fill="none" xmlns="http://www.w3.org/2000/svg">
<rect width="296" height="141" fill="#F1F1F2"/>
<rect x="121" y="55" width="12" height="8" rx="4" fill="white"/>
<path d="M121 59C121 55.6953 123.672 53 127 53C130.305 53 133 55.6953 133 59C133 62.3281 130.305 65 127 65C123.672 65 121 62.3281 121 59ZM127 61.25C128.242 61.25 129.25 60.2422 129.25 59C129.25 57.7578 128.242 56.75 127 56.75C125.734 56.75 124.75 57.7578 124.75 59C124.75 60.2422 125.734 61.25 127 61.25Z" fill="#8952E0"/>
<rect x="141" y="54" width="33" height="3" rx="1.5" fill="#ABADAF"/>
<rect x="141" y="61" width="16" height="3" rx="1.5" fill="#D3D4D5"/>
<mask id="path-5-inside-1_103_8019" fill="white">
<path d="M133 80C133 83.3281 130.305 86 127 86C123.672 86 121 83.3281 121 80C121 76.6953 123.672 74 127 74C130.305 74 133 76.6953 133 80Z"/>
</mask>
<path d="M133 80C133 83.3281 130.305 86 127 86C123.672 86 121 83.3281 121 80C121 76.6953 123.672 74 127 74C130.305 74 133 76.6953 133 80Z" fill="white"/>
<path d="M132 80C132 82.7733 129.755 85 127 85V87C130.854 87 134 83.883 134 80H132ZM127 85C124.224 85 122 82.7758 122 80H120C120 83.8804 123.12 87 127 87V85ZM122 80C122 77.2451 124.227 75 127 75V73C123.117 73 120 76.1456 120 80H122ZM127 75C129.752 75 132 77.2476 132 80H134C134 76.143 130.857 73 127 73V75Z" fill="#D3D4D5" mask="url(#path-5-inside-1_103_8019)"/>
<rect x="141" y="75" width="33" height="3" rx="1.5" fill="#ABADAF"/>
<rect x="141" y="82" width="16" height="3" rx="1.5" fill="#D3D4D5"/>
</svg>
