<svg width="296" height="141" viewBox="0 0 296 141" fill="none" xmlns="http://www.w3.org/2000/svg">
<rect width="296" height="141" fill="#F1F1F2"/>
<rect x="121" y="54.5" width="12" height="8" rx="4" fill="white"/>
<path d="M121 58.5C121 55.1953 123.672 52.5 127 52.5C130.305 52.5 133 55.1953 133 58.5C133 61.8281 130.305 64.5 127 64.5C123.672 64.5 121 61.8281 121 58.5ZM127 60.75C128.242 60.75 129.25 59.7422 129.25 58.5C129.25 57.2578 128.242 56.25 127 56.25C125.734 56.25 124.75 57.2578 124.75 58.5C124.75 59.7422 125.734 60.75 127 60.75Z" fill="#8952E0"/>
<rect x="141" y="57" width="33" height="3" rx="1.5" fill="#ABADAF"/>
<mask id="path-4-inside-1_103_8046" fill="white">
<path d="M133 78.5C133 81.8281 130.305 84.5 127 84.5C123.672 84.5 121 81.8281 121 78.5C121 75.1953 123.672 72.5 127 72.5C130.305 72.5 133 75.1953 133 78.5Z"/>
</mask>
<path d="M133 78.5C133 81.8281 130.305 84.5 127 84.5C123.672 84.5 121 81.8281 121 78.5C121 75.1953 123.672 72.5 127 72.5C130.305 72.5 133 75.1953 133 78.5Z" fill="white"/>
<path d="M132 78.5C132 81.2733 129.755 83.5 127 83.5V85.5C130.854 85.5 134 82.383 134 78.5H132ZM127 83.5C124.224 83.5 122 81.2758 122 78.5H120C120 82.3804 123.12 85.5 127 85.5V83.5ZM122 78.5C122 75.7451 124.227 73.5 127 73.5V71.5C123.117 71.5 120 74.6456 120 78.5H122ZM127 73.5C129.752 73.5 132 75.7476 132 78.5H134C134 74.643 130.857 71.5 127 71.5V73.5Z" fill="#D3D4D5" mask="url(#path-4-inside-1_103_8046)"/>
<rect x="141" y="77" width="33" height="3" rx="1.5" fill="#ABADAF"/>
</svg>
