<svg width="296" height="141" viewBox="0 0 296 141" fill="none" xmlns="http://www.w3.org/2000/svg">
<rect width="296" height="141" fill="#F1F1F2"/>
<rect x="89" y="58" width="28" height="3" rx="1.5" fill="#ABADAF"/>
<path d="M89.5 70C89.5 68.067 91.067 66.5 93 66.5H203C204.933 66.5 206.5 68.067 206.5 70V79C206.5 80.933 204.933 82.5 203 82.5H93C91.067 82.5 89.5 80.933 89.5 79V70Z" fill="white"/>
<path d="M89.5 70C89.5 68.067 91.067 66.5 93 66.5H203C204.933 66.5 206.5 68.067 206.5 70V79C206.5 80.933 204.933 82.5 203 82.5H93C91.067 82.5 89.5 80.933 89.5 79V70Z" stroke="#D3D4D5"/>
<rect x="95" y="73" width="13" height="3" rx="1.5" fill="#E7E7E8"/>
<path d="M195.922 74C195.547 74 195.344 73.5469 195.625 73.2656L197.688 71.1406C197.766 71.0469 197.891 71 198 71C198.109 71 198.219 71.0469 198.297 71.1406L200.359 73.2656C200.641 73.5469 200.438 74 200.062 74H195.922ZM200.062 75C200.438 75 200.641 75.4688 200.359 75.75L198.297 77.875C198.219 77.9688 198.109 78 198 78C197.875 78 197.766 77.9688 197.688 77.875L195.625 75.75C195.344 75.4688 195.547 75 195.922 75H200.062Z" fill="#ABADAF"/>
</svg>
