<svg width="296" height="141" viewBox="0 0 296 141" fill="none" xmlns="http://www.w3.org/2000/svg">
<rect x="89" y="22" width="28" height="3" rx="1.5" fill="#8952E0"/>
<path d="M89.5 33C89.5 31.067 91.067 29.5 93 29.5H141C142.933 29.5 144.5 31.067 144.5 33V42C144.5 43.933 142.933 45.5 141 45.5H93C91.067 45.5 89.5 43.933 89.5 42V33Z" fill="white"/>
<path d="M89.5 33C89.5 31.067 91.067 29.5 93 29.5H141C142.933 29.5 144.5 31.067 144.5 33V42C144.5 43.933 142.933 45.5 141 45.5H93C91.067 45.5 89.5 43.933 89.5 42V33Z" stroke="#8952E0"/>
<rect x="95" y="36" width="32" height="3" rx="1.5" fill="#E7E7E8"/>
<rect x="151" y="22" width="28" height="3" rx="1.5" fill="#ABADAF"/>
<path d="M151.5 33C151.5 31.067 153.067 29.5 155 29.5H203C204.933 29.5 206.5 31.067 206.5 33V42C206.5 43.933 204.933 45.5 203 45.5H155C153.067 45.5 151.5 43.933 151.5 42V33Z" fill="white"/>
<path d="M151.5 33C151.5 31.067 153.067 29.5 155 29.5H203C204.933 29.5 206.5 31.067 206.5 33V42C206.5 43.933 204.933 45.5 203 45.5H155C153.067 45.5 151.5 43.933 151.5 42V33Z" stroke="#D3D4D5"/>
<rect x="157" y="36" width="32" height="3" rx="1.5" fill="#E7E7E8"/>
<rect x="89" y="52" width="28" height="3" rx="1.5" fill="#ABADAF"/>
<path d="M89.5 63C89.5 61.067 91.067 59.5 93 59.5H203C204.933 59.5 206.5 61.067 206.5 63V72C206.5 73.933 204.933 75.5 203 75.5H93C91.067 75.5 89.5 73.933 89.5 72V63Z" fill="white"/>
<path d="M89.5 63C89.5 61.067 91.067 59.5 93 59.5H203C204.933 59.5 206.5 61.067 206.5 63V72C206.5 73.933 204.933 75.5 203 75.5H93C91.067 75.5 89.5 73.933 89.5 72V63Z" stroke="#D3D4D5"/>
<rect x="95" y="66" width="32" height="3" rx="1.5" fill="#E7E7E8"/>
<path d="M200.344 67.3594L198.359 69.3594C198.25 69.4531 198.125 69.5 198 69.5C197.859 69.5 197.734 69.4531 197.641 69.3594L195.656 67.3594C195.5 67.2188 195.453 67 195.531 66.8125C195.609 66.625 195.797 66.5 196 66.5H199.984C200.188 66.5 200.359 66.625 200.438 66.8125C200.516 67 200.484 67.2188 200.344 67.3594Z" fill="#ABADAF"/>
<rect x="89" y="82" width="28" height="3" rx="1.5" fill="#ABADAF"/>
<path d="M89.5 93C89.5 91.067 91.067 89.5 93 89.5H203C204.933 89.5 206.5 91.067 206.5 93V115C206.5 116.933 204.933 118.5 203 118.5H93C91.067 118.5 89.5 116.933 89.5 115V93Z" fill="white"/>
<path d="M89.5 93C89.5 91.067 91.067 89.5 93 89.5H203C204.933 89.5 206.5 91.067 206.5 93V115C206.5 116.933 204.933 118.5 203 118.5H93C91.067 118.5 89.5 116.933 89.5 115V93Z" stroke="#D3D4D5"/>
<rect x="95" y="97" width="32" height="3" rx="1.5" fill="#E7E7E8"/>
</svg>
