<svg width="296" height="141" viewBox="0 0 296 141" fill="none" xmlns="http://www.w3.org/2000/svg">
<rect width="296" height="141" fill="#F1F1F2"/>
<g clip-path="url(#clip0_78_6332)">
<path d="M87 34C87 30.6863 89.6863 28 93 28H203C206.314 28 209 30.6863 209 34V107C209 110.314 206.314 113 203 113H93C89.6863 113 87 110.314 87 107V34Z" fill="white"/>
<mask id="path-3-inside-1_78_6332" fill="white">
<path d="M87 28H209V40H87V28Z"/>
</mask>
<path d="M87 28H209V40H87V28Z" fill="#F9FAFA"/>
<path d="M209 39H87V41H209V39Z" fill="#E7E7E8" mask="url(#path-3-inside-1_78_6332)"/>
<rect x="93" y="32" width="4" height="4" rx="2" fill="#E53E3E"/>
<rect x="100" y="32" width="4" height="4" rx="2" fill="#FBC434"/>
<rect x="107" y="32" width="4" height="4" rx="2" fill="#0EA371"/>
<rect x="124.5" y="50" width="47" height="3" rx="1.5" fill="#ABADAF"/>
<rect x="139" y="56" width="18" height="3" rx="1.5" fill="#D3D4D5"/>
<rect x="117" y="70" width="10" height="3" rx="1.5" fill="#8952E0"/>
<path d="M117.5 77C117.5 76.1716 118.172 75.5 119 75.5H144C144.828 75.5 145.5 76.1716 145.5 77V82C145.5 82.8284 144.828 83.5 144 83.5H119C118.172 83.5 117.5 82.8284 117.5 82V77Z" fill="white"/>
<path d="M117.5 77C117.5 76.1716 118.172 75.5 119 75.5H144C144.828 75.5 145.5 76.1716 145.5 77V82C145.5 82.8284 144.828 83.5 144 83.5H119C118.172 83.5 117.5 82.8284 117.5 82V77Z" stroke="#8952E0"/>
<rect x="150" y="70" width="10" height="3" rx="1.5" fill="#D3D4D5"/>
<path d="M150.5 77C150.5 76.1716 151.172 75.5 152 75.5H177C177.828 75.5 178.5 76.1716 178.5 77V82C178.5 82.8284 177.828 83.5 177 83.5H152C151.172 83.5 150.5 82.8284 150.5 82V77Z" fill="white"/>
<path d="M150.5 77C150.5 76.1716 151.172 75.5 152 75.5H177C177.828 75.5 178.5 76.1716 178.5 77V82C178.5 82.8284 177.828 83.5 177 83.5H152C151.172 83.5 150.5 82.8284 150.5 82V77Z" stroke="#E7E7E8"/>
<rect x="117" y="88" width="10" height="3" rx="1.5" fill="#D3D4D5"/>
<path d="M117.5 95C117.5 94.1716 118.172 93.5 119 93.5H177C177.828 93.5 178.5 94.1716 178.5 95V100C178.5 100.828 177.828 101.5 177 101.5H119C118.172 101.5 117.5 100.828 117.5 100V95Z" fill="white"/>
<path d="M117.5 95C117.5 94.1716 118.172 93.5 119 93.5H177C177.828 93.5 178.5 94.1716 178.5 95V100C178.5 100.828 177.828 101.5 177 101.5H119C118.172 101.5 117.5 100.828 117.5 100V95Z" stroke="#E7E7E8"/>
</g>
<path d="M87.5 34C87.5 30.9624 89.9624 28.5 93 28.5H203C206.038 28.5 208.5 30.9624 208.5 34V107C208.5 110.038 206.038 112.5 203 112.5H93C89.9624 112.5 87.5 110.038 87.5 107V34Z" stroke="#D3D4D5"/>
<defs>
<clipPath id="clip0_78_6332">
<path d="M87 34C87 30.6863 89.6863 28 93 28H203C206.314 28 209 30.6863 209 34V107C209 110.314 206.314 113 203 113H93C89.6863 113 87 110.314 87 107V34Z" fill="white"/>
</clipPath>
</defs>
</svg>
