<svg width="296" height="141" viewBox="0 0 296 141" fill="none" xmlns="http://www.w3.org/2000/svg">
<rect x="89" y="20" width="38" height="3" rx="1.5" fill="#ABADAF"/>
<path d="M89.5 33C89.5 31.067 91.067 29.5 93 29.5H142C143.933 29.5 145.5 31.067 145.5 33V42C145.5 43.933 143.933 45.5 142 45.5H93C91.067 45.5 89.5 43.933 89.5 42V33Z" fill="white"/>
<path d="M89.5 33C89.5 31.067 91.067 29.5 93 29.5H142C143.933 29.5 145.5 31.067 145.5 33V42C145.5 43.933 143.933 45.5 142 45.5H93C91.067 45.5 89.5 43.933 89.5 42V33Z" stroke="#D3D4D5"/>
<rect x="95" y="36" width="32" height="3" rx="1.5" fill="#E7E7E8"/>
<path d="M150.5 33C150.5 31.067 152.067 29.5 154 29.5H203C204.933 29.5 206.5 31.067 206.5 33V42C206.5 43.933 204.933 45.5 203 45.5H154C152.067 45.5 150.5 43.933 150.5 42V33Z" fill="white"/>
<path d="M150.5 33C150.5 31.067 152.067 29.5 154 29.5H203C204.933 29.5 206.5 31.067 206.5 33V42C206.5 43.933 204.933 45.5 203 45.5H154C152.067 45.5 150.5 43.933 150.5 42V33Z" stroke="#D3D4D5"/>
<rect x="156" y="36" width="32" height="3" rx="1.5" fill="#E7E7E8"/>
<path d="M89.5 56C89.5 54.067 91.067 52.5 93 52.5H203C204.933 52.5 206.5 54.067 206.5 56V65C206.5 66.933 204.933 68.5 203 68.5H93C91.067 68.5 89.5 66.933 89.5 65V56Z" fill="white"/>
<path d="M89.5 56C89.5 54.067 91.067 52.5 93 52.5H203C204.933 52.5 206.5 54.067 206.5 56V65C206.5 66.933 204.933 68.5 203 68.5H93C91.067 68.5 89.5 66.933 89.5 65V56Z" stroke="#D3D4D5"/>
<rect x="95" y="59" width="32" height="3" rx="1.5" fill="#E7E7E8"/>
<path d="M89.5 79C89.5 77.067 91.067 75.5 93 75.5H203C204.933 75.5 206.5 77.067 206.5 79V101C206.5 102.933 204.933 104.5 203 104.5H93C91.067 104.5 89.5 102.933 89.5 101V79Z" fill="white"/>
<path d="M89.5 79C89.5 77.067 91.067 75.5 93 75.5H203C204.933 75.5 206.5 77.067 206.5 79V101C206.5 102.933 204.933 104.5 203 104.5H93C91.067 104.5 89.5 102.933 89.5 101V79Z" stroke="#D3D4D5"/>
<rect x="95" y="82" width="32" height="3" rx="1.5" fill="#E7E7E8"/>
<path d="M180 113C180 111.895 180.895 111 182 111H205C206.105 111 207 111.895 207 113V119C207 120.105 206.105 121 205 121H182C180.895 121 180 120.105 180 119V113Z" fill="#8952E0"/>
<rect x="184" y="115" width="19" height="2" rx="1" fill="white"/>
</svg>
