<svg width="296" height="141" viewBox="0 0 296 141" fill="none" xmlns="http://www.w3.org/2000/svg">
<rect width="296" height="141" fill="#F1F1F2"/>
<path d="M135 59.5C135 55.634 138.134 52.5 142 52.5H154C157.866 52.5 161 55.634 161 59.5C161 63.366 157.866 66.5 154 66.5H142C138.134 66.5 135 63.366 135 59.5Z" fill="#ABADAF"/>
<path d="M147.5 59.25C147.5 62.0234 145.254 64.25 142.5 64.25C139.727 64.25 137.5 62.0234 137.5 59.25C137.5 56.4961 139.727 54.25 142.5 54.25C145.254 54.25 147.5 56.4961 147.5 59.25Z" fill="white"/>
<path d="M135 81.5C135 77.634 138.134 74.5 142 74.5H154C157.866 74.5 161 77.634 161 81.5C161 85.366 157.866 88.5 154 88.5H142C138.134 88.5 135 85.366 135 81.5Z" fill="#8952E0"/>
<path d="M158.5 81.25C158.5 84.0234 156.254 86.25 153.5 86.25C150.727 86.25 148.5 84.0234 148.5 81.25C148.5 78.4961 150.727 76.25 153.5 76.25C156.254 76.25 158.5 78.4961 158.5 81.25Z" fill="white"/>
</svg>
