<svg width="296" height="141" viewBox="0 0 296 141" fill="none" xmlns="http://www.w3.org/2000/svg">
<rect width="296" height="141" fill="#F1F1F2"/>
<rect x="89" y="39" width="28" height="3" rx="1.5" fill="#ABADAF"/>
<path d="M89.5 51C89.5 49.067 91.067 47.5 93 47.5H203C204.933 47.5 206.5 49.067 206.5 51V60C206.5 61.933 204.933 63.5 203 63.5H93C91.067 63.5 89.5 61.933 89.5 60V51Z" fill="white"/>
<path d="M89.5 51C89.5 49.067 91.067 47.5 93 47.5H203C204.933 47.5 206.5 49.067 206.5 51V60C206.5 61.933 204.933 63.5 203 63.5H93C91.067 63.5 89.5 61.933 89.5 60V51Z" stroke="#D3D4D5"/>
<rect x="95" y="54" width="32" height="3" rx="1.5" fill="#E7E7E8"/>
<rect x="89" y="76" width="28" height="3" rx="1.5" fill="#ABADAF"/>
<path d="M89.5 88C89.5 86.067 91.067 84.5 93 84.5H203C204.933 84.5 206.5 86.067 206.5 88V97C206.5 98.933 204.933 100.5 203 100.5H93C91.067 100.5 89.5 98.933 89.5 97V88Z" fill="white"/>
<path d="M89.5 88C89.5 86.067 91.067 84.5 93 84.5H203C204.933 84.5 206.5 86.067 206.5 88V97C206.5 98.933 204.933 100.5 203 100.5H93C91.067 100.5 89.5 98.933 89.5 97V88Z" stroke="#D3D4D5"/>
<rect x="95" y="91" width="32" height="3" rx="1.5" fill="#E7E7E8"/>
<path d="M197.001 93.8308C196.914 93.8308 196.831 93.7975 196.764 93.7341L194.764 91.7341C194.634 91.6041 194.634 91.3941 194.764 91.2641C194.894 91.1341 195.104 91.1341 195.234 91.2641L196.998 93.0275L198.761 91.2641C198.891 91.1341 199.101 91.1341 199.231 91.2641C199.361 91.3941 199.361 91.6041 199.231 91.7341L197.231 93.7341C197.164 93.8008 197.081 93.8308 196.994 93.8308H197.001Z" fill="#ABADAF"/>
</svg>
