<svg width="296" height="141" viewBox="0 0 296 141" fill="none" xmlns="http://www.w3.org/2000/svg">
<rect width="296" height="141" fill="#F1F1F2"/>
<path d="M89.5 66C89.5 64.067 91.067 62.5 93 62.5H203C204.933 62.5 206.5 64.067 206.5 66V75C206.5 76.933 204.933 78.5 203 78.5H93C91.067 78.5 89.5 76.933 89.5 75V66Z" fill="white"/>
<path d="M89.5 66C89.5 64.067 91.067 62.5 93 62.5H203C204.933 62.5 206.5 64.067 206.5 66V75C206.5 76.933 204.933 78.5 203 78.5H93C91.067 78.5 89.5 76.933 89.5 75V66Z" stroke="#8952E0"/>
<rect x="95" y="69" width="32" height="3" rx="1.5" fill="#D3D4D5"/>
<path d="M185.637 72.4883C185.865 72.6992 185.865 73.0684 185.637 73.2793C185.531 73.3848 185.391 73.4375 185.25 73.4375C185.092 73.4375 184.951 73.3848 184.846 73.2793L183 71.4336L181.137 73.2793C181.031 73.3848 180.891 73.4375 180.75 73.4375C180.592 73.4375 180.451 73.3848 180.346 73.2793C180.117 73.0684 180.117 72.6992 180.346 72.4883L182.191 70.625L180.346 68.7793C180.117 68.5684 180.117 68.1992 180.346 67.9883C180.557 67.7598 180.926 67.7598 181.137 67.9883L183 69.834L184.846 67.9883C185.057 67.7598 185.426 67.7598 185.637 67.9883C185.865 68.1992 185.865 68.5684 185.637 68.7793L183.791 70.6426L185.637 72.4883Z" fill="#ABADAF"/>
<path d="M200.262 67.9883C200.49 68.1992 200.49 68.5684 200.262 68.7793L195.762 73.2793C195.551 73.5078 195.182 73.5078 194.971 73.2793L192.721 71.0293C192.492 70.8184 192.492 70.4492 192.721 70.2383C192.932 70.0098 193.301 70.0098 193.512 70.2383L195.357 72.084L199.471 67.9883C199.682 67.7598 200.051 67.7598 200.262 67.9883Z" fill="#ABADAF"/>
</svg>
