<svg width="296" height="141" viewBox="0 0 296 141" fill="none" xmlns="http://www.w3.org/2000/svg">
<rect width="296" height="141" fill="#F1F1F2"/>
<path d="M82.5 36C82.5 32.9624 84.9624 30.5 88 30.5H208C211.038 30.5 213.5 32.9624 213.5 36V105C213.5 108.038 211.038 110.5 208 110.5H88C84.9624 110.5 82.5 108.038 82.5 105V36Z" fill="white"/>
<path d="M82.5 36C82.5 32.9624 84.9624 30.5 88 30.5H208C211.038 30.5 213.5 32.9624 213.5 36V105C213.5 108.038 211.038 110.5 208 110.5H88C84.9624 110.5 82.5 108.038 82.5 105V36Z" stroke="#D3D4D5"/>
<mask id="path-2-inside-1_99_8006" fill="white">
<path d="M83 36C83 33.2386 85.2386 31 88 31H208C210.761 31 213 33.2386 213 36V43H83V36Z"/>
</mask>
<path d="M83 36C83 33.2386 85.2386 31 88 31H208C210.761 31 213 33.2386 213 36V43H83V36Z" fill="#F9FAFA"/>
<path d="M83 31H213H83ZM213 44H83V42H213V44ZM83 43V31V43ZM213 31V43V31Z" fill="#E7E7E8" mask="url(#path-2-inside-1_99_8006)"/>
<rect x="89" y="35" width="4" height="4" rx="2" fill="#E53E3E"/>
<rect x="96" y="35" width="4" height="4" rx="2" fill="#FBC434"/>
<rect x="103" y="35" width="4" height="4" rx="2" fill="#0EA371"/>
<rect width="130" height="13" transform="translate(83 43)" fill="#8952E0"/>
<path d="M93 49.75C93 51.4141 91.6523 52.75 90 52.75C88.3359 52.75 87 51.4141 87 49.75C87 48.0977 88.3359 46.75 90 46.75C91.6523 46.75 93 48.0977 93 49.75Z" fill="#B795EC"/>
<rect x="96" y="48" width="32" height="3" rx="1.5" fill="#B795EC"/>
<rect x="184" y="48" width="11" height="3" rx="1.5" fill="#B795EC"/>
<rect x="198" y="48" width="11" height="3" rx="1.5" fill="#B795EC"/>
<rect x="134" y="64" width="29" height="3" rx="1.5" fill="#D3D4D5"/>
<path d="M117.5 75C117.5 74.1716 118.172 73.5 119 73.5H178C178.828 73.5 179.5 74.1716 179.5 75V80C179.5 80.8284 178.828 81.5 178 81.5H119C118.172 81.5 117.5 80.8284 117.5 80V75Z" fill="white"/>
<path d="M117.5 75C117.5 74.1716 118.172 73.5 119 73.5H178C178.828 73.5 179.5 74.1716 179.5 75V80C179.5 80.8284 178.828 81.5 178 81.5H119C118.172 81.5 117.5 80.8284 117.5 80V75Z" stroke="#E7E7E8"/>
<path d="M117.5 90C117.5 89.1716 118.172 88.5 119 88.5H178C178.828 88.5 179.5 89.1716 179.5 90V95C179.5 95.8284 178.828 96.5 178 96.5H119C118.172 96.5 117.5 95.8284 117.5 95V90Z" fill="white"/>
<path d="M117.5 90C117.5 89.1716 118.172 88.5 119 88.5H178C178.828 88.5 179.5 89.1716 179.5 90V95C179.5 95.8284 178.828 96.5 178 96.5H119C118.172 96.5 117.5 95.8284 117.5 95V90Z" stroke="#E7E7E8"/>
</svg>
