<svg width="296" height="141" viewBox="0 0 296 141" fill="none" xmlns="http://www.w3.org/2000/svg">
<path d="M82.5 36C82.5 32.9624 84.9624 30.5 88 30.5H208C211.038 30.5 213.5 32.9624 213.5 36V105C213.5 108.038 211.038 110.5 208 110.5H88C84.9624 110.5 82.5 108.038 82.5 105V36Z" fill="white"/>
<path d="M82.5 36C82.5 32.9624 84.9624 30.5 88 30.5H208C211.038 30.5 213.5 32.9624 213.5 36V105C213.5 108.038 211.038 110.5 208 110.5H88C84.9624 110.5 82.5 108.038 82.5 105V36Z" stroke="#D3D4D5"/>
<mask id="path-2-inside-1_99_7988" fill="white">
<path d="M83 36C83 33.2386 85.2386 31 88 31H208C210.761 31 213 33.2386 213 36V42H83V36Z"/>
</mask>
<path d="M83 36C83 33.2386 85.2386 31 88 31H208C210.761 31 213 33.2386 213 36V42H83V36Z" fill="#F9FAFA"/>
<path d="M83 31H213H83ZM213 43H83V41H213V43ZM83 42V31V42ZM213 31V42V31Z" fill="#E7E7E8" mask="url(#path-2-inside-1_99_7988)"/>
<rect x="89" y="34.5" width="4" height="4" rx="2" fill="#E53E3E"/>
<rect x="96" y="34.5" width="4" height="4" rx="2" fill="#FBC434"/>
<rect x="103" y="34.5" width="4" height="4" rx="2" fill="#0EA371"/>
<mask id="path-7-inside-2_99_7988" fill="white">
<path d="M83 42H213V55H83V42Z"/>
</mask>
<path d="M213 54H83V56H213V54Z" fill="#E7E7E8" mask="url(#path-7-inside-2_99_7988)"/>
<rect x="92" y="45" width="7" height="7" rx="3.5" fill="#D3D4D5"/>
<rect x="105" y="47" width="17" height="3" rx="1.5" fill="#D3D4D5"/>
<rect x="128" y="47" width="17" height="3" rx="1.5" fill="#D3D4D5"/>
<rect x="151" y="47" width="17" height="3" rx="1.5" fill="#D3D4D5"/>
<path d="M85 58C85 56.3431 86.3431 55 88 55H208C209.657 55 211 56.3431 211 58V65C211 66.6569 209.657 68 208 68H88C86.3431 68 85 66.6569 85 65V58Z" fill="#8952E0"/>
<path d="M96 61.75C96 63.4141 94.6523 64.75 93 64.75C91.3359 64.75 90 63.4141 90 61.75C90 60.0977 91.3359 58.75 93 58.75C94.6523 58.75 96 60.0977 96 61.75Z" fill="#B795EC"/>
<rect x="99" y="60" width="32" height="3" rx="1.5" fill="#B795EC"/>
<rect x="181" y="60" width="11" height="3" rx="1.5" fill="#B795EC"/>
<rect x="195" y="60" width="11" height="3" rx="1.5" fill="#B795EC"/>
<rect x="133.5" y="72" width="29" height="3" rx="1.5" fill="#D3D4D5"/>
<path d="M116.5 83C116.5 82.1716 117.172 81.5 118 81.5H178C178.828 81.5 179.5 82.1716 179.5 83V88C179.5 88.8284 178.828 89.5 178 89.5H118C117.172 89.5 116.5 88.8284 116.5 88V83Z" fill="white"/>
<path d="M116.5 83C116.5 82.1716 117.172 81.5 118 81.5H178C178.828 81.5 179.5 82.1716 179.5 83V88C179.5 88.8284 178.828 89.5 178 89.5H118C117.172 89.5 116.5 88.8284 116.5 88V83Z" stroke="#E7E7E8"/>
</svg>
