<svg width="296" height="141" viewBox="0 0 296 141" fill="none" xmlns="http://www.w3.org/2000/svg">
<rect x="68" y="47" width="28" height="3" rx="1.5" fill="#ABADAF"/>
<path d="M68.5 58C68.5 56.067 70.067 54.5 72 54.5H182C183.933 54.5 185.5 56.067 185.5 58V67C185.5 68.933 183.933 70.5 182 70.5H72C70.067 70.5 68.5 68.933 68.5 67V58Z" fill="white"/>
<path d="M68.5 58C68.5 56.067 70.067 54.5 72 54.5H182C183.933 54.5 185.5 56.067 185.5 58V67C185.5 68.933 183.933 70.5 182 70.5H72C70.067 70.5 68.5 68.933 68.5 67V58Z" stroke="#D3D4D5"/>
<rect x="74" y="61" width="32" height="3" rx="1.5" fill="#E7E7E8"/>
<rect x="190.5" y="54.5" width="16" height="16" rx="3.5" stroke="#D3D4D5"/>
<path d="M201.25 63H195.75C195.469 63 195.25 62.7812 195.25 62.5C195.25 62.2344 195.469 62 195.75 62H201.25C201.516 62 201.75 62.2344 201.75 62.5C201.75 62.7812 201.516 63 201.25 63Z" fill="#ABADAF"/>
<path d="M68.5 82C68.5 80.067 70.067 78.5 72 78.5H182C183.933 78.5 185.5 80.067 185.5 82V91C185.5 92.933 183.933 94.5 182 94.5H72C70.067 94.5 68.5 92.933 68.5 91V82Z" fill="white"/>
<path d="M68.5 82C68.5 80.067 70.067 78.5 72 78.5H182C183.933 78.5 185.5 80.067 185.5 82V91C185.5 92.933 183.933 94.5 182 94.5H72C70.067 94.5 68.5 92.933 68.5 91V82Z" stroke="#D3D4D5"/>
<rect x="74" y="85" width="32" height="3" rx="1.5" fill="#E7E7E8"/>
<rect x="190.5" y="78.5" width="16" height="16" rx="3.5" stroke="#D3D4D5"/>
<path d="M201.25 87H195.75C195.469 87 195.25 86.7812 195.25 86.5C195.25 86.2344 195.469 86 195.75 86H201.25C201.516 86 201.75 86.2344 201.75 86.5C201.75 86.7812 201.516 87 201.25 87Z" fill="#ABADAF"/>
<rect x="211.5" y="78.5" width="16" height="16" rx="3.5" stroke="#D3D4D5"/>
<path d="M222.75 86.5C222.75 86.7812 222.516 87.0156 222.25 87.0156H220V89.2656C220 89.5312 219.766 89.75 219.5 89.75C219.219 89.75 219 89.5312 219 89.2656V87.0156H216.75C216.469 87.0156 216.25 86.7812 216.25 86.5C216.25 86.2344 216.469 86.0156 216.75 86.0156H219V83.7656C219 83.4844 219.219 83.25 219.5 83.25C219.766 83.25 220 83.4844 220 83.7656V86.0156H222.25C222.516 86 222.75 86.2344 222.75 86.5Z" fill="#ABADAF"/>
</svg>
