<svg width="296" height="141" viewBox="0 0 296 141" fill="none" xmlns="http://www.w3.org/2000/svg">
<rect x="78" y="46" width="28" height="3" rx="1.5" fill="#ABADAF"/>
<path d="M78.5 57C78.5 55.067 80.067 53.5 82 53.5H192C193.933 53.5 195.5 55.067 195.5 57V66C195.5 67.933 193.933 69.5 192 69.5H82C80.067 69.5 78.5 67.933 78.5 66V57Z" fill="white"/>
<path d="M78.5 57C78.5 55.067 80.067 53.5 82 53.5H192C193.933 53.5 195.5 55.067 195.5 57V66C195.5 67.933 193.933 69.5 192 69.5H82C80.067 69.5 78.5 67.933 78.5 66V57Z" stroke="#D3D4D5"/>
<rect x="84" y="60" width="32" height="3" rx="1.5" fill="#E7E7E8"/>
<path d="M179 54H192C193.657 54 195 55.3431 195 57V66C195 67.6569 193.657 69 192 69H179V54Z" fill="#F1F1F2"/>
<path d="M189.75 62H184.25C183.969 62 183.75 61.7812 183.75 61.5C183.75 61.2344 183.969 61 184.25 61H189.75C190.016 61 190.25 61.2344 190.25 61.5C190.25 61.7812 190.016 62 189.75 62Z" fill="#ABADAF"/>
<path d="M78.5 81C78.5 79.067 80.067 77.5 82 77.5H192C193.933 77.5 195.5 79.067 195.5 81V90C195.5 91.933 193.933 93.5 192 93.5H82C80.067 93.5 78.5 91.933 78.5 90V81Z" fill="white"/>
<path d="M78.5 81C78.5 79.067 80.067 77.5 82 77.5H192C193.933 77.5 195.5 79.067 195.5 81V90C195.5 91.933 193.933 93.5 192 93.5H82C80.067 93.5 78.5 91.933 78.5 90V81Z" stroke="#D3D4D5"/>
<rect x="84" y="84" width="32" height="3" rx="1.5" fill="#E7E7E8"/>
<path d="M179 78H192C193.657 78 195 79.3431 195 81V90C195 91.6569 193.657 93 192 93H179V78Z" fill="#F1F1F2"/>
<path d="M189.75 86H184.25C183.969 86 183.75 85.7812 183.75 85.5C183.75 85.2344 183.969 85 184.25 85H189.75C190.016 85 190.25 85.2344 190.25 85.5C190.25 85.7812 190.016 86 189.75 86Z" fill="#ABADAF"/>
<rect x="200.5" y="77.5" width="16" height="16" rx="3.5" stroke="#D3D4D5"/>
<path d="M211.75 85.5C211.75 85.7812 211.516 86.0156 211.25 86.0156H209V88.2656C209 88.5312 208.766 88.75 208.5 88.75C208.219 88.75 208 88.5312 208 88.2656V86.0156H205.75C205.469 86.0156 205.25 85.7812 205.25 85.5C205.25 85.2344 205.469 85.0156 205.75 85.0156H208V82.7656C208 82.4844 208.219 82.25 208.5 82.25C208.766 82.25 209 82.4844 209 82.7656V85.0156H211.25C211.516 85 211.75 85.2344 211.75 85.5Z" fill="#ABADAF"/>
</svg>
