<svg width="296" height="141" viewBox="0 0 296 141" fill="none" xmlns="http://www.w3.org/2000/svg">
<rect width="296" height="141" fill="#F1F1F2"/>
<path d="M97.5 65C97.5 61.9624 99.9624 59.5 103 59.5H193C196.038 59.5 198.5 61.9624 198.5 65V76C198.5 79.0376 196.038 81.5 193 81.5H103C99.9624 81.5 97.5 79.0376 97.5 76V65Z" fill="white"/>
<path d="M97.5 65C97.5 61.9624 99.9624 59.5 103 59.5H193C196.038 59.5 198.5 61.9624 198.5 65V76C198.5 79.0376 196.038 81.5 193 81.5H103C99.9624 81.5 97.5 79.0376 97.5 76V65Z" stroke="#D3D4D5"/>
<rect x="106" y="69" width="29" height="3" rx="1.5" fill="#D3D4D5"/>
<rect x="139" y="65" width="10" height="11" rx="2" fill="#E5DAF8"/>
<path d="M141 68.875C141 68.2539 141.504 67.75 142.125 67.75C142.746 67.75 143.25 68.2539 143.25 68.875V69.25H144.75V68.875C144.75 68.2539 145.254 67.75 145.875 67.75C146.496 67.75 147 68.2539 147 68.875C147 69.4961 146.496 70 145.875 70H145.5V71.5H145.875C146.496 71.5 147 72.0039 147 72.625C147 73.2461 146.496 73.75 145.875 73.75C145.254 73.75 144.75 73.2461 144.75 72.625V72.25H143.25V72.625C143.25 73.2461 142.746 73.75 142.125 73.75C141.504 73.75 141 73.2461 141 72.625C141 72.0039 141.504 71.5 142.125 71.5H142.5V70H142.125C141.504 70 141 69.4961 141 68.875ZM142.5 69.25V68.875C142.5 68.6758 142.324 68.5 142.125 68.5C141.914 68.5 141.75 68.6758 141.75 68.875C141.75 69.0859 141.914 69.25 142.125 69.25H142.5ZM143.25 71.5H144.75V70H143.25V71.5ZM142.5 72.25H142.125C141.914 72.25 141.75 72.4258 141.75 72.625C141.75 72.8359 141.914 73 142.125 73C142.324 73 142.5 72.8359 142.5 72.625V72.25ZM145.5 72.25V72.625C145.5 72.8359 145.664 73 145.875 73C146.074 73 146.25 72.8359 146.25 72.625C146.25 72.4258 146.074 72.25 145.875 72.25H145.5ZM145.5 69.25H145.875C146.074 69.25 146.25 69.0859 146.25 68.875C146.25 68.6758 146.074 68.5 145.875 68.5C145.664 68.5 145.5 68.6758 145.5 68.875V69.25Z" fill="#8952E0"/>
<path d="M154.375 68.6875V70.375H156.062C156.262 70.375 156.438 70.5508 156.438 70.75C156.438 70.9609 156.262 71.125 156.062 71.125H154.375V72.8125C154.375 73.0234 154.199 73.1875 154 73.1875C153.789 73.1875 153.625 73.0234 153.625 72.8125V71.125H151.938C151.727 71.125 151.562 70.9609 151.562 70.75C151.562 70.5508 151.727 70.375 151.938 70.375H153.625V68.6875C153.625 68.4883 153.789 68.3125 154 68.3125C154.199 68.3125 154.375 68.4883 154.375 68.6875Z" fill="#8952E0"/>
<rect x="159" y="65" width="10" height="11" rx="2" fill="#E5DAF8"/>
<path d="M165.5 68.5H167.375C167.574 68.5 167.75 68.6758 167.75 68.875C167.75 69.0859 167.574 69.25 167.375 69.25H165.676L162.793 72.8594C162.711 72.9531 162.605 73 162.5 73H160.625C160.414 73 160.25 72.8359 160.25 72.625C160.25 72.4258 160.414 72.25 160.625 72.25H162.312L165.207 68.6406C165.277 68.5586 165.383 68.5 165.5 68.5ZM165.5 72.25H167.375C167.574 72.25 167.75 72.4258 167.75 72.625C167.75 72.8359 167.574 73 167.375 73H165.5C165.289 73 165.125 72.8359 165.125 72.625C165.125 72.4258 165.289 72.25 165.5 72.25Z" fill="#8952E0"/>
<rect x="173" y="69" width="16" height="3" rx="1.5" fill="#D3D4D5"/>
</svg>
