<svg width="296" height="141" viewBox="0 0 296 141" fill="none" xmlns="http://www.w3.org/2000/svg">
<rect width="296" height="141" fill="#F1F1F2"/>
<path d="M102.5 66C102.5 62.9624 104.962 60.5 108 60.5H188C191.038 60.5 193.5 62.9624 193.5 66V75C193.5 78.0376 191.038 80.5 188 80.5H108C104.962 80.5 102.5 78.0376 102.5 75V66Z" fill="white"/>
<path d="M102.5 66C102.5 62.9624 104.962 60.5 108 60.5H188C191.038 60.5 193.5 62.9624 193.5 66V75C193.5 78.0376 191.038 80.5 188 80.5H108C104.962 80.5 102.5 78.0376 102.5 75V66Z" stroke="#D3D4D5"/>
<rect x="111" y="69" width="29" height="3" rx="1.5" fill="#ABADAF"/>
<path d="M143.875 68.875C143.875 68.4648 144.203 68.125 144.625 68.125H148.375C148.785 68.125 149.125 68.4648 149.125 68.875V72.625C149.125 73.0469 148.785 73.375 148.375 73.375H144.625C144.203 73.375 143.875 73.0469 143.875 72.625V68.875Z" fill="#8952E0"/>
<path d="M156.438 70.75C156.438 70.9609 156.262 71.1367 156.062 71.1367H154.375V72.8242C154.375 73.0234 154.199 73.1875 154 73.1875C153.789 73.1875 153.625 73.0234 153.625 72.8242V71.1367H151.938C151.727 71.1367 151.562 70.9609 151.562 70.75C151.562 70.5508 151.727 70.3867 151.938 70.3867H153.625V68.6992C153.625 68.4883 153.789 68.3125 154 68.3125C154.199 68.3125 154.375 68.4883 154.375 68.6992V70.3867H156.062C156.262 70.375 156.438 70.5508 156.438 70.75Z" fill="#8952E0"/>
<path d="M164.5 70.75C164.5 72.4141 163.152 73.75 161.5 73.75C159.836 73.75 158.5 72.4141 158.5 70.75C158.5 69.0977 159.836 67.75 161.5 67.75C163.152 67.75 164.5 69.0977 164.5 70.75Z" fill="#8952E0"/>
<rect x="168" y="69" width="16" height="3" rx="1.5" fill="#ABADAF"/>
</svg>
