<svg width="296" height="141" viewBox="0 0 296 141" fill="none" xmlns="http://www.w3.org/2000/svg">
<path d="M95.5 65C95.5 61.9624 97.9624 59.5 101 59.5H195C198.038 59.5 200.5 61.9624 200.5 65V76C200.5 79.0376 198.038 81.5 195 81.5H101C97.9624 81.5 95.5 79.0376 95.5 76V65Z" fill="white"/>
<path d="M95.5 65C95.5 61.9624 97.9624 59.5 101 59.5H195C198.038 59.5 200.5 61.9624 200.5 65V76C200.5 79.0376 198.038 81.5 195 81.5H101C97.9624 81.5 95.5 79.0376 95.5 76V65Z" stroke="#D3D4D5"/>
<rect x="104" y="69" width="29" height="3" rx="1.5" fill="#ABADAF"/>
<path d="M138.914 72.598C138.745 72.598 138.59 72.5568 138.449 72.4744C138.309 72.3906 138.196 72.2784 138.113 72.1378C138.03 71.9972 137.989 71.8423 137.989 71.6733C137.989 71.5028 138.03 71.3473 138.113 71.2067C138.196 71.0661 138.309 70.9538 138.449 70.87C138.59 70.7862 138.745 70.7443 138.914 70.7443H139.408V69.8878H138.914C138.745 69.8878 138.59 69.8466 138.449 69.7642C138.309 69.6804 138.196 69.5689 138.113 69.4297C138.03 69.2891 137.989 69.1335 137.989 68.9631C137.989 68.7926 138.03 68.6378 138.113 68.4986C138.196 68.358 138.309 68.2464 138.449 68.1641C138.59 68.0803 138.745 68.0384 138.914 68.0384C139.084 68.0384 139.24 68.0803 139.38 68.1641C139.521 68.2464 139.633 68.358 139.717 68.4986C139.801 68.6378 139.843 68.7926 139.843 68.9631V69.4531H140.699V68.9631C140.699 68.7926 140.741 68.6378 140.823 68.4986C140.907 68.358 141.018 68.2464 141.157 68.1641C141.298 68.0803 141.454 68.0384 141.624 68.0384C141.794 68.0384 141.949 68.0803 142.089 68.1641C142.229 68.2464 142.341 68.358 142.423 68.4986C142.507 68.6378 142.549 68.7926 142.549 68.9631C142.549 69.1335 142.507 69.2891 142.423 69.4297C142.341 69.5689 142.229 69.6804 142.089 69.7642C141.949 69.8466 141.794 69.8878 141.624 69.8878H141.134V70.7443H141.624C141.794 70.7443 141.949 70.7862 142.089 70.87C142.229 70.9538 142.341 71.0661 142.423 71.2067C142.507 71.3473 142.549 71.5028 142.549 71.6733C142.549 71.8423 142.507 71.9972 142.423 72.1378C142.341 72.2784 142.229 72.3906 142.089 72.4744C141.949 72.5568 141.794 72.598 141.624 72.598C141.454 72.598 141.298 72.5568 141.157 72.4744C141.018 72.3906 140.907 72.2784 140.823 72.1378C140.741 71.9972 140.699 71.8423 140.699 71.6733V71.179H139.843V71.6733C139.843 71.8423 139.801 71.9972 139.717 72.1378C139.633 72.2784 139.521 72.3906 139.38 72.4744C139.24 72.5568 139.084 72.598 138.914 72.598ZM138.914 72.1634C139.005 72.1634 139.087 72.1413 139.161 72.0973C139.236 72.0533 139.296 71.9943 139.34 71.9205C139.385 71.8452 139.408 71.7628 139.408 71.6733V71.179H138.914C138.824 71.179 138.742 71.2017 138.667 71.2472C138.593 71.2912 138.534 71.3509 138.49 71.4261C138.446 71.5 138.424 71.5824 138.424 71.6733C138.424 71.7628 138.446 71.8452 138.49 71.9205C138.534 71.9943 138.593 72.0533 138.667 72.0973C138.742 72.1413 138.824 72.1634 138.914 72.1634ZM138.914 69.4531H139.408V68.9631C139.408 68.8722 139.385 68.7898 139.34 68.7159C139.296 68.642 139.236 68.5831 139.161 68.5391C139.087 68.495 139.005 68.473 138.914 68.473C138.824 68.473 138.742 68.495 138.667 68.5391C138.593 68.5831 138.534 68.642 138.49 68.7159C138.446 68.7898 138.424 68.8722 138.424 68.9631C138.424 69.054 138.446 69.1371 138.49 69.2124C138.534 69.2862 138.593 69.3452 138.667 69.3892C138.742 69.4318 138.824 69.4531 138.914 69.4531ZM141.134 69.4531H141.624C141.715 69.4531 141.797 69.4318 141.871 69.3892C141.945 69.3452 142.004 69.2862 142.048 69.2124C142.092 69.1371 142.114 69.054 142.114 68.9631C142.114 68.8722 142.092 68.7898 142.048 68.7159C142.004 68.642 141.945 68.5831 141.871 68.5391C141.797 68.495 141.715 68.473 141.624 68.473C141.533 68.473 141.45 68.495 141.375 68.5391C141.301 68.5831 141.242 68.642 141.198 68.7159C141.155 68.7898 141.134 68.8722 141.134 68.9631V69.4531ZM141.624 72.1634C141.715 72.1634 141.797 72.1413 141.871 72.0973C141.945 72.0533 142.004 71.9943 142.048 71.9205C142.092 71.8452 142.114 71.7628 142.114 71.6733C142.114 71.5824 142.092 71.5 142.048 71.4261C142.004 71.3509 141.945 71.2912 141.871 71.2472C141.797 71.2017 141.715 71.179 141.624 71.179H141.134V71.6733C141.134 71.7628 141.155 71.8452 141.198 71.9205C141.242 71.9943 141.301 72.0533 141.375 72.0973C141.45 72.1413 141.533 72.1634 141.624 72.1634ZM139.843 70.7443H140.699V69.8878H139.843V70.7443ZM146.697 71.733V68.9205H147.174V71.733H146.697ZM145.529 70.5653V70.0881H148.342V70.5653H145.529ZM151.146 70.3182L153.669 67.7955L156.191 70.3182H154.896V72.5H152.441V70.3182H151.146ZM152.103 69.9347H152.868V72.1165H154.47V69.9347H155.235L153.669 68.3686L152.103 69.9347Z" fill="#8952E0"/>
<rect x="161" y="69" width="16" height="3" rx="1.5" fill="#ABADAF"/>
<rect x="181" y="69" width="10" height="3" rx="1.5" fill="#ABADAF"/>
</svg>
