<svg width="296" height="141" viewBox="0 0 296 141" fill="none" xmlns="http://www.w3.org/2000/svg">
<path d="M95.0106 94.3337C94.5796 93.6899 94.2699 92.9581 94.1142 92.171L94.6047 92.0739C94.5361 91.727 94.5 91.368 94.5 91V89.5357H94V86.6071H94.5V83.6786H94V80.75H94.5V77.8214H94V74.8929H94.5V71.9643H94V69.0357H94.5V66.1071H94V63.1786H94.5V60.25H94V57.3214H94.5V54.3929H94V51.4643H94.5V50C94.5 49.632 94.5361 49.273 94.6047 48.9261L94.1142 48.829C94.2699 48.0419 94.5796 47.3101 95.0106 46.6663L95.4261 46.9445C95.8278 46.3445 96.3445 45.8278 96.9445 45.4261L96.6663 45.0106C97.3101 44.5796 98.0419 44.2699 98.829 44.1142L98.9261 44.6047C99.273 44.5361 99.632 44.5 100 44.5H101.5V44H104.5V44.5H107.5V44H110.5V44.5H113.5V44H116.5V44.5H119.5V44H122.5V44.5H125.5V44H128.5V44.5H131.5V44H134.5V44.5H137.5V44H140.5V44.5H143.5V44H146.5V44.5H149.5V44H152.5V44.5H155.5V44H158.5V44.5H161.5V44H164.5V44.5H167.5V44H170.5V44.5H173.5V44H176.5V44.5H179.5V44H182.5V44.5H185.5V44H188.5V44.5H191.5V44H194.5V44.5H196C196.368 44.5 196.727 44.5361 197.074 44.6047L197.171 44.1142C197.958 44.2699 198.69 44.5796 199.334 45.0106L199.056 45.4261C199.656 45.8278 200.172 46.3445 200.574 46.9445L200.989 46.6663C201.42 47.3101 201.73 48.0419 201.886 48.829L201.395 48.9261C201.464 49.273 201.5 49.632 201.5 50V51.4643H202V54.3929H201.5V57.3214H202V60.25H201.5V63.1786H202V66.1071H201.5V69.0357H202V71.9643H201.5V74.8929H202V77.8214H201.5V80.75H202V83.6786H201.5V86.6071H202V89.5357H201.5V91C201.5 91.368 201.464 91.727 201.395 92.0739L201.886 92.171C201.73 92.9581 201.42 93.6899 200.989 94.3337L200.574 94.0555C200.172 94.6555 199.656 95.1722 199.056 95.5739L199.334 95.9894C198.69 96.4204 197.958 96.7301 197.171 96.8858L197.074 96.3953C196.727 96.4639 196.368 96.5 196 96.5H194.5V97H191.5V96.5H188.5V97H185.5V96.5H182.5V97H179.5V96.5H176.5V97H173.5V96.5H170.5V97H167.5V96.5H164.5V97H161.5V96.5H158.5V97H155.5V96.5H152.5V97H149.5V96.5H146.5V97H143.5V96.5H140.5V97H137.5V96.5H134.5V97H131.5V96.5H128.5V97H125.5V96.5H122.5V97H119.5V96.5H116.5V97H113.5V96.5H110.5V97H107.5V96.5H104.5V97H101.5V96.5H100C99.632 96.5 99.273 96.4639 98.9261 96.3953L98.829 96.8858C98.0419 96.7301 97.3101 96.4204 96.6663 95.9894L96.9445 95.5739C96.3445 95.1722 95.8278 94.6555 95.4261 94.0555L95.0106 94.3337Z" stroke="#ABADAF" stroke-dasharray="3 3"/>
<g opacity="0.15">
<rect x="139" y="53" width="18" height="18" rx="9" fill="#8952E0"/>
</g>
<path d="M150.5 63.5C150.5 63.2344 150.719 63 151 63C151.266 63 151.5 63.2344 151.5 63.5V64.5C151.5 65.3438 150.828 66 150 66H146C145.156 66 144.5 65.3438 144.5 64.5V63.5C144.5 63.2344 144.719 63 145 63C145.266 63 145.5 63.2344 145.5 63.5V64.5C145.5 64.7812 145.719 65 146 65H150C150.266 65 150.5 64.7812 150.5 64.5V63.5ZM147.641 58.1562C147.828 57.9531 148.156 57.9531 148.344 58.1562L150.344 60.1562C150.547 60.3438 150.547 60.6719 150.344 60.8594C150.156 61.0625 149.828 61.0625 149.641 60.8594L148.5 59.7188V63C148.5 63.2812 148.266 63.5 148 63.5C147.719 63.5 147.5 63.2812 147.5 63V59.7188L146.344 60.8594C146.156 61.0625 145.828 61.0625 145.641 60.8594C145.438 60.6719 145.438 60.3438 145.641 60.1562L147.641 58.1562Z" fill="#8952E0"/>
<rect x="123" y="77" width="23" height="3" rx="1.5" fill="#8952E0"/>
<rect x="149" y="77" width="24" height="3" rx="1.5" fill="#D3D4D5"/>
<rect x="130" y="84" width="36" height="3" rx="1.5" fill="#D3D4D5"/>
</svg>
