<svg width="296" height="141" viewBox="0 0 296 141" fill="none" xmlns="http://www.w3.org/2000/svg">
<rect width="296" height="141" fill="#F1F1F2"/>
<g clip-path="url(#clip0_100_11361)">
<path d="M100 23C100 19.6863 102.686 17 106 17H190C193.314 17 196 19.6863 196 23V118C196 121.314 193.314 124 190 124H106C102.686 124 100 121.314 100 118V23Z" fill="white"/>
<path d="M110.011 69.3337C109.58 68.6899 109.27 67.9581 109.114 67.171L109.605 67.0739C109.536 66.727 109.5 66.368 109.5 66V64.5833H109V61.75H109.5V58.9167H109V56.0833H109.5V53.25H109V50.4167H109.5V47.5833H109V44.75H109.5V41.9167H109V39.0833H109.5V36.25H109V33.4167H109.5V32C109.5 31.632 109.536 31.273 109.605 30.9261L109.114 30.829C109.27 30.0419 109.58 29.3101 110.011 28.6663L110.426 28.9445C110.828 28.3445 111.344 27.8278 111.944 27.4261L111.666 27.0106C112.31 26.5796 113.042 26.2699 113.829 26.1142L113.926 26.6047C114.273 26.5361 114.632 26.5 115 26.5H116.455V26H119.364V26.5H122.273V26H125.182V26.5H128.091V26H131V26.5H133.909V26H136.818V26.5H139.727V26H142.636V26.5H145.545V26H148.455V26.5H151.364V26H154.273V26.5H157.182V26H160.091V26.5H163V26H165.909V26.5H168.818V26H171.727V26.5H174.636V26H177.545V26.5H179C179.368 26.5 179.727 26.5361 180.074 26.6047L180.171 26.1142C180.958 26.2699 181.69 26.5796 182.334 27.0106L182.056 27.4261C182.656 27.8278 183.172 28.3445 183.574 28.9445L183.989 28.6663C184.42 29.3101 184.73 30.0419 184.886 30.829L184.395 30.9261C184.464 31.273 184.5 31.632 184.5 32V33.4167H185V36.25H184.5V39.0833H185V41.9167H184.5V44.75H185V47.5833H184.5V50.4167H185V53.25H184.5V56.0833H185V58.9167H184.5V61.75H185V64.5833H184.5V66C184.5 66.368 184.464 66.727 184.395 67.0739L184.886 67.171C184.73 67.9581 184.42 68.6899 183.989 69.3337L183.574 69.0555C183.172 69.6555 182.656 70.1722 182.056 70.5739L182.334 70.9894C181.69 71.4204 180.958 71.7301 180.171 71.8858L180.074 71.3953C179.727 71.4639 179.368 71.5 179 71.5H177.545V72H174.636V71.5H171.727V72H168.818V71.5H165.909V72H163V71.5H160.091V72H157.182V71.5H154.273V72H151.364V71.5H148.455V72H145.545V71.5H142.636V72H139.727V71.5H136.818V72H133.909V71.5H131V72H128.091V71.5H125.182V72H122.273V71.5H119.364V72H116.455V71.5H115C114.632 71.5 114.273 71.4639 113.926 71.3953L113.829 71.8858C113.042 71.7301 112.31 71.4204 111.666 70.9894L111.944 70.5739C111.344 70.1722 110.828 69.6555 110.426 69.0555L110.011 69.3337Z" fill="#F9FAFA"/>
<path d="M110.011 69.3337C109.58 68.6899 109.27 67.9581 109.114 67.171L109.605 67.0739C109.536 66.727 109.5 66.368 109.5 66V64.5833H109V61.75H109.5V58.9167H109V56.0833H109.5V53.25H109V50.4167H109.5V47.5833H109V44.75H109.5V41.9167H109V39.0833H109.5V36.25H109V33.4167H109.5V32C109.5 31.632 109.536 31.273 109.605 30.9261L109.114 30.829C109.27 30.0419 109.58 29.3101 110.011 28.6663L110.426 28.9445C110.828 28.3445 111.344 27.8278 111.944 27.4261L111.666 27.0106C112.31 26.5796 113.042 26.2699 113.829 26.1142L113.926 26.6047C114.273 26.5361 114.632 26.5 115 26.5H116.455V26H119.364V26.5H122.273V26H125.182V26.5H128.091V26H131V26.5H133.909V26H136.818V26.5H139.727V26H142.636V26.5H145.545V26H148.455V26.5H151.364V26H154.273V26.5H157.182V26H160.091V26.5H163V26H165.909V26.5H168.818V26H171.727V26.5H174.636V26H177.545V26.5H179C179.368 26.5 179.727 26.5361 180.074 26.6047L180.171 26.1142C180.958 26.2699 181.69 26.5796 182.334 27.0106L182.056 27.4261C182.656 27.8278 183.172 28.3445 183.574 28.9445L183.989 28.6663C184.42 29.3101 184.73 30.0419 184.886 30.829L184.395 30.9261C184.464 31.273 184.5 31.632 184.5 32V33.4167H185V36.25H184.5V39.0833H185V41.9167H184.5V44.75H185V47.5833H184.5V50.4167H185V53.25H184.5V56.0833H185V58.9167H184.5V61.75H185V64.5833H184.5V66C184.5 66.368 184.464 66.727 184.395 67.0739L184.886 67.171C184.73 67.9581 184.42 68.6899 183.989 69.3337L183.574 69.0555C183.172 69.6555 182.656 70.1722 182.056 70.5739L182.334 70.9894C181.69 71.4204 180.958 71.7301 180.171 71.8858L180.074 71.3953C179.727 71.4639 179.368 71.5 179 71.5H177.545V72H174.636V71.5H171.727V72H168.818V71.5H165.909V72H163V71.5H160.091V72H157.182V71.5H154.273V72H151.364V71.5H148.455V72H145.545V71.5H142.636V72H139.727V71.5H136.818V72H133.909V71.5H131V72H128.091V71.5H125.182V72H122.273V71.5H119.364V72H116.455V71.5H115C114.632 71.5 114.273 71.4639 113.926 71.3953L113.829 71.8858C113.042 71.7301 112.31 71.4204 111.666 70.9894L111.944 70.5739C111.344 70.1722 110.828 69.6555 110.426 69.0555L110.011 69.3337Z" stroke="#D3D4D5" stroke-dasharray="3 3"/>
<path d="M149.5 43.5C149.5 43.2344 149.719 43 150 43C150.266 43 150.5 43.2344 150.5 43.5V44.5C150.5 45.3438 149.828 46 149 46H145C144.156 46 143.5 45.3438 143.5 44.5V43.5C143.5 43.2344 143.719 43 144 43C144.266 43 144.5 43.2344 144.5 43.5V44.5C144.5 44.7812 144.719 45 145 45H149C149.266 45 149.5 44.7812 149.5 44.5V43.5ZM146.641 38.1562C146.828 37.9531 147.156 37.9531 147.344 38.1562L149.344 40.1562C149.547 40.3438 149.547 40.6719 149.344 40.8594C149.156 41.0625 148.828 41.0625 148.641 40.8594L147.5 39.7188V43C147.5 43.2812 147.266 43.5 147 43.5C146.719 43.5 146.5 43.2812 146.5 43V39.7188L145.344 40.8594C145.156 41.0625 144.828 41.0625 144.641 40.8594C144.438 40.6719 144.438 40.3438 144.641 40.1562L146.641 38.1562Z" fill="#8952E0"/>
<rect x="122" y="55" width="22" height="3" rx="1.5" fill="#8952E0"/>
<rect x="147" y="55" width="25" height="3" rx="1.5" fill="#D3D4D5"/>
<rect x="129" y="62" width="36" height="3" rx="1.5" fill="#D3D4D5"/>
<path d="M109.75 79C109.75 78.5898 110.078 78.25 110.5 78.25H112.375V79.75C112.375 79.9609 112.539 80.125 112.75 80.125H114.25V83.5C114.25 83.9219 113.91 84.25 113.5 84.25H110.5C110.078 84.25 109.75 83.9219 109.75 83.5V79ZM112.75 79.75V78.25L114.25 79.75H112.75Z" fill="#8952E0"/>
<rect x="118" y="80" width="57" height="3" rx="1.5" fill="#D3D4D5"/>
<rect x="178" y="80" width="7" height="3" rx="1.5" fill="#ABADAF"/>
<path d="M109.75 90C109.75 89.5898 110.078 89.25 110.5 89.25H112.375V90.75C112.375 90.9609 112.539 91.125 112.75 91.125H114.25V94.5C114.25 94.9219 113.91 95.25 113.5 95.25H110.5C110.078 95.25 109.75 94.9219 109.75 94.5V90ZM112.75 90.75V89.25L114.25 90.75H112.75Z" fill="#8952E0"/>
<rect x="118" y="91" width="35" height="3" rx="1.5" fill="#D3D4D5"/>
<rect x="178" y="91" width="7" height="3" rx="1.5" fill="#ABADAF"/>
<path d="M160 107C160 105.895 160.895 105 162 105H185C186.105 105 187 105.895 187 107V113C187 114.105 186.105 115 185 115H162C160.895 115 160 114.105 160 113V107Z" fill="#8952E0"/>
<rect x="164" y="109" width="19" height="2" rx="1" fill="white"/>
</g>
<path d="M100.5 23C100.5 19.9624 102.962 17.5 106 17.5H190C193.038 17.5 195.5 19.9624 195.5 23V118C195.5 121.038 193.038 123.5 190 123.5H106C102.962 123.5 100.5 121.038 100.5 118V23Z" stroke="#D3D4D5"/>
<defs>
<clipPath id="clip0_100_11361">
<path d="M100 23C100 19.6863 102.686 17 106 17H190C193.314 17 196 19.6863 196 23V118C196 121.314 193.314 124 190 124H106C102.686 124 100 121.314 100 118V23Z" fill="white"/>
</clipPath>
</defs>
</svg>
