<svg width="296" height="141" viewBox="0 0 296 141" fill="none" xmlns="http://www.w3.org/2000/svg">
<path d="M95.0106 90.3337C94.5796 89.6899 94.2699 88.9581 94.1142 88.171L94.6047 88.0739C94.5361 87.727 94.5 87.368 94.5 87V85.5714H94V82.7143H94.5V79.8571H94V77H94.5V74.1429H94V71.2857H94.5V68.4286H94V65.5714H94.5V62.7143H94V59.8571H94.5V57H94V54.1429H94.5V51.2857H94V48.4286H94.5V47C94.5 46.632 94.5361 46.273 94.6047 45.9261L94.1142 45.829C94.2699 45.0419 94.5796 44.3101 95.0106 43.6663L95.4261 43.9445C95.8278 43.3445 96.3445 42.8278 96.9445 42.4261L96.6663 42.0106C97.3101 41.5796 98.0419 41.2699 98.829 41.1142L98.9261 41.6047C99.273 41.5361 99.632 41.5 100 41.5H101.5V41H104.5V41.5H107.5V41H110.5V41.5H113.5V41H116.5V41.5H119.5V41H122.5V41.5H125.5V41H128.5V41.5H131.5V41H134.5V41.5H137.5V41H140.5V41.5H143.5V41H146.5V41.5H149.5V41H152.5V41.5H155.5V41H158.5V41.5H161.5V41H164.5V41.5H167.5V41H170.5V41.5H173.5V41H176.5V41.5H179.5V41H182.5V41.5H185.5V41H188.5V41.5H191.5V41H194.5V41.5H196C196.368 41.5 196.727 41.5361 197.074 41.6047L197.171 41.1142C197.958 41.2699 198.69 41.5796 199.334 42.0106L199.056 42.4261C199.656 42.8278 200.172 43.3445 200.574 43.9445L200.989 43.6663C201.42 44.3101 201.73 45.0419 201.886 45.829L201.395 45.9261C201.464 46.273 201.5 46.632 201.5 47V48.4286H202V51.2857H201.5V54.1429H202V57H201.5V59.8571H202V62.7143H201.5V65.5714H202V68.4286H201.5V71.2857H202V74.1429H201.5V77H202V79.8571H201.5V82.7143H202V85.5714H201.5V87C201.5 87.368 201.464 87.727 201.395 88.0739L201.886 88.171C201.73 88.9581 201.42 89.6899 200.989 90.3337L200.574 90.0555C200.172 90.6555 199.656 91.1722 199.056 91.5739L199.334 91.9894C198.69 92.4204 197.958 92.7301 197.171 92.8858L197.074 92.3953C196.727 92.4639 196.368 92.5 196 92.5H194.5V93H191.5V92.5H188.5V93H185.5V92.5H182.5V93H179.5V92.5H176.5V93H173.5V92.5H170.5V93H167.5V92.5H164.5V93H161.5V92.5H158.5V93H155.5V92.5H152.5V93H149.5V92.5H146.5V93H143.5V92.5H140.5V93H137.5V92.5H134.5V93H131.5V92.5H128.5V93H125.5V92.5H122.5V93H119.5V92.5H116.5V93H113.5V92.5H110.5V93H107.5V92.5H104.5V93H101.5V92.5H100C99.632 92.5 99.273 92.4639 98.9261 92.3953L98.829 92.8858C98.0419 92.7301 97.3101 92.4204 96.6663 91.9894L96.9445 91.5739C96.3445 91.1722 95.8278 90.6555 95.4261 90.0555L95.0106 90.3337Z" stroke="#8952E0" stroke-dasharray="3 3"/>
<g opacity="0.15">
<rect x="138" y="49" width="19" height="19" rx="9.5" fill="#8952E0"/>
</g>
<path d="M150 60.5C150 60.2344 150.219 60 150.5 60C150.766 60 151 60.2344 151 60.5V61.5C151 62.3438 150.328 63 149.5 63H145.5C144.656 63 144 62.3438 144 61.5V60.5C144 60.2344 144.219 60 144.5 60C144.766 60 145 60.2344 145 60.5V61.5C145 61.7812 145.219 62 145.5 62H149.5C149.766 62 150 61.7812 150 61.5V60.5ZM147.141 55.1562C147.328 54.9531 147.656 54.9531 147.844 55.1562L149.844 57.1562C150.047 57.3438 150.047 57.6719 149.844 57.8594C149.656 58.0625 149.328 58.0625 149.141 57.8594L148 56.7188V60C148 60.2812 147.766 60.5 147.5 60.5C147.219 60.5 147 60.2812 147 60V56.7188L145.844 57.8594C145.656 58.0625 145.328 58.0625 145.141 57.8594C144.938 57.6719 144.938 57.3438 145.141 57.1562L147.141 55.1562Z" fill="#8952E0"/>
<rect x="123" y="74" width="23" height="3" rx="1.5" fill="#8952E0"/>
<rect x="149" y="74" width="24" height="3" rx="1.5" fill="#D3D4D5"/>
<rect x="131" y="81" width="34" height="3" rx="1.5" fill="#D3D4D5"/>
<path d="M173.512 81.5C173.512 80.2695 174.497 79.25 175.762 79.25H181.387V83.75C181.387 84.3828 181.88 84.875 182.512 84.875H187.012V95C187.012 96.2656 185.993 97.25 184.762 97.25H175.762C174.497 97.25 173.512 96.2656 173.512 95V81.5ZM182.512 83.75V79.25L187.012 83.75H182.512Z" fill="#8952E0"/>
<mask id="path-8-outside-1_100_11286" maskUnits="userSpaceOnUse" x="179.758" y="89" width="9" height="12" fill="black">
<rect fill="white" x="179.758" y="89" width="9" height="12"/>
<path d="M187.381 96.207C187.302 96.3828 187.127 96.5195 186.931 96.5195H184.881L185.779 98.3555C185.955 98.7461 185.799 99.2148 185.408 99.4102C185.017 99.5859 184.549 99.4297 184.353 99.0391L183.455 97.125L181.99 98.8438C181.892 98.9609 181.756 99.0195 181.638 99.0195C181.58 99.0195 181.521 99 181.463 98.9805C181.287 98.9219 181.17 98.7461 181.17 98.5312V91.3633C181.17 91.168 181.267 90.9922 181.443 90.9336C181.599 90.8555 181.795 90.875 181.931 90.9922L187.224 95.6797C187.4 95.8164 187.439 96.0312 187.381 96.207Z"/>
</mask>
<path d="M187.381 96.207C187.302 96.3828 187.127 96.5195 186.931 96.5195H184.881L185.779 98.3555C185.955 98.7461 185.799 99.2148 185.408 99.4102C185.017 99.5859 184.549 99.4297 184.353 99.0391L183.455 97.125L181.99 98.8438C181.892 98.9609 181.756 99.0195 181.638 99.0195C181.58 99.0195 181.521 99 181.463 98.9805C181.287 98.9219 181.17 98.7461 181.17 98.5312V91.3633C181.17 91.168 181.267 90.9922 181.443 90.9336C181.599 90.8555 181.795 90.875 181.931 90.9922L187.224 95.6797C187.4 95.8164 187.439 96.0312 187.381 96.207Z" fill="#171A1D"/>
<path d="M187.381 96.207L188.294 96.6132L188.314 96.5691L188.329 96.5233L187.381 96.207ZM184.881 96.5195V95.5195H183.278L183.982 96.9591L184.881 96.5195ZM185.779 98.3555L186.691 97.9451L186.684 97.9304L186.677 97.9159L185.779 98.3555ZM185.408 99.4102L185.818 100.322L185.837 100.314L185.855 100.305L185.408 99.4102ZM184.353 99.0391L183.448 99.464L183.453 99.4752L183.459 99.4863L184.353 99.0391ZM183.455 97.125L184.36 96.7001L183.7 95.295L182.694 96.4763L183.455 97.125ZM181.99 98.8438L181.229 98.1951L181.222 98.2036L181.99 98.8438ZM181.443 90.9336L181.759 91.8823L181.827 91.8598L181.89 91.828L181.443 90.9336ZM181.931 90.9922L182.594 90.2436L182.588 90.2382L182.582 90.2329L181.931 90.9922ZM187.224 95.6797L186.561 96.4283L186.585 96.4495L186.61 96.469L187.224 95.6797ZM186.467 95.8009C186.5 95.727 186.55 95.6649 186.616 95.6172C186.684 95.5682 186.792 95.5195 186.931 95.5195V97.5195C187.594 97.5195 188.087 97.0795 188.294 96.6132L186.467 95.8009ZM186.931 95.5195H184.881V97.5195H186.931V95.5195ZM183.982 96.9591L184.881 98.795L186.677 97.9159L185.779 96.08L183.982 96.9591ZM184.867 98.7658C184.83 98.6824 184.857 98.5676 184.961 98.5157L185.855 100.305C186.74 99.8621 187.08 98.8098 186.691 97.9451L184.867 98.7658ZM184.998 98.4982C185.081 98.4607 185.196 98.488 185.248 98.5918L183.459 99.4863C183.901 100.371 184.954 100.711 185.818 100.322L184.998 98.4982ZM185.258 98.6142L184.36 96.7001L182.55 97.5499L183.448 99.464L185.258 98.6142ZM182.694 96.4763L181.229 98.1951L182.751 99.4924L184.216 97.7737L182.694 96.4763ZM181.222 98.2036C181.267 98.1489 181.324 98.105 181.389 98.0741C181.451 98.0443 181.534 98.0195 181.638 98.0195V100.02C182.066 100.02 182.48 99.8183 182.758 99.4839L181.222 98.2036ZM181.638 98.0195C181.718 98.0195 181.775 98.0326 181.793 98.0372C181.803 98.0397 181.808 98.0413 181.805 98.0403C181.801 98.039 181.795 98.0372 181.779 98.0318L181.146 99.9292C181.171 99.9375 181.388 100.02 181.638 100.02V98.0195ZM181.779 98.0318C182.078 98.1314 182.17 98.3898 182.17 98.5312H180.17C180.17 99.1024 180.496 99.7124 181.146 99.9292L181.779 98.0318ZM182.17 98.5312V91.3633H180.17V98.5312H182.17ZM182.17 91.3633C182.17 91.4694 182.102 91.768 181.759 91.8823L181.127 89.9849C180.432 90.2164 180.17 90.8665 180.17 91.3633H182.17ZM181.89 91.828C181.699 91.9236 181.46 91.9051 181.281 91.7514L182.582 90.2329C182.129 89.8449 181.499 89.7874 180.996 90.0392L181.89 91.828ZM181.268 91.7408L186.561 96.4283L187.887 94.9311L182.594 90.2436L181.268 91.7408ZM186.61 96.469C186.405 96.3096 186.376 96.059 186.432 95.8908L188.329 96.5233C188.502 96.0035 188.395 95.3232 187.838 94.8903L186.61 96.469Z" fill="white" mask="url(#path-8-outside-1_100_11286)"/>
</svg>
