<svg width="296" height="141" viewBox="0 0 296 141" fill="none" xmlns="http://www.w3.org/2000/svg">
<path d="M91.5 65.9687C91.5 62.9312 93.9624 60.4688 97 60.4688H199C202.038 60.4688 204.5 62.9312 204.5 65.9688V75.0312C204.5 78.0688 202.038 80.5312 199 80.5312H97C93.9624 80.5312 91.5 78.0688 91.5 75.0312V65.9687Z" fill="white"/>
<path d="M91.5 65.9687C91.5 62.9312 93.9624 60.4688 97 60.4688H199C202.038 60.4688 204.5 62.9312 204.5 65.9688V75.0312C204.5 78.0688 202.038 80.5312 199 80.5312H97C93.9624 80.5312 91.5 78.0688 91.5 75.0312V65.9687Z" stroke="#D3D4D5"/>
<path d="M101.25 72.875C101.145 72.875 101.051 72.8398 100.98 72.7695L98.7305 70.5195C98.5781 70.3789 98.5781 70.1328 98.7305 69.9922L100.98 67.7422C101.121 67.5898 101.367 67.5898 101.508 67.7422C101.66 67.8828 101.66 68.1289 101.508 68.2695L99.5273 70.25L101.508 72.2422C101.66 72.3828 101.66 72.6289 101.508 72.7695C101.438 72.8398 101.344 72.875 101.25 72.875Z" fill="#ABADAF"/>
<rect x="104" y="69" width="16" height="3" rx="1.5" fill="#8952E0"/>
<path d="M122.75 72.875C122.645 72.875 122.551 72.8398 122.48 72.7695C122.328 72.6289 122.328 72.3828 122.48 72.2422L124.461 70.25L122.48 68.2695C122.328 68.1289 122.328 67.8828 122.48 67.7422C122.621 67.5898 122.867 67.5898 123.008 67.7422L125.258 69.9922C125.41 70.1328 125.41 70.3789 125.258 70.5195L123.008 72.7695C122.938 72.8398 122.844 72.875 122.75 72.875Z" fill="#ABADAF"/>
<rect x="129" y="69" width="22" height="3" rx="1.5" fill="#ABADAF"/>
<rect x="155" y="69" width="8" height="3" rx="1.5" fill="#ABADAF"/>
<path d="M169.25 72.875C169.145 72.875 169.051 72.8398 168.98 72.7695L166.73 70.5195C166.578 70.3789 166.578 70.1328 166.73 69.9922L168.98 67.7422C169.121 67.5898 169.367 67.5898 169.508 67.7422C169.66 67.8828 169.66 68.1289 169.508 68.2695L167.527 70.25L169.508 72.2422C169.66 72.3828 169.66 72.6289 169.508 72.7695C169.438 72.8398 169.344 72.875 169.25 72.875Z" fill="#ABADAF"/>
<path d="M173.062 67.9688L172 73.0313" stroke="#ABADAF" stroke-width="0.7" stroke-linecap="round"/>
<rect x="175.062" y="69" width="16" height="3" rx="1.5" fill="#8952E0"/>
<path d="M193.812 72.875C193.707 72.875 193.613 72.8398 193.543 72.7695C193.391 72.6289 193.391 72.3828 193.543 72.2422L195.523 70.25L193.543 68.2695C193.391 68.1289 193.391 67.8828 193.543 67.7422C193.684 67.5898 193.93 67.5898 194.07 67.7422L196.32 69.9922C196.473 70.1328 196.473 70.3789 196.32 70.5195L194.07 72.7695C194 72.8398 193.906 72.875 193.812 72.875Z" fill="#ABADAF"/>
</svg>
