<svg width="296" height="141" viewBox="0 0 296 141" fill="none" xmlns="http://www.w3.org/2000/svg">
<rect width="296" height="141" fill="#F1F1F2"/>
<path d="M102.5 42C102.5 38.9624 104.962 36.5 108 36.5H188C191.038 36.5 193.5 38.9624 193.5 42V99C193.5 102.038 191.038 104.5 188 104.5H108C104.962 104.5 102.5 102.038 102.5 99V42Z" fill="white"/>
<path d="M102.5 42C102.5 38.9624 104.962 36.5 108 36.5H188C191.038 36.5 193.5 38.9624 193.5 42V99C193.5 102.038 191.038 104.5 188 104.5H108C104.962 104.5 102.5 102.038 102.5 99V42Z" stroke="#D3D4D5"/>
<rect x="112" y="46" width="36" height="3" rx="1.5" fill="#8952E0"/>
<path d="M113.125 56.25C113.125 55.6348 113.617 55.125 114.25 55.125H117.062V57.375C117.062 57.6914 117.309 57.9375 117.625 57.9375H119.875V63C119.875 63.6328 119.365 64.125 118.75 64.125H114.25C113.617 64.125 113.125 63.6328 113.125 63V56.25ZM117.625 57.375V55.125L119.875 57.375H117.625Z" fill="#ABADAF"/>
<rect x="124" y="55" width="60" height="3" rx="1.5" fill="#ABADAF"/>
<rect x="124" y="61" width="24" height="3" rx="1.5" fill="#D3D4D5"/>
<path d="M113.125 71.25C113.125 70.6348 113.617 70.125 114.25 70.125H117.062V72.375C117.062 72.6914 117.309 72.9375 117.625 72.9375H119.875V78C119.875 78.6328 119.365 79.125 118.75 79.125H114.25C113.617 79.125 113.125 78.6328 113.125 78V71.25ZM117.625 72.375V70.125L119.875 72.375H117.625Z" fill="#ABADAF"/>
<rect x="124" y="70" width="60" height="3" rx="1.5" fill="#ABADAF"/>
<rect x="124" y="76" width="24" height="3" rx="1.5" fill="#D3D4D5"/>
<path d="M113.125 86.25C113.125 85.6348 113.617 85.125 114.25 85.125H117.062V87.375C117.062 87.6914 117.309 87.9375 117.625 87.9375H119.875V93C119.875 93.6328 119.365 94.125 118.75 94.125H114.25C113.617 94.125 113.125 93.6328 113.125 93V86.25ZM117.625 87.375V85.125L119.875 87.375H117.625Z" fill="#ABADAF"/>
<rect x="124" y="85" width="60" height="3" rx="1.5" fill="#ABADAF"/>
<rect x="124" y="91" width="24" height="3" rx="1.5" fill="#D3D4D5"/>
</svg>
