<svg width="296" height="141" viewBox="0 0 296 141" fill="none" xmlns="http://www.w3.org/2000/svg">
<g clip-path="url(#clip0_78_7235)">
<path d="M82 40C82 36.6863 84.6863 34 88 34H208C211.314 34 214 36.6863 214 40V101C214 104.314 211.314 107 208 107H88C84.6863 107 82 104.314 82 101V40Z" fill="white"/>
<mask id="path-3-inside-1_78_7235" fill="white">
<path d="M82 34H214V46H82V34Z"/>
</mask>
<path d="M82 34H214V46H82V34Z" fill="#F9FAFA"/>
<path d="M214 45H82V47H214V45Z" fill="#E7E7E8" mask="url(#path-3-inside-1_78_7235)"/>
<rect x="88" y="38" width="4" height="4" rx="2" fill="#E53E3E"/>
<rect x="95" y="38" width="4" height="4" rx="2" fill="#FBC434"/>
<rect x="102" y="38" width="4" height="4" rx="2" fill="#0EA371"/>
<rect x="92" y="56" width="29" height="3" rx="1.5" fill="#8952E0"/>
<rect x="92" y="62" width="18" height="3" rx="1.5" fill="#D3D4D5"/>
<path d="M132.125 57.25C132.125 56.6348 132.617 56.125 133.25 56.125H136.062V58.375C136.062 58.6914 136.309 58.9375 136.625 58.9375H138.875V64C138.875 64.6328 138.365 65.125 137.75 65.125H133.25C132.617 65.125 132.125 64.6328 132.125 64V57.25ZM136.625 58.375V56.125L138.875 58.375H136.625Z" fill="#ABADAF"/>
<rect x="143" y="56" width="60" height="3" rx="1.5" fill="#ABADAF"/>
<rect x="143" y="62" width="24" height="3" rx="1.5" fill="#D3D4D5"/>
<path d="M132.125 72.25C132.125 71.6348 132.617 71.125 133.25 71.125H136.062V73.375C136.062 73.6914 136.309 73.9375 136.625 73.9375H138.875V79C138.875 79.6328 138.365 80.125 137.75 80.125H133.25C132.617 80.125 132.125 79.6328 132.125 79V72.25ZM136.625 73.375V71.125L138.875 73.375H136.625Z" fill="#ABADAF"/>
<rect x="143" y="71" width="60" height="3" rx="1.5" fill="#ABADAF"/>
<rect x="143" y="77" width="24" height="3" rx="1.5" fill="#D3D4D5"/>
<path d="M132.125 87.25C132.125 86.6348 132.617 86.125 133.25 86.125H136.062V88.375C136.062 88.6914 136.309 88.9375 136.625 88.9375H138.875V94C138.875 94.6328 138.365 95.125 137.75 95.125H133.25C132.617 95.125 132.125 94.6328 132.125 94V87.25ZM136.625 88.375V86.125L138.875 88.375H136.625Z" fill="#ABADAF"/>
<rect x="143" y="86" width="60" height="3" rx="1.5" fill="#ABADAF"/>
<rect x="143" y="92" width="24" height="3" rx="1.5" fill="#D3D4D5"/>
</g>
<path d="M82.5 40C82.5 36.9624 84.9624 34.5 88 34.5H208C211.038 34.5 213.5 36.9624 213.5 40V101C213.5 104.038 211.038 106.5 208 106.5H88C84.9624 106.5 82.5 104.038 82.5 101V40Z" stroke="#D3D4D5"/>
<defs>
<clipPath id="clip0_78_7235">
<path d="M82 40C82 36.6863 84.6863 34 88 34H208C211.314 34 214 36.6863 214 40V101C214 104.314 211.314 107 208 107H88C84.6863 107 82 104.314 82 101V40Z" fill="white"/>
</clipPath>
</defs>
</svg>
