<svg width="296" height="141" viewBox="0 0 296 141" fill="none" xmlns="http://www.w3.org/2000/svg">
<path d="M72.5 55C72.5 51.9624 74.9624 49.5 78 49.5H104C107.038 49.5 109.5 51.9624 109.5 55V76C109.5 79.0376 107.038 81.5 104 81.5H78C74.9624 81.5 72.5 79.0376 72.5 76V55Z" fill="white"/>
<path d="M72.5 55C72.5 51.9624 74.9624 49.5 78 49.5H104C107.038 49.5 109.5 51.9624 109.5 55V76C109.5 79.0376 107.038 81.5 104 81.5H78C74.9624 81.5 72.5 79.0376 72.5 76V55Z" stroke="#D3D4D5"/>
<path d="M116.5 55C116.5 51.9624 118.962 49.5 122 49.5H157C160.038 49.5 162.5 51.9624 162.5 55V76C162.5 79.0376 160.038 81.5 157 81.5H122C118.962 81.5 116.5 79.0376 116.5 76V55Z" fill="white"/>
<path d="M116.5 55C116.5 51.9624 118.962 49.5 122 49.5H157C160.038 49.5 162.5 51.9624 162.5 55V76C162.5 79.0376 160.038 81.5 157 81.5H122C118.962 81.5 116.5 79.0376 116.5 76V55Z" stroke="#D3D4D5"/>
<path d="M169.5 55C169.5 51.9624 171.962 49.5 175 49.5H218C221.038 49.5 223.5 51.9624 223.5 55V76C223.5 79.0376 221.038 81.5 218 81.5H175C171.962 81.5 169.5 79.0376 169.5 76V55Z" fill="white"/>
<path d="M169.5 55C169.5 51.9624 171.962 49.5 175 49.5H218C221.038 49.5 223.5 51.9624 223.5 55V76C223.5 79.0376 221.038 81.5 218 81.5H175C171.962 81.5 169.5 79.0376 169.5 76V55Z" stroke="#D3D4D5"/>
<rect x="73" y="87" width="36" height="1" fill="#8952E0"/>
<rect x="72" y="85" width="1" height="5" rx="0.5" fill="#8952E0"/>
<rect x="109" y="85" width="1" height="5" rx="0.5" fill="#8952E0"/>
<rect x="117" y="87" width="45" height="1" fill="#8952E0"/>
<rect x="116" y="85" width="1" height="5" rx="0.5" fill="#8952E0"/>
<rect x="162" y="85" width="1" height="5" rx="0.5" fill="#8952E0"/>
<rect x="170" y="87" width="53" height="1" fill="#8952E0"/>
<rect x="169" y="85" width="1" height="5" rx="0.5" fill="#8952E0"/>
<rect x="223" y="85" width="1" height="5" rx="0.5" fill="#8952E0"/>
</svg>
