<svg width="103" height="32" viewBox="0 0 103 32" fill="none" xmlns="http://www.w3.org/2000/svg">
<path d="M17.6941 4H8.21418C7.88765 4 7.62431 4.25989 7.62431 4.58215V9.13023C7.62431 9.49581 7.46807 9.84233 7.19245 10.0866L7.1749 10.1022C6.93559 10.314 6.62556 10.4312 6.30415 10.4314H0.589862C0.263331 10.4314 0 10.6913 0 11.0136V17.6737C0 17.996 0.263331 18.2559 0.589862 18.2559H6.64823C6.97476 18.2559 7.2381 17.996 7.2381 17.6737V11.3913C7.2381 11.0257 7.39434 10.6792 7.66996 10.4349C7.90927 10.2231 8.2193 10.1059 8.54071 10.1057H17.6959C18.0224 10.1057 18.2857 9.8458 18.2857 9.52354V4.58215C18.2853 4.4276 18.2227 4.27953 18.1118 4.1704C18.0009 4.06128 17.8507 4 17.6941 4Z" fill="#8952E0"/>
<path d="M17.6941 13.7355H11.6375C11.311 13.7355 11.0476 13.9954 11.0476 14.3176V20.6018C11.0476 20.9674 10.8914 21.3139 10.6158 21.5582C10.3765 21.7699 10.0664 21.8872 9.74501 21.8874H0.589862C0.263331 21.8874 0 22.1473 0 22.4695V27.4178C0 27.7401 0.263331 28 0.589862 28H10.0698C10.3963 28 10.6596 27.7401 10.6596 27.4178V22.8611C10.6596 22.4955 10.8159 22.149 11.0915 21.9047L11.1091 21.8891C11.3484 21.6774 11.6584 21.5601 11.9798 21.5599H17.6923C18.0189 21.5599 18.2822 21.3 18.2822 20.9778V14.3159C18.2825 14.2396 18.2675 14.164 18.2381 14.0934C18.2086 14.0229 18.1653 13.9588 18.1106 13.9048C18.056 13.8509 17.991 13.8081 17.9195 13.7791C17.848 13.75 17.7714 13.7352 17.6941 13.7355Z" fill="#8952E0"/>
<path d="M37.4206 11.1962L36.4822 13.0774C35.4316 12.4358 34.1144 12.0359 33.0656 12.0359C32.0606 12.0359 31.3239 12.368 31.3239 13.2095C31.3239 15.3793 37.6451 14.2057 37.6223 18.4793C37.6223 20.8925 35.4562 21.9774 33.0656 21.9774C31.3239 21.9774 29.47 21.4019 28.2861 20.3396L29.2017 18.5245C30.2295 19.432 31.8817 19.9849 33.1778 19.9849C34.2723 19.9849 35.1212 19.6076 35.1212 18.7227C35.1212 16.3095 28.8667 17.6604 28.8895 13.4094C28.8895 11.0188 30.9889 10 33.2673 10C34.7634 10 36.3489 10.4433 37.4206 11.1962ZM47.1864 20.4509C46.3375 21.4923 44.9747 22 43.2559 22C40.6881 22 39.0798 20.4283 39.0798 18.3471C39.0798 16.1999 40.7109 14.8264 43.5698 14.8056H47.1654V14.4509C47.1654 12.9678 46.2042 12.0811 44.3293 12.0811C43.191 12.0811 42.0071 12.4793 40.8232 13.2773L39.7743 11.5057C41.4265 10.532 42.6332 10.0226 44.8888 10.0226C47.9494 10.0226 49.6682 11.5717 49.691 14.1623L49.7138 21.8887H47.1899V20.4509H47.1864ZM47.1636 17.7491V16.6642H43.9469C42.2719 16.6642 41.4897 17.1075 41.4897 18.2359C41.4897 19.2982 42.3614 19.9849 43.7908 19.9849C45.6237 19.9849 47.0303 19.0339 47.1636 17.7491ZM59.8146 20.4509C58.9657 21.4923 57.6029 22 55.8841 22C53.3164 22 51.708 20.4283 51.708 18.3471C51.708 16.1999 53.3392 14.8264 56.1981 14.8056H59.7936V14.4509C59.7936 12.9678 58.8324 12.0811 56.9575 12.0811C55.8192 12.0811 54.6353 12.4793 53.4514 13.2773L52.4026 11.5057C54.0548 10.532 55.2615 10.0226 57.517 10.0226C60.5776 10.0226 62.2964 11.5717 62.3192 14.1623L62.342 21.8887H59.8181V20.4509H59.8146ZM59.7936 17.7491V16.6642H56.5769C54.9019 16.6642 54.1197 17.1075 54.1197 18.2359C54.1197 19.2982 54.9914 19.9849 56.4208 19.9849C58.2519 19.9849 59.6585 19.0339 59.7936 17.7491ZM73.1813 11.1962L72.2429 13.0774C71.1923 12.4358 69.8751 12.0359 68.8263 12.0359C67.8213 12.0359 67.0846 12.368 67.0846 13.2095C67.0846 15.3793 73.4058 14.2057 73.383 18.4793C73.383 20.8925 71.2169 21.9774 68.8263 21.9774C67.0847 21.9774 65.2308 21.4019 64.0469 20.3396L64.9624 18.5245C65.9902 19.432 67.6424 19.9849 68.9385 19.9849C70.033 19.9849 70.8819 19.6076 70.8819 18.7227C70.8819 16.3095 64.6274 17.6604 64.6502 13.4094C64.6502 11.0188 66.7496 10 69.028 10C70.5241 10 72.1096 10.4433 73.1813 11.1962ZM81.4791 21.9652C79.9795 21.9652 78.8272 21.5793 78.0572 20.8177C77.2872 20.058 76.8961 18.9209 76.8961 17.4396V10.1165H78.4395V16.5025C78.4395 18.0203 78.6693 19.06 79.1411 19.6807C79.6164 20.3048 80.418 20.6213 81.5247 20.6213C82.6297 20.6213 83.4277 20.3083 83.896 19.6911C84.3608 19.0791 84.5853 18.0359 84.5853 16.5025V10.1165H86.0831V17.4413C86.0831 18.9296 85.6938 20.0666 84.9238 20.8247C84.1538 21.581 82.9945 21.9652 81.4791 21.9652ZM88.8035 10.1165H90.3013V21.88H88.8035V10.1165Z" fill="#0E1012"/>
</svg>
