<svg width="296" height="141" viewBox="0 0 296 141" fill="none" xmlns="http://www.w3.org/2000/svg">
<path d="M100.5 34C100.5 30.9624 102.962 28.5 106 28.5H190C193.038 28.5 195.5 30.9624 195.5 34V107C195.5 110.038 193.038 112.5 190 112.5H106C102.962 112.5 100.5 110.038 100.5 107V34Z" fill="white"/>
<path d="M100.5 34C100.5 30.9624 102.962 28.5 106 28.5H190C193.038 28.5 195.5 30.9624 195.5 34V107C195.5 110.038 193.038 112.5 190 112.5H106C102.962 112.5 100.5 110.038 100.5 107V34Z" stroke="#D3D4D5"/>
<path d="M148 37.25C150.754 37.25 153 39.4961 153 42.25C153 45.0234 150.754 47.25 148 47.25C145.227 47.25 143 45.0234 143 42.25C143 39.4961 145.227 37.25 148 37.25ZM147.531 40.2188V42.7188C147.531 42.9922 147.727 43.1875 148 43.1875C148.254 43.1875 148.469 42.9922 148.469 42.7188V40.2188C148.469 39.9648 148.254 39.75 148 39.75C147.727 39.75 147.531 39.9648 147.531 40.2188ZM148 45.0625C148.332 45.0625 148.605 44.7891 148.605 44.457C148.605 44.125 148.332 43.8516 148 43.8516C147.648 43.8516 147.375 44.125 147.375 44.457C147.375 44.7891 147.648 45.0625 148 45.0625Z" fill="#E53E3E"/>
<rect x="109" y="54" width="78" height="3" rx="1.5" fill="#ABADAF"/>
<path d="M111 64.75C110.93 64.75 110.867 64.7266 110.82 64.6797L109.32 63.1797C109.219 63.0859 109.219 62.9219 109.32 62.8281C109.414 62.7266 109.578 62.7266 109.672 62.8281L111 64.1484L112.32 62.8281C112.414 62.7266 112.578 62.7266 112.672 62.8281C112.773 62.9219 112.773 63.0859 112.672 63.1797L111.172 64.6797C111.125 64.7266 111.062 64.75 111 64.75Z" fill="#ABADAF"/>
<rect x="116" y="62" width="41" height="3" rx="1.5" fill="#D3D4D5"/>
<rect x="116" y="71" width="29" height="3" rx="1.5" fill="#D3D4D5"/>
<rect x="116" y="80" width="29" height="3" rx="1.5" fill="#D3D4D5"/>
<path d="M134 95C134 93.8954 134.895 93 136 93H160C161.105 93 162 93.8954 162 95V101C162 102.105 161.105 103 160 103H136C134.895 103 134 102.105 134 101V95Z" fill="#8952E0"/>
<rect x="138" y="97" width="20" height="2" rx="1" fill="white"/>
</svg>
