<svg width="296" height="141" viewBox="0 0 296 141" fill="none" xmlns="http://www.w3.org/2000/svg">
<path d="M100.5 36C100.5 32.9624 102.962 30.5 106 30.5H190C193.038 30.5 195.5 32.9624 195.5 36V105C195.5 108.038 193.038 110.5 190 110.5H106C102.962 110.5 100.5 108.038 100.5 105V36Z" fill="white"/>
<path d="M100.5 36C100.5 32.9624 102.962 30.5 106 30.5H190C193.038 30.5 195.5 32.9624 195.5 36V105C195.5 108.038 193.038 110.5 190 110.5H106C102.962 110.5 100.5 108.038 100.5 105V36Z" stroke="#D3D4D5"/>
<rect x="109" y="39" width="78" height="3" rx="1.5" fill="#ABADAF"/>
<path d="M111 49.75C110.93 49.75 110.867 49.7266 110.82 49.6797L109.32 48.1797C109.219 48.0859 109.219 47.9219 109.32 47.8281C109.414 47.7266 109.578 47.7266 109.672 47.8281L111 49.1484L112.32 47.8281C112.414 47.7266 112.578 47.7266 112.672 47.8281C112.773 47.9219 112.773 48.0859 112.672 48.1797L111.172 49.6797C111.125 49.7266 111.062 49.75 111 49.75Z" fill="#ABADAF"/>
<rect x="116" y="47" width="41" height="3" rx="1.5" fill="#D3D4D5"/>
<path d="M109.5 61C109.5 57.9624 111.962 55.5 115 55.5H181C184.038 55.5 186.5 57.9624 186.5 61V76C186.5 79.0376 184.038 81.5 181 81.5H115C111.962 81.5 109.5 79.0376 109.5 76V61Z" fill="white"/>
<path d="M109.5 61C109.5 57.9624 111.962 55.5 115 55.5H181C184.038 55.5 186.5 57.9624 186.5 61V76C186.5 79.0376 184.038 81.5 181 81.5H115C111.962 81.5 109.5 79.0376 109.5 76V61Z" stroke="#E53E3E"/>
<path d="M119.5 61.75C121.152 61.75 122.5 63.0977 122.5 64.75C122.5 66.4141 121.152 67.75 119.5 67.75C117.836 67.75 116.5 66.4141 116.5 64.75C116.5 63.0977 117.836 61.75 119.5 61.75ZM119.219 63.5312V65.0312C119.219 65.1953 119.336 65.3125 119.5 65.3125C119.652 65.3125 119.781 65.1953 119.781 65.0312V63.5312C119.781 63.3789 119.652 63.25 119.5 63.25C119.336 63.25 119.219 63.3789 119.219 63.5312ZM119.5 66.4375C119.699 66.4375 119.863 66.2734 119.863 66.0742C119.863 65.875 119.699 65.7109 119.5 65.7109C119.289 65.7109 119.125 65.875 119.125 66.0742C119.125 66.2734 119.289 66.4375 119.5 66.4375Z" fill="#E53E3E"/>
<rect x="125" y="63" width="26" height="3" rx="1.5" fill="#E53E3E"/>
<rect x="125" y="71" width="50" height="3" rx="1.5" fill="#E53E3E"/>
<path d="M134 93C134 91.8954 134.895 91 136 91H160C161.105 91 162 91.8954 162 93V99C162 100.105 161.105 101 160 101H136C134.895 101 134 100.105 134 99V93Z" fill="#8952E0"/>
<rect x="138" y="95" width="20" height="2" rx="1" fill="white"/>
</svg>
