<svg width="296" height="141" viewBox="0 0 296 141" fill="none" xmlns="http://www.w3.org/2000/svg">
<path d="M102.5 41C102.5 37.9624 104.962 35.5 108 35.5H188C191.038 35.5 193.5 37.9624 193.5 41V100C193.5 103.038 191.038 105.5 188 105.5H108C104.962 105.5 102.5 103.038 102.5 100V41Z" fill="white"/>
<path d="M102.5 41C102.5 37.9624 104.962 35.5 108 35.5H188C191.038 35.5 193.5 37.9624 193.5 41V100C193.5 103.038 191.038 105.5 188 105.5H108C104.962 105.5 102.5 103.038 102.5 100V41Z" stroke="#D3D4D5"/>
<rect x="111" y="45" width="57" height="3" rx="1.5" fill="#D3D4D5"/>
<rect x="171" y="45" width="14" height="3" rx="1.5" fill="#ABADAF"/>
<path d="M111.5 59C111.5 55.9624 113.962 53.5 117 53.5H179C182.038 53.5 184.5 55.9624 184.5 59V74C184.5 77.0376 182.038 79.5 179 79.5H117C113.962 79.5 111.5 77.0376 111.5 74V59Z" fill="white"/>
<path d="M111.5 59C111.5 55.9624 113.962 53.5 117 53.5H179C182.038 53.5 184.5 55.9624 184.5 59V74C184.5 77.0376 182.038 79.5 179 79.5H117C113.962 79.5 111.5 77.0376 111.5 74V59Z" stroke="#E53E3E"/>
<path d="M121.5 59.75C123.152 59.75 124.5 61.0977 124.5 62.75C124.5 64.4141 123.152 65.75 121.5 65.75C119.836 65.75 118.5 64.4141 118.5 62.75C118.5 61.0977 119.836 59.75 121.5 59.75ZM121.219 61.5312V63.0312C121.219 63.1953 121.336 63.3125 121.5 63.3125C121.652 63.3125 121.781 63.1953 121.781 63.0312V61.5312C121.781 61.3789 121.652 61.25 121.5 61.25C121.336 61.25 121.219 61.3789 121.219 61.5312ZM121.5 64.4375C121.699 64.4375 121.863 64.2734 121.863 64.0742C121.863 63.875 121.699 63.7109 121.5 63.7109C121.289 63.7109 121.125 63.875 121.125 64.0742C121.125 64.2734 121.289 64.4375 121.5 64.4375Z" fill="#E53E3E"/>
<rect x="127" y="61" width="26" height="3" rx="1.5" fill="#E53E3E"/>
<rect x="127" y="69" width="50" height="3" rx="1.5" fill="#E53E3E"/>
<path d="M134 89C134 87.8954 134.895 87 136 87H160C161.105 87 162 87.8954 162 89V95C162 96.1046 161.105 97 160 97H136C134.895 97 134 96.1046 134 95V89Z" fill="#8952E0"/>
<rect x="138" y="91" width="20" height="2" rx="1" fill="white"/>
</svg>
