<svg width="296" height="141" viewBox="0 0 296 141" fill="none" xmlns="http://www.w3.org/2000/svg">
<rect width="296" height="141" fill="#F1F1F2"/>
<g clip-path="url(#clip0_78_5753)">
<path d="M156.969 71C156.969 71.5625 156.5 72 155.969 72H154.969L155 77C155 77.0938 155 77.1875 155 77.25V77.75C155 78.4688 154.438 79 153.75 79H153.25C153.188 79 153.156 79 153.125 79C153.094 79 153.031 79 153 79H151.25C150.531 79 150 78.4688 150 77.75V75C150 74.4688 149.531 74 149 74H147C146.438 74 146 74.4688 146 75V77.75C146 78.4688 145.438 79 144.75 79H143C142.938 79 142.906 79 142.844 79C142.812 79 142.781 79 142.75 79H142.25C141.531 79 141 78.4688 141 77.75V74.25C141 74.25 141 74.2188 141 74.1875V72H140C139.438 72 139 71.5625 139 71C139 70.7188 139.094 70.4688 139.312 70.25L147.312 63.2812C147.531 63.0625 147.781 63 148 63C148.219 63 148.469 63.0938 148.656 63.25L156.625 70.25C156.875 70.4688 157 70.7188 156.969 71Z" fill="#8952E0"/>
</g>
<path fill-rule="evenodd" clip-rule="evenodd" d="M135 80.5C135 80.2239 135.208 80 135.464 80L160.536 80C160.792 80 161 80.2239 161 80.5C161 80.7761 160.792 81 160.536 81L135.464 81C135.208 81 135 80.7761 135 80.5Z" fill="#ABADAF"/>
<path fill-rule="evenodd" clip-rule="evenodd" d="M135 61.5C135 61.2239 135.208 61 135.464 61L160.536 61C160.792 61 161 61.2239 161 61.5C161 61.7761 160.792 62 160.536 62L135.464 62C135.208 62 135 61.7761 135 61.5Z" fill="#ABADAF"/>
<path fill-rule="evenodd" clip-rule="evenodd" d="M137.5 84C137.224 84 137 83.7841 137 83.5179L137 57.4821C137 57.2159 137.224 57 137.5 57C137.776 57 138 57.2159 138 57.4821L138 83.5179C138 83.7841 137.776 84 137.5 84Z" fill="#ABADAF"/>
<path fill-rule="evenodd" clip-rule="evenodd" d="M158.5 84C158.224 84 158 83.7841 158 83.5179L158 57.4821C158 57.2159 158.224 57 158.5 57C158.776 57 159 57.2159 159 57.4821L159 83.5179C159 83.7841 158.776 84 158.5 84Z" fill="#ABADAF"/>
<defs>
<clipPath id="clip0_78_5753">
<path d="M137 59.5H159V81.5H137V59.5Z" fill="white"/>
</clipPath>
</defs>
</svg>
