<svg width="296" height="141" viewBox="0 0 296 141" fill="none" xmlns="http://www.w3.org/2000/svg">
<path d="M98.5 62C98.5 60.067 100.067 58.5 102 58.5H120C121.933 58.5 123.5 60.067 123.5 62V79C123.5 80.933 121.933 82.5 120 82.5H102C100.067 82.5 98.5 80.933 98.5 79V62Z" fill="white"/>
<path d="M98.5 62C98.5 60.067 100.067 58.5 102 58.5H120C121.933 58.5 123.5 60.067 123.5 62V79C123.5 80.933 121.933 82.5 120 82.5H102C100.067 82.5 98.5 80.933 98.5 79V62Z" stroke="#D3D4D5"/>
<rect x="131" y="71" width="6" height="1" transform="rotate(180 131 71)" fill="#8952E0"/>
<rect x="132" y="73" width="1" height="5" rx="0.5" transform="rotate(180 132 73)" fill="#8952E0"/>
<rect x="125" y="73" width="1" height="5" rx="0.5" transform="rotate(180 125 73)" fill="#8952E0"/>
<path d="M132.5 62C132.5 60.067 134.067 58.5 136 58.5H154C155.933 58.5 157.5 60.067 157.5 62V79C157.5 80.933 155.933 82.5 154 82.5H136C134.067 82.5 132.5 80.933 132.5 79V62Z" fill="white"/>
<path d="M132.5 62C132.5 60.067 134.067 58.5 136 58.5H154C155.933 58.5 157.5 60.067 157.5 62V79C157.5 80.933 155.933 82.5 154 82.5H136C134.067 82.5 132.5 80.933 132.5 79V62Z" stroke="#D3D4D5"/>
<rect x="171" y="71" width="12" height="1" transform="rotate(180 171 71)" fill="#8952E0"/>
<rect x="172" y="73" width="1" height="5" rx="0.5" transform="rotate(180 172 73)" fill="#8952E0"/>
<rect x="159" y="73" width="1" height="5" rx="0.5" transform="rotate(180 159 73)" fill="#8952E0"/>
<path d="M172.5 62C172.5 60.067 174.067 58.5 176 58.5H194C195.933 58.5 197.5 60.067 197.5 62V79C197.5 80.933 195.933 82.5 194 82.5H176C174.067 82.5 172.5 80.933 172.5 79V62Z" fill="white"/>
<path d="M172.5 62C172.5 60.067 174.067 58.5 176 58.5H194C195.933 58.5 197.5 60.067 197.5 62V79C197.5 80.933 195.933 82.5 194 82.5H176C174.067 82.5 172.5 80.933 172.5 79V62Z" stroke="#D3D4D5"/>
</svg>
