<svg width="296" height="141" viewBox="0 0 296 141" fill="none" xmlns="http://www.w3.org/2000/svg">
<path d="M119.5 37C119.5 35.067 121.067 33.5 123 33.5H173C174.933 33.5 176.5 35.067 176.5 37V50C176.5 51.933 174.933 53.5 173 53.5H123C121.067 53.5 119.5 51.933 119.5 50V37Z" fill="white"/>
<path d="M119.5 37C119.5 35.067 121.067 33.5 123 33.5H173C174.933 33.5 176.5 35.067 176.5 37V50C176.5 51.933 174.933 53.5 173 53.5H123C121.067 53.5 119.5 51.933 119.5 50V37Z" stroke="#D3D4D5"/>
<rect x="116" y="60" width="5" height="1" transform="rotate(-90 116 60)" fill="#8952E0"/>
<rect x="114" y="61" width="1" height="5" rx="0.5" transform="rotate(-90 114 61)" fill="#8952E0"/>
<rect x="114" y="55" width="1" height="5" rx="0.5" transform="rotate(-90 114 55)" fill="#8952E0"/>
<path d="M123 57.5L173 57.5" stroke="#8952E0" stroke-dasharray="2 2"/>
<rect x="179" y="60" width="5" height="1" transform="rotate(-90 179 60)" fill="#8952E0"/>
<rect x="177" y="61" width="1" height="5" rx="0.5" transform="rotate(-90 177 61)" fill="#8952E0"/>
<rect x="177" y="55" width="1" height="5" rx="0.5" transform="rotate(-90 177 55)" fill="#8952E0"/>
<path d="M119.5 65C119.5 63.067 121.067 61.5 123 61.5H173C174.933 61.5 176.5 63.067 176.5 65V77C176.5 78.933 174.933 80.5 173 80.5H123C121.067 80.5 119.5 78.933 119.5 77V65Z" fill="white"/>
<path d="M119.5 65C119.5 63.067 121.067 61.5 123 61.5H173C174.933 61.5 176.5 63.067 176.5 65V77C176.5 78.933 174.933 80.5 173 80.5H123C121.067 80.5 119.5 78.933 119.5 77V65Z" stroke="#D3D4D5"/>
<rect x="116" y="87" width="5" height="1" transform="rotate(-90 116 87)" fill="#8952E0"/>
<rect x="114" y="88" width="1" height="5" rx="0.5" transform="rotate(-90 114 88)" fill="#8952E0"/>
<rect x="114" y="82" width="1" height="5" rx="0.5" transform="rotate(-90 114 82)" fill="#8952E0"/>
<path d="M123 84.5L173 84.5" stroke="#8952E0" stroke-dasharray="2 2"/>
<rect x="179" y="87" width="5" height="1" transform="rotate(-90 179 87)" fill="#8952E0"/>
<rect x="177" y="88" width="1" height="5" rx="0.5" transform="rotate(-90 177 88)" fill="#8952E0"/>
<rect x="177" y="82" width="1" height="5" rx="0.5" transform="rotate(-90 177 82)" fill="#8952E0"/>
<path d="M119.5 92C119.5 90.067 121.067 88.5 123 88.5H173C174.933 88.5 176.5 90.067 176.5 92V104C176.5 105.933 174.933 107.5 173 107.5H123C121.067 107.5 119.5 105.933 119.5 104V92Z" fill="white"/>
<path d="M119.5 92C119.5 90.067 121.067 88.5 123 88.5H173C174.933 88.5 176.5 90.067 176.5 92V104C176.5 105.933 174.933 107.5 173 107.5H123C121.067 107.5 119.5 105.933 119.5 104V92Z" stroke="#D3D4D5"/>
</svg>
