<svg width="296" height="141" viewBox="0 0 296 141" fill="none" xmlns="http://www.w3.org/2000/svg">
<rect width="296" height="141" fill="#F1F1F2"/>
<path d="M133.5 44C133.5 43.1716 134.172 42.5 135 42.5H161C161.828 42.5 162.5 43.1716 162.5 44V51C162.5 51.8284 161.828 52.5 161 52.5H135C134.172 52.5 133.5 51.8284 133.5 51V44Z" fill="white"/>
<path d="M133.5 44C133.5 43.1716 134.172 42.5 135 42.5H161C161.828 42.5 162.5 43.1716 162.5 44V51C162.5 51.8284 161.828 52.5 161 52.5H135C134.172 52.5 133.5 51.8284 133.5 51V44Z" stroke="#8952E0"/>
<rect x="137" y="46" width="22" height="3" rx="1.5" fill="#ABADAF"/>
<path d="M100.5 62C100.5 58.9624 102.962 56.5 106 56.5H190C193.038 56.5 195.5 58.9624 195.5 62V93C195.5 96.0376 193.038 98.5 190 98.5H106C102.962 98.5 100.5 96.0376 100.5 93V62Z" fill="white"/>
<path d="M100.5 62C100.5 58.9624 102.962 56.5 106 56.5H190C193.038 56.5 195.5 58.9624 195.5 62V93C195.5 96.0376 193.038 98.5 190 98.5H106C102.962 98.5 100.5 96.0376 100.5 93V62Z" stroke="#D3D4D5"/>
<rect x="106" y="64" width="37" height="3" rx="1.5" fill="#ABADAF"/>
<path d="M189.051 66.8242C189.229 66.9883 189.229 67.2754 189.051 67.4395C188.969 67.5215 188.859 67.5625 188.75 67.5625C188.627 67.5625 188.518 67.5215 188.436 67.4395L187 66.0039L185.551 67.4395C185.469 67.5215 185.359 67.5625 185.25 67.5625C185.127 67.5625 185.018 67.5215 184.936 67.4395C184.758 67.2754 184.758 66.9883 184.936 66.8242L186.371 65.375L184.936 63.9395C184.758 63.7754 184.758 63.4883 184.936 63.3242C185.1 63.1465 185.387 63.1465 185.551 63.3242L187 64.7598L188.436 63.3242C188.6 63.1465 188.887 63.1465 189.051 63.3242C189.229 63.4883 189.229 63.7754 189.051 63.9395L187.615 65.3887L189.051 66.8242Z" fill="#ABADAF"/>
<rect x="106" y="73" width="77" height="3" rx="1.5" fill="#D3D4D5"/>
<rect x="106" y="78" width="35" height="3" rx="1.5" fill="#D3D4D5"/>
<rect x="106" y="87" width="20" height="3" rx="1.5" fill="#ABADAF"/>
<rect x="165" y="87" width="11" height="3" rx="1.5" fill="#ABADAF"/>
<rect x="179" y="87" width="11" height="3" rx="1.5" fill="#8952E0"/>
</svg>
