<svg width="296" height="141" viewBox="0 0 296 141" fill="none" xmlns="http://www.w3.org/2000/svg">
<g filter="url(#filter0_i_78_6744)">
<rect x="115.5" y="60" width="30" height="21" rx="6" fill="white"/>
<rect x="116" y="60.5" width="29" height="20" rx="5.5" stroke="#D3D4D5"/>
<path d="M119.5 67.0469C119.5 66.0703 120.301 65.25 121.297 65.25C122.273 65.25 123.094 66.0703 123.094 67.0469V67.9062H125.906V67.0469C125.906 66.0703 126.707 65.25 127.703 65.25C128.68 65.25 129.5 66.0703 129.5 67.0469V67.125C129.5 68.1602 128.66 69 127.625 69H126.844V71.5H127.625C128.66 71.5 129.5 72.3398 129.5 73.375V73.4531C129.5 74.4492 128.68 75.25 127.703 75.25C126.707 75.25 125.906 74.4492 125.906 73.4531V72.5938H123.094V73.4531C123.094 74.4492 122.273 75.25 121.297 75.25C120.301 75.25 119.5 74.4492 119.5 73.4531V73.375C119.5 72.3398 120.34 71.5 121.375 71.5H122.156V69H121.375C120.34 69 119.5 68.1602 119.5 67.125V67.0469ZM122.156 68.0625V67.9062V67.0469C122.156 66.5781 121.766 66.1875 121.297 66.1875C120.809 66.1875 120.438 66.5781 120.438 67.0469V67.125C120.438 67.6523 120.848 68.0625 121.375 68.0625H122.156ZM123.094 71.5V71.6562H125.906V71.5V69V68.8438H123.094V69V71.5ZM122.156 72.4375H121.375C120.848 72.4375 120.438 72.8672 120.438 73.375V73.4531C120.438 73.9414 120.809 74.3125 121.297 74.3125C121.766 74.3125 122.156 73.9414 122.156 73.4531V72.5938V72.4375ZM126.844 72.5938V73.4531C126.844 73.9414 127.215 74.3125 127.703 74.3125C128.172 74.3125 128.562 73.9414 128.562 73.4531V73.375C128.562 72.8672 128.133 72.4375 127.625 72.4375H126.844V72.5938ZM126.844 68.0625H127.625C128.133 68.0625 128.562 67.6523 128.562 67.125V67.0469C128.562 66.5781 128.172 66.1875 127.703 66.1875C127.215 66.1875 126.844 66.5781 126.844 67.0469V67.9062V68.0625Z" fill="#33373D"/>
<path d="M134.312 66.3438V70.543L138.824 66.0312C139 65.8359 139.293 65.8359 139.488 66.0312C139.664 66.207 139.664 66.5 139.488 66.6758L136.539 69.625L139.527 73.9023C139.684 74.0977 139.625 74.3906 139.41 74.5469C139.215 74.7031 138.922 74.6445 138.766 74.4297L135.855 70.3086L134.312 71.8516V74.1562C134.312 74.4297 134.098 74.625 133.844 74.625C133.57 74.625 133.375 74.4297 133.375 74.1562V71.6562V66.3438C133.375 66.0898 133.57 65.875 133.844 65.875C134.098 65.875 134.312 66.0898 134.312 66.3438Z" fill="#33373D"/>
</g>
<path d="M153.562 67.5312V70.0625H156.094C156.393 70.0625 156.656 70.3262 156.656 70.625C156.656 70.9414 156.393 71.1875 156.094 71.1875H153.562V73.7188C153.562 74.0352 153.299 74.2812 153 74.2812C152.684 74.2812 152.438 74.0352 152.438 73.7188V71.1875H149.906C149.59 71.1875 149.344 70.9414 149.344 70.625C149.344 70.3262 149.59 70.0625 149.906 70.0625H152.438V67.5312C152.438 67.2324 152.684 66.9688 153 66.9688C153.299 66.9688 153.562 67.2324 153.562 67.5312Z" fill="#ABADAF"/>
<g filter="url(#filter1_i_78_6744)">
<rect x="160.5" y="60" width="20" height="21" rx="6" fill="white"/>
<rect x="161" y="60.5" width="19" height="20" rx="5.5" stroke="#D3D4D5"/>
<path d="M170.5 66.8711L167.707 69.8008C167.688 69.8203 167.688 69.8398 167.688 69.8594C167.688 69.8984 167.727 69.9375 167.766 69.9375H169.406C169.66 69.9375 169.875 70.1523 169.875 70.4062V73.6875H171.125V70.4258C171.125 70.1523 171.32 69.957 171.594 69.957H173.215C173.273 69.957 173.312 69.8984 173.312 69.8594C173.312 69.8398 173.293 69.8203 173.273 69.8008L170.5 66.8711ZM174.25 69.8594C174.25 70.4258 173.781 70.875 173.215 70.875H172.062V73.6875C172.062 74.2148 171.633 74.625 171.125 74.625H169.875C169.348 74.625 168.938 74.2148 168.938 73.6875V70.875H167.766C167.199 70.875 166.75 70.4258 166.75 69.8594C166.75 69.5859 166.848 69.332 167.023 69.1562L169.895 66.1484C170.051 65.9727 170.266 65.875 170.5 65.875C170.715 65.875 170.93 65.9727 171.086 66.1484L173.957 69.1562C174.133 69.332 174.25 69.5859 174.25 69.8594Z" fill="#33373D"/>
</g>
<defs>
<filter id="filter0_i_78_6744" x="115.5" y="60" width="30" height="21" filterUnits="userSpaceOnUse" color-interpolation-filters="sRGB">
<feFlood flood-opacity="0" result="BackgroundImageFix"/>
<feBlend mode="normal" in="SourceGraphic" in2="BackgroundImageFix" result="shape"/>
<feColorMatrix in="SourceAlpha" type="matrix" values="0 0 0 0 0 0 0 0 0 0 0 0 0 0 0 0 0 0 127 0" result="hardAlpha"/>
<feOffset dy="-2"/>
<feComposite in2="hardAlpha" operator="arithmetic" k2="-1" k3="1"/>
<feColorMatrix type="matrix" values="0 0 0 0 0.827451 0 0 0 0 0.831373 0 0 0 0 0.835294 0 0 0 1 0"/>
<feBlend mode="normal" in2="shape" result="effect1_innerShadow_78_6744"/>
</filter>
<filter id="filter1_i_78_6744" x="160.5" y="60" width="20" height="21" filterUnits="userSpaceOnUse" color-interpolation-filters="sRGB">
<feFlood flood-opacity="0" result="BackgroundImageFix"/>
<feBlend mode="normal" in="SourceGraphic" in2="BackgroundImageFix" result="shape"/>
<feColorMatrix in="SourceAlpha" type="matrix" values="0 0 0 0 0 0 0 0 0 0 0 0 0 0 0 0 0 0 127 0" result="hardAlpha"/>
<feOffset dy="-2"/>
<feComposite in2="hardAlpha" operator="arithmetic" k2="-1" k3="1"/>
<feColorMatrix type="matrix" values="0 0 0 0 0.827451 0 0 0 0 0.831373 0 0 0 0 0.835294 0 0 0 1 0"/>
<feBlend mode="normal" in2="shape" result="effect1_innerShadow_78_6744"/>
</filter>
</defs>
</svg>
