<svg width="296" height="141" viewBox="0 0 296 141" fill="none" xmlns="http://www.w3.org/2000/svg">
<g filter="url(#filter0_i_78_6778)">
<rect x="102" y="60" width="22" height="21" rx="6" fill="white"/>
<rect x="102.5" y="60.5" width="21" height="20" rx="5.5" stroke="#D3D4D5"/>
<path d="M108 67.0469C108 66.0703 108.801 65.25 109.797 65.25C110.773 65.25 111.594 66.0703 111.594 67.0469V67.9062H114.406V67.0469C114.406 66.0703 115.207 65.25 116.203 65.25C117.18 65.25 118 66.0703 118 67.0469V67.125C118 68.1602 117.16 69 116.125 69H115.344V71.5H116.125C117.16 71.5 118 72.3398 118 73.375V73.4531C118 74.4492 117.18 75.25 116.203 75.25C115.207 75.25 114.406 74.4492 114.406 73.4531V72.5938H111.594V73.4531C111.594 74.4492 110.773 75.25 109.797 75.25C108.801 75.25 108 74.4492 108 73.4531V73.375C108 72.3398 108.84 71.5 109.875 71.5H110.656V69H109.875C108.84 69 108 68.1602 108 67.125V67.0469ZM110.656 68.0625V67.9062V67.0469C110.656 66.5781 110.266 66.1875 109.797 66.1875C109.309 66.1875 108.938 66.5781 108.938 67.0469V67.125C108.938 67.6523 109.348 68.0625 109.875 68.0625H110.656ZM111.594 71.5V71.6562H114.406V71.5V69V68.8438H111.594V69V71.5ZM110.656 72.4375H109.875C109.348 72.4375 108.938 72.8672 108.938 73.375V73.4531C108.938 73.9414 109.309 74.3125 109.797 74.3125C110.266 74.3125 110.656 73.9414 110.656 73.4531V72.5938V72.4375ZM115.344 72.5938V73.4531C115.344 73.9414 115.715 74.3125 116.203 74.3125C116.672 74.3125 117.062 73.9414 117.062 73.4531V73.375C117.062 72.8672 116.633 72.4375 116.125 72.4375H115.344V72.5938ZM115.344 68.0625H116.125C116.633 68.0625 117.062 67.6523 117.062 67.125V67.0469C117.062 66.5781 116.672 66.1875 116.203 66.1875C115.715 66.1875 115.344 66.5781 115.344 67.0469V67.9062V68.0625Z" fill="#33373D"/>
</g>
<path d="M131.562 67.5312V70.0625H134.094C134.393 70.0625 134.656 70.3262 134.656 70.625C134.656 70.9414 134.393 71.1875 134.094 71.1875H131.562V73.7188C131.562 74.0352 131.299 74.2812 131 74.2812C130.684 74.2812 130.438 74.0352 130.438 73.7188V71.1875H127.906C127.59 71.1875 127.344 70.9414 127.344 70.625C127.344 70.3262 127.59 70.0625 127.906 70.0625H130.438V67.5312C130.438 67.2324 130.684 66.9688 131 66.9688C131.299 66.9688 131.562 67.2324 131.562 67.5312Z" fill="#ABADAF"/>
<g filter="url(#filter1_i_78_6778)">
<rect x="138" y="60" width="21" height="21" rx="6" fill="white"/>
<rect x="138.5" y="60.5" width="20" height="20" rx="5.5" stroke="#D3D4D5"/>
<path d="M148.5 66.8711L145.707 69.8008C145.688 69.8203 145.688 69.8398 145.688 69.8594C145.688 69.8984 145.727 69.9375 145.766 69.9375H147.406C147.66 69.9375 147.875 70.1523 147.875 70.4062V73.6875H149.125V70.4258C149.125 70.1523 149.32 69.957 149.594 69.957H151.215C151.273 69.957 151.312 69.8984 151.312 69.8594C151.312 69.8398 151.293 69.8203 151.273 69.8008L148.5 66.8711ZM152.25 69.8594C152.25 70.4258 151.781 70.875 151.215 70.875H150.062V73.6875C150.062 74.2148 149.633 74.625 149.125 74.625H147.875C147.348 74.625 146.938 74.2148 146.938 73.6875V70.875H145.766C145.199 70.875 144.75 70.4258 144.75 69.8594C144.75 69.5859 144.848 69.332 145.023 69.1562L147.895 66.1484C148.051 65.9727 148.266 65.875 148.5 65.875C148.715 65.875 148.93 65.9727 149.086 66.1484L151.957 69.1562C152.133 69.332 152.25 69.5859 152.25 69.8594Z" fill="#33373D"/>
</g>
<path d="M166.562 67.5312V70.0625H169.094C169.393 70.0625 169.656 70.3262 169.656 70.625C169.656 70.9414 169.393 71.1875 169.094 71.1875H166.562V73.7188C166.562 74.0352 166.299 74.2812 166 74.2812C165.684 74.2812 165.438 74.0352 165.438 73.7188V71.1875H162.906C162.59 71.1875 162.344 70.9414 162.344 70.625C162.344 70.3262 162.59 70.0625 162.906 70.0625H165.438V67.5312C165.438 67.2324 165.684 66.9688 166 66.9688C166.299 66.9688 166.562 67.2324 166.562 67.5312Z" fill="#ABADAF"/>
<g filter="url(#filter2_i_78_6778)">
<rect x="173" y="60" width="21" height="21" rx="6" fill="white"/>
<rect x="173.5" y="60.5" width="20" height="20" rx="5.5" stroke="#D3D4D5"/>
<path d="M186.371 67.6133L181.312 73.5117C181.039 73.8242 180.648 74 180.238 74H177.719C177.445 74 177.25 73.8047 177.25 73.5312C177.25 73.2773 177.445 73.0625 177.719 73.0625H180.238C180.375 73.0625 180.512 73.0039 180.609 72.9062L185.668 67.0078C185.941 66.6953 186.332 66.5 186.742 66.5H189.281C189.535 66.5 189.75 66.7148 189.75 66.9688C189.75 67.2422 189.535 67.4375 189.281 67.4375H186.742C186.605 67.4375 186.469 67.5156 186.371 67.6133ZM185.844 73.0625H189.281C189.535 73.0625 189.75 73.2773 189.75 73.5312C189.75 73.8047 189.535 74 189.281 74H185.844C185.57 74 185.375 73.8047 185.375 73.5312C185.375 73.2773 185.57 73.0625 185.844 73.0625Z" fill="#33373D"/>
</g>
<defs>
<filter id="filter0_i_78_6778" x="102" y="60" width="22" height="21" filterUnits="userSpaceOnUse" color-interpolation-filters="sRGB">
<feFlood flood-opacity="0" result="BackgroundImageFix"/>
<feBlend mode="normal" in="SourceGraphic" in2="BackgroundImageFix" result="shape"/>
<feColorMatrix in="SourceAlpha" type="matrix" values="0 0 0 0 0 0 0 0 0 0 0 0 0 0 0 0 0 0 127 0" result="hardAlpha"/>
<feOffset dy="-2"/>
<feComposite in2="hardAlpha" operator="arithmetic" k2="-1" k3="1"/>
<feColorMatrix type="matrix" values="0 0 0 0 0.827451 0 0 0 0 0.831373 0 0 0 0 0.835294 0 0 0 1 0"/>
<feBlend mode="normal" in2="shape" result="effect1_innerShadow_78_6778"/>
</filter>
<filter id="filter1_i_78_6778" x="138" y="60" width="21" height="21" filterUnits="userSpaceOnUse" color-interpolation-filters="sRGB">
<feFlood flood-opacity="0" result="BackgroundImageFix"/>
<feBlend mode="normal" in="SourceGraphic" in2="BackgroundImageFix" result="shape"/>
<feColorMatrix in="SourceAlpha" type="matrix" values="0 0 0 0 0 0 0 0 0 0 0 0 0 0 0 0 0 0 127 0" result="hardAlpha"/>
<feOffset dy="-2"/>
<feComposite in2="hardAlpha" operator="arithmetic" k2="-1" k3="1"/>
<feColorMatrix type="matrix" values="0 0 0 0 0.827451 0 0 0 0 0.831373 0 0 0 0 0.835294 0 0 0 1 0"/>
<feBlend mode="normal" in2="shape" result="effect1_innerShadow_78_6778"/>
</filter>
<filter id="filter2_i_78_6778" x="173" y="60" width="21" height="21" filterUnits="userSpaceOnUse" color-interpolation-filters="sRGB">
<feFlood flood-opacity="0" result="BackgroundImageFix"/>
<feBlend mode="normal" in="SourceGraphic" in2="BackgroundImageFix" result="shape"/>
<feColorMatrix in="SourceAlpha" type="matrix" values="0 0 0 0 0 0 0 0 0 0 0 0 0 0 0 0 0 0 127 0" result="hardAlpha"/>
<feOffset dy="-2"/>
<feComposite in2="hardAlpha" operator="arithmetic" k2="-1" k3="1"/>
<feColorMatrix type="matrix" values="0 0 0 0 0.827451 0 0 0 0 0.831373 0 0 0 0 0.835294 0 0 0 1 0"/>
<feBlend mode="normal" in2="shape" result="effect1_innerShadow_78_6778"/>
</filter>
</defs>
</svg>
