<svg width="296" height="141" viewBox="0 0 296 141" fill="none" xmlns="http://www.w3.org/2000/svg">
<g filter="url(#filter0_i_78_6723)">
<rect x="106" y="60" width="30" height="21" rx="6" fill="white"/>
<rect x="106.5" y="60.5" width="29" height="20" rx="5.5" stroke="#D3D4D5"/>
<path d="M114.357 74.696C114.01 74.696 113.692 74.6108 113.403 74.4403C113.113 74.267 112.883 74.0369 112.712 73.75C112.542 73.4602 112.456 73.142 112.456 72.7955C112.456 72.446 112.542 72.1278 112.712 71.8409C112.883 71.5511 113.113 71.3196 113.403 71.1463C113.692 70.973 114.01 70.8864 114.357 70.8864H115.295V69.3778H114.357C114.01 69.3778 113.692 69.2926 113.403 69.1222C113.113 68.9517 112.883 68.723 112.712 68.4361C112.542 68.1463 112.456 67.8267 112.456 67.4773C112.456 67.1278 112.542 66.8097 112.712 66.5227C112.883 66.2358 113.113 66.0071 113.403 65.8366C113.692 65.6634 114.01 65.5767 114.357 65.5767C114.706 65.5767 115.025 65.6634 115.312 65.8366C115.601 66.0071 115.831 66.2358 116.002 66.5227C116.175 66.8097 116.262 67.1278 116.262 67.4773V68.4062H117.775V67.4773C117.775 67.1278 117.86 66.8097 118.03 66.5227C118.201 66.2358 118.43 66.0071 118.716 65.8366C119.006 65.6634 119.326 65.5767 119.675 65.5767C120.025 65.5767 120.343 65.6634 120.63 65.8366C120.917 66.0071 121.145 66.2358 121.316 66.5227C121.486 66.8097 121.572 67.1278 121.572 67.4773C121.572 67.8267 121.486 68.1463 121.316 68.4361C121.145 68.723 120.917 68.9517 120.63 69.1222C120.343 69.2926 120.025 69.3778 119.675 69.3778H118.742V70.8864H119.675C120.025 70.8864 120.343 70.973 120.63 71.1463C120.917 71.3196 121.145 71.5511 121.316 71.8409C121.486 72.1278 121.572 72.446 121.572 72.7955C121.572 73.142 121.486 73.4602 121.316 73.75C121.145 74.0369 120.917 74.267 120.63 74.4403C120.343 74.6108 120.025 74.696 119.675 74.696C119.326 74.696 119.006 74.6108 118.716 74.4403C118.43 74.267 118.201 74.0369 118.03 73.75C117.86 73.4602 117.775 73.142 117.775 72.7955V71.858H116.262V72.7955C116.262 73.142 116.175 73.4602 116.002 73.75C115.831 74.0369 115.601 74.267 115.312 74.4403C115.025 74.6108 114.706 74.696 114.357 74.696ZM114.357 73.7244C114.53 73.7244 114.687 73.6832 114.826 73.6009C114.968 73.5185 115.081 73.4062 115.167 73.2642C115.252 73.1222 115.295 72.9659 115.295 72.7955V71.858H114.357C114.187 71.858 114.03 71.9006 113.888 71.9858C113.746 72.0682 113.633 72.1804 113.547 72.3224C113.465 72.4645 113.424 72.6222 113.424 72.7955C113.424 72.9659 113.465 73.1222 113.547 73.2642C113.633 73.4062 113.746 73.5185 113.888 73.6009C114.03 73.6832 114.187 73.7244 114.357 73.7244ZM114.357 68.4062H115.295V67.4773C115.295 67.304 115.252 67.1477 115.167 67.0085C115.081 66.8665 114.968 66.7543 114.826 66.6719C114.687 66.5895 114.53 66.5483 114.357 66.5483C114.187 66.5483 114.03 66.5895 113.888 66.6719C113.746 66.7543 113.633 66.8665 113.547 67.0085C113.465 67.1477 113.424 67.304 113.424 67.4773C113.424 67.6506 113.465 67.8082 113.547 67.9503C113.633 68.0895 113.746 68.2003 113.888 68.2827C114.03 68.3651 114.187 68.4062 114.357 68.4062ZM118.742 68.4062H119.675C119.849 68.4062 120.005 68.3651 120.144 68.2827C120.283 68.2003 120.394 68.0895 120.476 67.9503C120.562 67.8082 120.604 67.6506 120.604 67.4773C120.604 67.304 120.562 67.1477 120.476 67.0085C120.394 66.8665 120.283 66.7543 120.144 66.6719C120.005 66.5895 119.849 66.5483 119.675 66.5483C119.502 66.5483 119.344 66.5895 119.202 66.6719C119.06 66.7543 118.948 66.8665 118.866 67.0085C118.783 67.1477 118.742 67.304 118.742 67.4773V68.4062ZM119.675 73.7244C119.849 73.7244 120.005 73.6832 120.144 73.6009C120.283 73.5185 120.394 73.4062 120.476 73.2642C120.562 73.1222 120.604 72.9659 120.604 72.7955C120.604 72.6222 120.562 72.4645 120.476 72.3224C120.394 72.1804 120.283 72.0682 120.144 71.9858C120.005 71.9006 119.849 71.858 119.675 71.858H118.742V72.7955C118.742 72.9659 118.783 73.1222 118.866 73.2642C118.948 73.4062 119.06 73.5185 119.202 73.6009C119.344 73.6832 119.502 73.7244 119.675 73.7244ZM116.262 70.8864H117.775V69.3778H116.262V70.8864ZM123.91 74.5V65.7727H125.227V69.9403H125.333L128.994 65.7727H130.651L127.132 69.7017L130.664 74.5H129.079L126.258 70.6009L125.227 71.7855V74.5H123.91Z" fill="#33373D"/>
</g>
<path d="M143.477 73.9034V68.2784H144.432V73.9034H143.477ZM141.142 71.5682V70.6136H146.767V71.5682H141.142Z" fill="#33373D"/>
<g filter="url(#filter1_i_78_6723)">
<rect x="152" y="60" width="38" height="21" rx="6" fill="white"/>
<rect x="152.5" y="60.5" width="37" height="20" rx="5.5" stroke="#D3D4D5"/>
<path d="M163.307 68.0653C163.261 67.6619 163.074 67.3494 162.744 67.1278C162.415 66.9034 162 66.7912 161.5 66.7912C161.142 66.7912 160.832 66.848 160.571 66.9616C160.309 67.0724 160.106 67.2259 159.961 67.4219C159.819 67.6151 159.748 67.8352 159.748 68.0824C159.748 68.2898 159.797 68.4687 159.893 68.6193C159.993 68.7699 160.122 68.8963 160.281 68.9986C160.443 69.098 160.616 69.1818 160.801 69.25C160.986 69.3153 161.163 69.3693 161.334 69.4119L162.186 69.6335C162.464 69.7017 162.75 69.794 163.042 69.9105C163.335 70.027 163.606 70.1804 163.856 70.3707C164.106 70.5611 164.308 70.7969 164.461 71.0781C164.618 71.3594 164.696 71.696 164.696 72.0881C164.696 72.5824 164.568 73.0213 164.312 73.4048C164.059 73.7884 163.692 74.0909 163.209 74.3125C162.729 74.5341 162.148 74.6449 161.466 74.6449C160.812 74.6449 160.247 74.5412 159.77 74.3338C159.292 74.1264 158.919 73.8324 158.649 73.4517C158.379 73.0682 158.23 72.6136 158.202 72.0881H159.523C159.548 72.4034 159.65 72.6662 159.829 72.8764C160.011 73.0838 160.243 73.2386 160.524 73.3409C160.808 73.4403 161.119 73.4901 161.457 73.4901C161.829 73.4901 162.16 73.4318 162.45 73.3153C162.743 73.196 162.973 73.0312 163.14 72.821C163.308 72.608 163.392 72.3594 163.392 72.0753C163.392 71.8168 163.318 71.6051 163.17 71.4403C163.025 71.2756 162.828 71.1392 162.578 71.0312C162.331 70.9233 162.051 70.8281 161.738 70.7457L160.707 70.4645C160.008 70.2741 159.454 69.9943 159.045 69.625C158.639 69.2557 158.436 68.767 158.436 68.1591C158.436 67.6562 158.572 67.2173 158.845 66.8423C159.118 66.4673 159.487 66.1761 159.953 65.9688C160.419 65.7585 160.944 65.6534 161.53 65.6534C162.121 65.6534 162.642 65.7571 163.094 65.9645C163.548 66.1719 163.906 66.4574 164.167 66.821C164.429 67.1818 164.565 67.5966 164.577 68.0653H163.307ZM167.441 70.6136V74.5H166.167V65.7727H167.424V69.0199H167.505C167.659 68.6676 167.893 68.3878 168.208 68.1804C168.524 67.973 168.936 67.8693 169.444 67.8693C169.893 67.8693 170.285 67.9616 170.62 68.1463C170.958 68.331 171.22 68.6065 171.404 68.973C171.592 69.3366 171.686 69.7912 171.686 70.3366V74.5H170.411V70.4901C170.411 70.0099 170.288 69.6378 170.041 69.3736C169.794 69.1065 169.45 68.973 169.009 68.973C168.708 68.973 168.438 69.0369 168.2 69.1648C167.964 69.2926 167.778 69.4801 167.642 69.7273C167.508 69.9716 167.441 70.267 167.441 70.6136ZM173.386 74.5V67.9545H174.66V74.5H173.386ZM174.029 66.9446C173.808 66.9446 173.617 66.8707 173.458 66.723C173.302 66.5724 173.224 66.3935 173.224 66.1861C173.224 65.9759 173.302 65.7969 173.458 65.6491C173.617 65.4986 173.808 65.4233 174.029 65.4233C174.251 65.4233 174.44 65.4986 174.596 65.6491C174.755 65.7969 174.835 65.9759 174.835 66.1861C174.835 66.3935 174.755 66.5724 174.596 66.723C174.44 66.8707 174.251 66.9446 174.029 66.9446ZM179.489 67.9545V68.9773H175.79V67.9545H179.489ZM176.805 74.5V67.196C176.805 66.7869 176.894 66.4474 177.073 66.1776C177.252 65.9048 177.489 65.7017 177.785 65.5682C178.08 65.4318 178.401 65.3636 178.748 65.3636C179.003 65.3636 179.222 65.3849 179.404 65.4276C179.586 65.4673 179.721 65.5043 179.809 65.5384L179.51 66.5696C179.451 66.5526 179.374 66.5327 179.28 66.5099C179.187 66.4844 179.073 66.4716 178.939 66.4716C178.63 66.4716 178.408 66.5483 178.275 66.7017C178.144 66.8551 178.079 67.0767 178.079 67.3665V74.5H176.805ZM183.859 67.9545V68.9773H180.284V67.9545H183.859ZM181.243 66.3864H182.517V72.5781C182.517 72.8253 182.554 73.0114 182.628 73.1364C182.702 73.2585 182.797 73.3423 182.913 73.3878C183.032 73.4304 183.162 73.4517 183.301 73.4517C183.403 73.4517 183.493 73.4446 183.569 73.4304C183.646 73.4162 183.706 73.4048 183.748 73.3963L183.979 74.4489C183.905 74.4773 183.8 74.5057 183.663 74.5341C183.527 74.5653 183.356 74.5824 183.152 74.5852C182.817 74.5909 182.504 74.5312 182.214 74.4062C181.925 74.2812 181.69 74.0881 181.511 73.8267C181.332 73.5653 181.243 73.2372 181.243 72.8423V66.3864Z" fill="#33373D"/>
</g>
<defs>
<filter id="filter0_i_78_6723" x="106" y="60" width="30" height="21" filterUnits="userSpaceOnUse" color-interpolation-filters="sRGB">
<feFlood flood-opacity="0" result="BackgroundImageFix"/>
<feBlend mode="normal" in="SourceGraphic" in2="BackgroundImageFix" result="shape"/>
<feColorMatrix in="SourceAlpha" type="matrix" values="0 0 0 0 0 0 0 0 0 0 0 0 0 0 0 0 0 0 127 0" result="hardAlpha"/>
<feOffset dy="-2"/>
<feComposite in2="hardAlpha" operator="arithmetic" k2="-1" k3="1"/>
<feColorMatrix type="matrix" values="0 0 0 0 0.827451 0 0 0 0 0.831373 0 0 0 0 0.835294 0 0 0 1 0"/>
<feBlend mode="normal" in2="shape" result="effect1_innerShadow_78_6723"/>
</filter>
<filter id="filter1_i_78_6723" x="152" y="60" width="38" height="21" filterUnits="userSpaceOnUse" color-interpolation-filters="sRGB">
<feFlood flood-opacity="0" result="BackgroundImageFix"/>
<feBlend mode="normal" in="SourceGraphic" in2="BackgroundImageFix" result="shape"/>
<feColorMatrix in="SourceAlpha" type="matrix" values="0 0 0 0 0 0 0 0 0 0 0 0 0 0 0 0 0 0 127 0" result="hardAlpha"/>
<feOffset dy="-2"/>
<feComposite in2="hardAlpha" operator="arithmetic" k2="-1" k3="1"/>
<feColorMatrix type="matrix" values="0 0 0 0 0.827451 0 0 0 0 0.831373 0 0 0 0 0.835294 0 0 0 1 0"/>
<feBlend mode="normal" in2="shape" result="effect1_innerShadow_78_6723"/>
</filter>
</defs>
</svg>
