<svg width="296" height="141" viewBox="0 0 296 141" fill="none" xmlns="http://www.w3.org/2000/svg">
<path d="M82.5 36C82.5 32.9624 84.9624 30.5 88 30.5H208C211.038 30.5 213.5 32.9624 213.5 36V105C213.5 108.038 211.038 110.5 208 110.5H88C84.9624 110.5 82.5 108.038 82.5 105V36Z" fill="white"/>
<path d="M82.5 36C82.5 32.9624 84.9624 30.5 88 30.5H208C211.038 30.5 213.5 32.9624 213.5 36V105C213.5 108.038 211.038 110.5 208 110.5H88C84.9624 110.5 82.5 108.038 82.5 105V36Z" stroke="#D3D4D5"/>
<mask id="path-2-inside-1_99_8252" fill="white">
<path d="M83 36C83 33.2386 85.2386 31 88 31H208C210.761 31 213 33.2386 213 36V43H83V36Z"/>
</mask>
<path d="M83 36C83 33.2386 85.2386 31 88 31H208C210.761 31 213 33.2386 213 36V43H83V36Z" fill="#F9FAFA"/>
<path d="M83 31H213H83ZM213 44H83V42H213V44ZM83 43V31V43ZM213 31V43V31Z" fill="#E7E7E8" mask="url(#path-2-inside-1_99_8252)"/>
<rect x="89" y="35" width="4" height="4" rx="2" fill="#E53E3E"/>
<rect x="96" y="35" width="4" height="4" rx="2" fill="#FBC434"/>
<rect x="103" y="35" width="4" height="4" rx="2" fill="#0EA371"/>
<mask id="path-7-inside-2_99_8252" fill="white">
<path d="M83 43H213V56H83V43Z"/>
</mask>
<path d="M213 55H83V57H213V55Z" fill="#E7E7E8" mask="url(#path-7-inside-2_99_8252)"/>
<rect x="92" y="46" width="7" height="7" rx="3.5" fill="#D3D4D5"/>
<rect x="105" y="48" width="17" height="3" rx="1.5" fill="#D3D4D5"/>
<rect x="128" y="48" width="17" height="3" rx="1.5" fill="#D3D4D5"/>
<rect x="151" y="48" width="17" height="3" rx="1.5" fill="#D3D4D5"/>
<path d="M137 63C137 61.3431 138.343 60 140 60H206C207.657 60 209 61.3431 209 63V75C209 76.6569 207.657 78 206 78H140C138.343 78 137 76.6569 137 75V63Z" fill="#8952E0"/>
<path d="M148 66.75C148 68.4141 146.652 69.75 145 69.75C143.336 69.75 142 68.4141 142 66.75C142 65.0977 143.336 63.75 145 63.75C146.652 63.75 148 65.0977 148 66.75Z" fill="#A379E7"/>
<rect x="151" y="65" width="32" height="3" rx="1.5" fill="#A379E7"/>
<rect x="151" y="70" width="20" height="3" rx="1.5" fill="#B795EC"/>
<rect x="195" y="65" width="9" height="3" rx="1.5" fill="#B795EC"/>
</svg>
