<svg width="296" height="141" viewBox="0 0 296 141" fill="none" xmlns="http://www.w3.org/2000/svg">
<rect width="296" height="141" fill="#F1F1F2"/>
<path d="M88.5 42C88.5 38.9624 90.9624 36.5 94 36.5H202C205.038 36.5 207.5 38.9624 207.5 42V99C207.5 102.038 205.038 104.5 202 104.5H94C90.9624 104.5 88.5 102.038 88.5 99V42Z" fill="white"/>
<path d="M88.5 42C88.5 38.9624 90.9624 36.5 94 36.5H202C205.038 36.5 207.5 38.9624 207.5 42V99C207.5 102.038 205.038 104.5 202 104.5H94C90.9624 104.5 88.5 102.038 88.5 99V42Z" stroke="#D3D4D5"/>
<mask id="path-2-inside-1_78_5935" fill="white">
<path d="M89 42C89 39.2386 91.2386 37 94 37H202C204.761 37 207 39.2386 207 42V70H89V42Z"/>
</mask>
<path d="M89 42C89 39.2386 91.2386 37 94 37H202C204.761 37 207 39.2386 207 42V70H89V42Z" fill="#F9FAFA"/>
<path d="M89 37H207H89ZM207 71H89V69H207V71ZM89 70V37V70ZM207 37V70V37Z" fill="#E7E7E8" mask="url(#path-2-inside-1_78_5935)"/>
<path d="M99.5957 48.7168L97.3457 46.4668C97.1875 46.3086 97.1348 46.0625 97.2227 45.8516C97.3105 45.6406 97.5215 45.5 97.75 45.5H102.25C102.479 45.5 102.672 45.6406 102.76 45.8516C102.848 46.0625 102.795 46.3086 102.637 46.4668L100.387 48.7168C100.176 48.9453 99.8066 48.9453 99.5957 48.7168Z" fill="#ABADAF"/>
<rect x="109" y="45.5" width="90" height="3" rx="1.5" fill="#8952E0"/>
<rect x="109" y="53.5" width="90" height="3" rx="1.5" fill="#D3D4D5"/>
<rect x="109" y="60.5" width="56" height="3" rx="1.5" fill="#D3D4D5"/>
<mask id="path-8-inside-2_78_5935" fill="white">
<path d="M89 70H207V87H89V70Z"/>
</mask>
<path d="M207 86H89V88H207V86Z" fill="#E7E7E8" mask="url(#path-8-inside-2_78_5935)"/>
<path d="M102.074 78.5293L99.8242 80.7793C99.666 80.9375 99.4199 80.9902 99.209 80.9023C98.998 80.8145 98.8574 80.6035 98.8574 80.375V75.875C98.8574 75.6465 98.998 75.4531 99.209 75.3652C99.4199 75.2773 99.666 75.3301 99.8242 75.4883L102.074 77.7383C102.303 77.9492 102.303 78.3184 102.074 78.5293Z" fill="#ABADAF"/>
<rect x="109" y="77" width="90" height="3" rx="1.5" fill="#D3D4D5"/>
<path d="M102.074 95.5293L99.8242 97.7793C99.666 97.9375 99.4199 97.9902 99.209 97.9023C98.998 97.8145 98.8574 97.6035 98.8574 97.375V92.875C98.8574 92.6465 98.998 92.4531 99.209 92.3652C99.4199 92.2773 99.666 92.3301 99.8242 92.4883L102.074 94.7383C102.303 94.9492 102.303 95.3184 102.074 95.5293Z" fill="#ABADAF"/>
<rect x="109" y="94" width="90" height="3" rx="1.5" fill="#D3D4D5"/>
</svg>
