<svg width="296" height="141" viewBox="0 0 296 141" fill="none" xmlns="http://www.w3.org/2000/svg">
<rect width="296" height="141" fill="#F1F1F2"/>
<path d="M104.5 35C104.5 31.9624 106.962 29.5 110 29.5H186C189.038 29.5 191.5 31.9624 191.5 35V89C191.5 92.0376 189.038 94.5 186 94.5H110C106.962 94.5 104.5 92.0376 104.5 89V35Z" fill="white"/>
<path d="M104.5 35C104.5 31.9624 106.962 29.5 110 29.5H186C189.038 29.5 191.5 31.9624 191.5 35V89C191.5 92.0376 189.038 94.5 186 94.5H110C106.962 94.5 104.5 92.0376 104.5 89V35Z" stroke="#D3D4D5"/>
<path d="M156.953 51C158.641 51 159.953 52.3594 159.953 54V69C159.953 70.6875 158.594 72 156.953 72H138.953C137.312 72 135.953 70.6875 135.953 69V54C135.953 52.3594 137.312 51 138.953 51H156.953ZM141.203 54C139.984 54 138.953 55.0312 138.953 56.25C138.953 57.5156 139.891 58.5 141.203 58.5C142.469 58.5 143.453 57.5156 143.453 56.25C143.453 55.0312 142.422 54 141.203 54ZM156.906 68.625C157 68.3906 157 68.0625 156.859 67.875L150.859 58.875C150.719 58.6406 150.484 58.5 150.25 58.5C149.969 58.5 149.734 58.6406 149.594 58.875L145.234 65.4375L143.688 63.3281C143.547 63.1406 143.359 63 143.125 63C142.844 63 142.656 63.1406 142.516 63.3281L139.234 67.8281C139.047 68.0625 139.047 68.3438 139.141 68.625C139.281 68.8594 139.516 69 139.844 69H156.25C156.484 69 156.766 68.8594 156.906 68.625Z" fill="#ABADAF"/>
<rect x="104" y="102" width="88" height="3" rx="1.5" fill="#D3D4D5"/>
<rect x="104" y="109" width="41" height="3" rx="1.5" fill="#D3D4D5"/>
</svg>
