<svg width="296" height="141" viewBox="0 0 296 141" fill="none" xmlns="http://www.w3.org/2000/svg">
<rect width="296" height="141" fill="#F1F1F2"/>
<rect x="115" y="61" width="18" height="18" rx="9" fill="#D3D4D5"/>
<path d="M134 63.75C134 65.4141 132.652 66.75 131 66.75C129.336 66.75 128 65.4141 128 63.75C128 62.0977 129.336 60.75 131 60.75C132.652 60.75 134 62.0977 134 63.75Z" fill="#8952E0"/>
<path d="M124 70C122.891 70 122 69.1094 122 68C122 66.9062 122.891 66 124 66C125.094 66 126 66.9062 126 68C126 69.1094 125.094 70 124 70ZM124.781 70.75C126.281 70.75 127.5 71.9688 127.5 73.4688C127.5 73.7656 127.25 74 126.953 74H121.031C120.734 74 120.5 73.7656 120.5 73.4688C120.5 71.9688 121.703 70.75 123.203 70.75H124.781Z" fill="#F1F1F2"/>
<rect x="138" y="65" width="22" height="3" rx="1.5" fill="#ABADAF"/>
<rect x="163" y="65" width="17" height="3" rx="1.5" fill="#ABADAF"/>
<rect x="138" y="72" width="32" height="3" rx="1.5" fill="#D3D4D5"/>
</svg>
