<svg width="296" height="141" viewBox="0 0 296 141" fill="none" xmlns="http://www.w3.org/2000/svg">
<rect x="89" y="58" width="28" height="3" rx="1.5" fill="#ABADAF"/>
<path d="M89.5 70C89.5 68.067 91.067 66.5 93 66.5H203C204.933 66.5 206.5 68.067 206.5 70V79C206.5 80.933 204.933 82.5 203 82.5H93C91.067 82.5 89.5 80.933 89.5 79V70Z" fill="white"/>
<path d="M89.5 70C89.5 68.067 91.067 66.5 93 66.5H203C204.933 66.5 206.5 68.067 206.5 70V79C206.5 80.933 204.933 82.5 203 82.5H93C91.067 82.5 89.5 80.933 89.5 79V70Z" stroke="#D3D4D5"/>
<rect x="95" y="73" width="32" height="3" rx="1.5" fill="#E7E7E8"/>
<path d="M200.312 77.4375C200.547 77.6875 200.547 78.0781 200.312 78.3281C200.062 78.5625 199.672 78.5625 199.422 78.3281L197.562 76.4531C196.922 76.875 196.141 77.0938 195.297 76.9844C193.859 76.7812 192.703 75.6094 192.516 74.1875C192.25 72.0625 194.047 70.2656 196.172 70.5312C197.594 70.7188 198.766 71.875 198.969 73.3125C199.078 74.1562 198.859 74.9375 198.438 75.5625L200.312 77.4375ZM193.734 73.75C193.734 74.8594 194.625 75.75 195.734 75.75C196.828 75.75 197.734 74.8594 197.734 73.75C197.734 72.6562 196.828 71.75 195.734 71.75C194.625 71.75 193.734 72.6562 193.734 73.75Z" fill="#ABADAF"/>
</svg>
