<svg width="296" height="141" viewBox="0 0 296 141" fill="none" xmlns="http://www.w3.org/2000/svg">
<path d="M82.5 36C82.5 32.9624 84.9624 30.5 88 30.5H208C211.038 30.5 213.5 32.9624 213.5 36V105C213.5 108.038 211.038 110.5 208 110.5H88C84.9624 110.5 82.5 108.038 82.5 105V36Z" fill="white"/>
<path d="M82.5 36C82.5 32.9624 84.9624 30.5 88 30.5H208C211.038 30.5 213.5 32.9624 213.5 36V105C213.5 108.038 211.038 110.5 208 110.5H88C84.9624 110.5 82.5 108.038 82.5 105V36Z" stroke="#D3D4D5"/>
<mask id="path-2-inside-1_107_6821" fill="white">
<path d="M83 36C83 33.2386 85.2386 31 88 31H208C210.761 31 213 33.2386 213 36V42H83V36Z"/>
</mask>
<path d="M83 36C83 33.2386 85.2386 31 88 31H208C210.761 31 213 33.2386 213 36V42H83V36Z" fill="#F9FAFA"/>
<path d="M83 31H213H83ZM213 43H83V41H213V43ZM83 42V31V42ZM213 31V42V31Z" fill="#E7E7E8" mask="url(#path-2-inside-1_107_6821)"/>
<rect x="89" y="35" width="4" height="4" rx="2" fill="#E53E3E"/>
<rect x="96" y="35" width="4" height="4" rx="2" fill="#FBC434"/>
<rect x="103" y="35" width="4" height="4" rx="2" fill="#0EA371"/>
<rect x="133" y="57" width="29" height="3" rx="1.5" fill="#D3D4D5"/>
<path d="M116.5 68C116.5 67.1716 117.172 66.5 118 66.5H177C177.828 66.5 178.5 67.1716 178.5 68V73C178.5 73.8284 177.828 74.5 177 74.5H118C117.172 74.5 116.5 73.8284 116.5 73V68Z" fill="white"/>
<path d="M116.5 68C116.5 67.1716 117.172 66.5 118 66.5H177C177.828 66.5 178.5 67.1716 178.5 68V73C178.5 73.8284 177.828 74.5 177 74.5H118C117.172 74.5 116.5 73.8284 116.5 73V68Z" stroke="#E7E7E8"/>
<path d="M116.5 83C116.5 82.1716 117.172 81.5 118 81.5H177C177.828 81.5 178.5 82.1716 178.5 83V88C178.5 88.8284 177.828 89.5 177 89.5H118C117.172 89.5 116.5 88.8284 116.5 88V83Z" fill="white"/>
<path d="M116.5 83C116.5 82.1716 117.172 81.5 118 81.5H177C177.828 81.5 178.5 82.1716 178.5 83V88C178.5 88.8284 177.828 89.5 177 89.5H118C117.172 89.5 116.5 88.8284 116.5 88V83Z" stroke="#E7E7E8"/>
<path fill-rule="evenodd" clip-rule="evenodd" d="M148 43H83V42H148V43Z" fill="#8952E0"/>
</svg>
