<svg width="296" height="141" viewBox="0 0 296 141" fill="none" xmlns="http://www.w3.org/2000/svg">
<rect width="296" height="141" fill="#F1F1F2"/>
<path d="M119.5 67C119.5 63.9624 121.962 61.5 125 61.5H171C174.038 61.5 176.5 63.9624 176.5 67V74C176.5 77.0376 174.038 79.5 171 79.5H125C121.962 79.5 119.5 77.0376 119.5 74V67Z" fill="white"/>
<path d="M119.5 67C119.5 63.9624 121.962 61.5 125 61.5H171C174.038 61.5 176.5 63.9624 176.5 67V74C176.5 77.0376 174.038 79.5 171 79.5H125C121.962 79.5 119.5 77.0376 119.5 74V67Z" stroke="#D3D4D5"/>
<rect x="126.5" y="69" width="18" height="3" rx="1.5" fill="#D3D4D5"/>
<path d="M148.247 72.5V68.1364H149.17V71.7393H151.041V72.5H148.247ZM151.635 72.5V69.2273H152.542V72.5H151.635ZM152.091 68.8054C151.956 68.8054 151.84 68.7607 151.743 68.6712C151.648 68.5803 151.601 68.4716 151.601 68.3452C151.601 68.2202 151.648 68.1129 151.743 68.0234C151.84 67.9325 151.956 67.8871 152.091 67.8871C152.226 67.8871 152.341 67.9325 152.436 68.0234C152.532 68.1129 152.581 68.2202 152.581 68.3452C152.581 68.4716 152.532 68.5803 152.436 68.6712C152.341 68.7607 152.226 68.8054 152.091 68.8054ZM154.177 70.608V72.5H153.269V69.2273H154.134V69.8047H154.173C154.245 69.6143 154.367 69.4638 154.537 69.353C154.708 69.2408 154.914 69.1847 155.157 69.1847C155.384 69.1847 155.583 69.2344 155.752 69.3338C155.921 69.4332 156.052 69.5753 156.146 69.7599C156.24 69.9432 156.286 70.1619 156.286 70.4162V72.5H155.379V70.5781C155.38 70.3778 155.329 70.2216 155.225 70.1094C155.122 69.9957 154.979 69.9389 154.797 69.9389C154.675 69.9389 154.567 69.9652 154.473 70.0178C154.381 70.0703 154.309 70.147 154.256 70.2479C154.205 70.3473 154.179 70.4673 154.177 70.608ZM157.824 71.5582L157.826 70.4695H157.959L159.007 69.2273H160.049L158.64 70.8722H158.425L157.824 71.5582ZM157.002 72.5V68.1364H157.91V72.5H157.002ZM159.047 72.5L158.084 71.0746L158.689 70.4332L160.111 72.5H159.047Z" fill="#8952E0"/>
<rect x="163.5" y="69" width="6" height="3" rx="1.5" fill="#D3D4D5"/>
<path d="M161.031 73.5625C161.488 73.5625 161.875 73.9492 161.875 74.4062V76.0938C161.875 77.5 160.732 78.625 159.344 78.625H157.656C156.9 78.625 156.18 78.2734 155.74 77.6758L154.141 75.5312C154.035 75.4082 154 75.2676 154 75.127C154 74.7227 154.316 74.4062 154.686 74.4062C154.914 74.4062 155.125 74.5117 155.266 74.6875L156.25 76.0059V70.3281C156.25 69.9414 156.549 69.625 156.953 69.625C157.34 69.625 157.656 69.9414 157.656 70.3281V72.9473C157.797 72.8066 157.99 72.7188 158.219 72.7188C158.623 72.7188 158.957 73.0176 159.045 73.4219C159.186 73.1758 159.449 73 159.766 73C160.17 73 160.504 73.2988 160.592 73.7031C160.715 73.6152 160.855 73.5625 161.031 73.5625ZM158.219 76.6562V74.9688C158.219 74.8281 158.078 74.6875 157.938 74.6875C157.779 74.6875 157.656 74.8281 157.656 74.9688V76.6562C157.656 76.8145 157.779 76.9375 157.938 76.9375C158.078 76.9375 158.219 76.8145 158.219 76.6562ZM159.344 76.6562V74.9688C159.344 74.8281 159.203 74.6875 159.062 74.6875C158.904 74.6875 158.781 74.8281 158.781 74.9688V76.6562C158.781 76.8145 158.904 76.9375 159.062 76.9375C159.203 76.9375 159.344 76.8145 159.344 76.6562ZM160.469 76.6562V74.9688C160.469 74.8281 160.328 74.6875 160.188 74.6875C160.029 74.6875 159.906 74.8281 159.906 74.9688V76.6562C159.906 76.8145 160.029 76.9375 160.188 76.9375C160.328 76.9375 160.469 76.8145 160.469 76.6562Z" fill="#ABADAF"/>
</svg>
