<svg width="296" height="141" viewBox="0 0 296 141" fill="none" xmlns="http://www.w3.org/2000/svg">
<path d="M82.5 27C82.5 23.9624 84.9624 21.5 88 21.5H208C211.038 21.5 213.5 23.9624 213.5 27V114C213.5 117.038 211.038 119.5 208 119.5H88C84.9624 119.5 82.5 117.038 82.5 114V27Z" fill="white"/>
<path d="M82.5 27C82.5 23.9624 84.9624 21.5 88 21.5H208C211.038 21.5 213.5 23.9624 213.5 27V114C213.5 117.038 211.038 119.5 208 119.5H88C84.9624 119.5 82.5 117.038 82.5 114V27Z" stroke="#D3D4D5"/>
<mask id="path-2-inside-1_99_7327" fill="white">
<path d="M83 27C83 24.2386 85.2386 22 88 22H208C210.761 22 213 24.2386 213 27V34H83V27Z"/>
</mask>
<path d="M83 27C83 24.2386 85.2386 22 88 22H208C210.761 22 213 24.2386 213 27V34H83V27Z" fill="#F9FAFA"/>
<path d="M83 22H213H83ZM213 35H83V33H213V35ZM83 34V22V34ZM213 22V34V22Z" fill="#E7E7E8" mask="url(#path-2-inside-1_99_7327)"/>
<rect x="89" y="26" width="4" height="4" rx="2" fill="#E53E3E"/>
<rect x="96" y="26" width="4" height="4" rx="2" fill="#FBC434"/>
<rect x="103" y="26" width="4" height="4" rx="2" fill="#0EA371"/>
<path d="M83 43C83 39.6863 85.6863 37 89 37H206C209.314 37 212 39.6863 212 43V91C212 94.3137 209.314 97 206 97H89C85.6863 97 83 94.3137 83 91V43Z" fill="white"/>
<mask id="path-8-inside-2_99_7327" fill="white">
<path d="M83 37H213V52H83V37Z"/>
</mask>
<path d="M213 51H83V53H213V51Z" fill="#E7E7E8" mask="url(#path-8-inside-2_99_7327)"/>
<path d="M86.375 42.875C86.375 42.4648 86.7031 42.125 87.125 42.125H90.875C91.2852 42.125 91.625 42.4648 91.625 42.875V46.625C91.625 47.0469 91.2852 47.375 90.875 47.375H87.125C86.7031 47.375 86.375 47.0469 86.375 46.625V42.875Z" fill="#E7E7E8"/>
<rect x="96" y="43" width="20" height="3" rx="1.5" fill="#ABADAF"/>
<rect x="138" y="43" width="18" height="3" rx="1.5" fill="#ABADAF"/>
<rect x="164" y="43" width="18" height="3" rx="1.5" fill="#ABADAF"/>
<rect x="190" y="43" width="18" height="3" rx="1.5" fill="#ABADAF"/>
<mask id="path-15-inside-3_99_7327" fill="white">
<path d="M83 52H213V67H83V52Z"/>
</mask>
<path d="M83 52H213V67H83V52Z" fill="#F9F6FD"/>
<path d="M213 66H83V68H213V66Z" fill="#E7E7E8" mask="url(#path-15-inside-3_99_7327)"/>
<path d="M90.875 57.125C91.2852 57.125 91.625 57.4648 91.625 57.875V61.625C91.625 62.0469 91.2852 62.375 90.875 62.375H87.125C86.7031 62.375 86.375 62.0469 86.375 61.625V57.875C86.375 57.4648 86.7031 57.125 87.125 57.125H90.875ZM90.3477 59.2344C90.4766 59.1055 90.4766 58.9062 90.3477 58.7773C90.2188 58.6484 90.0195 58.6484 89.8906 58.7773L88.625 60.043L88.0977 59.5273C87.9688 59.3984 87.7695 59.3984 87.6406 59.5273C87.5117 59.6562 87.5117 59.8555 87.6406 59.9844L88.3906 60.7344C88.5195 60.8633 88.7188 60.8633 88.8477 60.7344L90.3477 59.2344Z" fill="#8952E0"/>
<rect x="95" y="58" width="30" height="3" rx="1.5" fill="#D3D4D5"/>
<rect x="138" y="58" width="14" height="3" rx="1.5" fill="#D3D4D5"/>
<rect x="164" y="58" width="14" height="3" rx="1.5" fill="#D3D4D5"/>
<rect x="190" y="58" width="14" height="3" rx="1.5" fill="#D3D4D5"/>
<mask id="path-22-inside-4_99_7327" fill="white">
<path d="M83 67H213V82H83V67Z"/>
</mask>
<path d="M83 67H213V82H83V67Z" fill="#F9F6FD"/>
<path d="M213 81H83V83H213V81Z" fill="#E7E7E8" mask="url(#path-22-inside-4_99_7327)"/>
<path d="M90.875 72.125C91.2852 72.125 91.625 72.4648 91.625 72.875V76.625C91.625 77.0469 91.2852 77.375 90.875 77.375H87.125C86.7031 77.375 86.375 77.0469 86.375 76.625V72.875C86.375 72.4648 86.7031 72.125 87.125 72.125H90.875ZM90.3477 74.2344C90.4766 74.1055 90.4766 73.9062 90.3477 73.7773C90.2188 73.6484 90.0195 73.6484 89.8906 73.7773L88.625 75.043L88.0977 74.5273C87.9688 74.3984 87.7695 74.3984 87.6406 74.5273C87.5117 74.6562 87.5117 74.8555 87.6406 74.9844L88.3906 75.7344C88.5195 75.8633 88.7188 75.8633 88.8477 75.7344L90.3477 74.2344Z" fill="#8952E0"/>
<rect x="95" y="73" width="30" height="3" rx="1.5" fill="#D3D4D5"/>
<rect x="138" y="73" width="14" height="3" rx="1.5" fill="#D3D4D5"/>
<rect x="164" y="73" width="14" height="3" rx="1.5" fill="#D3D4D5"/>
<rect x="190" y="73" width="14" height="3" rx="1.5" fill="#D3D4D5"/>
<mask id="path-29-inside-5_99_7327" fill="white">
<path d="M83 82H213V97H83V82Z"/>
</mask>
<path d="M213 96H83V98H213V96Z" fill="#E7E7E8" mask="url(#path-29-inside-5_99_7327)"/>
<path d="M86.375 87.875C86.375 87.4648 86.7031 87.125 87.125 87.125H90.875C91.2852 87.125 91.625 87.4648 91.625 87.875V91.625C91.625 92.0469 91.2852 92.375 90.875 92.375H87.125C86.7031 92.375 86.375 92.0469 86.375 91.625V87.875Z" fill="#E7E7E8"/>
<rect x="95" y="88" width="30" height="3" rx="1.5" fill="#D3D4D5"/>
<rect x="138" y="88" width="14" height="3" rx="1.5" fill="#D3D4D5"/>
<rect x="164" y="88" width="14" height="3" rx="1.5" fill="#D3D4D5"/>
<rect x="190" y="88" width="14" height="3" rx="1.5" fill="#D3D4D5"/>
<path d="M95.5 99C95.5 95.9624 97.9624 93.5 101 93.5H198C201.038 93.5 203.5 95.9624 203.5 99V109C203.5 112.038 201.038 114.5 198 114.5H101C97.9624 114.5 95.5 112.038 95.5 109V99Z" fill="#33373D"/>
<path d="M95.5 99C95.5 95.9624 97.9624 93.5 101 93.5H198C201.038 93.5 203.5 95.9624 203.5 99V109C203.5 112.038 201.038 114.5 198 114.5H101C97.9624 114.5 95.5 112.038 95.5 109V99Z" stroke="#D3D4D5"/>
<rect x="101" y="102" width="57" height="3" rx="1.5" fill="#D3D4D5"/>
<path d="M173 101C173 99.8954 173.895 99 175 99H196C197.105 99 198 99.8954 198 101V107C198 108.105 197.105 109 196 109H175C173.895 109 173 108.105 173 107V101Z" fill="#8952E0"/>
<rect x="177" y="103" width="17" height="2" rx="1" fill="white"/>
</svg>
