<svg width="296" height="141" viewBox="0 0 296 141" fill="none" xmlns="http://www.w3.org/2000/svg">
<path d="M82.5 27C82.5 23.9624 84.9624 21.5 88 21.5H208C211.038 21.5 213.5 23.9624 213.5 27V114C213.5 117.038 211.038 119.5 208 119.5H88C84.9624 119.5 82.5 117.038 82.5 114V27Z" fill="white"/>
<path d="M82.5 27C82.5 23.9624 84.9624 21.5 88 21.5H208C211.038 21.5 213.5 23.9624 213.5 27V114C213.5 117.038 211.038 119.5 208 119.5H88C84.9624 119.5 82.5 117.038 82.5 114V27Z" stroke="#D3D4D5"/>
<mask id="path-2-inside-1_99_7088" fill="white">
<path d="M83 27C83 24.2386 85.2386 22 88 22H208C210.761 22 213 24.2386 213 27V34H83V27Z"/>
</mask>
<path d="M83 27C83 24.2386 85.2386 22 88 22H208C210.761 22 213 24.2386 213 27V34H83V27Z" fill="#F9FAFA"/>
<path d="M83 22H213H83ZM213 35H83V33H213V35ZM83 34V22V34ZM213 22V34V22Z" fill="#E7E7E8" mask="url(#path-2-inside-1_99_7088)"/>
<rect x="89" y="26" width="4" height="4" rx="2" fill="#E53E3E"/>
<rect x="96" y="26" width="4" height="4" rx="2" fill="#FBC434"/>
<rect x="103" y="26" width="4" height="4" rx="2" fill="#0EA371"/>
<g clip-path="url(#clip0_99_7088)">
<path d="M100 51C100 47.6863 102.686 45 106 45H189C192.314 45 195 47.6863 195 51V84C195 87.3137 192.314 90 189 90H106C102.686 90 100 87.3137 100 84V51Z" fill="white"/>
<rect x="109" y="51" width="20" height="3" rx="1.5" fill="#E7E7E8"/>
<rect width="95" height="15" transform="translate(100 60)" fill="#F1F1F2"/>
<rect x="109" y="66" width="20" height="3" rx="1.5" fill="#D3D4D5"/>
<path d="M186.508 65.9922C186.66 66.1328 186.66 66.3789 186.508 66.5195L183.508 69.5195C183.367 69.6719 183.121 69.6719 182.98 69.5195L181.48 68.0195C181.328 67.8789 181.328 67.6328 181.48 67.4922C181.621 67.3398 181.867 67.3398 182.008 67.4922L183.238 68.7227L185.98 65.9922C186.121 65.8398 186.367 65.8398 186.508 65.9922Z" fill="#8952E0"/>
<rect x="109" y="81" width="20" height="3" rx="1.5" fill="#E7E7E8"/>
</g>
<rect x="102" y="88" width="92" height="17" rx="4" fill="#33373D"/>
<rect x="102" y="88" width="92" height="17" rx="4" stroke="#D3D4D5"/>
<rect x="110" y="95" width="16" height="3" rx="1.5" fill="#D3D4D5"/>
<rect x="161" y="95" width="11" height="3" rx="1.5" fill="#ABADAF"/>
<rect x="175" y="95" width="11" height="3" rx="1.5" fill="#8952E0"/>
<defs>
<clipPath id="clip0_99_7088">
<path d="M100 51C100 47.6863 102.686 45 106 45H189C192.314 45 195 47.6863 195 51V84C195 87.3137 192.314 90 189 90H106C102.686 90 100 87.3137 100 84V51Z" fill="white"/>
</clipPath>
</defs>
</svg>
