<svg width="296" height="141" viewBox="0 0 296 141" fill="none" xmlns="http://www.w3.org/2000/svg">
<rect width="296" height="141" fill="#F1F1F2"/>
<path d="M93.5 63C93.5 59.9624 95.9624 57.5 99 57.5H197C200.038 57.5 202.5 59.9624 202.5 63V78C202.5 81.0376 200.038 83.5 197 83.5H99C95.9624 83.5 93.5 81.0376 93.5 78V63Z" fill="white"/>
<path d="M93.5 63C93.5 59.9624 95.9624 57.5 99 57.5H197C200.038 57.5 202.5 59.9624 202.5 63V78C202.5 81.0376 200.038 83.5 197 83.5H99C95.9624 83.5 93.5 81.0376 93.5 78V63Z" stroke="#D3D4D5"/>
<rect x="102" y="68" width="51" height="3" rx="1.5" fill="#D3D4D5"/>
<path d="M168 67C168 65.8954 168.895 65 170 65H191C192.105 65 193 65.8954 193 67V73C193 74.1046 192.105 75 191 75H170C168.895 75 168 74.1046 168 73V67Z" fill="#8952E0"/>
<rect x="172" y="69" width="17" height="2" rx="1" fill="white"/>
</svg>
