<svg width="296" height="141" viewBox="0 0 296 141" fill="none" xmlns="http://www.w3.org/2000/svg">
<rect width="296" height="141" fill="#F1F1F2"/>
<path d="M82.5 31C82.5 27.9624 84.9624 25.5 88 25.5H208C211.038 25.5 213.5 27.9624 213.5 31V110C213.5 113.038 211.038 115.5 208 115.5H88C84.9624 115.5 82.5 113.038 82.5 110V31Z" fill="white"/>
<path d="M82.5 31C82.5 27.9624 84.9624 25.5 88 25.5H208C211.038 25.5 213.5 27.9624 213.5 31V110C213.5 113.038 211.038 115.5 208 115.5H88C84.9624 115.5 82.5 113.038 82.5 110V31Z" stroke="#D3D4D5"/>
<mask id="path-2-inside-1_99_7409" fill="white">
<path d="M83 31C83 28.2386 85.2386 26 88 26H208C210.761 26 213 28.2386 213 31V38H83V31Z"/>
</mask>
<path d="M83 31C83 28.2386 85.2386 26 88 26H208C210.761 26 213 28.2386 213 31V38H83V31Z" fill="#F9FAFA"/>
<path d="M83 26H213H83ZM213 39H83V37H213V39ZM83 38V26V38ZM213 26V38V26Z" fill="#E7E7E8" mask="url(#path-2-inside-1_99_7409)"/>
<rect x="89" y="30" width="4" height="4" rx="2" fill="#E53E3E"/>
<rect x="96" y="30" width="4" height="4" rx="2" fill="#FBC434"/>
<rect x="103" y="30" width="4" height="4" rx="2" fill="#0EA371"/>
<path d="M91.375 46.875C91.375 46.4648 91.7031 46.125 92.125 46.125H95.875C96.2852 46.125 96.625 46.4648 96.625 46.875V50.625C96.625 51.0469 96.2852 51.375 95.875 51.375H92.125C91.7031 51.375 91.375 51.0469 91.375 50.625V46.875Z" fill="#E7E7E8"/>
<rect x="100" y="47" width="32" height="3" rx="1.5" fill="#D3D4D5"/>
<rect x="193" y="47" width="11" height="3" rx="1.5" fill="#D3D4D5"/>
<rect width="130" height="11" transform="translate(83 55)" fill="#F9F6FD"/>
<path d="M95.875 58.125C96.2852 58.125 96.625 58.4648 96.625 58.875V62.625C96.625 63.0469 96.2852 63.375 95.875 63.375H92.125C91.7031 63.375 91.375 63.0469 91.375 62.625V58.875C91.375 58.4648 91.7031 58.125 92.125 58.125H95.875ZM95.3477 60.2344C95.4766 60.1055 95.4766 59.9062 95.3477 59.7773C95.2188 59.6484 95.0195 59.6484 94.8906 59.7773L93.625 61.043L93.0977 60.5273C92.9688 60.3984 92.7695 60.3984 92.6406 60.5273C92.5117 60.6562 92.5117 60.8555 92.6406 60.9844L93.3906 61.7344C93.5195 61.8633 93.7188 61.8633 93.8477 61.7344L95.3477 60.2344Z" fill="#8952E0"/>
<rect x="100" y="59" width="32" height="3" rx="1.5" fill="#8952E0"/>
<rect x="193" y="59" width="11" height="3" rx="1.5" fill="#D3D4D5"/>
<rect width="130" height="11" transform="translate(83 67)" fill="#F9F6FD"/>
<path d="M95.875 70.125C96.2852 70.125 96.625 70.4648 96.625 70.875V74.625C96.625 75.0469 96.2852 75.375 95.875 75.375H92.125C91.7031 75.375 91.375 75.0469 91.375 74.625V70.875C91.375 70.4648 91.7031 70.125 92.125 70.125H95.875ZM95.3477 72.2344C95.4766 72.1055 95.4766 71.9062 95.3477 71.7773C95.2188 71.6484 95.0195 71.6484 94.8906 71.7773L93.625 73.043L93.0977 72.5273C92.9688 72.3984 92.7695 72.3984 92.6406 72.5273C92.5117 72.6562 92.5117 72.8555 92.6406 72.9844L93.3906 73.7344C93.5195 73.8633 93.7188 73.8633 93.8477 73.7344L95.3477 72.2344Z" fill="#8952E0"/>
<rect x="100" y="71" width="32" height="3" rx="1.5" fill="#8952E0"/>
<rect x="193" y="71" width="11" height="3" rx="1.5" fill="#D3D4D5"/>
<rect x="101" y="84" width="94" height="17" rx="4" fill="#33373D"/>
<rect x="101" y="84" width="94" height="17" rx="4" stroke="#D3D4D5"/>
<rect x="109" y="91" width="18" height="3" rx="1.5" fill="#D3D4D5"/>
<rect x="162" y="91" width="11" height="3" rx="1.5" fill="#D3D4D5"/>
<rect x="176" y="91" width="11" height="3" rx="1.5" fill="#8952E0"/>
</svg>
