<svg width="296" height="141" viewBox="0 0 296 141" fill="none" xmlns="http://www.w3.org/2000/svg">
<rect width="296" height="141" fill="#F1F1F2"/>
<path d="M103.5 60C103.5 59.1716 104.172 58.5 105 58.5H127C127.828 58.5 128.5 59.1716 128.5 60V77C128.5 80.0376 126.038 82.5 123 82.5H105C104.172 82.5 103.5 81.8284 103.5 81V60Z" fill="white"/>
<path d="M103.5 60C103.5 59.1716 104.172 58.5 105 58.5H127C127.828 58.5 128.5 59.1716 128.5 60V77C128.5 80.0376 126.038 82.5 123 82.5H105C104.172 82.5 103.5 81.8284 103.5 81V60Z" stroke="#D3D4D5"/>
<path d="M117.5 77C117.5 77.368 117.536 77.727 117.605 78.0739L117.114 78.171C117.27 78.9581 117.58 79.6899 118.011 80.3337L118.426 80.0555C118.828 80.6555 119.344 81.1722 119.944 81.5739L119.666 81.9894C120.31 82.4204 121.042 82.7301 121.829 82.8858L121.926 82.3953C122.273 82.4639 122.632 82.5 123 82.5C123.368 82.5 123.727 82.4639 124.074 82.3953L124.171 82.8858C124.958 82.7301 125.69 82.4204 126.334 81.9894L126.056 81.5739C126.656 81.1722 127.172 80.6555 127.574 80.0555L127.989 80.3337C128.42 79.6899 128.73 78.9581 128.886 78.171L128.395 78.0739C128.464 77.727 128.5 77.368 128.5 77C128.5 76.632 128.464 76.273 128.395 75.9261L128.886 75.829C128.73 75.0419 128.42 74.3101 127.989 73.6663L127.574 73.9445C127.172 73.3445 126.656 72.8278 126.056 72.4261L126.334 72.0106C125.69 71.5796 124.958 71.2699 124.171 71.1142L124.074 71.6047C123.727 71.5361 123.368 71.5 123 71.5C122.632 71.5 122.273 71.5361 121.926 71.6047L121.829 71.1142C121.042 71.2699 120.31 71.5796 119.666 72.0106L119.944 72.4261C119.344 72.8278 118.828 73.3445 118.426 73.9445L118.011 73.6663C117.58 74.3101 117.27 75.0419 117.114 75.829L117.605 75.9261C117.536 76.273 117.5 76.632 117.5 77Z" stroke="#8952E0" stroke-miterlimit="1.41421" stroke-linejoin="bevel" stroke-dasharray="2 2"/>
<path d="M135.5 60C135.5 59.1716 136.172 58.5 137 58.5H159C159.828 58.5 160.5 59.1716 160.5 60V75C160.5 79.1421 157.142 82.5 153 82.5H137C136.172 82.5 135.5 81.8284 135.5 81V60Z" fill="white"/>
<path d="M135.5 60C135.5 59.1716 136.172 58.5 137 58.5H159C159.828 58.5 160.5 59.1716 160.5 60V75C160.5 79.1421 157.142 82.5 153 82.5H137C136.172 82.5 135.5 81.8284 135.5 81V60Z" stroke="#D3D4D5"/>
<path d="M145.5 75C145.5 75.3325 145.522 75.6596 145.563 75.9802L145.068 76.0449C145.16 76.7504 145.344 77.427 145.607 78.0623L146.069 77.8708C146.322 78.4802 146.653 79.0494 147.049 79.5656L146.653 79.8703C147.079 80.4245 147.576 80.9213 148.13 81.3472L148.434 80.9507C148.951 81.3475 149.52 81.6784 150.129 81.9311L149.938 82.393C150.573 82.6564 151.25 82.8404 151.955 82.9324L152.02 82.4366C152.34 82.4784 152.668 82.5 153 82.5C153.332 82.5 153.66 82.4784 153.98 82.4366L154.045 82.9324C154.75 82.8404 155.427 82.6564 156.062 82.393L155.871 81.9311C156.48 81.6784 157.049 81.3475 157.566 80.9507L157.87 81.3472C158.424 80.9213 158.921 80.4245 159.347 79.8703L158.951 79.5656C159.347 79.0494 159.678 78.4802 159.931 77.8708L160.393 78.0623C160.656 77.427 160.84 76.7504 160.932 76.0449L160.437 75.9802C160.478 75.6596 160.5 75.3325 160.5 75C160.5 74.6675 160.478 74.3404 160.437 74.0198L160.932 73.9551C160.84 73.2496 160.656 72.573 160.393 71.9377L159.931 72.1292C159.678 71.5198 159.347 70.9506 158.951 70.4344L159.347 70.1297C158.921 69.5755 158.424 69.0787 157.87 68.6528L157.566 69.0493C157.049 68.6525 156.48 68.3216 155.871 68.0689L156.062 67.607C155.427 67.3436 154.75 67.1596 154.045 67.0676L153.98 67.5634C153.66 67.5216 153.332 67.5 153 67.5C152.668 67.5 152.34 67.5216 152.02 67.5634L151.955 67.0676C151.25 67.1596 150.573 67.3436 149.938 67.607L150.129 68.0689C149.52 68.3216 148.951 68.6525 148.434 69.0493L148.13 68.6528C147.576 69.0787 147.079 69.5755 146.653 70.1297L147.049 70.4344C146.653 70.9506 146.322 71.5198 146.069 72.1292L145.607 71.9377C145.344 72.573 145.16 73.2496 145.068 73.9551L145.563 74.0198C145.522 74.3404 145.5 74.6675 145.5 75Z" stroke="#8952E0" stroke-dasharray="2 2"/>
<path d="M167.5 60C167.5 59.1716 168.172 58.5 169 58.5H191C191.828 58.5 192.5 59.1716 192.5 60V71C192.5 77.3513 187.351 82.5 181 82.5H169C168.172 82.5 167.5 81.8284 167.5 81V60Z" fill="white"/>
<path d="M167.5 60C167.5 59.1716 168.172 58.5 169 58.5H191C191.828 58.5 192.5 59.1716 192.5 60V71C192.5 77.3513 187.351 82.5 181 82.5H169C168.172 82.5 167.5 81.8284 167.5 81V60Z" stroke="#D3D4D5"/>
<path d="M169.5 71C169.5 71.3042 169.512 71.6056 169.535 71.9037L169.036 71.9424C169.086 72.5776 169.185 73.199 169.329 73.8026L169.815 73.6862C169.957 74.2772 170.144 74.8504 170.372 75.4019L169.911 75.5935C170.153 76.1772 170.439 76.7377 170.767 77.2707L171.193 77.0091C171.509 77.5237 171.864 78.0116 172.255 78.4686L171.875 78.7935C172.283 79.2713 172.729 79.7166 173.207 80.1251L173.531 79.745C173.988 80.1357 174.476 80.4911 174.991 80.8072L174.729 81.2332C175.262 81.5605 175.823 81.8474 176.407 82.0894L176.598 81.6276C177.15 81.8563 177.723 82.0433 178.314 82.1847L178.197 82.671C178.801 82.8154 179.422 82.9142 180.058 82.9635L180.096 82.465C180.394 82.4882 180.696 82.5 181 82.5C181.304 82.5 181.606 82.4882 181.904 82.465L181.942 82.9635C182.578 82.9142 183.199 82.8154 183.803 82.671L183.686 82.1847C184.277 82.0433 184.85 81.8563 185.402 81.6276L185.593 82.0894C186.177 81.8474 186.738 81.5605 187.271 81.2332L187.009 80.8072C187.524 80.4911 188.012 80.1357 188.469 79.745L188.793 80.1251C189.271 79.7166 189.717 79.2713 190.125 78.7935L189.745 78.4686C190.136 78.0116 190.491 77.5237 190.807 77.0091L191.233 77.2707C191.561 76.7377 191.847 76.1772 192.089 75.5935L191.628 75.4019C191.856 74.8504 192.043 74.2772 192.185 73.6862L192.671 73.8026C192.815 73.199 192.914 72.5776 192.964 71.9424L192.465 71.9037C192.488 71.6056 192.5 71.3042 192.5 71C192.5 70.6958 192.488 70.3944 192.465 70.0963L192.964 70.0576C192.914 69.4224 192.815 68.801 192.671 68.1974L192.185 68.3138C192.043 67.7228 191.856 67.1496 191.628 66.5981L192.089 66.4065C191.847 65.8228 191.561 65.2623 191.233 64.7293L190.807 64.9909C190.491 64.4763 190.136 63.9884 189.745 63.5314L190.125 63.2065C189.717 62.7287 189.271 62.2834 188.793 61.8749L188.469 62.255C188.012 61.8643 187.524 61.5089 187.009 61.1928L187.271 60.7668C186.738 60.4395 186.177 60.1526 185.593 59.9106L185.402 60.3724C184.85 60.1437 184.277 59.9567 183.686 59.8153L183.803 59.329C183.199 59.1846 182.578 59.0858 181.942 59.0365L181.904 59.535C181.606 59.5118 181.304 59.5 181 59.5C180.696 59.5 180.394 59.5118 180.096 59.535L180.058 59.0365C179.422 59.0858 178.801 59.1846 178.197 59.329L178.314 59.8153C177.723 59.9567 177.15 60.1437 176.598 60.3724L176.407 59.9106C175.823 60.1526 175.262 60.4395 174.729 60.7668L174.991 61.1928C174.476 61.5089 173.988 61.8643 173.531 62.255L173.207 61.8749C172.729 62.2834 172.283 62.7287 171.875 63.2065L172.255 63.5314C171.864 63.9884 171.509 64.4763 171.193 64.9909L170.767 64.7293C170.439 65.2623 170.153 65.8228 169.911 66.4065L170.372 66.5981C170.144 67.1496 169.957 67.7228 169.815 68.3138L169.329 68.1974C169.185 68.801 169.086 69.4224 169.036 70.0576L169.535 70.0963C169.512 70.3944 169.5 70.6958 169.5 71Z" stroke="#8952E0" stroke-dasharray="2 2"/>
</svg>
