<svg width="296" height="141" viewBox="0 0 296 141" fill="none" xmlns="http://www.w3.org/2000/svg">
<rect width="296" height="141" fill="#F1F1F2"/>
<path d="M159.938 47C162.188 47 163.938 48.8125 163.938 51V71C163.938 73.25 162.125 75 159.938 75H135.938C133.75 75 131.938 73.25 131.938 71V51C131.938 48.8125 133.75 47 135.938 47H159.938ZM138.938 51C137.312 51 135.938 52.375 135.938 54C135.938 55.6875 137.188 57 138.938 57C140.625 57 141.938 55.6875 141.938 54C141.938 52.375 140.562 51 138.938 51ZM159.875 70.5C160 70.1875 160 69.75 159.812 69.5L151.812 57.5C151.625 57.1875 151.312 57 151 57C150.625 57 150.312 57.1875 150.125 57.5L144.312 66.25L142.25 63.4375C142.062 63.1875 141.812 63 141.5 63C141.125 63 140.875 63.1875 140.688 63.4375L136.312 69.4375C136.062 69.75 136.062 70.125 136.188 70.5C136.375 70.8125 136.688 71 137.125 71H159C159.312 71 159.688 70.8125 159.875 70.5Z" fill="#ABADAF"/>
<rect x="121" y="84" width="54" height="3" rx="1.5" fill="#D3D4D5"/>
<rect x="121" y="91" width="41" height="3" rx="1.5" fill="#D3D4D5"/>
</svg>
