<svg width="296" height="141" viewBox="0 0 296 141" fill="none" xmlns="http://www.w3.org/2000/svg">
<rect width="296" height="141" fill="#F1F1F2"/>
<path d="M88.5 35C88.5 31.9624 90.9624 29.5 94 29.5H202C205.038 29.5 207.5 31.9624 207.5 35V106C207.5 109.038 205.038 111.5 202 111.5H94C90.9624 111.5 88.5 109.038 88.5 106V35Z" fill="white"/>
<path d="M88.5 35C88.5 31.9624 90.9624 29.5 94 29.5H202C205.038 29.5 207.5 31.9624 207.5 35V106C207.5 109.038 205.038 111.5 202 111.5H94C90.9624 111.5 88.5 109.038 88.5 106V35Z" stroke="#D3D4D5"/>
<rect x="96" y="37" width="36" height="3" rx="1.5" fill="#ABADAF"/>
<path d="M106.5 56.25C106.5 59.0234 104.254 61.25 101.5 61.25C98.7266 61.25 96.5 59.0234 96.5 56.25C96.5 53.4961 98.7266 51.25 101.5 51.25C104.254 51.25 106.5 53.4961 106.5 56.25Z" fill="#D3D4D5"/>
<rect x="110" y="52" width="55" height="3" rx="1.5" fill="#ABADAF"/>
<rect x="110" y="58" width="24" height="3" rx="1.5" fill="#D3D4D5"/>
<path d="M192 54C192 53.4531 192.438 53 193 53H198C198.547 53 199 53.4531 199 54V59C199 59.5625 198.547 60 198 60H193C192.438 60 192 59.5625 192 59V54Z" fill="#D3D4D5"/>
<rect width="118" height="21" transform="translate(89 67)" fill="#F9FAFA"/>
<path d="M106.5 77.25C106.5 80.0234 104.254 82.25 101.5 82.25C98.7266 82.25 96.5 80.0234 96.5 77.25C96.5 74.4961 98.7266 72.25 101.5 72.25C104.254 72.25 106.5 74.4961 106.5 77.25Z" fill="#D3D4D5"/>
<rect x="110" y="73" width="55" height="3" rx="1.5" fill="#ABADAF"/>
<rect x="110" y="79" width="24" height="3" rx="1.5" fill="#D3D4D5"/>
<path d="M198 73.5C198.547 73.5 199 73.9531 199 74.5V79.5C199 80.0625 198.547 80.5 198 80.5H193C192.438 80.5 192 80.0625 192 79.5V74.5C192 73.9531 192.438 73.5 193 73.5H198ZM197.297 76.3125C197.469 76.1406 197.469 75.875 197.297 75.7031C197.125 75.5312 196.859 75.5312 196.688 75.7031L195 77.3906L194.297 76.7031C194.125 76.5312 193.859 76.5312 193.688 76.7031C193.516 76.875 193.516 77.1406 193.688 77.3125L194.688 78.3125C194.859 78.4844 195.125 78.4844 195.297 78.3125L197.297 76.3125Z" fill="#8952E0"/>
<path d="M106.5 98.25C106.5 101.023 104.254 103.25 101.5 103.25C98.7266 103.25 96.5 101.023 96.5 98.25C96.5 95.4961 98.7266 93.25 101.5 93.25C104.254 93.25 106.5 95.4961 106.5 98.25Z" fill="#D3D4D5"/>
<rect x="110" y="94" width="55" height="3" rx="1.5" fill="#ABADAF"/>
<rect x="110" y="100" width="24" height="3" rx="1.5" fill="#D3D4D5"/>
<path d="M192 95.5C192 94.9531 192.438 94.5 193 94.5H198C198.547 94.5 199 94.9531 199 95.5V100.5C199 101.062 198.547 101.5 198 101.5H193C192.438 101.5 192 101.062 192 100.5V95.5Z" fill="#D3D4D5"/>
</svg>
