<svg width="296" height="141" viewBox="0 0 296 141" fill="none" xmlns="http://www.w3.org/2000/svg">
<path d="M89.5 60C89.5 56.9624 91.9624 54.5 95 54.5H139C142.038 54.5 144.5 56.9624 144.5 60V81C144.5 84.0376 142.038 86.5 139 86.5H95C91.9624 86.5 89.5 84.0376 89.5 81V60Z" fill="white"/>
<path d="M89.5 60C89.5 56.9624 91.9624 54.5 95 54.5H139C142.038 54.5 144.5 56.9624 144.5 60V81C144.5 84.0376 142.038 86.5 139 86.5H95C91.9624 86.5 89.5 84.0376 89.5 81V60Z" stroke="#D3D4D5"/>
<rect x="97" y="62" width="10" height="3" rx="1.5" fill="#D3D4D5"/>
<rect x="131" y="62" width="6" height="3" rx="1.5" fill="#E53E3E"/>
<path d="M97 70.5C97 69.1193 98.1193 68 99.5 68H111.5C112.881 68 114 69.1193 114 70.5C114 71.8807 112.881 73 111.5 73H99.5C98.1193 73 97 71.8807 97 70.5Z" fill="#ABADAF"/>
<rect x="97" y="76" width="28" height="3" rx="1.5" fill="#D3D4D5"/>
<path d="M151.5 60C151.5 56.9624 153.962 54.5 157 54.5H201C204.038 54.5 206.5 56.9624 206.5 60V81C206.5 84.0376 204.038 86.5 201 86.5H157C153.962 86.5 151.5 84.0376 151.5 81V60Z" fill="white"/>
<path d="M151.5 60C151.5 56.9624 153.962 54.5 157 54.5H201C204.038 54.5 206.5 56.9624 206.5 60V81C206.5 84.0376 204.038 86.5 201 86.5H157C153.962 86.5 151.5 84.0376 151.5 81V60Z" stroke="#D3D4D5"/>
<rect x="159" y="62" width="10" height="3" rx="1.5" fill="#D3D4D5"/>
<rect x="193" y="62" width="6" height="3" rx="1.5" fill="#0EA371"/>
<path d="M159 70.5C159 69.1193 160.119 68 161.5 68H173.5C174.881 68 176 69.1193 176 70.5C176 71.8807 174.881 73 173.5 73H161.5C160.119 73 159 71.8807 159 70.5Z" fill="#ABADAF"/>
<rect x="159" y="76" width="28" height="3" rx="1.5" fill="#D3D4D5"/>
</svg>
