<svg width="296" height="141" viewBox="0 0 296 141" fill="none" xmlns="http://www.w3.org/2000/svg">
<path d="M133.5 30C133.5 26.9624 135.962 24.5 139 24.5H223C226.038 24.5 228.5 26.9624 228.5 30V75C228.5 78.0376 226.038 80.5 223 80.5H139C135.962 80.5 133.5 78.0376 133.5 75V30Z" fill="white"/>
<path d="M133.5 30C133.5 26.9624 135.962 24.5 139 24.5H223C226.038 24.5 228.5 26.9624 228.5 30V75C228.5 78.0376 226.038 80.5 223 80.5H139C135.962 80.5 133.5 78.0376 133.5 75V30Z" stroke="#D3D4D5"/>
<rect x="142" y="33" width="37" height="3" rx="1.5" fill="#ABADAF"/>
<rect x="142" y="42" width="78" height="3" rx="1.5" fill="#D3D4D5"/>
<rect x="142" y="49" width="60" height="3" rx="1.5" fill="#D3D4D5"/>
<path d="M164.5 63C164.5 62.1716 165.172 61.5 166 61.5H187C187.828 61.5 188.5 62.1716 188.5 63V69C188.5 69.8284 187.828 70.5 187 70.5H166C165.172 70.5 164.5 69.8284 164.5 69V63Z" fill="white"/>
<path d="M164.5 63C164.5 62.1716 165.172 61.5 166 61.5H187C187.828 61.5 188.5 62.1716 188.5 63V69C188.5 69.8284 187.828 70.5 187 70.5H166C165.172 70.5 164.5 69.8284 164.5 69V63Z" stroke="#D3D4D5"/>
<rect x="168" y="65" width="17" height="2" rx="1" fill="#D3D4D5"/>
<path d="M193 63C193 61.8954 193.895 61 195 61H218C219.105 61 220 61.8954 220 63V69C220 70.1046 219.105 71 218 71H195C193.895 71 193 70.1046 193 69V63Z" fill="#8952E0"/>
<rect x="197" y="65" width="19" height="2" rx="1" fill="white"/>
<path d="M219.758 34.9922C219.91 35.1328 219.91 35.3789 219.758 35.5195C219.688 35.5898 219.594 35.625 219.5 35.625C219.395 35.625 219.301 35.5898 219.23 35.5195L218 34.2891L216.758 35.5195C216.688 35.5898 216.594 35.625 216.5 35.625C216.395 35.625 216.301 35.5898 216.23 35.5195C216.078 35.3789 216.078 35.1328 216.23 34.9922L217.461 33.75L216.23 32.5195C216.078 32.3789 216.078 32.1328 216.23 31.9922C216.371 31.8398 216.617 31.8398 216.758 31.9922L218 33.2227L219.23 31.9922C219.371 31.8398 219.617 31.8398 219.758 31.9922C219.91 32.1328 219.91 32.3789 219.758 32.5195L218.527 33.7617L219.758 34.9922Z" fill="#ABADAF"/>
<path d="M61.5 65C61.5 61.9624 63.9624 59.5 67 59.5H151C154.038 59.5 156.5 61.9624 156.5 65V110C156.5 113.038 154.038 115.5 151 115.5H67C63.9624 115.5 61.5 113.038 61.5 110V65Z" fill="white"/>
<path d="M61.5 65C61.5 61.9624 63.9624 59.5 67 59.5H151C154.038 59.5 156.5 61.9624 156.5 65V110C156.5 113.038 154.038 115.5 151 115.5H67C63.9624 115.5 61.5 113.038 61.5 110V65Z" stroke="#D3D4D5"/>
<rect x="90.5" y="68" width="37" height="3" rx="1.5" fill="#ABADAF"/>
<rect x="70" y="77" width="78" height="3" rx="1.5" fill="#D3D4D5"/>
<rect x="79" y="84" width="60" height="3" rx="1.5" fill="#D3D4D5"/>
<path d="M81.5 98C81.5 97.1716 82.1716 96.5 83 96.5H104C104.828 96.5 105.5 97.1716 105.5 98V104C105.5 104.828 104.828 105.5 104 105.5H83C82.1716 105.5 81.5 104.828 81.5 104V98Z" fill="white"/>
<path d="M81.5 98C81.5 97.1716 82.1716 96.5 83 96.5H104C104.828 96.5 105.5 97.1716 105.5 98V104C105.5 104.828 104.828 105.5 104 105.5H83C82.1716 105.5 81.5 104.828 81.5 104V98Z" stroke="#D3D4D5"/>
<rect x="85" y="100" width="17" height="2" rx="1" fill="#D3D4D5"/>
<path d="M110 98C110 96.8954 110.895 96 112 96H135C136.105 96 137 96.8954 137 98V104C137 105.105 136.105 106 135 106H112C110.895 106 110 105.105 110 104V98Z" fill="#8952E0"/>
<rect x="114" y="100" width="19" height="2" rx="1" fill="white"/>
<path d="M147.758 69.9922C147.91 70.1328 147.91 70.3789 147.758 70.5195C147.688 70.5898 147.594 70.625 147.5 70.625C147.395 70.625 147.301 70.5898 147.23 70.5195L146 69.2891L144.758 70.5195C144.688 70.5898 144.594 70.625 144.5 70.625C144.395 70.625 144.301 70.5898 144.23 70.5195C144.078 70.3789 144.078 70.1328 144.23 69.9922L145.461 68.75L144.23 67.5195C144.078 67.3789 144.078 67.1328 144.23 66.9922C144.371 66.8398 144.617 66.8398 144.758 66.9922L146 68.2227L147.23 66.9922C147.371 66.8398 147.617 66.8398 147.758 66.9922C147.91 67.1328 147.91 67.3789 147.758 67.5195L146.527 68.7617L147.758 69.9922Z" fill="#ABADAF"/>
</svg>
