<svg width="296" height="141" viewBox="0 0 296 141" fill="none" xmlns="http://www.w3.org/2000/svg">
<path d="M120.5 40C120.5 36.9624 122.962 34.5 126 34.5H170C173.038 34.5 175.5 36.9624 175.5 40V101C175.5 104.038 173.038 106.5 170 106.5H126C122.962 106.5 120.5 104.038 120.5 101V40Z" fill="white"/>
<path d="M120.5 40C120.5 36.9624 122.962 34.5 126 34.5H170C173.038 34.5 175.5 36.9624 175.5 40V101C175.5 104.038 173.038 106.5 170 106.5H126C122.962 106.5 120.5 104.038 120.5 101V40Z" stroke="#D3D4D5"/>
<path d="M131.123 47.4395L129.373 45.7031C129.291 45.6074 129.25 45.498 129.25 45.375C129.25 45.2383 129.291 45.1426 129.373 45.0605L131.123 43.3242C131.246 43.2012 131.438 43.1602 131.602 43.2285C131.766 43.2969 131.875 43.4609 131.875 43.625V47.125C131.875 47.3027 131.766 47.4531 131.602 47.5215C131.438 47.5898 131.246 47.5625 131.123 47.4395Z" fill="#D3D4D5"/>
<rect x="137" y="44" width="22" height="3" rx="1.5" fill="#D3D4D5"/>
<path d="M164.863 43.3242L166.613 45.0605C166.695 45.1562 166.75 45.2656 166.75 45.375C166.75 45.4707 166.695 45.5938 166.613 45.6758L164.863 47.4121C164.74 47.5352 164.549 47.5762 164.385 47.5078C164.221 47.4395 164.125 47.3027 164.125 47.125V43.625C164.125 43.4609 164.221 43.2969 164.385 43.2285C164.549 43.1602 164.74 43.2012 164.863 43.3242Z" fill="#D3D4D5"/>
<rect x="129" y="54" width="6" height="3" rx="1.5" fill="#ABADAF"/>
<rect x="137" y="54" width="6" height="3" rx="1.5" fill="#ABADAF"/>
<rect x="145" y="54" width="6" height="3" rx="1.5" fill="#ABADAF"/>
<rect x="153" y="54" width="6" height="3" rx="1.5" fill="#ABADAF"/>
<rect x="161" y="54" width="6" height="3" rx="1.5" fill="#ABADAF"/>
<rect x="129" y="62" width="6" height="3" rx="1.5" fill="#D3D4D5"/>
<rect x="137" y="62" width="6" height="3" rx="1.5" fill="#D3D4D5"/>
<rect x="145" y="62" width="6" height="3" rx="1.5" fill="#D3D4D5"/>
<rect x="153" y="62" width="6" height="3" rx="1.5" fill="#D3D4D5"/>
<rect x="161" y="62" width="6" height="3" rx="1.5" fill="#D3D4D5"/>
<rect x="129" y="69" width="6" height="3" rx="1.5" fill="#D3D4D5"/>
<rect x="137" y="69" width="6" height="3" rx="1.5" fill="#8952E0"/>
<rect x="145" y="69" width="6" height="3" rx="1.5" fill="#D3D4D5"/>
<rect x="153" y="69" width="6" height="3" rx="1.5" fill="#D3D4D5"/>
<rect x="161" y="69" width="6" height="3" rx="1.5" fill="#D3D4D5"/>
<rect x="129" y="76" width="6" height="3" rx="1.5" fill="#D3D4D5"/>
<rect x="137" y="76" width="6" height="3" rx="1.5" fill="#D3D4D5"/>
<rect x="145" y="76" width="6" height="3" rx="1.5" fill="#D3D4D5"/>
<rect x="153" y="76" width="6" height="3" rx="1.5" fill="#D3D4D5"/>
<rect x="161" y="76" width="6" height="3" rx="1.5" fill="#D3D4D5"/>
<rect x="129" y="83" width="6" height="3" rx="1.5" fill="#D3D4D5"/>
<rect x="137" y="83" width="6" height="3" rx="1.5" fill="#D3D4D5"/>
<rect x="145" y="83" width="6" height="3" rx="1.5" fill="#D3D4D5"/>
<rect x="153" y="83" width="6" height="3" rx="1.5" fill="#D3D4D5"/>
<rect x="161" y="83" width="6" height="3" rx="1.5" fill="#D3D4D5"/>
<path d="M128.5 94C128.5 93.1716 129.172 92.5 130 92.5H143C143.828 92.5 144.5 93.1716 144.5 94V98C144.5 98.8284 143.828 99.5 143 99.5H130C129.172 99.5 128.5 98.8284 128.5 98V94Z" fill="white"/>
<path d="M128.5 94C128.5 93.1716 129.172 92.5 130 92.5H143C143.828 92.5 144.5 93.1716 144.5 94V98C144.5 98.8284 143.828 99.5 143 99.5H130C129.172 99.5 128.5 98.8284 128.5 98V94Z" stroke="#D3D4D5"/>
<rect x="132" y="95" width="9" height="2" rx="1" fill="#D3D4D5"/>
<path d="M150 94C150 92.8954 150.895 92 152 92H166C167.105 92 168 92.8954 168 94V98C168 99.1046 167.105 100 166 100H152C150.895 100 150 99.1046 150 98V94Z" fill="#8952E0"/>
<rect x="154" y="95" width="10" height="2" rx="1" fill="white"/>
</svg>
