<svg width="296" height="141" viewBox="0 0 296 141" fill="none" xmlns="http://www.w3.org/2000/svg">
<rect width="296" height="141" fill="#F1F1F2"/>
<path d="M125 70.5C125 63.3203 119.18 57.5 112 57.5C104.82 57.5 99 63.3203 99 70.5C99 77.6797 104.82 83.5 112 83.5C119.18 83.5 125 77.6797 125 70.5ZM101.86 70.5C101.86 64.8998 106.4 60.36 112 60.36C117.6 60.36 122.14 64.8998 122.14 70.5C122.14 76.1002 117.6 80.64 112 80.64C106.4 80.64 101.86 76.1002 101.86 70.5Z" fill="#D3D4D5"/>
<path d="M112 58.93C112 58.1402 111.358 57.4919 110.573 57.5785C107.994 57.8634 105.547 58.9154 103.557 60.6147C101.203 62.625 99.6443 65.4091 99.16 68.4664C98.6758 71.5236 99.2984 74.6533 100.916 77.2925C102.283 79.5234 104.285 81.2802 106.65 82.348C107.37 82.673 108.181 82.2548 108.425 81.5037C108.669 80.7526 108.251 79.9547 107.542 79.6075C105.822 78.7654 104.365 77.448 103.354 75.7981C102.093 73.7395 101.607 71.2984 101.985 68.9138C102.363 66.5291 103.579 64.3575 105.415 62.7895C106.886 61.5328 108.678 60.7299 110.575 60.4607C111.357 60.3496 112 59.7198 112 58.93Z" fill="#8952E0"/>
<path d="M161 70.5C161 63.3203 155.18 57.5 148 57.5C140.82 57.5 135 63.3203 135 70.5C135 77.6797 140.82 83.5 148 83.5C155.18 83.5 161 77.6797 161 70.5ZM137.86 70.5C137.86 64.8998 142.4 60.36 148 60.36C153.6 60.36 158.14 64.8998 158.14 70.5C158.14 76.1002 153.6 80.64 148 80.64C142.4 80.64 137.86 76.1002 137.86 70.5Z" fill="#D3D4D5"/>
<path d="M148 58.93C148 58.1402 148.642 57.4919 149.427 57.5786C150.644 57.713 151.839 58.0191 152.975 58.4896C154.552 59.1429 155.985 60.1005 157.192 61.3076C158.4 62.5148 159.357 63.9479 160.01 65.5251C160.481 66.661 160.787 67.8556 160.921 69.0729C161.008 69.8579 160.36 70.5 159.57 70.5C158.78 70.5 158.15 69.8567 158.039 69.0747C157.92 68.2333 157.695 67.4083 157.368 66.6196C156.859 65.3893 156.112 64.2715 155.17 63.3299C154.228 62.3884 153.111 61.6414 151.88 61.1319C151.092 60.8052 150.267 60.5801 149.425 60.4607C148.643 60.3497 148 59.7198 148 58.93Z" fill="#8952E0"/>
<path d="M197 70.5C197 63.3203 191.18 57.5 184 57.5C176.82 57.5 171 63.3203 171 70.5C171 77.6797 176.82 83.5 184 83.5C191.18 83.5 197 77.6797 197 70.5ZM173.86 70.5C173.86 64.8998 178.4 60.36 184 60.36C189.6 60.36 194.14 64.8998 194.14 70.5C194.14 76.1002 189.6 80.64 184 80.64C178.4 80.64 173.86 76.1002 173.86 70.5Z" fill="#D3D4D5"/>
<path d="M192.181 78.6812C192.74 79.2397 192.744 80.1522 192.128 80.646C190.103 82.2683 187.628 83.2546 185.02 83.4599C181.934 83.7028 178.863 82.8366 176.359 81.0172C173.855 79.1978 172.082 76.5446 171.359 73.5348C170.748 70.9906 170.922 68.3327 171.839 65.9054C172.118 65.1666 172.987 64.8888 173.691 65.2473C174.395 65.6059 174.664 66.4651 174.408 67.2122C173.787 69.0243 173.688 70.9856 174.14 72.8671C174.704 75.2148 176.087 77.2843 178.04 78.7034C179.993 80.1226 182.389 80.7982 184.796 80.6087C186.725 80.4569 188.56 79.7574 190.091 78.6067C190.722 78.1323 191.623 78.1228 192.181 78.6812Z" fill="#8952E0"/>
</svg>
