<svg width="296" height="141" viewBox="0 0 296 141" fill="none" xmlns="http://www.w3.org/2000/svg">
<rect width="296" height="141" fill="#F1F1F2"/>
<path d="M92 61C92 57.6863 94.6863 55 98 55H117C120.314 55 123 57.6863 123 61V80C123 83.3137 120.314 86 117 86H98C94.6863 86 92 83.3137 92 80V61Z" fill="#8952E0"/>
<path d="M105.502 74.8703C105.328 74.8703 105.162 74.8078 105.028 74.6891L101.695 71.5641C101.435 71.3203 101.435 70.9266 101.695 70.6828C101.955 70.4391 102.375 70.4391 102.635 70.6828L105.495 73.3641L112.355 66.9328C112.615 66.6891 113.035 66.6891 113.295 66.9328C113.555 67.1766 113.555 67.5703 113.295 67.8141L105.962 74.6891C105.828 74.8141 105.662 74.8703 105.488 74.8703H105.502Z" fill="white"/>
<path d="M133 61C133 57.6863 135.686 55 139 55H158C161.314 55 164 57.6863 164 61V80C164 83.3137 161.314 86 158 86H139C135.686 86 133 83.3137 133 80V61Z" fill="#D3D4D5"/>
<path d="M152.495 75.1551C152.321 75.1551 152.155 75.0884 152.021 74.9618L148.495 71.4352L144.968 74.9618C144.708 75.2218 144.288 75.2218 144.028 74.9618C143.768 74.7018 143.768 74.2818 144.028 74.0218L147.555 70.4951L144.028 66.9684C143.768 66.7084 143.768 66.2885 144.028 66.0285C144.288 65.7685 144.708 65.7685 144.968 66.0285L148.495 69.5551L152.021 66.0285C152.281 65.7685 152.701 65.7685 152.961 66.0285C153.221 66.2885 153.221 66.7084 152.961 66.9684L149.435 70.4951L152.961 74.0218C153.221 74.2818 153.221 74.7018 152.961 74.9618C152.828 75.0951 152.661 75.1551 152.488 75.1551H152.495Z" fill="#52555A"/>
<path d="M189 71.8333C188.267 71.8333 187.667 71.2333 187.667 70.5C187.667 69.7667 188.267 69.1667 189 69.1667C189.734 69.1667 190.334 69.7667 190.334 70.5C190.334 71.2333 189.734 71.8333 189 71.8333Z" fill="#52555A"/>
<path d="M189 67.1667C188.267 67.1667 187.667 66.5667 187.667 65.8333C187.667 65.1 188.267 64.5 189 64.5C189.734 64.5 190.334 65.1 190.334 65.8333C190.334 66.5667 189.734 67.1667 189 67.1667Z" fill="#52555A"/>
<path d="M189 76.5C188.267 76.5 187.667 75.9 187.667 75.1667C187.667 74.4333 188.267 73.8333 189 73.8333C189.734 73.8333 190.334 74.4333 190.334 75.1667C190.334 75.9 189.734 76.5 189 76.5Z" fill="#52555A"/>
</svg>
