<svg width="296" height="141" viewBox="0 0 296 141" fill="none" xmlns="http://www.w3.org/2000/svg">
<g clip-path="url(#clip0_99_8462)">
<path d="M64 23C64 19.6863 66.6863 17 70 17H226C229.314 17 232 19.6863 232 23V118C232 121.314 229.314 124 226 124H70C66.6863 124 64 121.314 64 118V23Z" fill="#F9FAFA"/>
<mask id="path-3-inside-1_99_8462" fill="white">
<path d="M64 17H232V29H64V17Z"/>
</mask>
<path d="M64 17H232V29H64V17Z" fill="#F9FAFA"/>
<path d="M232 28H64V30H232V28Z" fill="#E7E7E8" mask="url(#path-3-inside-1_99_8462)"/>
<rect x="70" y="21" width="4" height="4" rx="2" fill="#E53E3E"/>
<rect x="77" y="21" width="4" height="4" rx="2" fill="#FBC434"/>
<rect x="84" y="21" width="4" height="4" rx="2" fill="#0EA371"/>
<mask id="path-8-inside-2_99_8462" fill="white">
<path d="M64 29H102V127H64V29Z"/>
</mask>
<path d="M64 29H102V127H64V29Z" fill="white"/>
<path d="M101 29V127H103V29H101Z" fill="#E7E7E8" mask="url(#path-8-inside-2_99_8462)"/>
<rect x="70" y="36" width="7" height="7" rx="3.5" fill="#8952E0"/>
<rect x="70" y="47" width="19" height="3" rx="1.5" fill="#8952E0"/>
<rect x="70" y="56" width="19" height="3" rx="1.5" fill="#D3D4D5"/>
<rect x="70" y="65" width="19" height="3" rx="1.5" fill="#D3D4D5"/>
<rect x="70" y="74" width="19" height="3" rx="1.5" fill="#D3D4D5"/>
<rect x="111.5" y="51.5" width="33" height="28" rx="1.5" fill="white" stroke="#E7E7E8"/>
<rect x="149.5" y="51.5" width="33" height="28" rx="1.5" fill="white" stroke="#E7E7E8"/>
<rect x="187.5" y="51.5" width="33" height="28" rx="1.5" fill="white" stroke="#E7E7E8"/>
<rect x="111.5" y="84.5" width="109" height="31" rx="1.5" fill="white" stroke="#E7E7E8"/>
<mask id="path-19-inside-3_99_8462" fill="white">
<path d="M102 29H233V44H102V29Z"/>
</mask>
<path d="M102 29H233V44H102V29Z" fill="white"/>
<path d="M233 43H102V45H233V43Z" fill="#E7E7E8" mask="url(#path-19-inside-3_99_8462)"/>
<rect x="111" y="35" width="17" height="3" rx="1.5" fill="#D3D4D5"/>
<rect x="134" y="35" width="17" height="3" rx="1.5" fill="#D3D4D5"/>
<rect x="157" y="35" width="17" height="3" rx="1.5" fill="#D3D4D5"/>
</g>
<path d="M64.5 23C64.5 19.9624 66.9624 17.5 70 17.5H226C229.038 17.5 231.5 19.9624 231.5 23V118C231.5 121.038 229.038 123.5 226 123.5H70C66.9624 123.5 64.5 121.038 64.5 118V23Z" stroke="#D3D4D5"/>
<defs>
<clipPath id="clip0_99_8462">
<path d="M64 23C64 19.6863 66.6863 17 70 17H226C229.314 17 232 19.6863 232 23V118C232 121.314 229.314 124 226 124H70C66.6863 124 64 121.314 64 118V23Z" fill="white"/>
</clipPath>
</defs>
</svg>
