<svg width="296" height="141" viewBox="0 0 296 141" fill="none" xmlns="http://www.w3.org/2000/svg">
<rect width="296" height="141" fill="#F1F1F2"/>
<g clip-path="url(#clip0_78_6358)">
<path d="M87 35C87 31.6863 89.6863 29 93 29H203C206.314 29 209 31.6863 209 35V106C209 109.314 206.314 112 203 112H93C89.6863 112 87 109.314 87 106V35Z" fill="white"/>
<mask id="path-3-inside-1_78_6358" fill="white">
<path d="M87 29H209V41H87V29Z"/>
</mask>
<path d="M87 29H209V41H87V29Z" fill="#F9FAFA"/>
<path d="M209 40H87V42H209V40Z" fill="#E7E7E8" mask="url(#path-3-inside-1_78_6358)"/>
<rect x="93" y="33" width="4" height="4" rx="2" fill="#E53E3E"/>
<rect x="100" y="33" width="4" height="4" rx="2" fill="#FBC434"/>
<rect x="107" y="33" width="4" height="4" rx="2" fill="#0EA371"/>
<rect x="97" y="51" width="10" height="3" rx="1.5" fill="#8952E0"/>
<path d="M97.5 58C97.5 57.1716 98.1716 56.5 99 56.5H124.5C125.328 56.5 126 57.1716 126 58V63C126 63.8284 125.328 64.5 124.5 64.5H99C98.1716 64.5 97.5 63.8284 97.5 63V58Z" fill="white"/>
<path d="M97.5 58C97.5 57.1716 98.1716 56.5 99 56.5H124.5C125.328 56.5 126 57.1716 126 58V63C126 63.8284 125.328 64.5 124.5 64.5H99C98.1716 64.5 97.5 63.8284 97.5 63V58Z" stroke="#8952E0"/>
<rect x="130.5" y="51" width="10" height="3" rx="1.5" fill="#D3D4D5"/>
<path d="M131 58C131 57.1716 131.672 56.5 132.5 56.5H158C158.828 56.5 159.5 57.1716 159.5 58V63C159.5 63.8284 158.828 64.5 158 64.5H132.5C131.672 64.5 131 63.8284 131 63V58Z" fill="white"/>
<path d="M131 58C131 57.1716 131.672 56.5 132.5 56.5H158C158.828 56.5 159.5 57.1716 159.5 58V63C159.5 63.8284 158.828 64.5 158 64.5H132.5C131.672 64.5 131 63.8284 131 63V58Z" stroke="#E7E7E8"/>
<rect x="97" y="69" width="10" height="3" rx="1.5" fill="#D3D4D5"/>
<path d="M97.5 76C97.5 75.1716 98.1716 74.5 99 74.5H158C158.828 74.5 159.5 75.1716 159.5 76V81C159.5 81.8284 158.828 82.5 158 82.5H99C98.1716 82.5 97.5 81.8284 97.5 81V76Z" fill="white"/>
<path d="M97.5 76C97.5 75.1716 98.1716 74.5 99 74.5H158C158.828 74.5 159.5 75.1716 159.5 76V81C159.5 81.8284 158.828 82.5 158 82.5H99C98.1716 82.5 97.5 81.8284 97.5 81V76Z" stroke="#E7E7E8"/>
<rect x="97" y="87" width="10" height="3" rx="1.5" fill="#D3D4D5"/>
<path d="M97.5 94C97.5 93.1716 98.1716 92.5 99 92.5H158C158.828 92.5 159.5 93.1716 159.5 94V99C159.5 99.8284 158.828 100.5 158 100.5H99C98.1716 100.5 97.5 99.8284 97.5 99V94Z" fill="white"/>
<path d="M97.5 94C97.5 93.1716 98.1716 92.5 99 92.5H158C158.828 92.5 159.5 93.1716 159.5 94V99C159.5 99.8284 158.828 100.5 158 100.5H99C98.1716 100.5 97.5 99.8284 97.5 99V94Z" stroke="#E7E7E8"/>
<rect x="170" y="51" width="29" height="3" rx="1.5" fill="#ABADAF"/>
<rect x="181" y="57" width="18" height="3" rx="1.5" fill="#D3D4D5"/>
</g>
<path d="M87.5 35C87.5 31.9624 89.9624 29.5 93 29.5H203C206.038 29.5 208.5 31.9624 208.5 35V106C208.5 109.038 206.038 111.5 203 111.5H93C89.9624 111.5 87.5 109.038 87.5 106V35Z" stroke="#D3D4D5"/>
<defs>
<clipPath id="clip0_78_6358">
<path d="M87 35C87 31.6863 89.6863 29 93 29H203C206.314 29 209 31.6863 209 35V106C209 109.314 206.314 112 203 112H93C89.6863 112 87 109.314 87 106V35Z" fill="white"/>
</clipPath>
</defs>
</svg>
