<svg width="296" height="141" viewBox="0 0 296 141" fill="none" xmlns="http://www.w3.org/2000/svg">
<rect width="296" height="141" fill="#F1F1F2"/>
<rect x="124" y="43" width="21" height="10" rx="3" fill="#8952E0"/>
<rect x="128" y="47" width="13" height="2" rx="1" fill="white"/>
<path d="M124.5 63C124.5 59.9624 126.962 57.5 130 57.5H165C168.038 57.5 170.5 59.9624 170.5 63V91C170.5 94.0376 168.038 96.5 165 96.5H130C126.962 96.5 124.5 94.0376 124.5 91V63Z" fill="white"/>
<path d="M124.5 63C124.5 59.9624 126.962 57.5 130 57.5H165C168.038 57.5 170.5 59.9624 170.5 63V91C170.5 94.0376 168.038 96.5 165 96.5H130C126.962 96.5 124.5 94.0376 124.5 91V63Z" stroke="#D3D4D5"/>
<rect x="132" y="65" width="20" height="3" rx="1.5" fill="#D3D4D5"/>
<rect x="132" y="72" width="20" height="3" rx="1.5" fill="#D3D4D5"/>
<rect x="132" y="79" width="20" height="3" rx="1.5" fill="#D3D4D5"/>
<rect x="132" y="86" width="20" height="3" rx="1.5" fill="#D3D4D5"/>
<path d="M149.859 103.281L148.109 104.906C148 105.016 147.828 105.031 147.703 104.984C147.562 104.922 147.469 104.781 147.469 104.641V103.766H144.469V104.625C144.469 104.781 144.391 104.922 144.25 104.969C144.109 105.031 143.953 105.016 143.844 104.906L142.094 103.281C141.938 103.141 141.938 102.875 142.094 102.734L143.844 101.109C143.953 101 144.109 100.984 144.25 101.031C144.406 101.094 144.484 101.234 144.484 101.375V102.25H147.484V101.375C147.484 101.219 147.578 101.078 147.719 101.031C147.844 100.969 148.016 101 148.125 101.094L149.875 102.719C150.016 102.875 150.016 103.141 149.859 103.281Z" fill="#ABADAF"/>
<path d="M177.891 79.1406L176.266 80.8906C176.125 81.0469 175.859 81.0469 175.719 80.8906L174.109 79.1406C174 79.0312 173.984 78.875 174.031 78.7344C174.094 78.5938 174.219 78.5 174.375 78.5H175.25V75.5H174.375C174.219 75.5 174.078 75.4219 174.016 75.2812C173.969 75.1406 173.984 74.9844 174.094 74.875L175.719 73.125C175.859 72.9688 176.125 72.9688 176.266 73.125L177.891 74.875C178 74.9844 178.016 75.1406 177.969 75.2812C177.906 75.4219 177.766 75.5 177.625 75.5H176.75V78.5H177.625C177.766 78.5 177.906 78.5938 177.969 78.7344C178.016 78.875 178 79.0312 177.891 79.1406Z" fill="#ABADAF"/>
</svg>
