<svg width="296" height="141" viewBox="0 0 296 141" fill="none" xmlns="http://www.w3.org/2000/svg">
<rect x="102.5" y="39.5" width="91" height="62" rx="3.5" stroke="#8952E0" stroke-dasharray="2 2"/>
<rect x="110" y="47" width="21" height="10" rx="3" fill="#8952E0"/>
<rect x="114" y="51" width="13" height="2" rx="1" fill="white"/>
<path d="M110.5 67C110.5 63.9624 112.962 61.5 116 61.5H180C183.038 61.5 185.5 63.9624 185.5 67V88C185.5 91.0376 183.038 93.5 180 93.5H116C112.962 93.5 110.5 91.0376 110.5 88V67Z" fill="white"/>
<path d="M110.5 67C110.5 63.9624 112.962 61.5 116 61.5H180C183.038 61.5 185.5 63.9624 185.5 67V88C185.5 91.0376 183.038 93.5 180 93.5H116C112.962 93.5 110.5 91.0376 110.5 88V67Z" stroke="#D3D4D5"/>
<rect x="118" y="69" width="20" height="3" rx="1.5" fill="#D3D4D5"/>
<rect x="118" y="76" width="20" height="3" rx="1.5" fill="#D3D4D5"/>
<rect x="118" y="83" width="20" height="3" rx="1.5" fill="#D3D4D5"/>
<mask id="path-8-outside-1_99_10771" maskUnits="userSpaceOnUse" x="188" y="67.5" width="12" height="7" fill="black">
<rect fill="white" x="188" y="67.5" width="12" height="7"/>
<path d="M198.342 71.4414L196.373 73.2695C196.25 73.3926 196.057 73.4102 195.916 73.3574C195.758 73.2871 195.652 73.1289 195.652 72.9707V71.9863H192.277V72.9531C192.277 73.1289 192.189 73.2871 192.031 73.3398C191.873 73.4102 191.697 73.3926 191.574 73.2695L189.605 71.4414C189.43 71.2832 189.43 70.9844 189.605 70.8262L191.574 68.998C191.697 68.875 191.873 68.8574 192.031 68.9102C192.207 68.9805 192.295 69.1387 192.295 69.2969V70.2812H195.67V69.2969C195.67 69.1211 195.775 68.9629 195.934 68.9102C196.074 68.8398 196.268 68.875 196.391 68.9805L198.359 70.8086C198.518 70.9844 198.518 71.2832 198.342 71.4414Z"/>
</mask>
<path d="M198.342 71.4414L196.373 73.2695C196.25 73.3926 196.057 73.4102 195.916 73.3574C195.758 73.2871 195.652 73.1289 195.652 72.9707V71.9863H192.277V72.9531C192.277 73.1289 192.189 73.2871 192.031 73.3398C191.873 73.4102 191.697 73.3926 191.574 73.2695L189.605 71.4414C189.43 71.2832 189.43 70.9844 189.605 70.8262L191.574 68.998C191.697 68.875 191.873 68.8574 192.031 68.9102C192.207 68.9805 192.295 69.1387 192.295 69.2969V70.2812H195.67V69.2969C195.67 69.1211 195.775 68.9629 195.934 68.9102C196.074 68.8398 196.268 68.875 196.391 68.9805L198.359 70.8086C198.518 70.9844 198.518 71.2832 198.342 71.4414Z" fill="#1D2025"/>
<path d="M198.342 71.4414L197.673 70.6981L197.667 70.7033L197.661 70.7086L198.342 71.4414ZM196.373 73.2695L195.693 72.5367L195.679 72.5493L195.666 72.5624L196.373 73.2695ZM195.916 73.3574L195.51 74.2712L195.537 74.2833L195.565 74.2938L195.916 73.3574ZM195.652 71.9863H196.652V70.9863H195.652V71.9863ZM192.277 71.9863V70.9863H191.277V71.9863H192.277ZM192.031 73.3398L191.715 72.3912L191.669 72.4064L191.625 72.426L192.031 73.3398ZM191.574 73.2695L192.281 72.5624L192.268 72.5493L192.255 72.5367L191.574 73.2695ZM189.605 71.4414L190.286 70.7086L190.28 70.7033L190.274 70.6981L189.605 71.4414ZM189.605 70.8262L190.274 71.5695L190.28 71.5643L190.286 71.559L189.605 70.8262ZM191.574 68.998L192.255 69.7308L192.268 69.7182L192.281 69.7052L191.574 68.998ZM192.031 68.9102L192.403 67.9817L192.375 67.9708L192.347 67.9615L192.031 68.9102ZM192.295 70.2812H191.295V71.2812H192.295V70.2812ZM195.67 70.2812V71.2812H196.67V70.2812H195.67ZM195.934 68.9102L196.25 69.8588L196.317 69.8364L196.381 69.8046L195.934 68.9102ZM196.391 68.9805L197.071 68.2477L197.057 68.2341L197.041 68.2212L196.391 68.9805ZM198.359 70.8086L199.103 70.1396L199.073 70.1063L199.04 70.0758L198.359 70.8086ZM197.661 70.7086L195.693 72.5367L197.053 74.0023L199.022 72.1742L197.661 70.7086ZM195.666 72.5624C195.776 72.4525 195.9 72.4071 195.991 72.3923C196.078 72.3782 196.171 72.385 196.267 72.4211L195.565 74.2938C195.992 74.4537 196.623 74.4335 197.08 73.9766L195.666 72.5624ZM196.322 72.4436C196.421 72.4874 196.498 72.5558 196.553 72.6362C196.606 72.7154 196.652 72.8289 196.652 72.9707H194.652C194.652 73.5541 195.019 74.053 195.51 74.2712L196.322 72.4436ZM196.652 72.9707V71.9863H194.652V72.9707H196.652ZM195.652 70.9863H192.277V72.9863H195.652V70.9863ZM191.277 71.9863V72.9531H193.277V71.9863H191.277ZM191.277 72.9531C191.277 72.8274 191.355 72.5113 191.715 72.3912L192.347 74.2885C193.024 74.0629 193.277 73.4304 193.277 72.9531H191.277ZM191.625 72.426C191.698 72.3935 191.803 72.3694 191.927 72.3867C192.058 72.4049 192.185 72.4659 192.281 72.5624L190.867 73.9766C191.333 74.4427 191.971 74.4611 192.437 74.2537L191.625 72.426ZM192.255 72.5367L190.286 70.7086L188.925 72.1742L190.894 74.0023L192.255 72.5367ZM190.274 70.6981C190.423 70.8316 190.474 71.0008 190.474 71.1338C190.474 71.2667 190.423 71.4359 190.274 71.5695L188.937 70.0829C188.319 70.6383 188.319 71.6293 188.937 72.1847L190.274 70.6981ZM190.286 71.559L192.255 69.7308L190.894 68.2653L188.925 70.0934L190.286 71.559ZM192.281 69.7052C192.067 69.9198 191.812 69.8911 191.715 69.8588L192.347 67.9615C191.934 67.8238 191.328 67.8302 190.867 68.2909L192.281 69.7052ZM191.66 69.8386C191.423 69.744 191.295 69.5113 191.295 69.2969H193.295C193.295 68.7661 192.991 68.2169 192.403 67.9817L191.66 69.8386ZM191.295 69.2969V70.2812H193.295V69.2969H191.295ZM192.295 71.2812H195.67V69.2812H192.295V71.2812ZM196.67 70.2812V69.2969H194.67V70.2812H196.67ZM196.67 69.2969C196.67 69.5027 196.544 69.7606 196.25 69.8588L195.617 67.9615C195.006 68.1651 194.67 68.7395 194.67 69.2969H196.67ZM196.381 69.8046C196.23 69.88 196.094 69.8804 196.009 69.8665C195.922 69.8525 195.828 69.8152 195.74 69.7397L197.041 68.2212C196.661 67.8949 196.04 67.7389 195.486 68.0157L196.381 69.8046ZM195.71 69.7133L197.679 71.5414L199.04 70.0758L197.071 68.2477L195.71 69.7133ZM197.616 71.4776C197.509 71.3588 197.474 71.2243 197.476 71.1127C197.478 70.9991 197.523 70.8334 197.673 70.6981L199.011 72.1847C199.644 71.6152 199.587 70.6779 199.103 70.1396L197.616 71.4776Z" fill="#F9FAFA" mask="url(#path-8-outside-1_99_10771)"/>
</svg>
