<svg width="296" height="141" viewBox="0 0 296 141" fill="none" xmlns="http://www.w3.org/2000/svg">
<rect x="124" y="43" width="21" height="10" rx="3" fill="#8952E0"/>
<rect x="128" y="47" width="13" height="2" rx="1" fill="white"/>
<path d="M124.5 63C124.5 59.9624 126.962 57.5 130 57.5H165C168.038 57.5 170.5 59.9624 170.5 63V91C170.5 94.0376 168.038 96.5 165 96.5H130C126.962 96.5 124.5 94.0376 124.5 91V63Z" fill="white"/>
<path d="M124.5 63C124.5 59.9624 126.962 57.5 130 57.5H165C168.038 57.5 170.5 59.9624 170.5 63V91C170.5 94.0376 168.038 96.5 165 96.5H130C126.962 96.5 124.5 94.0376 124.5 91V63Z" stroke="#D3D4D5"/>
<rect x="132" y="65" width="20" height="3" rx="1.5" fill="#D3D4D5"/>
<rect x="132" y="72" width="20" height="3" rx="1.5" fill="#D3D4D5"/>
<rect x="132" y="79" width="20" height="3" rx="1.5" fill="#D3D4D5"/>
<rect x="132" y="86" width="20" height="3" rx="1.5" fill="#D3D4D5"/>
<path d="M118 101L123 103.887L123 98.1132L118 101ZM177 101L172 98.1132L172 103.887L177 101ZM120.95 101.5L122.917 101.5L122.917 100.5L120.95 100.5L120.95 101.5ZM124.883 101.5L126.85 101.5L126.85 100.5L124.883 100.5L124.883 101.5ZM128.817 101.5L130.783 101.5L130.783 100.5L128.817 100.5L128.817 101.5ZM132.75 101.5L134.717 101.5L134.717 100.5L132.75 100.5L132.75 101.5ZM136.683 101.5L138.65 101.5L138.65 100.5L136.683 100.5L136.683 101.5ZM140.617 101.5L142.583 101.5L142.583 100.5L140.617 100.5L140.617 101.5ZM144.55 101.5L146.517 101.5L146.517 100.5L144.55 100.5L144.55 101.5ZM148.483 101.5L150.45 101.5L150.45 100.5L148.483 100.5L148.483 101.5ZM152.417 101.5L154.383 101.5L154.383 100.5L152.417 100.5L152.417 101.5ZM156.35 101.5L158.317 101.5L158.317 100.5L156.35 100.5L156.35 101.5ZM160.283 101.5L162.25 101.5L162.25 100.5L160.283 100.5L160.283 101.5ZM164.217 101.5L166.183 101.5L166.183 100.5L164.217 100.5L164.217 101.5ZM168.15 101.5L170.117 101.5L170.117 100.5L168.15 100.5L168.15 101.5ZM172.083 101.5L174.05 101.5L174.05 100.5L172.083 100.5L172.083 101.5Z" fill="#ABADAF"/>
</svg>
