<svg width="296" height="141" viewBox="0 0 296 141" fill="none" xmlns="http://www.w3.org/2000/svg">
<rect x="85.5" y="26.5" width="92" height="62" rx="3.5" stroke="#8952E0" stroke-dasharray="2 2"/>
<rect x="93" y="34" width="21" height="10" rx="3" fill="#8952E0"/>
<rect x="97" y="38" width="13" height="2" rx="1" fill="white"/>
<path d="M93.5 54C93.5 50.9624 95.9624 48.5 99 48.5H135C138.038 48.5 140.5 50.9624 140.5 54V75C140.5 78.0376 138.038 80.5 135 80.5H99C95.9624 80.5 93.5 78.0376 93.5 75V54Z" fill="white"/>
<path d="M93.5 54C93.5 50.9624 95.9624 48.5 99 48.5H135C138.038 48.5 140.5 50.9624 140.5 54V75C140.5 78.0376 138.038 80.5 135 80.5H99C95.9624 80.5 93.5 78.0376 93.5 75V54Z" stroke="#D3D4D5"/>
<rect x="101" y="56" width="20" height="3" rx="1.5" fill="#D3D4D5"/>
<rect x="101" y="63" width="20" height="3" rx="1.5" fill="#D3D4D5"/>
<rect x="101" y="70" width="20" height="3" rx="1.5" fill="#D3D4D5"/>
<rect x="148.5" y="60.5" width="63" height="55" rx="3.5" fill="#D3D4D5"/>
<rect x="148.5" y="60.5" width="63" height="55" rx="3.5" stroke="#8952E0" stroke-dasharray="2 2"/>
<rect x="156" y="68" width="21" height="10" rx="3" fill="#8952E0"/>
<rect x="160" y="72" width="13" height="2" rx="1" fill="white"/>
<path d="M156.5 81C156.5 77.9624 158.962 75.5 162 75.5H198C201.038 75.5 203.5 77.9624 203.5 81V102C203.5 105.038 201.038 107.5 198 107.5H162C158.962 107.5 156.5 105.038 156.5 102V81Z" fill="white"/>
<path d="M156.5 81C156.5 77.9624 158.962 75.5 162 75.5H198C201.038 75.5 203.5 77.9624 203.5 81V102C203.5 105.038 201.038 107.5 198 107.5H162C158.962 107.5 156.5 105.038 156.5 102V81Z" stroke="#D3D4D5"/>
<rect x="164" y="83" width="20" height="3" rx="1.5" fill="#D3D4D5"/>
<rect x="164" y="90" width="20" height="3" rx="1.5" fill="#D3D4D5"/>
<rect x="164" y="97" width="20" height="3" rx="1.5" fill="#D3D4D5"/>
<path d="M185.844 46.3594L183.344 48.8594C183.25 48.9531 183.125 49 183 49C182.859 49 182.734 48.9531 182.641 48.8594C182.438 48.6719 182.438 48.3438 182.641 48.1562L184.281 46.5H179.5C179.219 46.5 179 46.2812 179 46C179 45.7344 179.219 45.5 179.5 45.5H184.281L182.641 43.8594C182.438 43.6719 182.438 43.3438 182.641 43.1562C182.828 42.9531 183.156 42.9531 183.344 43.1562L185.844 45.6562C186.047 45.8438 186.047 46.1719 185.844 46.3594Z" fill="#8952E0"/>
<path d="M220.984 88C220.984 88.2812 220.766 88.5 220.5 88.5H215.703L217.344 90.1562C217.547 90.3438 217.547 90.6719 217.344 90.8594C217.25 90.9531 217.125 91 217 91C216.859 91 216.734 90.9531 216.641 90.8594L214.141 88.3594C213.938 88.1719 213.938 87.8438 214.141 87.6562L216.641 85.1562C216.828 84.9531 217.156 84.9531 217.344 85.1562C217.547 85.3438 217.547 85.6719 217.344 85.8594L215.703 87.5H220.5C220.766 87.5 220.984 87.7344 220.984 88Z" fill="#8952E0"/>
</svg>
