<svg width="296" height="141" viewBox="0 0 296 141" fill="none" xmlns="http://www.w3.org/2000/svg">
<rect x="62.5" y="39.5" width="91" height="62" rx="3.5" stroke="#8952E0" stroke-dasharray="2 2"/>
<rect x="70" y="47" width="21" height="10" rx="3" fill="#8952E0"/>
<rect x="74" y="51" width="13" height="2" rx="1" fill="white"/>
<path d="M70.5 67C70.5 63.9624 72.9624 61.5 76 61.5H112C115.038 61.5 117.5 63.9624 117.5 67V88C117.5 91.0376 115.038 93.5 112 93.5H76C72.9624 93.5 70.5 91.0376 70.5 88V67Z" fill="white"/>
<path d="M70.5 67C70.5 63.9624 72.9624 61.5 76 61.5H112C115.038 61.5 117.5 63.9624 117.5 67V88C117.5 91.0376 115.038 93.5 112 93.5H76C72.9624 93.5 70.5 91.0376 70.5 88V67Z" stroke="#D3D4D5"/>
<rect x="78" y="69" width="20" height="3" rx="1.5" fill="#D3D4D5"/>
<rect x="78" y="76" width="20" height="3" rx="1.5" fill="#D3D4D5"/>
<rect x="78" y="83" width="20" height="3" rx="1.5" fill="#D3D4D5"/>
<path d="M165.344 71.3594L162.844 73.8594C162.75 73.9531 162.625 74 162.5 74C162.359 74 162.234 73.9531 162.141 73.8594C161.938 73.6719 161.938 73.3438 162.141 73.1562L163.781 71.5H159C158.719 71.5 158.5 71.2812 158.5 71C158.5 70.7344 158.719 70.5 159 70.5H163.781L162.141 68.8594C161.938 68.6719 161.938 68.3438 162.141 68.1562C162.328 67.9531 162.656 67.9531 162.844 68.1562L165.344 70.6562C165.547 70.8438 165.547 71.1719 165.344 71.3594Z" fill="#8952E0"/>
<rect x="170.5" y="42.5" width="63" height="56" rx="3.5" stroke="#8952E0" stroke-dasharray="2 2"/>
<rect x="178" y="50" width="21" height="10" rx="3" fill="#8952E0"/>
<rect x="182" y="54" width="13" height="2" rx="1" fill="white"/>
<path d="M178.5 63C178.5 59.9624 180.962 57.5 184 57.5H220C223.038 57.5 225.5 59.9624 225.5 63V84C225.5 87.0376 223.038 89.5 220 89.5H184C180.962 89.5 178.5 87.0376 178.5 84V63Z" fill="white"/>
<path d="M178.5 63C178.5 59.9624 180.962 57.5 184 57.5H220C223.038 57.5 225.5 59.9624 225.5 63V84C225.5 87.0376 223.038 89.5 220 89.5H184C180.962 89.5 178.5 87.0376 178.5 84V63Z" stroke="#D3D4D5"/>
<rect x="186" y="65" width="20" height="3" rx="1.5" fill="#D3D4D5"/>
<rect x="186" y="72" width="20" height="3" rx="1.5" fill="#D3D4D5"/>
<rect x="186" y="79" width="20" height="3" rx="1.5" fill="#D3D4D5"/>
</svg>
