<svg width="296" height="141" viewBox="0 0 296 141" fill="none" xmlns="http://www.w3.org/2000/svg">
<rect x="102.5" y="39.5" width="91" height="62" rx="3.5" stroke="#8952E0" stroke-dasharray="2 2"/>
<rect x="110" y="47" width="21" height="10" rx="3" fill="#8952E0"/>
<rect x="114" y="51" width="13" height="2" rx="1" fill="white"/>
<path d="M110.5 67C110.5 63.9624 112.962 61.5 116 61.5H152C155.038 61.5 157.5 63.9624 157.5 67V88C157.5 91.0376 155.038 93.5 152 93.5H116C112.962 93.5 110.5 91.0376 110.5 88V67Z" fill="white"/>
<path d="M110.5 67C110.5 63.9624 112.962 61.5 116 61.5H152C155.038 61.5 157.5 63.9624 157.5 67V88C157.5 91.0376 155.038 93.5 152 93.5H116C112.962 93.5 110.5 91.0376 110.5 88V67Z" stroke="#D3D4D5"/>
<rect x="118" y="69" width="20" height="3" rx="1.5" fill="#D3D4D5"/>
<rect x="118" y="76" width="20" height="3" rx="1.5" fill="#D3D4D5"/>
<rect x="118" y="83" width="20" height="3" rx="1.5" fill="#D3D4D5"/>
<mask id="path-8-outside-1_99_10670" maskUnits="userSpaceOnUse" x="187" y="67.5" width="12" height="7" fill="black">
<rect fill="white" x="187" y="67.5" width="12" height="7"/>
<path d="M197.342 71.4414L195.373 73.2695C195.25 73.3926 195.057 73.4102 194.916 73.3574C194.758 73.2871 194.652 73.1289 194.652 72.9707V71.9863H191.277V72.9531C191.277 73.1289 191.189 73.2871 191.031 73.3398C190.873 73.4102 190.697 73.3926 190.574 73.2695L188.605 71.4414C188.43 71.2832 188.43 70.9844 188.605 70.8262L190.574 68.998C190.697 68.875 190.873 68.8574 191.031 68.9102C191.207 68.9805 191.295 69.1387 191.295 69.2969V70.2812H194.67V69.2969C194.67 69.1211 194.775 68.9629 194.934 68.9102C195.074 68.8398 195.268 68.875 195.391 68.9805L197.359 70.8086C197.518 70.9844 197.518 71.2832 197.342 71.4414Z"/>
</mask>
<path d="M197.342 71.4414L195.373 73.2695C195.25 73.3926 195.057 73.4102 194.916 73.3574C194.758 73.2871 194.652 73.1289 194.652 72.9707V71.9863H191.277V72.9531C191.277 73.1289 191.189 73.2871 191.031 73.3398C190.873 73.4102 190.697 73.3926 190.574 73.2695L188.605 71.4414C188.43 71.2832 188.43 70.9844 188.605 70.8262L190.574 68.998C190.697 68.875 190.873 68.8574 191.031 68.9102C191.207 68.9805 191.295 69.1387 191.295 69.2969V70.2812H194.67V69.2969C194.67 69.1211 194.775 68.9629 194.934 68.9102C195.074 68.8398 195.268 68.875 195.391 68.9805L197.359 70.8086C197.518 70.9844 197.518 71.2832 197.342 71.4414Z" fill="#1D2025"/>
<path d="M197.342 71.4414L196.673 70.6981L196.667 70.7033L196.661 70.7086L197.342 71.4414ZM195.373 73.2695L194.693 72.5367L194.679 72.5493L194.666 72.5624L195.373 73.2695ZM194.916 73.3574L194.51 74.2712L194.537 74.2833L194.565 74.2938L194.916 73.3574ZM194.652 71.9863H195.652V70.9863H194.652V71.9863ZM191.277 71.9863V70.9863H190.277V71.9863H191.277ZM191.031 73.3398L190.715 72.3912L190.669 72.4064L190.625 72.426L191.031 73.3398ZM190.574 73.2695L191.281 72.5624L191.268 72.5493L191.255 72.5367L190.574 73.2695ZM188.605 71.4414L189.286 70.7086L189.28 70.7033L189.274 70.6981L188.605 71.4414ZM188.605 70.8262L189.274 71.5695L189.28 71.5643L189.286 71.559L188.605 70.8262ZM190.574 68.998L191.255 69.7308L191.268 69.7182L191.281 69.7052L190.574 68.998ZM191.031 68.9102L191.403 67.9817L191.375 67.9708L191.347 67.9615L191.031 68.9102ZM191.295 70.2812H190.295V71.2812H191.295V70.2812ZM194.67 70.2812V71.2812H195.67V70.2812H194.67ZM194.934 68.9102L195.25 69.8588L195.317 69.8364L195.381 69.8046L194.934 68.9102ZM195.391 68.9805L196.071 68.2477L196.057 68.2341L196.041 68.2212L195.391 68.9805ZM197.359 70.8086L198.103 70.1396L198.073 70.1063L198.04 70.0758L197.359 70.8086ZM196.661 70.7086L194.693 72.5367L196.053 74.0023L198.022 72.1742L196.661 70.7086ZM194.666 72.5624C194.776 72.4525 194.9 72.4071 194.991 72.3923C195.078 72.3782 195.171 72.385 195.267 72.4211L194.565 74.2938C194.992 74.4537 195.623 74.4335 196.08 73.9766L194.666 72.5624ZM195.322 72.4436C195.421 72.4874 195.498 72.5558 195.553 72.6362C195.606 72.7154 195.652 72.8289 195.652 72.9707H193.652C193.652 73.5541 194.019 74.053 194.51 74.2712L195.322 72.4436ZM195.652 72.9707V71.9863H193.652V72.9707H195.652ZM194.652 70.9863H191.277V72.9863H194.652V70.9863ZM190.277 71.9863V72.9531H192.277V71.9863H190.277ZM190.277 72.9531C190.277 72.8274 190.355 72.5113 190.715 72.3912L191.347 74.2885C192.024 74.0629 192.277 73.4304 192.277 72.9531H190.277ZM190.625 72.426C190.698 72.3935 190.803 72.3694 190.927 72.3867C191.058 72.4049 191.185 72.4659 191.281 72.5624L189.867 73.9766C190.333 74.4427 190.971 74.4611 191.437 74.2537L190.625 72.426ZM191.255 72.5367L189.286 70.7086L187.925 72.1742L189.894 74.0023L191.255 72.5367ZM189.274 70.6981C189.423 70.8316 189.474 71.0008 189.474 71.1338C189.474 71.2667 189.423 71.4359 189.274 71.5695L187.937 70.0829C187.319 70.6383 187.319 71.6293 187.937 72.1847L189.274 70.6981ZM189.286 71.559L191.255 69.7308L189.894 68.2653L187.925 70.0934L189.286 71.559ZM191.281 69.7052C191.067 69.9198 190.812 69.8911 190.715 69.8588L191.347 67.9615C190.934 67.8238 190.328 67.8302 189.867 68.2909L191.281 69.7052ZM190.66 69.8386C190.423 69.744 190.295 69.5113 190.295 69.2969H192.295C192.295 68.7661 191.991 68.2169 191.403 67.9817L190.66 69.8386ZM190.295 69.2969V70.2812H192.295V69.2969H190.295ZM191.295 71.2812H194.67V69.2812H191.295V71.2812ZM195.67 70.2812V69.2969H193.67V70.2812H195.67ZM195.67 69.2969C195.67 69.5027 195.544 69.7606 195.25 69.8588L194.617 67.9615C194.006 68.1651 193.67 68.7395 193.67 69.2969H195.67ZM195.381 69.8046C195.23 69.88 195.094 69.8804 195.009 69.8665C194.922 69.8525 194.828 69.8152 194.74 69.7397L196.041 68.2212C195.661 67.8949 195.04 67.7389 194.486 68.0157L195.381 69.8046ZM194.71 69.7133L196.679 71.5414L198.04 70.0758L196.071 68.2477L194.71 69.7133ZM196.616 71.4776C196.509 71.3588 196.474 71.2243 196.476 71.1127C196.478 70.9991 196.523 70.8334 196.673 70.6981L198.011 72.1847C198.644 71.6152 198.587 70.6779 198.103 70.1396L196.616 71.4776Z" fill="#F9FAFA" mask="url(#path-8-outside-1_99_10670)"/>
</svg>
