<svg width="296" height="141" viewBox="0 0 296 141" fill="none" xmlns="http://www.w3.org/2000/svg">
<path d="M139 66C139 63.7909 140.791 62 143 62H153C155.209 62 157 63.7909 157 66V75C157 77.2091 155.209 79 153 79H143C140.791 79 139 77.2091 139 75V66Z" fill="#8952E0"/>
<path d="M145.375 74.625C145.079 74.625 144.79 74.505 144.58 74.295C144.37 74.085 144.25 73.7962 144.25 73.5V69.375C144.25 69.2587 144.302 69.15 144.396 69.0788L147.771 66.4537C147.906 66.3488 148.097 66.3488 148.232 66.4537L151.607 69.0788C151.697 69.15 151.754 69.2587 151.754 69.375V73.5C151.754 73.7962 151.634 74.085 151.424 74.295C151.214 74.505 150.925 74.625 150.629 74.625H145.375ZM145 69.5587V73.5C145 73.5975 145.041 73.695 145.109 73.7662C145.18 73.8375 145.274 73.875 145.375 73.875H150.625C150.722 73.875 150.82 73.8337 150.891 73.7662C150.962 73.695 151 73.6012 151 73.5V69.5587L148 67.2262L145 69.5587Z" fill="white"/>
<path d="M149.125 74.625C148.919 74.625 148.75 74.4563 148.75 74.25V70.875H147.25V74.25C147.25 74.4563 147.081 74.625 146.875 74.625C146.669 74.625 146.5 74.4563 146.5 74.25V70.5C146.5 70.2938 146.669 70.125 146.875 70.125H149.125C149.331 70.125 149.5 70.2938 149.5 70.5V74.25C149.5 74.4563 149.331 74.625 149.125 74.625Z" fill="white"/>
</svg>
