<svg width="296" height="141" viewBox="0 0 296 141" fill="none" xmlns="http://www.w3.org/2000/svg">
<path d="M135 61C135 58.7909 136.791 57 139 57H157C159.209 57 161 58.7909 161 61V80C161 82.2091 159.209 84 157 84H139C136.791 84 135 82.2091 135 80V61Z" fill="#8952E0"/>
<path d="M143.917 76.9168C143.456 76.9168 143.007 76.7301 142.68 76.4035C142.354 76.0768 142.167 75.6277 142.167 75.1668V68.7502C142.167 68.5693 142.249 68.4002 142.394 68.2893L147.644 64.206C147.854 64.0427 148.152 64.0427 148.362 64.206L153.612 68.2893C153.752 68.4002 153.839 68.5693 153.839 68.7502V75.1668C153.839 75.6277 153.653 76.0768 153.326 76.4035C152.999 76.7301 152.55 76.9168 152.089 76.9168H143.917ZM143.334 69.036V75.1668C143.334 75.3185 143.398 75.4702 143.503 75.581C143.614 75.6918 143.759 75.7501 143.917 75.7501H152.084C152.235 75.7501 152.387 75.686 152.498 75.581C152.609 75.4702 152.667 75.3243 152.667 75.1668V69.036L148 65.4077L143.334 69.036Z" fill="white"/>
<path d="M149.75 76.9168C149.429 76.9168 149.167 76.6543 149.167 76.3335V71.0835H146.834V76.3335C146.834 76.6543 146.571 76.9168 146.25 76.9168C145.929 76.9168 145.667 76.6543 145.667 76.3335V70.5002C145.667 70.1793 145.929 69.9168 146.25 69.9168H149.75C150.071 69.9168 150.334 70.1793 150.334 70.5002V76.3335C150.334 76.6543 150.071 76.9168 149.75 76.9168Z" fill="white"/>
</svg>
