<svg width="296" height="141" viewBox="0 0 296 141" fill="none" xmlns="http://www.w3.org/2000/svg">
<rect width="296" height="141" fill="#F1F1F2"/>
<rect x="115" y="61.5" width="18" height="18" rx="3" fill="#ABADAF"/>
<path d="M126.497 73.4095C126.388 73.4095 126.284 73.3678 126.201 73.2887L123.997 71.0845L121.792 73.2887C121.63 73.4512 121.367 73.4512 121.205 73.2887C121.042 73.1262 121.042 72.8637 121.205 72.7012L123.409 70.497L121.205 68.2928C121.042 68.1303 121.042 67.8679 121.205 67.7054C121.367 67.5429 121.63 67.5429 121.792 67.7054L123.997 69.9095L126.201 67.7054C126.363 67.5429 126.626 67.5429 126.788 67.7054C126.951 67.8679 126.951 68.1303 126.788 68.2928L124.584 70.497L126.788 72.7012C126.951 72.8637 126.951 73.1262 126.788 73.2887C126.705 73.372 126.601 73.4095 126.492 73.4095H126.497Z" fill="white"/>
<rect x="139" y="61.5" width="18" height="18" rx="3" fill="#8952E0"/>
<path d="M146.751 73.4135C146.643 73.4135 146.539 73.3719 146.455 73.2927L144.372 71.2094C144.209 71.0469 144.209 70.7844 144.372 70.6219C144.534 70.4594 144.797 70.4594 144.959 70.6219L146.747 72.4094L151.034 68.1219C151.197 67.9594 151.459 67.9594 151.622 68.1219C151.784 68.2844 151.784 68.5469 151.622 68.7094L147.039 73.2927C146.955 73.376 146.851 73.4135 146.743 73.4135H146.751Z" fill="white"/>
<path d="M172 71.3333C171.542 71.3333 171.167 70.9583 171.167 70.5C171.167 70.0417 171.542 69.6667 172 69.6667C172.459 69.6667 172.834 70.0417 172.834 70.5C172.834 70.9583 172.459 71.3333 172 71.3333Z" fill="#ABADAF"/>
<path d="M172 68.4167C171.542 68.4167 171.167 68.0417 171.167 67.5833C171.167 67.125 171.542 66.75 172 66.75C172.459 66.75 172.834 67.125 172.834 67.5833C172.834 68.0417 172.459 68.4167 172 68.4167Z" fill="#ABADAF"/>
<path d="M172 74.25C171.542 74.25 171.167 73.875 171.167 73.4167C171.167 72.9583 171.542 72.5833 172 72.5833C172.459 72.5833 172.834 72.9583 172.834 73.4167C172.834 73.875 172.459 74.25 172 74.25Z" fill="#ABADAF"/>
</svg>
