<svg width="296" height="141" viewBox="0 0 296 141" fill="none" xmlns="http://www.w3.org/2000/svg">
<path d="M100.5 39C100.5 35.9624 102.962 33.5 106 33.5H190C193.038 33.5 195.5 35.9624 195.5 39V102C195.5 105.038 193.038 107.5 190 107.5H106C102.962 107.5 100.5 105.038 100.5 102V39Z" fill="white"/>
<path d="M100.5 39C100.5 35.9624 102.962 33.5 106 33.5H190C193.038 33.5 195.5 35.9624 195.5 39V102C195.5 105.038 193.038 107.5 190 107.5H106C102.962 107.5 100.5 105.038 100.5 102V39Z" stroke="#D3D4D5"/>
<rect x="109" y="44" width="25" height="3" rx="1.5" fill="#D3D4D5"/>
<rect x="176" y="44" width="11" height="3" rx="1.5" fill="#8952E0"/>
<rect x="109" y="59" width="20" height="3" rx="1.5" fill="#D3D4D5"/>
<rect x="141" y="59" width="25" height="3" rx="1.5" fill="#ABADAF"/>
<rect x="109" y="70" width="20" height="3" rx="1.5" fill="#D3D4D5"/>
<rect x="141" y="70" width="19" height="3" rx="1.5" fill="#ABADAF"/>
<rect x="109" y="81" width="20" height="3" rx="1.5" fill="#D3D4D5"/>
<rect x="141" y="81" width="24" height="3" rx="1.5" fill="#ABADAF"/>
<rect x="141" y="87" width="21" height="3" rx="1.5" fill="#ABADAF"/>
<rect x="141" y="93" width="15" height="3" rx="1.5" fill="#ABADAF"/>
</svg>
