<svg width="296" height="141" viewBox="0 0 296 141" fill="none" xmlns="http://www.w3.org/2000/svg">
<rect width="296" height="141" fill="#F1F1F2"/>
<path d="M100.5 54C100.5 50.9624 102.962 48.5 106 48.5H190C193.038 48.5 195.5 50.9624 195.5 54V87C195.5 90.0376 193.038 92.5 190 92.5H106C102.962 92.5 100.5 90.0376 100.5 87V54Z" fill="white"/>
<path d="M100.5 54C100.5 50.9624 102.962 48.5 106 48.5H190C193.038 48.5 195.5 50.9624 195.5 54V87C195.5 90.0376 193.038 92.5 190 92.5H106C102.962 92.5 100.5 90.0376 100.5 87V54Z" stroke="#D3D4D5"/>
<rect x="109" y="61" width="20" height="3" rx="1.5" fill="#D3D4D5"/>
<rect x="141" y="61" width="19" height="3" rx="1.5" fill="#ABADAF"/>
<rect x="162" y="61" width="13" height="3" rx="1.5" fill="#ABADAF"/>
<rect x="109" y="76" width="20" height="3" rx="1.5" fill="#D3D4D5"/>
<rect x="141.5" y="73.5" width="32" height="8" rx="1.5" fill="white"/>
<rect x="141.5" y="73.5" width="32" height="8" rx="1.5" stroke="#D3D4D5"/>
<rect x="144" y="76" width="14" height="3" rx="1.5" fill="#D3D4D5"/>
<path d="M170.672 77.4297L169.68 78.4297C169.625 78.4766 169.562 78.5 169.5 78.5C169.43 78.5 169.367 78.4766 169.32 78.4297L168.328 77.4297C168.25 77.3594 168.227 77.25 168.266 77.1562C168.305 77.0625 168.398 77 168.5 77H170.492C170.594 77 170.68 77.0625 170.719 77.1562C170.758 77.25 170.742 77.3594 170.672 77.4297Z" fill="#ABADAF"/>
</svg>
