<svg width="296" height="141" viewBox="0 0 296 141" fill="none" xmlns="http://www.w3.org/2000/svg">
<rect width="296" height="141" fill="#F1F1F2"/>
<path d="M100.5 25C100.5 21.9624 102.962 19.5 106 19.5H190C193.038 19.5 195.5 21.9624 195.5 25V116C195.5 119.038 193.038 121.5 190 121.5H106C102.962 121.5 100.5 119.038 100.5 116V25Z" fill="white"/>
<path d="M100.5 25C100.5 21.9624 102.962 19.5 106 19.5H190C193.038 19.5 195.5 21.9624 195.5 25V116C195.5 119.038 193.038 121.5 190 121.5H106C102.962 121.5 100.5 119.038 100.5 116V25Z" stroke="#D3D4D5"/>
<rect x="109" y="28" width="37" height="3" rx="1.5" fill="#ABADAF"/>
<path d="M187.051 31.3242C187.229 31.4883 187.229 31.7754 187.051 31.9395C186.969 32.0215 186.859 32.0625 186.75 32.0625C186.627 32.0625 186.518 32.0215 186.436 31.9395L185 30.5039L183.551 31.9395C183.469 32.0215 183.359 32.0625 183.25 32.0625C183.127 32.0625 183.018 32.0215 182.936 31.9395C182.758 31.7754 182.758 31.4883 182.936 31.3242L184.371 29.875L182.936 28.4395C182.758 28.2754 182.758 27.9883 182.936 27.8242C183.1 27.6465 183.387 27.6465 183.551 27.8242L185 29.2598L186.436 27.8242C186.6 27.6465 186.887 27.6465 187.051 27.8242C187.229 27.9883 187.229 28.2754 187.051 28.4395L185.615 29.8887L187.051 31.3242Z" fill="#ABADAF"/>
<rect x="109" y="41" width="78" height="31" rx="3" fill="#E7E7E8"/>
<path d="M150.984 53C151.547 53 151.984 53.4531 151.984 54V59C151.984 59.5625 151.531 60 150.984 60H144.984C144.438 60 143.984 59.5625 143.984 59V54C143.984 53.4531 144.438 53 144.984 53H150.984ZM145.734 54C145.328 54 144.984 54.3438 144.984 54.75C144.984 55.1719 145.297 55.5 145.734 55.5C146.156 55.5 146.484 55.1719 146.484 54.75C146.484 54.3438 146.141 54 145.734 54ZM150.969 58.875C151 58.7969 151 58.6875 150.953 58.625L148.953 55.625C148.906 55.5469 148.828 55.5 148.75 55.5C148.656 55.5 148.578 55.5469 148.531 55.625L147.078 57.8125L146.562 57.1094C146.516 57.0469 146.453 57 146.375 57C146.281 57 146.219 57.0469 146.172 57.1094L145.078 58.6094C145.016 58.6875 145.016 58.7812 145.047 58.875C145.094 58.9531 145.172 59 145.281 59H150.75C150.828 59 150.922 58.9531 150.969 58.875Z" fill="#ABADAF"/>
<path d="M114.508 77.4922C114.66 77.6328 114.66 77.8789 114.508 78.0195L111.508 81.0195C111.367 81.1719 111.121 81.1719 110.98 81.0195L109.48 79.5195C109.328 79.3789 109.328 79.1328 109.48 78.9922C109.621 78.8398 109.867 78.8398 110.008 78.9922L111.238 80.2227L113.98 77.4922C114.121 77.3398 114.367 77.3398 114.508 77.4922Z" fill="#8952E0"/>
<rect x="118" y="78" width="69" height="3" rx="1.5" fill="#D3D4D5"/>
<path d="M114.508 88.4922C114.66 88.6328 114.66 88.8789 114.508 89.0195L111.508 92.0195C111.367 92.1719 111.121 92.1719 110.98 92.0195L109.48 90.5195C109.328 90.3789 109.328 90.1328 109.48 89.9922C109.621 89.8398 109.867 89.8398 110.008 89.9922L111.238 91.2227L113.98 88.4922C114.121 88.3398 114.367 88.3398 114.508 88.4922Z" fill="#8952E0"/>
<rect x="118" y="89" width="69" height="3" rx="1.5" fill="#D3D4D5"/>
<path d="M160 104C160 102.895 160.895 102 162 102H185C186.105 102 187 102.895 187 104V110C187 111.105 186.105 112 185 112H162C160.895 112 160 111.105 160 110V104Z" fill="#8952E0"/>
<rect x="164" y="106" width="19" height="2" rx="1" fill="white"/>
</svg>
