<svg width="296" height="141" viewBox="0 0 296 141" fill="none" xmlns="http://www.w3.org/2000/svg">
<rect width="296" height="141" fill="#F1F1F2"/>
<path d="M119.5 49C119.5 45.9624 121.962 43.5 125 43.5H171C174.038 43.5 176.5 45.9624 176.5 49V92C176.5 95.0376 174.038 97.5 171 97.5H125C121.962 97.5 119.5 95.0376 119.5 92V49Z" fill="white"/>
<path d="M119.5 49C119.5 45.9624 121.962 43.5 125 43.5H171C174.038 43.5 176.5 45.9624 176.5 49V92C176.5 95.0376 174.038 97.5 171 97.5H125C121.962 97.5 119.5 95.0376 119.5 92V49Z" stroke="#D3D4D5"/>
<rect x="128" y="51" width="40" height="3" rx="1.5" fill="#ABADAF"/>
<rect x="128" y="66" width="20" height="3" rx="1.5" fill="#D3D4D5"/>
<path d="M162 69C161.156 69 160.5 68.3281 160.5 67.5C160.5 66.6719 161.156 66 162 66C162.828 66 163.5 66.6719 163.5 67.5C163.5 68.3281 162.828 69 162 69ZM165 70.5H162C160.328 70.5 159 69.1562 159 67.5C159 65.8438 160.328 64.5 162 64.5H165C166.656 64.5 168 65.8438 168 67.5C168 69.1562 166.656 70.5 165 70.5ZM165 65.5H162C160.891 65.5 160 66.4062 160 67.5C160 68.6094 160.891 69.5 162 69.5H165C166.094 69.5 167 68.6094 167 67.5C167 66.4062 166.094 65.5 165 65.5Z" fill="#8952E0"/>
<rect x="128" y="81" width="20" height="3" rx="1.5" fill="#D3D4D5"/>
<path d="M165 79.5C166.656 79.5 168 80.8438 168 82.5C168 84.1562 166.656 85.5 165 85.5H162C160.328 85.5 159 84.1562 159 82.5C159 80.8438 160.328 79.5 162 79.5H165ZM165 84C165.828 84 166.5 83.3281 166.5 82.5C166.5 81.6719 165.828 81 165 81C164.156 81 163.5 81.6719 163.5 82.5C163.5 83.3281 164.156 84 165 84Z" fill="#8952E0"/>
</svg>
