<svg width="296" height="141" viewBox="0 0 296 141" fill="none" xmlns="http://www.w3.org/2000/svg">
<rect width="296" height="141" fill="#F1F1F2"/>
<path d="M86 56C86 52.6863 88.6863 50 92 50H139C142.314 50 145 52.6863 145 56V85C145 88.3137 142.314 91 139 91H92C88.6863 91 86 88.3137 86 85V56Z" fill="#1D2025"/>
<rect x="95" y="58" width="41" height="3" rx="1.5" fill="#7D7F83"/>
<rect x="95" y="73" width="20" height="3" rx="1.5" fill="#ABADAF"/>
<rect x="127" y="71.5" width="9" height="6" rx="3" fill="#F9FAFA"/>
<path d="M133 71.5C134.656 71.5 136 72.8438 136 74.5C136 76.1562 134.656 77.5 133 77.5H130C128.328 77.5 127 76.1562 127 74.5C127 72.8438 128.328 71.5 130 71.5H133ZM133 76C133.828 76 134.5 75.3281 134.5 74.5C134.5 73.6719 133.828 73 133 73C132.156 73 131.5 73.6719 131.5 74.5C131.5 75.3281 132.156 76 133 76Z" fill="#8952E0"/>
<path d="M152.5 56C152.5 52.9624 154.962 50.5 158 50.5H204C207.038 50.5 209.5 52.9624 209.5 56V85C209.5 88.0376 207.038 90.5 204 90.5H158C154.962 90.5 152.5 88.0376 152.5 85V56Z" fill="white"/>
<path d="M152.5 56C152.5 52.9624 154.962 50.5 158 50.5H204C207.038 50.5 209.5 52.9624 209.5 56V85C209.5 88.0376 207.038 90.5 204 90.5H158C154.962 90.5 152.5 88.0376 152.5 85V56Z" stroke="#D3D4D5"/>
<rect x="161" y="58" width="40" height="3" rx="1.5" fill="#ABADAF"/>
<rect x="161" y="73" width="20" height="3" rx="1.5" fill="#D3D4D5"/>
<path d="M195 76C194.156 76 193.5 75.3281 193.5 74.5C193.5 73.6719 194.156 73 195 73C195.828 73 196.5 73.6719 196.5 74.5C196.5 75.3281 195.828 76 195 76ZM198 77.5H195C193.328 77.5 192 76.1562 192 74.5C192 72.8438 193.328 71.5 195 71.5H198C199.656 71.5 201 72.8438 201 74.5C201 76.1562 199.656 77.5 198 77.5ZM198 72.5H195C193.891 72.5 193 73.4062 193 74.5C193 75.6094 193.891 76.5 195 76.5H198C199.094 76.5 200 75.6094 200 74.5C200 73.4062 199.094 72.5 198 72.5Z" fill="#8952E0"/>
</svg>
