<svg width="296" height="141" viewBox="0 0 296 141" fill="none" xmlns="http://www.w3.org/2000/svg">
<rect width="296" height="141" fill="#F1F1F2"/>
<g clip-path="url(#clip0_99_9601)">
<path d="M111 41C111 37.6863 113.686 35 117 35H179C182.314 35 185 37.6863 185 41V100C185 103.314 182.314 106 179 106H117C113.686 106 111 103.314 111 100V41Z" fill="white"/>
<rect width="74" height="19" transform="translate(111 35)" fill="#F9FAFA"/>
<rect x="129.5" y="43" width="37" height="3" rx="1.5" fill="#ABADAF"/>
<rect x="120" y="60" width="35" height="3" rx="1.5" fill="#D3D4D5"/>
<rect x="168" y="60" width="8" height="3" rx="1.5" fill="#D3D4D5"/>
<path fill-rule="evenodd" clip-rule="evenodd" d="M120 69.5C120 69.2239 120.241 69 120.538 69H175.462C175.759 69 176 69.2239 176 69.5C176 69.7761 175.759 70 175.462 70H120.538C120.241 70 120 69.7761 120 69.5Z" fill="#E7E7E8"/>
<rect x="120" y="76" width="20" height="3" rx="1.5" fill="#D3D4D5"/>
<path d="M170 79C169.156 79 168.5 78.3281 168.5 77.5C168.5 76.6719 169.156 76 170 76C170.828 76 171.5 76.6719 171.5 77.5C171.5 78.3281 170.828 79 170 79ZM173 80.5H170C168.328 80.5 167 79.1562 167 77.5C167 75.8438 168.328 74.5 170 74.5H173C174.656 74.5 176 75.8438 176 77.5C176 79.1562 174.656 80.5 173 80.5ZM173 75.5H170C168.891 75.5 168 76.4062 168 77.5C168 78.6094 168.891 79.5 170 79.5H173C174.094 79.5 175 78.6094 175 77.5C175 76.4062 174.094 75.5 173 75.5Z" fill="#8952E0"/>
<path fill-rule="evenodd" clip-rule="evenodd" d="M120 85.5C120 85.2239 120.241 85 120.538 85H175.462C175.759 85 176 85.2239 176 85.5C176 85.7761 175.759 86 175.462 86H120.538C120.241 86 120 85.7761 120 85.5Z" fill="#E7E7E8"/>
<rect x="120" y="92" width="20" height="3" rx="1.5" fill="#D3D4D5"/>
<path d="M173 90.5C174.656 90.5 176 91.8438 176 93.5C176 95.1562 174.656 96.5 173 96.5H170C168.328 96.5 167 95.1562 167 93.5C167 91.8438 168.328 90.5 170 90.5H173ZM173 95C173.828 95 174.5 94.3281 174.5 93.5C174.5 92.6719 173.828 92 173 92C172.156 92 171.5 92.6719 171.5 93.5C171.5 94.3281 172.156 95 173 95Z" fill="#8952E0"/>
</g>
<path d="M111.5 41C111.5 37.9624 113.962 35.5 117 35.5H179C182.038 35.5 184.5 37.9624 184.5 41V100C184.5 103.038 182.038 105.5 179 105.5H117C113.962 105.5 111.5 103.038 111.5 100V41Z" stroke="#D3D4D5"/>
<defs>
<clipPath id="clip0_99_9601">
<path d="M111 41C111 37.6863 113.686 35 117 35H179C182.314 35 185 37.6863 185 41V100C185 103.314 182.314 106 179 106H117C113.686 106 111 103.314 111 100V41Z" fill="white"/>
</clipPath>
</defs>
</svg>
