<svg width="296" height="141" viewBox="0 0 296 141" fill="none" xmlns="http://www.w3.org/2000/svg">
<rect width="296" height="141" fill="#F1F1F2"/>
<path d="M105.5 60C105.5 56.9624 107.962 54.5 111 54.5H185C188.038 54.5 190.5 56.9624 190.5 60V81C190.5 84.0376 188.038 86.5 185 86.5H111C107.962 86.5 105.5 84.0376 105.5 81V60Z" fill="white"/>
<path d="M105.5 60C105.5 56.9624 107.962 54.5 111 54.5H185C188.038 54.5 190.5 56.9624 190.5 60V81C190.5 84.0376 188.038 86.5 185 86.5H111C107.962 86.5 105.5 84.0376 105.5 81V60Z" stroke="#D3D4D5"/>
<rect x="114" y="65" width="34" height="3" rx="1.5" fill="#ABADAF"/>
<rect x="152" y="61" width="10" height="11" rx="2" fill="#E5DAF8"/>
<path d="M154 64.875C154 64.2539 154.504 63.75 155.125 63.75C155.746 63.75 156.25 64.2539 156.25 64.875V65.25H157.75V64.875C157.75 64.2539 158.254 63.75 158.875 63.75C159.496 63.75 160 64.2539 160 64.875C160 65.4961 159.496 66 158.875 66H158.5V67.5H158.875C159.496 67.5 160 68.0039 160 68.625C160 69.2461 159.496 69.75 158.875 69.75C158.254 69.75 157.75 69.2461 157.75 68.625V68.25H156.25V68.625C156.25 69.2461 155.746 69.75 155.125 69.75C154.504 69.75 154 69.2461 154 68.625C154 68.0039 154.504 67.5 155.125 67.5H155.5V66H155.125C154.504 66 154 65.4961 154 64.875ZM155.5 65.25V64.875C155.5 64.6758 155.324 64.5 155.125 64.5C154.914 64.5 154.75 64.6758 154.75 64.875C154.75 65.0859 154.914 65.25 155.125 65.25H155.5ZM156.25 67.5H157.75V66H156.25V67.5ZM155.5 68.25H155.125C154.914 68.25 154.75 68.4258 154.75 68.625C154.75 68.8359 154.914 69 155.125 69C155.324 69 155.5 68.8359 155.5 68.625V68.25ZM158.5 68.25V68.625C158.5 68.8359 158.664 69 158.875 69C159.074 69 159.25 68.8359 159.25 68.625C159.25 68.4258 159.074 68.25 158.875 68.25H158.5ZM158.5 65.25H158.875C159.074 65.25 159.25 65.0859 159.25 64.875C159.25 64.6758 159.074 64.5 158.875 64.5C158.664 64.5 158.5 64.6758 158.5 64.875V65.25Z" fill="#8952E0"/>
<path d="M167.375 64.6875V66.375H169.062C169.262 66.375 169.438 66.5508 169.438 66.75C169.438 66.9609 169.262 67.125 169.062 67.125H167.375V68.8125C167.375 69.0234 167.199 69.1875 167 69.1875C166.789 69.1875 166.625 69.0234 166.625 68.8125V67.125H164.938C164.727 67.125 164.562 66.9609 164.562 66.75C164.562 66.5508 164.727 66.375 164.938 66.375H166.625V64.6875C166.625 64.4883 166.789 64.3125 167 64.3125C167.199 64.3125 167.375 64.4883 167.375 64.6875Z" fill="#8952E0"/>
<rect x="172" y="61" width="10" height="11" rx="2" fill="#E5DAF8"/>
<path d="M178.5 64.5H180.375C180.574 64.5 180.75 64.6758 180.75 64.875C180.75 65.0859 180.574 65.25 180.375 65.25H178.676L175.793 68.8594C175.711 68.9531 175.605 69 175.5 69H173.625C173.414 69 173.25 68.8359 173.25 68.625C173.25 68.4258 173.414 68.25 173.625 68.25H175.312L178.207 64.6406C178.277 64.5586 178.383 64.5 178.5 64.5ZM178.5 68.25H180.375C180.574 68.25 180.75 68.4258 180.75 68.625C180.75 68.8359 180.574 69 180.375 69H178.5C178.289 69 178.125 68.8359 178.125 68.625C178.125 68.4258 178.289 68.25 178.5 68.25Z" fill="#8952E0"/>
<rect x="114" y="75" width="68" height="3" rx="1.5" fill="#D3D4D5"/>
</svg>
