<svg width="296" height="141" viewBox="0 0 296 141" fill="none" xmlns="http://www.w3.org/2000/svg">
<rect width="296" height="141" fill="#F1F1F2"/>
<path d="M100.5 44C100.5 40.9624 102.962 38.5 106 38.5H190C193.038 38.5 195.5 40.9624 195.5 44V97C195.5 100.038 193.038 102.5 190 102.5H106C102.962 102.5 100.5 100.038 100.5 97V44Z" fill="white"/>
<path d="M100.5 44C100.5 40.9624 102.962 38.5 106 38.5H190C193.038 38.5 195.5 40.9624 195.5 44V97C195.5 100.038 193.038 102.5 190 102.5H106C102.962 102.5 100.5 100.038 100.5 97V44Z" stroke="#D3D4D5"/>
<rect x="109" y="49" width="37" height="3" rx="1.5" fill="#ABADAF"/>
<path d="M187.051 51.8242C187.229 51.9883 187.229 52.2754 187.051 52.4395C186.969 52.5215 186.859 52.5625 186.75 52.5625C186.627 52.5625 186.518 52.5215 186.436 52.4395L185 51.0039L183.551 52.4395C183.469 52.5215 183.359 52.5625 183.25 52.5625C183.127 52.5625 183.018 52.5215 182.936 52.4395C182.758 52.2754 182.758 51.9883 182.936 51.8242L184.371 50.375L182.936 48.9395C182.758 48.7754 182.758 48.4883 182.936 48.3242C183.1 48.1465 183.387 48.1465 183.551 48.3242L185 49.7598L186.436 48.3242C186.6 48.1465 186.887 48.1465 187.051 48.3242C187.229 48.4883 187.229 48.7754 187.051 48.9395L185.615 50.3887L187.051 51.8242Z" fill="#ABADAF"/>
<rect x="109" y="62" width="20" height="3" rx="1.5" fill="#D3D4D5"/>
<path d="M167.81 63.3182L170.333 60.7955L172.856 63.3182H171.56V65.5H169.106V63.3182H167.81ZM168.767 62.9347H169.532V65.1165H171.134V62.9347H171.899L170.333 61.3686L168.767 62.9347ZM176.826 64.733V61.9205H177.303V64.733H176.826ZM175.658 63.5653V63.0881H178.47V63.5653H175.658ZM182.379 65.598C182.21 65.598 182.055 65.5568 181.914 65.4744C181.774 65.3906 181.661 65.2784 181.578 65.1378C181.495 64.9972 181.454 64.8423 181.454 64.6733C181.454 64.5028 181.495 64.3473 181.578 64.2067C181.661 64.0661 181.774 63.9538 181.914 63.87C182.055 63.7862 182.21 63.7443 182.379 63.7443H182.873V62.8878H182.379C182.21 62.8878 182.055 62.8466 181.914 62.7642C181.774 62.6804 181.661 62.5689 181.578 62.4297C181.495 62.2891 181.454 62.1335 181.454 61.9631C181.454 61.7926 181.495 61.6378 181.578 61.4986C181.661 61.358 181.774 61.2464 181.914 61.1641C182.055 61.0803 182.21 61.0384 182.379 61.0384C182.549 61.0384 182.705 61.0803 182.845 61.1641C182.986 61.2464 183.098 61.358 183.182 61.4986C183.266 61.6378 183.308 61.7926 183.308 61.9631V62.4531H184.164V61.9631C184.164 61.7926 184.205 61.6378 184.288 61.4986C184.372 61.358 184.483 61.2464 184.622 61.1641C184.763 61.0803 184.918 61.0384 185.089 61.0384C185.259 61.0384 185.414 61.0803 185.553 61.1641C185.694 61.2464 185.805 61.358 185.888 61.4986C185.972 61.6378 186.014 61.7926 186.014 61.9631C186.014 62.1335 185.972 62.2891 185.888 62.4297C185.805 62.5689 185.694 62.6804 185.553 62.7642C185.414 62.8466 185.259 62.8878 185.089 62.8878H184.599V63.7443H185.089C185.259 63.7443 185.414 63.7862 185.553 63.87C185.694 63.9538 185.805 64.0661 185.888 64.2067C185.972 64.3473 186.014 64.5028 186.014 64.6733C186.014 64.8423 185.972 64.9972 185.888 65.1378C185.805 65.2784 185.694 65.3906 185.553 65.4744C185.414 65.5568 185.259 65.598 185.089 65.598C184.918 65.598 184.763 65.5568 184.622 65.4744C184.483 65.3906 184.372 65.2784 184.288 65.1378C184.205 64.9972 184.164 64.8423 184.164 64.6733V64.179H183.308V64.6733C183.308 64.8423 183.266 64.9972 183.182 65.1378C183.098 65.2784 182.986 65.3906 182.845 65.4744C182.705 65.5568 182.549 65.598 182.379 65.598ZM182.379 65.1634C182.47 65.1634 182.552 65.1413 182.626 65.0973C182.701 65.0533 182.761 64.9943 182.805 64.9205C182.85 64.8452 182.873 64.7628 182.873 64.6733V64.179H182.379C182.289 64.179 182.207 64.2017 182.131 64.2472C182.058 64.2912 181.999 64.3509 181.955 64.4261C181.911 64.5 181.889 64.5824 181.889 64.6733C181.889 64.7628 181.911 64.8452 181.955 64.9205C181.999 64.9943 182.058 65.0533 182.131 65.0973C182.207 65.1413 182.289 65.1634 182.379 65.1634ZM182.379 62.4531H182.873V61.9631C182.873 61.8722 182.85 61.7898 182.805 61.7159C182.761 61.642 182.701 61.5831 182.626 61.5391C182.552 61.495 182.47 61.473 182.379 61.473C182.289 61.473 182.207 61.495 182.131 61.5391C182.058 61.5831 181.999 61.642 181.955 61.7159C181.911 61.7898 181.889 61.8722 181.889 61.9631C181.889 62.054 181.911 62.1371 181.955 62.2124C181.999 62.2862 182.058 62.3452 182.131 62.3892C182.207 62.4318 182.289 62.4531 182.379 62.4531ZM184.599 62.4531H185.089C185.18 62.4531 185.262 62.4318 185.336 62.3892C185.41 62.3452 185.469 62.2862 185.513 62.2124C185.557 62.1371 185.579 62.054 185.579 61.9631C185.579 61.8722 185.557 61.7898 185.513 61.7159C185.469 61.642 185.41 61.5831 185.336 61.5391C185.262 61.495 185.18 61.473 185.089 61.473C184.998 61.473 184.915 61.495 184.84 61.5391C184.766 61.5831 184.707 61.642 184.663 61.7159C184.62 61.7898 184.599 61.8722 184.599 61.9631V62.4531ZM185.089 65.1634C185.18 65.1634 185.262 65.1413 185.336 65.0973C185.41 65.0533 185.469 64.9943 185.513 64.9205C185.557 64.8452 185.579 64.7628 185.579 64.6733C185.579 64.5824 185.557 64.5 185.513 64.4261C185.469 64.3509 185.41 64.2912 185.336 64.2472C185.262 64.2017 185.18 64.179 185.089 64.179H184.599V64.6733C184.599 64.7628 184.62 64.8452 184.663 64.9205C184.707 64.9943 184.766 65.0533 184.84 65.0973C184.915 65.1413 184.998 65.1634 185.089 65.1634ZM183.308 63.7443H184.164V62.8878H183.308V63.7443Z" fill="#8952E0"/>
<rect x="109" y="75" width="20" height="3" rx="1.5" fill="#D3D4D5"/>
<path d="M168.419 75.5H167.89C167.859 75.348 167.804 75.2145 167.726 75.0994C167.65 74.9844 167.556 74.8878 167.445 74.8097C167.336 74.7301 167.214 74.6705 167.081 74.6307C166.947 74.5909 166.808 74.571 166.663 74.571C166.399 74.571 166.159 74.6378 165.945 74.7713C165.732 74.9048 165.562 75.1016 165.436 75.3615C165.311 75.6214 165.248 75.9403 165.248 76.3182C165.248 76.696 165.311 77.0149 165.436 77.2749C165.562 77.5348 165.732 77.7315 165.945 77.8651C166.159 77.9986 166.399 78.0653 166.663 78.0653C166.808 78.0653 166.947 78.0455 167.081 78.0057C167.214 77.9659 167.336 77.907 167.445 77.8288C167.556 77.7493 167.65 77.652 167.726 77.5369C167.804 77.4205 167.859 77.2869 167.89 77.1364H168.419C168.379 77.3594 168.306 77.5589 168.201 77.7351C168.096 77.9112 167.966 78.0611 167.809 78.1847C167.653 78.3068 167.478 78.3999 167.283 78.4638C167.09 78.5277 166.883 78.5597 166.663 78.5597C166.291 78.5597 165.96 78.4688 165.67 78.2869C165.38 78.1051 165.152 77.8466 164.986 77.5114C164.82 77.1761 164.737 76.7784 164.737 76.3182C164.737 75.858 164.82 75.4602 164.986 75.125C165.152 74.7898 165.38 74.5312 165.67 74.3494C165.96 74.1676 166.291 74.0767 166.663 74.0767C166.883 74.0767 167.09 74.1087 167.283 74.1726C167.478 74.2365 167.653 74.3303 167.809 74.4538C167.966 74.576 168.096 74.7251 168.201 74.9013C168.306 75.076 168.379 75.2756 168.419 75.5ZM170.628 75.2273V75.6534H168.932V75.2273H170.628ZM169.426 74.4432H169.929V77.5625C169.929 77.7045 169.949 77.8111 169.991 77.8821C170.033 77.9517 170.087 77.9986 170.153 78.0227C170.219 78.0455 170.29 78.0568 170.363 78.0568C170.419 78.0568 170.464 78.054 170.5 78.0483C170.535 78.0412 170.564 78.0355 170.585 78.0312L170.687 78.483C170.653 78.4957 170.606 78.5085 170.545 78.5213C170.483 78.5355 170.406 78.5426 170.312 78.5426C170.17 78.5426 170.031 78.5121 169.895 78.451C169.76 78.3899 169.648 78.2969 169.558 78.1719C169.47 78.0469 169.426 77.8892 169.426 77.6989V74.4432ZM171.384 78.5V75.2273H171.87V75.7216H171.904C171.964 75.5597 172.072 75.4283 172.228 75.3274C172.384 75.2266 172.56 75.1761 172.756 75.1761C172.793 75.1761 172.839 75.1768 172.895 75.1783C172.95 75.1797 172.992 75.1818 173.02 75.1847V75.696C173.003 75.6918 172.964 75.6854 172.903 75.6768C172.844 75.6669 172.78 75.6619 172.714 75.6619C172.555 75.6619 172.412 75.6953 172.287 75.7621C172.164 75.8274 172.066 75.9183 171.993 76.0348C171.922 76.1499 171.887 76.2812 171.887 76.429V78.5H171.384ZM176.582 77.733V74.9205H177.06V77.733H176.582ZM175.415 76.5653V76.0881H178.227V76.5653H175.415ZM181.032 76.3182L183.555 73.7955L186.077 76.3182H184.782V78.5H182.327V76.3182H181.032ZM181.988 75.9347H182.753V78.1165H184.356V75.9347H185.121L183.555 74.3686L181.988 75.9347Z" fill="#8952E0"/>
<rect x="109" y="88" width="20" height="3" rx="1.5" fill="#D3D4D5"/>
<path d="M163.178 88.2273C163.153 88.0114 163.049 87.8438 162.867 87.7244C162.686 87.6051 162.463 87.5455 162.198 87.5455C162.005 87.5455 161.836 87.5767 161.691 87.6392C161.548 87.7017 161.436 87.7876 161.355 87.897C161.275 88.0064 161.235 88.1307 161.235 88.2699C161.235 88.3864 161.263 88.4865 161.318 88.5703C161.375 88.6527 161.448 88.7216 161.536 88.777C161.624 88.831 161.716 88.8757 161.813 88.9112C161.909 88.9453 161.998 88.973 162.079 88.9943L162.522 89.1136C162.636 89.1435 162.762 89.1847 162.901 89.2372C163.042 89.2898 163.176 89.3615 163.304 89.4524C163.433 89.5419 163.54 89.657 163.624 89.7976C163.708 89.9382 163.749 90.1108 163.749 90.3153C163.749 90.5511 163.688 90.7642 163.564 90.9545C163.442 91.1449 163.263 91.2962 163.027 91.4084C162.793 91.5206 162.508 91.5767 162.173 91.5767C161.86 91.5767 161.59 91.5263 161.361 91.4254C161.134 91.3246 160.955 91.1839 160.824 91.0036C160.695 90.8232 160.622 90.6136 160.605 90.375H161.15C161.164 90.5398 161.22 90.6761 161.316 90.7841C161.414 90.8906 161.538 90.9702 161.687 91.0227C161.838 91.0739 161.999 91.0994 162.173 91.0994C162.374 91.0994 162.556 91.0668 162.716 91.0014C162.877 90.9347 163.004 90.8423 163.097 90.7244C163.191 90.6051 163.238 90.4659 163.238 90.3068C163.238 90.1619 163.198 90.044 163.117 89.9531C163.036 89.8622 162.929 89.7884 162.797 89.7315C162.665 89.6747 162.522 89.625 162.369 89.5824L161.832 89.429C161.491 89.331 161.221 89.1911 161.022 89.0092C160.823 88.8274 160.724 88.5895 160.724 88.2955C160.724 88.0511 160.79 87.8381 160.922 87.6562C161.056 87.473 161.235 87.331 161.459 87.2301C161.685 87.1278 161.937 87.0767 162.215 87.0767C162.497 87.0767 162.747 87.1271 162.965 87.228C163.184 87.3274 163.357 87.4638 163.485 87.6371C163.615 87.8104 163.683 88.0071 163.69 88.2273H163.178ZM165.053 89.5312V91.5H164.55V87.1364H165.053V88.7386H165.096C165.172 88.5696 165.287 88.4354 165.441 88.3359C165.596 88.2351 165.801 88.1847 166.059 88.1847C166.282 88.1847 166.477 88.2294 166.645 88.3189C166.812 88.407 166.942 88.5426 167.034 88.7259C167.128 88.9077 167.175 89.1392 167.175 89.4205V91.5H166.672V89.4545C166.672 89.1946 166.605 88.9936 166.47 88.8516C166.336 88.7081 166.151 88.6364 165.914 88.6364C165.749 88.6364 165.601 88.6712 165.471 88.7408C165.341 88.8104 165.239 88.9119 165.164 89.0455C165.09 89.179 165.053 89.3409 165.053 89.5312ZM168.095 91.5V88.2273H168.598V91.5H168.095ZM168.351 87.6818C168.253 87.6818 168.168 87.6484 168.097 87.5817C168.028 87.5149 167.993 87.4347 167.993 87.3409C167.993 87.2472 168.028 87.1669 168.097 87.1001C168.168 87.0334 168.253 87 168.351 87C168.449 87 168.532 87.0334 168.602 87.1001C168.673 87.1669 168.709 87.2472 168.709 87.3409C168.709 87.4347 168.673 87.5149 168.602 87.5817C168.532 87.6484 168.449 87.6818 168.351 87.6818ZM170.976 88.2273V88.6534H169.212V88.2273H170.976ZM169.74 91.5V87.7756C169.74 87.5881 169.784 87.4318 169.873 87.3068C169.961 87.1818 170.075 87.0881 170.216 87.0256C170.356 86.9631 170.505 86.9318 170.661 86.9318C170.784 86.9318 170.885 86.9418 170.963 86.9616C171.042 86.9815 171.1 87 171.138 87.017L170.993 87.4517C170.968 87.4432 170.932 87.4325 170.887 87.4197C170.843 87.407 170.784 87.4006 170.712 87.4006C170.546 87.4006 170.426 87.4425 170.352 87.5263C170.279 87.6101 170.243 87.733 170.243 87.8949V91.5H169.74ZM173.104 88.2273V88.6534H171.408V88.2273H173.104ZM171.903 87.4432H172.405V90.5625C172.405 90.7045 172.426 90.8111 172.467 90.8821C172.51 90.9517 172.564 90.9986 172.629 91.0227C172.696 91.0455 172.766 91.0568 172.84 91.0568C172.895 91.0568 172.941 91.054 172.976 91.0483C173.012 91.0412 173.04 91.0355 173.062 91.0312L173.164 91.483C173.13 91.4957 173.082 91.5085 173.021 91.5213C172.96 91.5355 172.883 91.5426 172.789 91.5426C172.647 91.5426 172.508 91.5121 172.371 91.451C172.236 91.3899 172.124 91.2969 172.035 91.1719C171.947 91.0469 171.903 90.8892 171.903 90.6989V87.4432ZM176.827 90.733V87.9205H177.304V90.733H176.827ZM175.659 89.5653V89.0881H178.471V89.5653H175.659ZM182.38 91.598C182.211 91.598 182.056 91.5568 181.915 91.4744C181.775 91.3906 181.662 91.2784 181.578 91.1378C181.496 90.9972 181.455 90.8423 181.455 90.6733C181.455 90.5028 181.496 90.3473 181.578 90.2067C181.662 90.0661 181.775 89.9538 181.915 89.87C182.056 89.7862 182.211 89.7443 182.38 89.7443H182.874V88.8878H182.38C182.211 88.8878 182.056 88.8466 181.915 88.7642C181.775 88.6804 181.662 88.5689 181.578 88.4297C181.496 88.2891 181.455 88.1335 181.455 87.9631C181.455 87.7926 181.496 87.6378 181.578 87.4986C181.662 87.358 181.775 87.2464 181.915 87.1641C182.056 87.0803 182.211 87.0384 182.38 87.0384C182.55 87.0384 182.706 87.0803 182.846 87.1641C182.987 87.2464 183.099 87.358 183.183 87.4986C183.267 87.6378 183.309 87.7926 183.309 87.9631V88.4531H184.165V87.9631C184.165 87.7926 184.206 87.6378 184.289 87.4986C184.373 87.358 184.484 87.2464 184.623 87.1641C184.764 87.0803 184.919 87.0384 185.09 87.0384C185.26 87.0384 185.415 87.0803 185.554 87.1641C185.695 87.2464 185.806 87.358 185.889 87.4986C185.973 87.6378 186.015 87.7926 186.015 87.9631C186.015 88.1335 185.973 88.2891 185.889 88.4297C185.806 88.5689 185.695 88.6804 185.554 88.7642C185.415 88.8466 185.26 88.8878 185.09 88.8878H184.6V89.7443H185.09C185.26 89.7443 185.415 89.7862 185.554 89.87C185.695 89.9538 185.806 90.0661 185.889 90.2067C185.973 90.3473 186.015 90.5028 186.015 90.6733C186.015 90.8423 185.973 90.9972 185.889 91.1378C185.806 91.2784 185.695 91.3906 185.554 91.4744C185.415 91.5568 185.26 91.598 185.09 91.598C184.919 91.598 184.764 91.5568 184.623 91.4744C184.484 91.3906 184.373 91.2784 184.289 91.1378C184.206 90.9972 184.165 90.8423 184.165 90.6733V90.179H183.309V90.6733C183.309 90.8423 183.267 90.9972 183.183 91.1378C183.099 91.2784 182.987 91.3906 182.846 91.4744C182.706 91.5568 182.55 91.598 182.38 91.598ZM182.38 91.1634C182.471 91.1634 182.553 91.1413 182.627 91.0973C182.702 91.0533 182.762 90.9943 182.806 90.9205C182.851 90.8452 182.874 90.7628 182.874 90.6733V90.179H182.38C182.29 90.179 182.208 90.2017 182.132 90.2472C182.059 90.2912 182 90.3509 181.956 90.4261C181.912 90.5 181.89 90.5824 181.89 90.6733C181.89 90.7628 181.912 90.8452 181.956 90.9205C182 90.9943 182.059 91.0533 182.132 91.0973C182.208 91.1413 182.29 91.1634 182.38 91.1634ZM182.38 88.4531H182.874V87.9631C182.874 87.8722 182.851 87.7898 182.806 87.7159C182.762 87.642 182.702 87.5831 182.627 87.5391C182.553 87.495 182.471 87.473 182.38 87.473C182.29 87.473 182.208 87.495 182.132 87.5391C182.059 87.5831 182 87.642 181.956 87.7159C181.912 87.7898 181.89 87.8722 181.89 87.9631C181.89 88.054 181.912 88.1371 181.956 88.2124C182 88.2862 182.059 88.3452 182.132 88.3892C182.208 88.4318 182.29 88.4531 182.38 88.4531ZM184.6 88.4531H185.09C185.181 88.4531 185.263 88.4318 185.337 88.3892C185.411 88.3452 185.47 88.2862 185.514 88.2124C185.558 88.1371 185.58 88.054 185.58 87.9631C185.58 87.8722 185.558 87.7898 185.514 87.7159C185.47 87.642 185.411 87.5831 185.337 87.5391C185.263 87.495 185.181 87.473 185.09 87.473C184.999 87.473 184.916 87.495 184.841 87.5391C184.767 87.5831 184.708 87.642 184.664 87.7159C184.621 87.7898 184.6 87.8722 184.6 87.9631V88.4531ZM185.09 91.1634C185.181 91.1634 185.263 91.1413 185.337 91.0973C185.411 91.0533 185.47 90.9943 185.514 90.9205C185.558 90.8452 185.58 90.7628 185.58 90.6733C185.58 90.5824 185.558 90.5 185.514 90.4261C185.47 90.3509 185.411 90.2912 185.337 90.2472C185.263 90.2017 185.181 90.179 185.09 90.179H184.6V90.6733C184.6 90.7628 184.621 90.8452 184.664 90.9205C184.708 90.9943 184.767 91.0533 184.841 91.0973C184.916 91.1413 184.999 91.1634 185.09 91.1634ZM183.309 89.7443H184.165V88.8878H183.309V89.7443Z" fill="#8952E0"/>
</svg>
