<svg width="296" height="141" viewBox="0 0 296 141" fill="none" xmlns="http://www.w3.org/2000/svg">
<rect width="296" height="141" fill="#F1F1F2"/>
<g clip-path="url(#clip0_102_6819)">
<path d="M110 64C110 60.6863 112.686 58 116 58H180C183.314 58 186 60.6863 186 64V77C186 80.3137 183.314 83 180 83H116C112.686 83 110 80.3137 110 77V64Z" fill="white"/>
<rect width="26" height="25" transform="translate(110 58)" fill="#F1F1F2"/>
<path d="M116.5 70.5C116.5 67.1953 119.172 64.5 122.5 64.5C125.805 64.5 128.5 67.1953 128.5 70.5C128.5 73.8281 125.805 76.5 122.5 76.5C119.172 76.5 116.5 73.8281 116.5 70.5ZM125.195 69.4688C125.453 69.2109 125.453 68.8125 125.195 68.5547C124.938 68.2969 124.539 68.2969 124.281 68.5547L121.75 71.0859L120.695 70.0547C120.438 69.7969 120.039 69.7969 119.781 70.0547C119.523 70.3125 119.523 70.7109 119.781 70.9688L121.281 72.4688C121.539 72.7266 121.938 72.7266 122.195 72.4688L125.195 69.4688Z" fill="#ABADAF"/>
<path d="M142.5 70.5C142.5 67.1953 145.172 64.5 148.5 64.5C151.805 64.5 154.5 67.1953 154.5 70.5C154.5 73.8281 151.805 76.5 148.5 76.5C145.172 76.5 142.5 73.8281 142.5 70.5ZM148.5 72.75C149.742 72.75 150.75 71.7422 150.75 70.5C150.75 69.2578 149.742 68.25 148.5 68.25C147.234 68.25 146.25 69.2578 146.25 70.5C146.25 71.7422 147.234 72.75 148.5 72.75Z" fill="#ABADAF"/>
<path d="M175.75 66C178.234 66 180.25 68.0156 180.25 70.5C180.25 72.9844 178.234 75 175.75 75H171.25C168.742 75 166.75 72.9844 166.75 70.5C166.75 68.0156 168.742 66 171.25 66H175.75ZM175.75 72.75C176.992 72.75 178 71.7422 178 70.5C178 69.2578 176.992 68.25 175.75 68.25C174.484 68.25 173.5 69.2578 173.5 70.5C173.5 71.7422 174.484 72.75 175.75 72.75Z" fill="#ABADAF"/>
</g>
<path d="M110.5 64C110.5 60.9624 112.962 58.5 116 58.5H180C183.038 58.5 185.5 60.9624 185.5 64V77C185.5 80.0376 183.038 82.5 180 82.5H116C112.962 82.5 110.5 80.0376 110.5 77V64Z" stroke="#D3D4D5"/>
<defs>
<clipPath id="clip0_102_6819">
<path d="M110 64C110 60.6863 112.686 58 116 58H180C183.314 58 186 60.6863 186 64V77C186 80.3137 183.314 83 180 83H116C112.686 83 110 80.3137 110 77V64Z" fill="white"/>
</clipPath>
</defs>
</svg>
