<svg width="296" height="141" viewBox="0 0 296 141" fill="none" xmlns="http://www.w3.org/2000/svg">
<g clip-path="url(#clip0_102_6844)">
<path d="M123 49C123 45.6863 125.686 43 129 43H167C170.314 43 173 45.6863 173 49V62C173 65.3137 170.314 68 167 68H129C125.686 68 123 65.3137 123 62V49Z" fill="white"/>
<rect width="25" height="25" transform="translate(123 43)" fill="#F1F1F2"/>
<path d="M139.25 50.25C140.07 50.25 140.75 50.9297 140.75 51.75V59.25C140.75 60.0938 140.07 60.75 139.25 60.75H131.75C130.906 60.75 130.25 60.0938 130.25 59.25V51.75C130.25 50.9297 130.906 50.25 131.75 50.25H139.25ZM138.195 54.4688C138.453 54.2109 138.453 53.8125 138.195 53.5547C137.938 53.2969 137.539 53.2969 137.281 53.5547L134.75 56.0859L133.695 55.0547C133.438 54.7969 133.039 54.7969 132.781 55.0547C132.523 55.3125 132.523 55.7109 132.781 55.9688L134.281 57.4688C134.539 57.7266 134.938 57.7266 135.195 57.4688L138.195 54.4688Z" fill="#ABADAF"/>
<rect width="25" height="25" transform="translate(148 43)" fill="#F1F1F2"/>
<path d="M165.516 51.9844C165.82 52.2656 165.82 52.7578 165.516 53.0391L159.516 59.0391C159.234 59.3438 158.742 59.3438 158.461 59.0391L155.461 56.0391C155.156 55.7578 155.156 55.2656 155.461 54.9844C155.742 54.6797 156.234 54.6797 156.516 54.9844L158.977 57.4453L164.461 51.9844C164.742 51.6797 165.234 51.6797 165.516 51.9844Z" fill="#ABADAF"/>
</g>
<path d="M123.5 49C123.5 45.9624 125.962 43.5 129 43.5H167C170.038 43.5 172.5 45.9624 172.5 49V62C172.5 65.0376 170.038 67.5 167 67.5H129C125.962 67.5 123.5 65.0376 123.5 62V49Z" stroke="#D3D4D5"/>
<g clip-path="url(#clip1_102_6844)">
<path d="M123 78C123 74.6863 125.686 72 129 72H167C170.314 72 173 74.6863 173 78V91C173 94.3137 170.314 97 167 97H129C125.686 97 123 94.3137 123 91V78Z" fill="white"/>
<rect width="25" height="25" transform="translate(123 72)" fill="#F1F1F2"/>
<path d="M129.5 84.5C129.5 81.1953 132.172 78.5 135.5 78.5C138.805 78.5 141.5 81.1953 141.5 84.5C141.5 87.8281 138.805 90.5 135.5 90.5C132.172 90.5 129.5 87.8281 129.5 84.5ZM135.5 86.75C136.742 86.75 137.75 85.7422 137.75 84.5C137.75 83.2578 136.742 82.25 135.5 82.25C134.234 82.25 133.25 83.2578 133.25 84.5C133.25 85.7422 134.234 86.75 135.5 86.75Z" fill="#ABADAF"/>
<path d="M158.25 86.75C156.984 86.75 156 85.7422 156 84.5C156 83.2578 156.984 82.25 158.25 82.25C159.492 82.25 160.5 83.2578 160.5 84.5C160.5 85.7422 159.492 86.75 158.25 86.75ZM162.75 89H158.25C155.742 89 153.75 86.9844 153.75 84.5C153.75 82.0156 155.742 80 158.25 80H162.75C165.234 80 167.25 82.0156 167.25 84.5C167.25 86.9844 165.234 89 162.75 89ZM162.75 81.5H158.25C156.586 81.5 155.25 82.8594 155.25 84.5C155.25 86.1641 156.586 87.5 158.25 87.5H162.75C164.391 87.5 165.75 86.1641 165.75 84.5C165.75 82.8594 164.391 81.5 162.75 81.5Z" fill="#ABADAF"/>
</g>
<path d="M123.5 78C123.5 74.9624 125.962 72.5 129 72.5H167C170.038 72.5 172.5 74.9624 172.5 78V91C172.5 94.0376 170.038 96.5 167 96.5H129C125.962 96.5 123.5 94.0376 123.5 91V78Z" stroke="#D3D4D5"/>
<defs>
<clipPath id="clip0_102_6844">
<path d="M123 49C123 45.6863 125.686 43 129 43H167C170.314 43 173 45.6863 173 49V62C173 65.3137 170.314 68 167 68H129C125.686 68 123 65.3137 123 62V49Z" fill="white"/>
</clipPath>
<clipPath id="clip1_102_6844">
<path d="M123 78C123 74.6863 125.686 72 129 72H167C170.314 72 173 74.6863 173 78V91C173 94.3137 170.314 97 167 97H129C125.686 97 123 94.3137 123 91V78Z" fill="white"/>
</clipPath>
</defs>
</svg>
