<svg width="296" height="141" viewBox="0 0 296 141" fill="none" xmlns="http://www.w3.org/2000/svg">
<g clip-path="url(#clip0_102_6929)">
<rect x="130" y="62" width="36" height="17" rx="4" fill="#D3D4D5"/>
<rect width="18" height="17" transform="translate(130 62)" fill="white"/>
<rect x="134" y="69" width="9" height="3" rx="1.5" fill="#D3D4D5"/>
<rect width="17" height="17" transform="translate(149 62)" fill="#F1F1F2"/>
<rect x="153" y="69" width="9" height="3" rx="1.5" fill="#ABADAF"/>
</g>
<rect x="130.5" y="62.5" width="35" height="16" rx="3.5" stroke="#D3D4D5"/>
<mask id="path-5-outside-1_102_6929" maskUnits="userSpaceOnUse" x="150" y="72.5" width="11" height="13" fill="black">
<rect fill="white" x="150" y="72.5" width="11" height="13"/>
<path d="M158.938 78.125C159.445 78.125 159.875 78.5547 159.875 79.0625V80.9375C159.875 82.5 158.605 83.75 157.062 83.75H155.188C154.348 83.75 153.547 83.3594 153.059 82.6953L151.281 80.3125C151.164 80.1758 151.125 80.0195 151.125 79.8633C151.125 79.4141 151.477 79.0625 151.887 79.0625C152.141 79.0625 152.375 79.1797 152.531 79.375L153.625 80.8398V74.5312C153.625 74.1016 153.957 73.75 154.406 73.75C154.836 73.75 155.188 74.1016 155.188 74.5312V77.4414C155.344 77.2852 155.559 77.1875 155.812 77.1875C156.262 77.1875 156.633 77.5195 156.73 77.9688C156.887 77.6953 157.18 77.5 157.531 77.5C157.98 77.5 158.352 77.832 158.449 78.2812C158.586 78.1836 158.742 78.125 158.938 78.125ZM155.812 81.5625V79.6875C155.812 79.5312 155.656 79.375 155.5 79.375C155.324 79.375 155.188 79.5312 155.188 79.6875V81.5625C155.188 81.7383 155.324 81.875 155.5 81.875C155.656 81.875 155.812 81.7383 155.812 81.5625ZM157.062 81.5625V79.6875C157.062 79.5312 156.906 79.375 156.75 79.375C156.574 79.375 156.438 79.5312 156.438 79.6875V81.5625C156.438 81.7383 156.574 81.875 156.75 81.875C156.906 81.875 157.062 81.7383 157.062 81.5625ZM158.312 81.5625V79.6875C158.312 79.5312 158.156 79.375 158 79.375C157.824 79.375 157.688 79.5312 157.688 79.6875V81.5625C157.688 81.7383 157.824 81.875 158 81.875C158.156 81.875 158.312 81.7383 158.312 81.5625Z"/>
</mask>
<path d="M158.938 78.125C159.445 78.125 159.875 78.5547 159.875 79.0625V80.9375C159.875 82.5 158.605 83.75 157.062 83.75H155.188C154.348 83.75 153.547 83.3594 153.059 82.6953L151.281 80.3125C151.164 80.1758 151.125 80.0195 151.125 79.8633C151.125 79.4141 151.477 79.0625 151.887 79.0625C152.141 79.0625 152.375 79.1797 152.531 79.375L153.625 80.8398V74.5312C153.625 74.1016 153.957 73.75 154.406 73.75C154.836 73.75 155.188 74.1016 155.188 74.5312V77.4414C155.344 77.2852 155.559 77.1875 155.812 77.1875C156.262 77.1875 156.633 77.5195 156.73 77.9688C156.887 77.6953 157.18 77.5 157.531 77.5C157.98 77.5 158.352 77.832 158.449 78.2812C158.586 78.1836 158.742 78.125 158.938 78.125ZM155.812 81.5625V79.6875C155.812 79.5312 155.656 79.375 155.5 79.375C155.324 79.375 155.188 79.5312 155.188 79.6875V81.5625C155.188 81.7383 155.324 81.875 155.5 81.875C155.656 81.875 155.812 81.7383 155.812 81.5625ZM157.062 81.5625V79.6875C157.062 79.5312 156.906 79.375 156.75 79.375C156.574 79.375 156.438 79.5312 156.438 79.6875V81.5625C156.438 81.7383 156.574 81.875 156.75 81.875C156.906 81.875 157.062 81.7383 157.062 81.5625ZM158.312 81.5625V79.6875C158.312 79.5312 158.156 79.375 158 79.375C157.824 79.375 157.688 79.5312 157.688 79.6875V81.5625C157.688 81.7383 157.824 81.875 158 81.875C158.156 81.875 158.312 81.7383 158.312 81.5625Z" fill="#171A1D"/>
<path d="M153.059 82.6953L153.864 82.1029L153.86 82.0974L153.059 82.6953ZM151.281 80.3125L152.083 79.7146L152.063 79.6874L152.041 79.6617L151.281 80.3125ZM152.531 79.375L153.333 78.7767L153.323 78.7633L153.312 78.7503L152.531 79.375ZM153.625 80.8398L152.824 81.4381L154.625 83.8506V80.8398H153.625ZM155.188 77.4414H154.188V79.8556L155.895 78.1485L155.188 77.4414ZM156.73 77.9688L155.753 78.1812L156.307 80.7262L157.599 78.4649L156.73 77.9688ZM158.449 78.2812L157.472 78.4937L157.795 79.9777L159.03 79.095L158.449 78.2812ZM158.938 79.125C158.905 79.125 158.891 79.1117 158.89 79.1104C158.888 79.1092 158.875 79.0948 158.875 79.0625H160.875C160.875 78.0024 159.998 77.125 158.938 77.125V79.125ZM158.875 79.0625V80.9375H160.875V79.0625H158.875ZM158.875 80.9375C158.875 81.9432 158.058 82.75 157.062 82.75V84.75C159.153 84.75 160.875 83.0568 160.875 80.9375H158.875ZM157.062 82.75H155.188V84.75H157.062V82.75ZM155.188 82.75C154.651 82.75 154.155 82.4987 153.864 82.1029L152.253 83.2877C152.938 84.2201 154.045 84.75 155.188 84.75V82.75ZM153.86 82.0974L152.083 79.7146L150.48 80.9104L152.257 83.2932L153.86 82.0974ZM152.041 79.6617C152.072 79.6981 152.096 79.7428 152.111 79.7882C152.124 79.8303 152.125 79.8587 152.125 79.8633H150.125C150.125 80.1947 150.213 80.6023 150.522 80.9633L152.041 79.6617ZM152.125 79.8633C152.125 79.9336 152.061 80.0625 151.887 80.0625V78.0625C150.892 78.0625 150.125 78.8946 150.125 79.8633H152.125ZM151.887 80.0625C151.827 80.0625 151.778 80.0338 151.75 79.9997L153.312 78.7503C152.972 78.3256 152.454 78.0625 151.887 78.0625V80.0625ZM151.73 79.9733L152.824 81.4381L154.426 80.2416L153.333 78.7767L151.73 79.9733ZM154.625 80.8398V74.5312H152.625V80.8398H154.625ZM154.625 74.5312C154.625 74.5778 154.606 74.6345 154.56 74.6804C154.513 74.7289 154.452 74.75 154.406 74.75V72.75C153.388 72.75 152.625 73.5657 152.625 74.5312H154.625ZM154.406 74.75C154.284 74.75 154.188 74.6538 154.188 74.5312H156.188C156.188 73.5493 155.388 72.75 154.406 72.75V74.75ZM154.188 74.5312V77.4414H156.188V74.5312H154.188ZM155.895 78.1485C155.884 78.1593 155.868 78.1704 155.85 78.1783C155.83 78.1865 155.816 78.1875 155.812 78.1875V76.1875C155.288 76.1875 154.82 76.3943 154.48 76.7343L155.895 78.1485ZM155.812 78.1875C155.8 78.1875 155.787 78.1851 155.774 78.1801C155.761 78.1754 155.754 78.1698 155.75 78.1665C155.743 78.1604 155.749 78.1628 155.753 78.1812L157.708 77.7563C157.523 76.9055 156.789 76.1875 155.812 76.1875V78.1875ZM157.599 78.4649C157.595 78.4716 157.588 78.4794 157.577 78.4866C157.57 78.4905 157.562 78.4941 157.554 78.4966C157.544 78.4992 157.537 78.5 157.531 78.5V76.5C156.791 76.5 156.181 76.9146 155.862 77.4726L157.599 78.4649ZM157.531 78.5C157.519 78.5 157.505 78.4976 157.492 78.4926C157.48 78.4879 157.472 78.4823 157.468 78.479C157.461 78.4729 157.468 78.4753 157.472 78.4937L159.426 78.0688C159.241 77.218 158.508 76.5 157.531 76.5V78.5ZM159.03 79.095C159.028 79.0968 159.013 79.1068 158.988 79.1152C158.962 79.1238 158.942 79.125 158.938 79.125V77.125C158.518 77.125 158.161 77.2583 157.868 77.4675L159.03 79.095ZM156.812 81.5625V79.6875H154.812V81.5625H156.812ZM156.812 79.6875C156.812 79.2841 156.621 78.9645 156.422 78.7655C156.223 78.5666 155.903 78.375 155.5 78.375V80.375C155.253 80.375 155.089 80.2615 155.008 80.1798C154.926 80.098 154.812 79.9346 154.812 79.6875H156.812ZM155.5 78.375C154.732 78.375 154.188 79.0195 154.188 79.6875H156.188C156.188 79.895 156.102 80.058 156 80.1646C155.892 80.2771 155.718 80.375 155.5 80.375V78.375ZM154.188 79.6875V81.5625H156.188V79.6875H154.188ZM154.188 81.5625C154.188 82.2906 154.772 82.875 155.5 82.875V80.875C155.877 80.875 156.188 81.186 156.188 81.5625H154.188ZM155.5 82.875C156.168 82.875 156.812 82.3302 156.812 81.5625H154.812C154.812 81.3441 154.91 81.1705 155.023 81.0627C155.129 80.9606 155.293 80.875 155.5 80.875V82.875ZM158.062 81.5625V79.6875H156.062V81.5625H158.062ZM158.062 79.6875C158.062 79.2841 157.871 78.9645 157.672 78.7655C157.473 78.5666 157.153 78.375 156.75 78.375V80.375C156.503 80.375 156.339 80.2615 156.258 80.1798C156.176 80.098 156.062 79.9346 156.062 79.6875H158.062ZM156.75 78.375C155.982 78.375 155.438 79.0195 155.438 79.6875H157.438C157.438 79.895 157.352 80.058 157.25 80.1646C157.142 80.2771 156.968 80.375 156.75 80.375V78.375ZM155.438 79.6875V81.5625H157.438V79.6875H155.438ZM155.438 81.5625C155.438 82.2906 156.022 82.875 156.75 82.875V80.875C157.127 80.875 157.438 81.186 157.438 81.5625H155.438ZM156.75 82.875C157.418 82.875 158.062 82.3302 158.062 81.5625H156.062C156.062 81.3441 156.16 81.1705 156.273 81.0627C156.379 80.9606 156.543 80.875 156.75 80.875V82.875ZM159.312 81.5625V79.6875H157.312V81.5625H159.312ZM159.312 79.6875C159.312 79.2841 159.121 78.9645 158.922 78.7655C158.723 78.5666 158.403 78.375 158 78.375V80.375C157.753 80.375 157.589 80.2615 157.508 80.1798C157.426 80.098 157.312 79.9346 157.312 79.6875H159.312ZM158 78.375C157.232 78.375 156.688 79.0195 156.688 79.6875H158.688C158.688 79.895 158.602 80.058 158.5 80.1646C158.392 80.2771 158.218 80.375 158 80.375V78.375ZM156.688 79.6875V81.5625H158.688V79.6875H156.688ZM156.688 81.5625C156.688 82.2906 157.272 82.875 158 82.875V80.875C158.377 80.875 158.688 81.186 158.688 81.5625H156.688ZM158 82.875C158.668 82.875 159.312 82.3302 159.312 81.5625H157.312C157.312 81.3441 157.41 81.1705 157.523 81.0627C157.629 80.9606 157.793 80.875 158 80.875V82.875Z" fill="white" mask="url(#path-5-outside-1_102_6929)"/>
<defs>
<clipPath id="clip0_102_6929">
<rect x="130" y="62" width="36" height="17" rx="4" fill="white"/>
</clipPath>
</defs>
</svg>
