<svg width="296" height="141" viewBox="0 0 296 141" fill="none" xmlns="http://www.w3.org/2000/svg">
<path d="M89.5 58C89.5 56.067 91.067 54.5 93 54.5H203C204.933 54.5 206.5 56.067 206.5 58V67C206.5 68.933 204.933 70.5 203 70.5H93C91.067 70.5 89.5 68.933 89.5 67V58Z" fill="white"/>
<path d="M89.5 58C89.5 56.067 91.067 54.5 93 54.5H203C204.933 54.5 206.5 56.067 206.5 58V67C206.5 68.933 204.933 70.5 203 70.5H93C91.067 70.5 89.5 68.933 89.5 67V58Z" stroke="#8952E0"/>
<rect x="95" y="61" width="32" height="3" rx="1.5" fill="#D3D4D5"/>
<path d="M182.637 83.4883C182.865 83.6992 182.865 84.0684 182.637 84.2793C182.531 84.3848 182.391 84.4375 182.25 84.4375C182.092 84.4375 181.951 84.3848 181.846 84.2793L180 82.4336L178.137 84.2793C178.031 84.3848 177.891 84.4375 177.75 84.4375C177.592 84.4375 177.451 84.3848 177.346 84.2793C177.117 84.0684 177.117 83.6992 177.346 83.4883L179.191 81.625L177.346 79.7793C177.117 79.5684 177.117 79.1992 177.346 78.9883C177.557 78.7598 177.926 78.7598 178.137 78.9883L180 80.834L181.846 78.9883C182.057 78.7598 182.426 78.7598 182.637 78.9883C182.865 79.1992 182.865 79.5684 182.637 79.7793L180.791 81.6426L182.637 83.4883Z" fill="#ABADAF"/>
<path d="M201.762 78.9883C201.99 79.1992 201.99 79.5684 201.762 79.7793L197.262 84.2793C197.051 84.5078 196.682 84.5078 196.471 84.2793L194.221 82.0293C193.992 81.8184 193.992 81.4492 194.221 81.2383C194.432 81.0098 194.801 81.0098 195.012 81.2383L196.857 83.084L200.971 78.9883C201.182 78.7598 201.551 78.7598 201.762 78.9883Z" fill="#ABADAF"/>
</svg>
