<svg width="296" height="141" viewBox="0 0 296 141" fill="none" xmlns="http://www.w3.org/2000/svg">
<rect width="296" height="141" fill="#F1F1F2"/>
<path d="M82.5 36C82.5 32.9624 84.9624 30.5 88 30.5H207C210.038 30.5 212.5 32.9624 212.5 36V104C212.5 107.038 210.038 109.5 207 109.5H88C84.9624 109.5 82.5 107.038 82.5 104V36Z" fill="#F9FAFA"/>
<path d="M82.5 36C82.5 32.9624 84.9624 30.5 88 30.5H207C210.038 30.5 212.5 32.9624 212.5 36V104C212.5 107.038 210.038 109.5 207 109.5H88C84.9624 109.5 82.5 107.038 82.5 104V36Z" stroke="#D3D4D5"/>
<mask id="path-2-inside-1_102_6980" fill="white">
<path d="M83 30H212V42H83V30Z"/>
</mask>
<path d="M212 41H83V43H212V41Z" fill="#E7E7E8" mask="url(#path-2-inside-1_102_6980)"/>
<rect x="89" y="34" width="4" height="4" rx="2" fill="#E53E3E"/>
<rect x="96" y="34" width="4" height="4" rx="2" fill="#FBC434"/>
<rect x="103" y="34" width="4" height="4" rx="2" fill="#0EA371"/>
<mask id="path-7-outside-2_102_6980" maskUnits="userSpaceOnUse" x="90" y="44" width="9" height="12" fill="black">
<rect fill="white" x="90" y="44" width="9" height="12"/>
<path d="M97.5859 51.207C97.5078 51.3828 97.332 51.5195 97.1367 51.5195H95.0859L95.9844 53.3555C96.1602 53.7461 96.0039 54.2148 95.6133 54.4102C95.2227 54.5859 94.7539 54.4297 94.5586 54.0391L93.6602 52.125L92.1953 53.8438C92.0977 53.9609 91.9609 54.0195 91.8438 54.0195C91.7852 54.0195 91.7266 54 91.668 53.9805C91.4922 53.9219 91.375 53.7461 91.375 53.5312V46.3633C91.375 46.168 91.4727 45.9922 91.6484 45.9336C91.8047 45.8555 92 45.875 92.1367 45.9922L97.4297 50.6797C97.6055 50.8164 97.6445 51.0312 97.5859 51.207Z"/>
</mask>
<path d="M97.5859 51.207C97.5078 51.3828 97.332 51.5195 97.1367 51.5195H95.0859L95.9844 53.3555C96.1602 53.7461 96.0039 54.2148 95.6133 54.4102C95.2227 54.5859 94.7539 54.4297 94.5586 54.0391L93.6602 52.125L92.1953 53.8438C92.0977 53.9609 91.9609 54.0195 91.8438 54.0195C91.7852 54.0195 91.7266 54 91.668 53.9805C91.4922 53.9219 91.375 53.7461 91.375 53.5312V46.3633C91.375 46.168 91.4727 45.9922 91.6484 45.9336C91.8047 45.8555 92 45.875 92.1367 45.9922L97.4297 50.6797C97.6055 50.8164 97.6445 51.0312 97.5859 51.207Z" fill="#171A1D"/>
<path d="M97.5859 51.207L98.4997 51.6132L98.5194 51.5691L98.5346 51.5233L97.5859 51.207ZM95.0859 51.5195V50.5195H93.4833L94.1877 51.9591L95.0859 51.5195ZM95.9844 53.3555L96.8963 52.9451L96.8897 52.9304L96.8826 52.9159L95.9844 53.3555ZM95.6133 54.4102L96.0236 55.3221L96.0422 55.3137L96.0605 55.3046L95.6133 54.4102ZM94.5586 54.0391L93.6534 54.464L93.6586 54.4752L93.6642 54.4863L94.5586 54.0391ZM93.6602 52.125L94.5654 51.7001L93.9059 50.295L92.8991 51.4763L93.6602 52.125ZM92.1953 53.8438L91.4342 53.1951L91.4271 53.2036L92.1953 53.8438ZM91.6484 45.9336L91.9647 46.8823L92.0321 46.8598L92.0957 46.828L91.6484 45.9336ZM92.1367 45.9922L92.7997 45.2436L92.7937 45.2382L92.7875 45.2329L92.1367 45.9922ZM97.4297 50.6797L96.7667 51.4283L96.7906 51.4495L96.8157 51.469L97.4297 50.6797ZM96.6721 50.8009C96.705 50.727 96.7553 50.6649 96.8216 50.6172C96.8898 50.5682 96.9975 50.5195 97.1367 50.5195V52.5195C97.7991 52.5195 98.2925 52.0795 98.4997 51.6132L96.6721 50.8009ZM97.1367 50.5195H95.0859V52.5195H97.1367V50.5195ZM94.1877 51.9591L95.0862 53.795L96.8826 52.9159L95.9842 51.08L94.1877 51.9591ZM95.0725 53.7658C95.0349 53.6824 95.0623 53.5676 95.1661 53.5157L96.0605 55.3046C96.9456 54.8621 97.2854 53.8098 96.8963 52.9451L95.0725 53.7658ZM95.2029 53.4982C95.2864 53.4607 95.4011 53.488 95.453 53.5918L93.6642 54.4863C94.1067 55.3713 95.1589 55.7112 96.0236 55.3221L95.2029 53.4982ZM95.4638 53.6142L94.5654 51.7001L92.7549 52.5499L93.6534 54.464L95.4638 53.6142ZM92.8991 51.4763L91.4342 53.1951L92.9564 54.4924L94.4212 52.7737L92.8991 51.4763ZM91.4271 53.2036C91.4727 53.1489 91.5296 53.105 91.5941 53.0741C91.6561 53.0443 91.7398 53.0195 91.8438 53.0195V55.0195C92.2715 55.0195 92.6849 54.8183 92.9635 54.4839L91.4271 53.2036ZM91.8438 53.0195C91.9235 53.0195 91.9801 53.0326 91.9984 53.0372C92.0084 53.0397 92.0134 53.0413 92.0102 53.0403C92.0061 53.039 92.0004 53.0372 91.9842 53.0318L91.3517 54.9292C91.3767 54.9375 91.5936 55.0195 91.8438 55.0195V53.0195ZM91.9842 53.0318C92.2829 53.1314 92.375 53.3898 92.375 53.5312H90.375C90.375 54.1024 90.7015 54.7124 91.3517 54.9292L91.9842 53.0318ZM92.375 53.5312V46.3633H90.375V53.5312H92.375ZM92.375 46.3633C92.375 46.4694 92.3075 46.768 91.9647 46.8823L91.3322 44.9849C90.6378 45.2164 90.375 45.8665 90.375 46.3633H92.375ZM92.0957 46.828C91.9046 46.9236 91.6652 46.9051 91.4859 46.7514L92.7875 45.2329C92.3348 44.8449 91.7048 44.7874 91.2012 45.0392L92.0957 46.828ZM91.4737 46.7408L96.7667 51.4283L98.0927 49.9311L92.7997 45.2436L91.4737 46.7408ZM96.8157 51.469C96.6108 51.3096 96.5812 51.059 96.6373 50.8908L98.5346 51.5233C98.7079 51.0035 98.6001 50.3232 98.0436 49.8903L96.8157 51.469Z" fill="white" mask="url(#path-7-outside-2_102_6980)"/>
<path d="M83 42H212V104C212 106.761 209.761 109 207 109H88C85.2386 109 83 106.761 83 104V42Z" fill="white"/>
<rect x="137" y="61" width="21" height="3" rx="1.5" fill="#ABADAF"/>
<rect x="116" y="67" width="63" height="3" rx="1.5" fill="#D3D4D5"/>
<rect x="116" y="73" width="40" height="3" rx="1.5" fill="#D3D4D5"/>
<rect x="159" y="73" width="20" height="3" rx="1.5" fill="#D3D4D5"/>
<path d="M133 84C133 82.8954 133.895 82 135 82H160C161.105 82 162 82.8954 162 84V88C162 89.1046 161.105 90 160 90H135C133.895 90 133 89.1046 133 88V84Z" fill="#ABADAF"/>
<rect x="137" y="85" width="21" height="2" rx="1" fill="white"/>
<g opacity="0.6">
<path d="M83 42H212V104C212 106.761 209.761 109 207 109H88C85.2386 109 83 106.761 83 104V42Z" fill="#171A1D"/>
</g>
<path d="M134 52C134 48.6863 136.686 46 140 46H202C205.314 46 208 48.6863 208 52V81C208 84.3137 205.314 87 202 87H140C136.686 87 134 84.3137 134 81V52Z" fill="white"/>
<path d="M134 52C134 48.6863 136.686 46 140 46H202C205.314 46 208 48.6863 208 52V81C208 84.3137 205.314 87 202 87H140C136.686 87 134 84.3137 134 81V52Z" stroke="#D3D4D5"/>
<path d="M144 52.25C145.652 52.25 147 53.5977 147 55.25C147 56.9141 145.652 58.25 144 58.25C142.336 58.25 141 56.9141 141 55.25C141 53.5977 142.336 52.25 144 52.25ZM143.719 54.0312V55.5312C143.719 55.6953 143.836 55.8125 144 55.8125C144.152 55.8125 144.281 55.6953 144.281 55.5312V54.0312C144.281 53.8789 144.152 53.75 144 53.75C143.836 53.75 143.719 53.8789 143.719 54.0312ZM144 56.9375C144.199 56.9375 144.363 56.7734 144.363 56.5742C144.363 56.375 144.199 56.2109 144 56.2109C143.789 56.2109 143.625 56.375 143.625 56.5742C143.625 56.7734 143.789 56.9375 144 56.9375Z" fill="#E53E3E"/>
<rect x="149" y="54" width="28" height="3" rx="1.5" fill="#E53E3E"/>
<rect x="149" y="61" width="44" height="3" rx="1.5" fill="#D3D4D5"/>
<rect x="149" y="67" width="27" height="3" rx="1.5" fill="#D3D4D5"/>
<rect x="175" y="75" width="11" height="3" rx="1.5" fill="#ABADAF"/>
<rect x="189" y="75" width="11" height="3" rx="1.5" fill="#E53E3E"/>
<path d="M202.758 55.9922C202.91 56.1328 202.91 56.3789 202.758 56.5195C202.688 56.5898 202.594 56.625 202.5 56.625C202.395 56.625 202.301 56.5898 202.23 56.5195L201 55.2891L199.758 56.5195C199.688 56.5898 199.594 56.625 199.5 56.625C199.395 56.625 199.301 56.5898 199.23 56.5195C199.078 56.3789 199.078 56.1328 199.23 55.9922L200.461 54.75L199.23 53.5195C199.078 53.3789 199.078 53.1328 199.23 52.9922C199.371 52.8398 199.617 52.8398 199.758 52.9922L201 54.2227L202.23 52.9922C202.371 52.8398 202.617 52.8398 202.758 52.9922C202.91 53.1328 202.91 53.3789 202.758 53.5195L201.527 54.7617L202.758 55.9922Z" fill="#ABADAF"/>
</svg>
