<svg width="296" height="141" viewBox="0 0 296 141" fill="none" xmlns="http://www.w3.org/2000/svg">
<rect width="296" height="141" fill="#F1F1F2"/>
<path d="M113.5 61C113.5 57.9624 115.962 55.5 119 55.5H177C180.038 55.5 182.5 57.9624 182.5 61V80C182.5 83.0376 180.038 85.5 177 85.5H119C115.962 85.5 113.5 83.0376 113.5 80V61Z" fill="white"/>
<path d="M113.5 61C113.5 57.9624 115.962 55.5 119 55.5H177C180.038 55.5 182.5 57.9624 182.5 61V80C182.5 83.0376 180.038 85.5 177 85.5H119C115.962 85.5 113.5 83.0376 113.5 80V61Z" stroke="#D3D4D5"/>
<rect x="142.5" y="61.5" width="19" height="6" rx="3" fill="#8952E0"/>
<rect x="121" y="63" width="20" height="3" rx="1.5" fill="#D3D4D5"/>
<rect x="144" y="63" width="16" height="3" rx="1.5" fill="#D3D4D5"/>
<rect x="163" y="63" width="11" height="3" rx="1.5" fill="#D3D4D5"/>
<rect x="139.5" y="73.5" width="11" height="6" rx="3" fill="#8952E0"/>
<rect x="121" y="69" width="28" height="3" rx="1.5" fill="#D3D4D5"/>
<rect x="152" y="69" width="13" height="3" rx="1.5" fill="#D3D4D5"/>
<rect x="168" y="69" width="6" height="3" rx="1.5" fill="#D3D4D5"/>
<rect x="121" y="75" width="17" height="3" rx="1.5" fill="#D3D4D5"/>
<rect x="141" y="75" width="8" height="3" rx="1.5" fill="#D3D4D5"/>
<rect x="152" y="75" width="17" height="3" rx="1.5" fill="#D3D4D5"/>
</svg>
