<svg width="296" height="141" viewBox="0 0 296 141" fill="none" xmlns="http://www.w3.org/2000/svg">
<rect width="296" height="141" fill="#F1F1F2"/>
<path d="M82.5 33C82.5 29.9624 84.9624 27.5 88 27.5H208C211.038 27.5 213.5 29.9624 213.5 33V108C213.5 111.038 211.038 113.5 208 113.5H88C84.9624 113.5 82.5 111.038 82.5 108V33Z" fill="white"/>
<path d="M82.5 33C82.5 29.9624 84.9624 27.5 88 27.5H208C211.038 27.5 213.5 29.9624 213.5 33V108C213.5 111.038 211.038 113.5 208 113.5H88C84.9624 113.5 82.5 111.038 82.5 108V33Z" stroke="#D3D4D5"/>
<mask id="path-2-inside-1_78_6220" fill="white">
<path d="M83 33C83 30.2386 85.2386 28 88 28H208C210.761 28 213 30.2386 213 33V40H83V33Z"/>
</mask>
<path d="M83 33C83 30.2386 85.2386 28 88 28H208C210.761 28 213 30.2386 213 33V40H83V33Z" fill="#F9FAFA"/>
<path d="M83 28H213H83ZM213 41H83V39H213V41ZM83 40V28V40ZM213 28V40V28Z" fill="#E7E7E8" mask="url(#path-2-inside-1_78_6220)"/>
<rect x="89" y="32" width="4" height="4" rx="2" fill="#E53E3E"/>
<rect x="96" y="32" width="4" height="4" rx="2" fill="#FBC434"/>
<rect x="103" y="32" width="4" height="4" rx="2" fill="#0EA371"/>
<rect x="127" y="50" width="42" height="3" rx="1.5" fill="#8952E0"/>
<rect x="129" y="56" width="28" height="3" rx="1.5" fill="#D3D4D5"/>
<rect x="160" y="56" width="7" height="3" rx="1.5" fill="#D3D4D5"/>
<g clip-path="url(#clip0_78_6220)">
<path fill-rule="evenodd" clip-rule="evenodd" d="M153.425 82.243C153.541 82.3539 153.687 82.4122 153.839 82.4122V82.4181C153.991 82.4181 154.136 82.3656 154.253 82.2489C154.481 82.0214 154.481 81.6539 154.253 81.4264L149.66 76.8334C149.654 76.8265 149.647 76.8198 149.64 76.8131L147.188 74.3616C147.178 74.351 147.168 74.3408 147.158 74.3311L142.581 69.7539C142.353 69.5264 141.986 69.5264 141.758 69.7539C141.531 69.9814 141.531 70.3489 141.758 70.5764L143.969 72.7872C142.983 73.5806 142.184 74.5956 141.641 75.7447C141.566 75.8964 141.566 76.0714 141.63 76.2231L141.633 76.2292C141.746 76.4827 143.625 80.6622 148 80.6622H148.017C149.085 80.6622 150.129 80.388 151.056 79.8747L153.425 82.243ZM145.979 74.7977L144.803 73.6214C143.981 74.2624 143.305 75.078 142.821 76.0043C143.249 76.8302 144.865 79.4956 148.006 79.4956H148.017C148.776 79.4956 149.516 79.3264 150.193 79.0114L149.203 78.0209C149.11 78.0797 149.012 78.1321 148.91 78.1772C148.618 78.3056 148.315 78.3756 148 78.3814H147.959V78.3697C147.661 78.3697 147.364 78.3114 147.084 78.2006C146.792 78.0839 146.53 77.9089 146.308 77.6872C146.086 77.4656 145.911 77.2031 145.795 76.9114C145.678 76.6139 145.62 76.3106 145.626 75.9956C145.626 75.6806 145.696 75.3772 145.824 75.0914C145.869 74.9885 145.921 74.8907 145.979 74.7977ZM148.332 77.1505L146.851 75.6689C146.813 75.7822 146.792 75.8989 146.792 76.0189C146.792 76.1764 146.816 76.3281 146.88 76.4797C146.938 76.6256 147.026 76.7539 147.136 76.8647C147.247 76.9756 147.381 77.0631 147.521 77.1214C147.667 77.1797 147.825 77.2089 147.982 77.2089C148.102 77.2089 148.219 77.1886 148.332 77.1505Z" fill="#ABADAF"/>
<path d="M152.497 78.0139C152.608 78.1014 152.736 78.1422 152.865 78.1422C153.034 78.1422 153.203 78.0722 153.32 77.9264C153.734 77.4131 154.09 76.8472 154.37 76.2464C154.44 76.0947 154.44 75.9197 154.376 75.7681C154.3 75.5872 152.421 71.3289 148.006 71.3289C147.737 71.3289 147.463 71.3464 147.195 71.3814C146.874 71.4164 146.646 71.7081 146.687 72.0289C146.722 72.3497 147.014 72.5714 147.335 72.5364C147.556 72.5072 147.784 72.4956 148.006 72.4956C151.15 72.4956 152.771 75.1672 153.191 75.9897C152.97 76.4156 152.707 76.8181 152.41 77.1914C152.206 77.4422 152.246 77.8097 152.497 78.0139Z" fill="#ABADAF"/>
<rect x="115.5" y="65.5" width="65" height="21" rx="5.5" stroke="#D3D4D5" stroke-linejoin="round" stroke-dasharray="2 2"/>
</g>
<rect x="115" y="93" width="66" height="3" rx="1.5" fill="#D3D4D5"/>
<rect x="115" y="99" width="28" height="3" rx="1.5" fill="#D3D4D5"/>
<defs>
<clipPath id="clip0_78_6220">
<path d="M115 71C115 67.6863 117.686 65 121 65H175C178.314 65 181 67.6863 181 71V81C181 84.3137 178.314 87 175 87H121C117.686 87 115 84.3137 115 81V71Z" fill="white"/>
</clipPath>
</defs>
</svg>
