<svg width="296" height="141" viewBox="0 0 296 141" fill="none" xmlns="http://www.w3.org/2000/svg">
<rect width="296" height="141" fill="#F1F1F2"/>
<path d="M112.5 42C112.5 38.9624 114.962 36.5 118 36.5H178C181.038 36.5 183.5 38.9624 183.5 42V99C183.5 102.038 181.038 104.5 178 104.5H118C114.962 104.5 112.5 102.038 112.5 99V42Z" fill="white"/>
<path d="M112.5 42C112.5 38.9624 114.962 36.5 118 36.5H178C181.038 36.5 183.5 38.9624 183.5 42V99C183.5 102.038 181.038 104.5 178 104.5H118C114.962 104.5 112.5 102.038 112.5 99V42Z" stroke="#D3D4D5"/>
<rect x="122" y="46" width="36" height="3" rx="1.5" fill="#ABADAF"/>
<rect x="122" y="54" width="39" height="3" rx="1.5" fill="#D3D4D5"/>
<rect x="164" y="54" width="11" height="3" rx="1.5" fill="#D3D4D5"/>
<path fill-rule="evenodd" clip-rule="evenodd" d="M153.425 77.243C153.541 77.3539 153.687 77.4122 153.839 77.4122V77.4181C153.991 77.4181 154.136 77.3656 154.253 77.2489C154.481 77.0214 154.481 76.6539 154.253 76.4264L149.66 71.8334C149.654 71.8265 149.647 71.8198 149.64 71.8131L147.188 69.3616C147.178 69.351 147.168 69.3408 147.158 69.3311L142.581 64.7539C142.353 64.5264 141.986 64.5264 141.758 64.7539C141.531 64.9814 141.531 65.3489 141.758 65.5764L143.969 67.7872C142.983 68.5806 142.184 69.5956 141.641 70.7447C141.566 70.8964 141.566 71.0714 141.63 71.2231L141.633 71.2292C141.746 71.4827 143.625 75.6622 148 75.6622H148.017C149.085 75.6622 150.129 75.388 151.056 74.8747L153.425 77.243ZM145.979 69.7977L144.803 68.6214C143.981 69.2624 143.305 70.078 142.821 71.0043C143.249 71.8302 144.865 74.4956 148.006 74.4956H148.017C148.776 74.4956 149.516 74.3264 150.193 74.0114L149.203 73.0209C149.11 73.0797 149.012 73.1321 148.91 73.1772C148.618 73.3056 148.315 73.3756 148 73.3814H147.959V73.3697C147.661 73.3697 147.364 73.3114 147.084 73.2006C146.792 73.0839 146.53 72.9089 146.308 72.6872C146.086 72.4656 145.911 72.2031 145.795 71.9114C145.678 71.6139 145.62 71.3106 145.626 70.9956C145.626 70.6806 145.696 70.3772 145.824 70.0914C145.869 69.9885 145.921 69.8907 145.979 69.7977ZM148.332 72.1505L146.851 70.6689C146.813 70.7822 146.792 70.8989 146.792 71.0189C146.792 71.1764 146.816 71.3281 146.88 71.4797C146.938 71.6256 147.026 71.7539 147.136 71.8647C147.247 71.9756 147.381 72.0631 147.521 72.1214C147.667 72.1797 147.825 72.2089 147.982 72.2089C148.102 72.2089 148.219 72.1886 148.332 72.1505Z" fill="#ABADAF"/>
<path d="M152.497 73.0139C152.608 73.1014 152.736 73.1422 152.865 73.1422C153.034 73.1422 153.203 73.0722 153.32 72.9264C153.734 72.4131 154.09 71.8472 154.37 71.2464C154.44 71.0947 154.44 70.9197 154.376 70.7681C154.3 70.5872 152.421 66.3289 148.006 66.3289C147.737 66.3289 147.463 66.3464 147.195 66.3814C146.874 66.4164 146.646 66.7081 146.687 67.0289C146.722 67.3497 147.014 67.5714 147.335 67.5364C147.556 67.5072 147.784 67.4956 148.006 67.4956C151.15 67.4956 152.771 70.1672 153.191 70.9897C152.97 71.4156 152.707 71.8181 152.41 72.1914C152.206 72.4422 152.246 72.8097 152.497 73.0139Z" fill="#ABADAF"/>
<rect x="122" y="85" width="53" height="3" rx="1.5" fill="#D3D4D5"/>
<rect x="122" y="91" width="30" height="3" rx="1.5" fill="#D3D4D5"/>
<rect x="122.5" y="60.5" width="51" height="21" rx="5.5" stroke="#D3D4D5" stroke-linejoin="round" stroke-dasharray="2 2"/>
</svg>
