<svg width="296" height="141" viewBox="0 0 296 141" fill="none" xmlns="http://www.w3.org/2000/svg">
<rect width="296" height="141" fill="#F1F1F2"/>
<mask id="path-1-inside-1_99_10079" fill="white">
<path d="M64 31C64 28.7909 65.7909 27 68 27H114C116.209 27 118 28.7909 118 31V110C118 112.209 116.209 114 114 114H68C65.7909 114 64 112.209 64 110V31Z"/>
</mask>
<path d="M64 31C64 28.7909 65.7909 27 68 27H114C116.209 27 118 28.7909 118 31V110C118 112.209 116.209 114 114 114H68C65.7909 114 64 112.209 64 110V31Z" fill="white"/>
<path d="M68 28H114V26H68V28ZM117 31V110H119V31H117ZM114 113H68V115H114V113ZM65 110V31H63V110H65ZM68 113C66.3431 113 65 111.657 65 110H63C63 112.761 65.2386 115 68 115V113ZM117 110C117 111.657 115.657 113 114 113V115C116.761 115 119 112.761 119 110H117ZM114 28C115.657 28 117 29.3431 117 31H119C119 28.2386 116.761 26 114 26V28ZM68 26C65.2386 26 63 28.2386 63 31H65C65 29.3431 66.3431 28 68 28V26Z" fill="#E7E7E8" mask="url(#path-1-inside-1_99_10079)"/>
<rect x="70" y="35" width="10" height="3" rx="1.5" fill="#ABADAF"/>
<rect x="106" y="35" width="6" height="3" rx="1.5" fill="#D3D4D5"/>
<rect x="70" y="41" width="25" height="3" rx="1.5" fill="#D3D4D5"/>
<path d="M70.5 56C70.5 52.9624 72.9624 50.5 76 50.5H105C108.038 50.5 110.5 52.9624 110.5 56V68C110.5 71.0376 108.038 73.5 105 73.5H76C72.9624 73.5 70.5 71.0376 70.5 68V56Z" fill="white"/>
<path d="M70.5 56C70.5 52.9624 72.9624 50.5 76 50.5H105C108.038 50.5 110.5 52.9624 110.5 56V68C110.5 71.0376 108.038 73.5 105 73.5H76C72.9624 73.5 70.5 71.0376 70.5 68V56Z" stroke="#D3D4D5"/>
<path d="M82 61.75C82 63.4141 80.6523 64.75 79 64.75C77.3359 64.75 76 63.4141 76 61.75C76 60.0977 77.3359 58.75 79 58.75C80.6523 58.75 82 60.0977 82 61.75Z" fill="#D3D4D5"/>
<rect x="86" y="58" width="18" height="3" rx="1.5" fill="#D3D4D5"/>
<rect x="86" y="63" width="10" height="3" rx="1.5" fill="#D3D4D5"/>
<mask id="path-10-inside-2_99_10079" fill="white">
<path d="M122 31C122 28.7909 123.791 27 126 27H171C173.209 27 175 28.7909 175 31V110C175 112.209 173.209 114 171 114H126C123.791 114 122 112.209 122 110V31Z"/>
</mask>
<path d="M122 31C122 28.7909 123.791 27 126 27H171C173.209 27 175 28.7909 175 31V110C175 112.209 173.209 114 171 114H126C123.791 114 122 112.209 122 110V31Z" fill="white"/>
<path d="M126 28H171V26H126V28ZM174 31V110H176V31H174ZM171 113H126V115H171V113ZM123 110V31H121V110H123ZM126 113C124.343 113 123 111.657 123 110H121C121 112.761 123.239 115 126 115V113ZM174 110C174 111.657 172.657 113 171 113V115C173.761 115 176 112.761 176 110H174ZM171 28C172.657 28 174 29.3431 174 31H176C176 28.2386 173.761 26 171 26V28ZM126 26C123.239 26 121 28.2386 121 31H123C123 29.3431 124.343 28 126 28V26Z" fill="#E7E7E8" mask="url(#path-10-inside-2_99_10079)"/>
<rect x="128" y="35" width="10" height="3" rx="1.5" fill="#ABADAF"/>
<rect x="163" y="35" width="6" height="3" rx="1.5" fill="#0EA371"/>
<rect x="128" y="41" width="25" height="3" rx="1.5" fill="#D3D4D5"/>
<path d="M128.5 56C128.5 52.9624 130.962 50.5 134 50.5H163C166.038 50.5 168.5 52.9624 168.5 56V68C168.5 71.0376 166.038 73.5 163 73.5H134C130.962 73.5 128.5 71.0376 128.5 68V56Z" fill="white"/>
<path d="M128.5 56C128.5 52.9624 130.962 50.5 134 50.5H163C166.038 50.5 168.5 52.9624 168.5 56V68C168.5 71.0376 166.038 73.5 163 73.5H134C130.962 73.5 128.5 71.0376 128.5 68V56Z" stroke="#D3D4D5"/>
<path d="M134 61.75C134 60.0977 135.336 58.75 137 58.75C138.652 58.75 140 60.0977 140 61.75C140 63.4141 138.652 64.75 137 64.75C135.336 64.75 134 63.4141 134 61.75ZM137 62.875C137.621 62.875 138.125 62.3711 138.125 61.75C138.125 61.1289 137.621 60.625 137 60.625C136.367 60.625 135.875 61.1289 135.875 61.75C135.875 62.3711 136.367 62.875 137 62.875Z" fill="#0EA371"/>
<rect x="144" y="58" width="18" height="3" rx="1.5" fill="#D3D4D5"/>
<rect x="144" y="63" width="10" height="3" rx="1.5" fill="#D3D4D5"/>
<mask id="path-19-inside-3_99_10079" fill="white">
<path d="M179 31C179 28.7909 180.791 27 183 27H228C230.209 27 232 28.7909 232 31V110C232 112.209 230.209 114 228 114H183C180.791 114 179 112.209 179 110V31Z"/>
</mask>
<path d="M179 31C179 28.7909 180.791 27 183 27H228C230.209 27 232 28.7909 232 31V110C232 112.209 230.209 114 228 114H183C180.791 114 179 112.209 179 110V31Z" fill="white"/>
<path d="M183 28H228V26H183V28ZM231 31V110H233V31H231ZM228 113H183V115H228V113ZM180 110V31H178V110H180ZM183 113C181.343 113 180 111.657 180 110H178C178 112.761 180.239 115 183 115V113ZM231 110C231 111.657 229.657 113 228 113V115C230.761 115 233 112.761 233 110H231ZM228 28C229.657 28 231 29.3431 231 31H233C233 28.2386 230.761 26 228 26V28ZM183 26C180.239 26 178 28.2386 178 31H180C180 29.3431 181.343 28 183 28V26Z" fill="#E7E7E8" mask="url(#path-19-inside-3_99_10079)"/>
<rect x="185" y="35" width="10" height="3" rx="1.5" fill="#ABADAF"/>
<rect x="220" y="35" width="6" height="3" rx="1.5" fill="#8952E0"/>
<rect x="185" y="41" width="25" height="3" rx="1.5" fill="#D3D4D5"/>
<path d="M185.5 56C185.5 52.9624 187.962 50.5 191 50.5H220C223.038 50.5 225.5 52.9624 225.5 56V68C225.5 71.0376 223.038 73.5 220 73.5H191C187.962 73.5 185.5 71.0376 185.5 68V56Z" fill="white"/>
<path d="M185.5 56C185.5 52.9624 187.962 50.5 191 50.5H220C223.038 50.5 225.5 52.9624 225.5 56V68C225.5 71.0376 223.038 73.5 220 73.5H191C187.962 73.5 185.5 71.0376 185.5 68V56Z" stroke="#D3D4D5"/>
<path d="M191 61.75C191 60.0977 192.336 58.75 194 58.75C195.652 58.75 197 60.0977 197 61.75C197 63.4141 195.652 64.75 194 64.75C192.336 64.75 191 63.4141 191 61.75ZM195.348 61.2344C195.477 61.1055 195.477 60.9062 195.348 60.7773C195.219 60.6484 195.02 60.6484 194.891 60.7773L193.625 62.043L193.098 61.5273C192.969 61.3984 192.77 61.3984 192.641 61.5273C192.512 61.6562 192.512 61.8555 192.641 61.9844L193.391 62.7344C193.52 62.8633 193.719 62.8633 193.848 62.7344L195.348 61.2344Z" fill="#8952E0"/>
<rect x="201" y="58" width="18" height="3" rx="1.5" fill="#D3D4D5"/>
<rect x="201" y="63" width="10" height="3" rx="1.5" fill="#D3D4D5"/>
<path d="M185.5 84C185.5 80.9624 187.962 78.5 191 78.5H220C223.038 78.5 225.5 80.9624 225.5 84V96C225.5 99.0376 223.038 101.5 220 101.5H191C187.962 101.5 185.5 99.0376 185.5 96V84Z" fill="white"/>
<path d="M185.5 84C185.5 80.9624 187.962 78.5 191 78.5H220C223.038 78.5 225.5 80.9624 225.5 84V96C225.5 99.0376 223.038 101.5 220 101.5H191C187.962 101.5 185.5 99.0376 185.5 96V84Z" stroke="#D3D4D5"/>
<path d="M191 89.75C191 88.0977 192.336 86.75 194 86.75C195.652 86.75 197 88.0977 197 89.75C197 91.4141 195.652 92.75 194 92.75C192.336 92.75 191 91.4141 191 89.75ZM195.348 89.2344C195.477 89.1055 195.477 88.9062 195.348 88.7773C195.219 88.6484 195.02 88.6484 194.891 88.7773L193.625 90.043L193.098 89.5273C192.969 89.3984 192.77 89.3984 192.641 89.5273C192.512 89.6562 192.512 89.8555 192.641 89.9844L193.391 90.7344C193.52 90.8633 193.719 90.8633 193.848 90.7344L195.348 89.2344Z" fill="#8952E0"/>
<rect x="201" y="86" width="18" height="3" rx="1.5" fill="#D3D4D5"/>
<rect x="201" y="91" width="10" height="3" rx="1.5" fill="#D3D4D5"/>
</svg>
